<svg width="20" height="20" viewBox="0 0 20 20" fill="none" xmlns="http://www.w3.org/2000/svg">
<path fill-rule="evenodd" clip-rule="evenodd" d="M2.38462 2.5C1.61991 2.5 1 3.11053 1 3.86366V5.90916V14.0911V16.1366C1 16.8898 1.61991 17.5003 2.38462 17.5003H5.84615H10H14.1538H17.6154C18.3801 17.5003 19 16.8898 19 16.1366V14.0911V5.90916V3.86366C19 3.11053 18.3801 2.5 17.6154 2.5H14.1538H10H5.84615H2.38462ZM17.6154 16.1366H14.8462V14.773H17.6154V16.1366ZM13.4615 16.1366V14.773H10.6923V16.1366H13.4615ZM6.53846 16.1366H9.30769V14.773H6.53846V16.1366ZM5.15385 14.773V16.1366H2.38462V14.773H5.15385ZM10.6923 3.86366H13.4615V5.22732H10.6923V3.86366ZM14.8462 3.86366V5.22732H17.6154V3.86366H14.8462ZM5.15385 3.86366H2.38462V5.22732H5.15385V3.86366ZM6.53846 5.22732V3.86366H9.30769V5.22732H6.53846Z" fill="#BB4EF2"/>
<path d="M12.3818 9.58779C12.7353 9.77465 12.7353 10.226 12.3818 10.4129L9.2388 12.0739C8.87476 12.2663 8.41162 12.0353 8.41162 11.6614V8.33925C8.41162 7.96531 8.87476 7.73433 9.2388 7.92672L12.3818 9.58779Z" fill="white"/>
</svg>
