<svg width="112" height="112" viewBox="0 0 112 112" fill="none" xmlns="http://www.w3.org/2000/svg">
<g filter="url(#filter0_d_762_33633)">
<rect x="12" y="10" width="88" height="88" rx="44" fill="#3D4451" shape-rendering="crispEdges"/>
<path fill-rule="evenodd" clip-rule="evenodd" d="M47.6667 47.1682C47.6667 48.2408 47.1506 49.2478 46.2799 49.8741C45.4467 50.4736 44.8231 51.3339 44.5261 52.3335H67.4739C67.1769 51.3339 66.5533 50.4736 65.7201 49.8741C64.8494 49.2478 64.3333 48.2408 64.3333 47.1682V39.0002C64.3333 34.3978 60.6024 30.6668 56 30.6668C51.3976 30.6668 47.6667 34.3978 47.6667 39.0002V47.1682ZM44.3333 39.0002C44.3333 32.5568 49.5567 27.3335 56 27.3335C62.4433 27.3335 67.6667 32.5568 67.6667 39.0002V47.1682C69.6854 48.6205 71 50.9901 71 53.6668C71 54.7714 70.1046 55.6668 69 55.6668H43C41.8954 55.6668 41 54.7714 41 53.6668C41 50.9901 42.3146 48.6205 44.3333 47.1682V39.0002Z" fill="#FFF381"/>
<path d="M48.1737 33.1306L54.6954 29.6523H57.3041L64.2606 33.1306L65.1302 45.7393L66.8693 49.6523L68.6085 54.0002H46.4346L42.9563 52.6958L46.4346 46.6089L48.1737 33.1306Z" fill="#FFF381"/>
<path d="M61 57.3332C61 57.8803 60.8707 58.4222 60.6194 58.9277C60.3681 59.4332 59.9998 59.8925 59.5355 60.2794C59.0712 60.6664 58.52 60.9733 57.9134 61.1827C57.3068 61.3921 56.6566 61.4998 56 61.4998C55.3434 61.4998 54.6932 61.3921 54.0866 61.1827C53.48 60.9733 52.9288 60.6664 52.4645 60.2794C52.0002 59.8925 51.6319 59.4332 51.3806 58.9277C51.1293 58.4222 51 57.8803 51 57.3332L56 57.3332H61Z" fill="#FFF381"/>
<path d="M54.1367 72.6875H55.6602V73.6133H54.1367V75.8047H53.0234V70.4961H54.1367V72.6875ZM54.1367 78.9453H48.4648V79.9766H54.5V80.8672H47.375V78.1133H53.0352V77.1523H47.3516V76.2852H54.1367V78.9453ZM48.8047 70.8594C49.332 70.8594 49.8047 70.959 50.2227 71.1582C50.6406 71.3574 50.9668 71.6348 51.2012 71.9902C51.4395 72.3457 51.5586 72.75 51.5586 73.2031C51.5586 73.6562 51.4395 74.0605 51.2012 74.416C50.9668 74.7715 50.6406 75.0488 50.2227 75.248C49.8047 75.4473 49.332 75.5469 48.8047 75.5469C48.2773 75.5469 47.8027 75.4473 47.3809 75.248C46.9629 75.0488 46.6348 74.7715 46.3965 74.416C46.1621 74.0605 46.0469 73.6562 46.0508 73.2031C46.0469 72.75 46.1621 72.3457 46.3965 71.9902C46.6348 71.6348 46.9629 71.3574 47.3809 71.1582C47.8027 70.959 48.2773 70.8594 48.8047 70.8594ZM48.8047 71.7734C48.4844 71.7734 48.1953 71.834 47.9375 71.9551C47.6836 72.0723 47.4844 72.2402 47.3398 72.459C47.1992 72.6738 47.1289 72.9219 47.1289 73.2031C47.1289 73.4844 47.2012 73.7363 47.3457 73.959C47.4902 74.1777 47.6895 74.3496 47.9434 74.4746C48.1973 74.5957 48.4844 74.6562 48.8047 74.6562C49.1211 74.6562 49.4062 74.5957 49.6602 74.4746C49.918 74.3496 50.1191 74.1777 50.2637 73.959C50.4082 73.7363 50.4805 73.4844 50.4805 73.2031C50.4805 72.9219 50.4082 72.6738 50.2637 72.459C50.1191 72.2402 49.9199 72.0723 49.666 71.9551C49.4121 71.834 49.125 71.7734 48.8047 71.7734ZM64.9648 76.7305H63.8516V70.5078H64.9648V76.7305ZM61.6133 74.082H57.8984V75.3477H58.1211C59.0234 75.3477 59.8242 75.3242 60.5234 75.2773C61.2227 75.2305 61.9414 75.1484 62.6797 75.0312L62.8203 75.9453C62.0586 76.0625 61.3164 76.1445 60.5938 76.1914C59.875 76.2383 59.0547 76.2617 58.1328 76.2617H57.6875H56.8086V73.2148H60.5117V72.0195H56.7852V71.1289H61.6133V74.082ZM64.9648 80.8672H58.0625V77.2578H64.9648V80.8672ZM59.1641 79.9648H63.875V78.1484H59.1641V79.9648Z" fill="#FFF381"/>
</g>
<defs>
<filter id="filter0_d_762_33633" x="0" y="0" width="112" height="112" filterUnits="userSpaceOnUse" color-interpolation-filters="sRGB">
<feFlood flood-opacity="0" result="BackgroundImageFix"/>
<feColorMatrix in="SourceAlpha" type="matrix" values="0 0 0 0 0 0 0 0 0 0 0 0 0 0 0 0 0 0 127 0" result="hardAlpha"/>
<feOffset dy="2"/>
<feGaussianBlur stdDeviation="6"/>
<feComposite in2="hardAlpha" operator="out"/>
<feColorMatrix type="matrix" values="0 0 0 0 0 0 0 0 0 0 0 0 0 0 0 0 0 0 0.05 0"/>
<feBlend mode="normal" in2="BackgroundImageFix" result="effect1_dropShadow_762_33633"/>
<feBlend mode="normal" in="SourceGraphic" in2="effect1_dropShadow_762_33633" result="shape"/>
</filter>
</defs>
</svg>
