<svg width="24" height="24" viewBox="0 0 24 24" fill="none" xmlns="http://www.w3.org/2000/svg">
<path fill-rule="evenodd" clip-rule="evenodd" d="M3 9.5C2.44772 9.5 2 9.94772 2 10.5V13.5C2 14.0523 2.44772 14.5 3 14.5H21C21.5523 14.5 22 14.0523 22 13.5V10.5C22 9.94772 21.5523 9.5 21 9.5H3ZM9.5 11.1667C9.22386 11.1667 9 11.3905 9 11.6667V12.3333C9 12.6095 9.22386 12.8333 9.5 12.8333H14.5C14.7761 12.8333 15 12.6095 15 12.3333V11.6667C15 11.3905 14.7761 11.1667 14.5 11.1667H9.5Z" fill="#2E343F"/>
<path fill-rule="evenodd" clip-rule="evenodd" d="M3 16.5C2.44772 16.5 2 16.9477 2 17.5V20.5C2 21.0523 2.44772 21.5 3 21.5H21C21.5523 21.5 22 21.0523 22 20.5V17.5C22 16.9477 21.5523 16.5 21 16.5H3ZM9.5 18.1667C9.22386 18.1667 9 18.3905 9 18.6667V19.3333C9 19.6095 9.22386 19.8333 9.5 19.8333H14.5C14.7761 19.8333 15 19.6095 15 19.3333V18.6667C15 18.3905 14.7761 18.1667 14.5 18.1667H9.5Z" fill="#2E343F"/>
<path fill-rule="evenodd" clip-rule="evenodd" d="M3 2.5C2.44772 2.5 2 2.94772 2 3.5V6.5C2 7.05228 2.44772 7.5 3 7.5H21C21.5523 7.5 22 7.05228 22 6.5V3.5C22 2.94772 21.5523 2.5 21 2.5H3ZM9.5 4.16667C9.22386 4.16667 9 4.39052 9 4.66667V5.33333C9 5.60948 9.22386 5.83333 9.5 5.83333H14.5C14.7761 5.83333 15 5.60948 15 5.33333V4.66667C15 4.39052 14.7761 4.16667 14.5 4.16667H9.5Z" fill="#2E343F"/>
</svg>
