<svg width="24" height="24" viewBox="0 0 24 24" fill="none" xmlns="http://www.w3.org/2000/svg">
<path fill-rule="evenodd" clip-rule="evenodd" d="M4.32756 4.11305C4.10647 4.76339 4.1362 5.42184 4.35283 6.00042H3C2.44772 6.00042 2 6.44813 2 7.00042V9.5H22V7.00042C22 6.44813 21.5523 6.00042 21 6.00042H20.0045C20.2207 5.42215 20.2503 4.76415 20.0294 4.11425C19.4033 2.27272 17.1431 1.60549 15.6173 2.81181L13.3959 4.56812C13.0355 4.21683 12.543 4.00042 12 4.00042C11.5386 4.00042 11.1137 4.15666 10.7753 4.41912L8.73971 2.81021C7.21374 1.60411 4.9536 2.27149 4.32756 4.11305ZM7.49953 4.37928L9.30244 5.80428L7.00459 5.8352C6.44107 5.84279 6.03973 5.29036 6.22113 4.75677C6.40252 4.22319 7.05739 4.02982 7.49953 4.37928ZM15.0565 5.8048L16.8577 4.38069C17.2997 4.03125 17.9544 4.22453 18.1358 4.75798C18.3171 5.29143 17.9158 5.8437 17.3525 5.83604L15.0565 5.8048Z" fill="#2E343F"/>
<path d="M21 10.5H15V22H14V10.5H10V22H9V10.5H3V21.0004C3 21.5527 3.44772 22.0004 4 22.0004H20C20.5523 22.0004 21 21.5527 21 21.0004V10.5Z" fill="#2E343F"/>
</svg>
