<svg width="24" height="24" viewBox="0 0 24 24" fill="none" xmlns="http://www.w3.org/2000/svg">
    <path d="M12 8C16.4183 8 20 6.88071 20 5.5C20 4.11929 16.4183 3 12 3C7.58172 3 4 4.11929 4 5.5C4 6.88071 7.58172 8 12 8Z" fill="#DDE2ED"/>
    <path fill-rule="evenodd" clip-rule="evenodd" d="M12 8C16.4183 8 20 6.88071 20 5.5V18C20 19.6569 16.4183 21 12 21C7.58172 21 4 19.6569 4 18V5.5C4 6.88071 7.58172 8 12 8Z" fill="white"/>
    <path fill-rule="evenodd" clip-rule="evenodd" d="M5.98526 2.58667C7.57774 2.08901 9.70406 1.7998 12 1.7998C14.296 1.7998 16.4223 2.08901 18.0148 2.58667C18.8039 2.83326 19.5298 3.15176 20.0844 3.56155C20.6156 3.95399 21.2 4.59514 21.2 5.49981V17.9998C21.2 18.8804 20.7198 19.5757 20.1674 20.0655C19.6137 20.5564 18.8808 20.9438 18.0782 21.2447C16.4642 21.85 14.3149 22.1998 12 22.1998C9.68511 22.1998 7.53587 21.85 5.92185 21.2447C5.11926 20.9438 4.38641 20.5564 3.83263 20.0655C3.28025 19.5757 2.80005 18.8804 2.80005 17.9998V5.49981C2.80005 4.59514 3.38448 3.95398 3.91564 3.56155C4.47028 3.15176 5.19616 2.83326 5.98526 2.58667ZM12 2.99981C7.58176 2.99981 4.00004 4.1191 4.00004 5.49981V17.9998C4.00004 19.6567 7.58176 20.9998 12 20.9998C16.4183 20.9998 20 19.6567 20 17.9998V5.49981C20 4.1191 16.4183 2.99981 12 2.99981Z" fill="#4D5564"/>
</svg>
