<svg width="56" height="76" viewBox="0 0 56 76" fill="none" xmlns="http://www.w3.org/2000/svg">
<circle cx="28" cy="28" r="28" fill="white"/>
<path d="M6.50195 67.4414H3.99414V69.4336C4.62305 69.4258 5.19727 69.4023 5.7168 69.3633C6.23633 69.3242 6.77148 69.2539 7.32227 69.1523L7.42773 70.2188C6.77539 70.3359 6.14648 70.4141 5.54102 70.4531C4.93945 70.4922 4.25195 70.5117 3.47852 70.5117H2.74023V66.4102H5.24805V64.5938H2.72852V63.5508H6.50195V67.4414ZM11.541 73.043H10.2988V62.4492H11.541V73.043ZM9.36133 72.5039H8.13086V67.1953H6.9707V66.1289H8.13086V62.6719H9.36133V72.5039ZM21.3848 64.6992C21.3848 65.375 21.377 65.9473 21.3613 66.416C21.3457 66.8848 21.3027 67.4141 21.2324 68.0039C21.166 68.5938 21.0605 69.2383 20.916 69.9375L19.6152 69.8203C19.8145 68.9648 19.9492 68.1348 20.0195 67.3301L13.7793 67.6523L13.6035 66.5977L20.084 66.3516C20.0996 65.9727 20.1074 65.4219 20.1074 64.6992V64.4883H13.9199V63.4336H21.3848V64.6992ZM22.4512 71.6953H12.7949V70.6289H22.4512V71.6953ZM27.2441 67.4414H24.7363V69.4336C25.3652 69.4258 25.9395 69.4023 26.459 69.3633C26.9785 69.3242 27.5137 69.2539 28.0645 69.1523L28.1699 70.2188C27.5176 70.3359 26.8887 70.4141 26.2832 70.4531C25.6816 70.4922 24.9941 70.5117 24.2207 70.5117H23.4824V66.4102H25.9902V64.5938H23.4707V63.5508H27.2441V67.4414ZM32.2832 73.043H31.041V62.4492H32.2832V73.043ZM30.1035 72.5039H28.873V67.1953H27.7129V66.1289H28.873V62.6719H30.1035V72.5039ZM42.3496 73.0547H41.0371V62.4492H42.3496V73.0547ZM36.6426 63.2227C37.1738 63.2227 37.6465 63.377 38.0605 63.6855C38.4785 63.9902 38.8066 64.4258 39.0449 64.9922C39.2832 65.5547 39.4043 66.2109 39.4082 66.9609C39.4043 67.7148 39.2832 68.375 39.0449 68.9414C38.8105 69.5078 38.4844 69.9453 38.0664 70.2539C37.6484 70.5586 37.1738 70.7109 36.6426 70.7109C36.1074 70.7109 35.6309 70.5586 35.2129 70.2539C34.7949 69.9453 34.4668 69.5078 34.2285 68.9414C33.9941 68.375 33.877 67.7148 33.877 66.9609C33.877 66.2109 33.9941 65.5547 34.2285 64.9922C34.4668 64.4258 34.7949 63.9902 35.2129 63.6855C35.6309 63.377 36.1074 63.2227 36.6426 63.2227ZM36.6426 64.3945C36.3418 64.3945 36.0762 64.4961 35.8457 64.6992C35.6191 64.9023 35.4434 65.1973 35.3184 65.584C35.1934 65.9707 35.1309 66.4297 35.1309 66.9609C35.1309 67.4961 35.1934 67.957 35.3184 68.3438C35.4434 68.7305 35.6191 69.0273 35.8457 69.2344C36.0762 69.4375 36.3418 69.5391 36.6426 69.5391C36.9395 69.5391 37.2012 69.4375 37.4277 69.2344C37.6543 69.0273 37.8301 68.7305 37.9551 68.3438C38.0801 67.957 38.1426 67.4961 38.1426 66.9609C38.1426 66.4297 38.0801 65.9727 37.9551 65.5898C37.8301 65.2031 37.6543 64.9082 37.4277 64.7051C37.2012 64.498 36.9395 64.3945 36.6426 64.3945ZM47.7637 64.3242C47.7637 64.8281 47.8574 65.3145 48.0449 65.7832C48.2324 66.252 48.5098 66.6719 48.877 67.043C49.248 67.4102 49.6973 67.6914 50.2246 67.8867L49.498 68.8945C48.9434 68.6758 48.4629 68.3574 48.0566 67.9395C47.6543 67.5215 47.3398 67.0312 47.1133 66.4688C46.8828 67.0664 46.5527 67.5879 46.123 68.0332C45.6973 68.4746 45.1855 68.8125 44.5879 69.0469L43.8848 68.0156C44.4316 67.8164 44.8965 67.5293 45.2793 67.1543C45.666 66.7793 45.957 66.3477 46.1523 65.8594C46.3477 65.3711 46.4473 64.8594 46.4512 64.3242V63.0586H47.7637V64.3242ZM52.7793 70.3242H51.4785V67.043H49.5449V66H51.4785V64.957H49.5449V63.9023H51.4785V62.4609H52.7793V70.3242ZM53.0137 72.832H45.7949V69.5508H47.1191V71.7773H53.0137V72.832Z" fill="#2E343F"/>
<mask id="path-3-inside-1_655_16313" fill="white">
<path fill-rule="evenodd" clip-rule="evenodd" d="M28.7789 35H27.2211C25.2584 38.0102 21.8616 40 18 40C11.9249 40 7 35.0751 7 29C7 23.0924 11.6569 18.2726 17.5 18.0112V18H18H38H38.5V18.0112C44.3431 18.2726 49 23.0924 49 29C49 35.0751 44.0751 40 38 40C34.1384 40 30.7416 38.0102 28.7789 35Z"/>
</mask>
<path fill-rule="evenodd" clip-rule="evenodd" d="M28.7789 35H27.2211C25.2584 38.0102 21.8616 40 18 40C11.9249 40 7 35.0751 7 29C7 23.0924 11.6569 18.2726 17.5 18.0112V18H18H38H38.5V18.0112C44.3431 18.2726 49 23.0924 49 29C49 35.0751 44.0751 40 38 40C34.1384 40 30.7416 38.0102 28.7789 35Z" fill="#F0F3FA"/>
<path d="M28.7789 35L30.0354 34.1807L29.5916 33.5H28.7789V35ZM27.2211 35V33.5H26.4084L25.9646 34.1807L27.2211 35ZM17.5 18.0112L17.567 19.5097L19 19.4456V18.0112H17.5ZM17.5 18V16.5H16V18H17.5ZM38.5 18H40V16.5H38.5V18ZM38.5 18.0112H37V19.4456L38.433 19.5097L38.5 18.0112ZM28.7789 33.5H27.2211V36.5H28.7789V33.5ZM25.9646 34.1807C24.267 36.7843 21.3335 38.5 18 38.5V41.5C22.3897 41.5 26.2497 39.2361 28.4776 35.8193L25.9646 34.1807ZM18 38.5C12.7533 38.5 8.5 34.2467 8.5 29H5.5C5.5 35.9036 11.0964 41.5 18 41.5V38.5ZM8.5 29C8.5 23.8984 12.5219 19.7354 17.567 19.5097L17.433 16.5127C10.792 16.8098 5.5 22.2865 5.5 29H8.5ZM19 18.0112V18H16V18.0112H19ZM17.5 19.5H18V16.5H17.5V19.5ZM18 19.5H38V16.5H18V19.5ZM38 19.5H38.5V16.5H38V19.5ZM37 18V18.0112H40V18H37ZM38.433 19.5097C43.4781 19.7354 47.5 23.8984 47.5 29H50.5C50.5 22.2865 45.208 16.8098 38.567 16.5127L38.433 19.5097ZM47.5 29C47.5 34.2467 43.2467 38.5 38 38.5V41.5C44.9036 41.5 50.5 35.9036 50.5 29H47.5ZM38 38.5C34.6665 38.5 31.733 36.7843 30.0354 34.1807L27.5224 35.8193C29.7503 39.2361 33.6103 41.5 38 41.5V38.5Z" fill="#1C222B" mask="url(#path-3-inside-1_655_16313)"/>
<circle cx="38.4998" cy="25.16" r="1.66" fill="#FFBDDA" stroke="#FF4193"/>
<circle cx="38.4998" cy="32.8397" r="1.66" fill="#EAC0FF" stroke="#BB4EF2"/>
<circle cx="34.66" cy="28.9998" r="1.66" fill="#FFBDDA" stroke="#FF4193"/>
<circle cx="42.3402" cy="28.9998" r="1.66" fill="#EAC0FF" stroke="#BB4EF2"/>
<mask id="path-9-inside-2_655_16313" fill="white">
<path fill-rule="evenodd" clip-rule="evenodd" d="M16.2727 23C15.7204 23 15.2727 23.4477 15.2727 24V26.2738H13C12.4477 26.2738 12 26.7215 12 27.2738V30.7283C12 31.2806 12.4477 31.7283 13 31.7283H15.2727V34C15.2727 34.5523 15.7204 35 16.2727 35H19.7273C20.2796 35 20.7273 34.5523 20.7273 34V31.7283H23C23.5523 31.7283 24 31.2806 24 30.7283V27.2738C24 26.7215 23.5523 26.2738 23 26.2738H20.7273V24C20.7273 23.4477 20.2796 23 19.7273 23H16.2727Z"/>
</mask>
<path fill-rule="evenodd" clip-rule="evenodd" d="M16.2727 23C15.7204 23 15.2727 23.4477 15.2727 24V26.2738H13C12.4477 26.2738 12 26.7215 12 27.2738V30.7283C12 31.2806 12.4477 31.7283 13 31.7283H15.2727V34C15.2727 34.5523 15.7204 35 16.2727 35H19.7273C20.2796 35 20.7273 34.5523 20.7273 34V31.7283H23C23.5523 31.7283 24 31.2806 24 30.7283V27.2738C24 26.7215 23.5523 26.2738 23 26.2738H20.7273V24C20.7273 23.4477 20.2796 23 19.7273 23H16.2727Z" fill="#BCC5D5"/>
<path d="M15.2727 26.2738V27.2738H16.2727V26.2738H15.2727ZM15.2727 31.7283H16.2727V30.7283H15.2727V31.7283ZM20.7273 31.7283V30.7283H19.7273V31.7283H20.7273ZM20.7273 26.2738H19.7273V27.2738H20.7273V26.2738ZM16.2727 24L16.2727 24V22C15.1682 22 14.2727 22.8954 14.2727 24H16.2727ZM16.2727 26.2738V24H14.2727V26.2738H16.2727ZM13 27.2738H15.2727V25.2738H13V27.2738ZM13 27.2738L13 27.2738V25.2738C11.8954 25.2738 11 26.1692 11 27.2738H13ZM13 30.7283V27.2738H11V30.7283H13ZM13 30.7283H13H11C11 31.8329 11.8954 32.7283 13 32.7283V30.7283ZM15.2727 30.7283H13V32.7283H15.2727V30.7283ZM16.2727 34V31.7283H14.2727V34H16.2727ZM16.2727 34H16.2727H14.2727C14.2727 35.1046 15.1682 36 16.2727 36V34ZM19.7273 34H16.2727V36H19.7273V34ZM19.7273 34H19.7273V36C20.8318 36 21.7273 35.1046 21.7273 34H19.7273ZM19.7273 31.7283V34H21.7273V31.7283H19.7273ZM23 30.7283H20.7273V32.7283H23V30.7283ZM23 30.7283V32.7283C24.1046 32.7283 25 31.8329 25 30.7283H23ZM23 27.2738V30.7283H25V27.2738H23ZM23 27.2738H25C25 26.1692 24.1046 25.2738 23 25.2738V27.2738ZM20.7273 27.2738H23V25.2738H20.7273V27.2738ZM19.7273 24V26.2738H21.7273V24H19.7273ZM19.7273 24H19.7273H21.7273C21.7273 22.8954 20.8318 22 19.7273 22V24ZM16.2727 24H19.7273V22H16.2727V24Z" fill="#3D4451" mask="url(#path-9-inside-2_655_16313)"/>
<path d="M26.5 29L29.5 29" stroke="#3D4451" stroke-width="1.5" stroke-linecap="round"/>
</svg>
