<svg width="56" height="76" viewBox="0 0 56 76" fill="none" xmlns="http://www.w3.org/2000/svg">
<circle cx="28" cy="28" r="28" fill="white"/>
<path d="M6.20898 64.9922C6.20508 65.625 6.30469 66.2461 6.50781 66.8555C6.71484 67.4609 7.01367 68.0039 7.4043 68.4844C7.79492 68.9648 8.25586 69.332 8.78711 69.5859L7.99023 70.6289C7.42773 70.3438 6.93945 69.9375 6.52539 69.4102C6.11523 68.8828 5.79492 68.2734 5.56445 67.582C5.32617 68.3203 4.99023 68.9727 4.55664 69.5391C4.12695 70.1016 3.61523 70.5312 3.02148 70.8281L2.22461 69.7852C2.77539 69.5234 3.25195 69.1426 3.6543 68.6426C4.06055 68.1387 4.36914 67.5703 4.58008 66.9375C4.79492 66.3008 4.9043 65.6523 4.9082 64.9922V63.3047H6.20898V64.9922ZM10.7207 66.5977H12.3496V67.7109H10.7207V73.043H9.41992V62.4492H10.7207V66.5977ZM22.4512 68.5898H12.7949V67.5469H15.0449V66.2051C14.6426 66.0332 14.332 65.8145 14.1133 65.5488C13.8984 65.2832 13.791 64.9805 13.791 64.6406C13.791 64.2227 13.9453 63.8633 14.2539 63.5625C14.5664 63.2578 15.0098 63.0254 15.584 62.8652C16.1621 62.7051 16.8379 62.625 17.6113 62.625C18.3848 62.625 19.0586 62.7051 19.6328 62.8652C20.207 63.0254 20.6484 63.2578 20.957 63.5625C21.2695 63.8633 21.4277 64.2227 21.4316 64.6406C21.4277 64.9844 21.3164 65.2891 21.0977 65.5547C20.8828 65.8203 20.5723 66.0371 20.166 66.2051V67.5469H22.4512V68.5898ZM17.6113 69.2344C18.373 69.2305 19.0273 69.3027 19.5742 69.4512C20.1211 69.5957 20.541 69.8105 20.834 70.0957C21.127 70.377 21.2754 70.7188 21.2793 71.1211C21.2754 71.5273 21.127 71.8711 20.834 72.1523C20.541 72.4375 20.1211 72.6523 19.5742 72.7969C19.0273 72.9453 18.373 73.0195 17.6113 73.0195C16.8418 73.0195 16.1797 72.9453 15.625 72.7969C15.0742 72.6523 14.6523 72.4375 14.3594 72.1523C14.0664 71.8711 13.9199 71.5273 13.9199 71.1211C13.9199 70.7188 14.0664 70.377 14.3594 70.0957C14.6523 69.8105 15.0742 69.5957 15.625 69.4512C16.1797 69.3027 16.8418 69.2305 17.6113 69.2344ZM17.6113 70.2188C16.834 70.2188 16.2441 70.2949 15.8418 70.4473C15.4395 70.5996 15.2402 70.8242 15.2441 71.1211C15.2402 71.418 15.4395 71.6445 15.8418 71.8008C16.248 71.957 16.8379 72.0352 17.6113 72.0352C18.3691 72.0352 18.9512 71.957 19.3574 71.8008C19.7676 71.6445 19.9746 71.418 19.9785 71.1211C19.9746 70.8242 19.7695 70.5996 19.3633 70.4473C18.957 70.2949 18.373 70.2188 17.6113 70.2188ZM17.6113 63.6328C16.8223 63.6328 16.2129 63.7207 15.7832 63.8965C15.3574 64.0684 15.1465 64.3164 15.1504 64.6406C15.1465 64.9609 15.3574 65.2051 15.7832 65.373C16.209 65.541 16.8184 65.625 17.6113 65.625C18.3965 65.625 19.0039 65.541 19.4336 65.373C19.8672 65.2051 20.084 64.9609 20.084 64.6406C20.084 64.3164 19.8672 64.0684 19.4336 63.8965C19.0039 63.7207 18.3965 63.6328 17.6113 63.6328ZM18.8652 67.5469V66.5391C18.4707 66.5938 18.0527 66.6211 17.6113 66.6211C17.1699 66.6211 16.752 66.5938 16.3574 66.5391V67.5469H18.8652ZM31.4629 66.5859H33.0332V67.6758H31.4629V73.0195H30.1621V62.4492H31.4629V66.5859ZM28.6621 63.5508C28.6621 67.0273 27.0566 69.5547 23.8457 71.1328L23.1074 70.125C24.3965 69.4844 25.3906 68.709 26.0898 67.7988C26.793 66.8887 27.2109 65.832 27.3438 64.6289H23.6816V63.5508H28.6621ZM42.3496 73.0547H41.0371V62.4492H42.3496V73.0547ZM36.6426 63.2227C37.1738 63.2227 37.6465 63.377 38.0605 63.6855C38.4785 63.9902 38.8066 64.4258 39.0449 64.9922C39.2832 65.5547 39.4043 66.2109 39.4082 66.9609C39.4043 67.7148 39.2832 68.375 39.0449 68.9414C38.8105 69.5078 38.4844 69.9453 38.0664 70.2539C37.6484 70.5586 37.1738 70.7109 36.6426 70.7109C36.1074 70.7109 35.6309 70.5586 35.2129 70.2539C34.7949 69.9453 34.4668 69.5078 34.2285 68.9414C33.9941 68.375 33.877 67.7148 33.877 66.9609C33.877 66.2109 33.9941 65.5547 34.2285 64.9922C34.4668 64.4258 34.7949 63.9902 35.2129 63.6855C35.6309 63.377 36.1074 63.2227 36.6426 63.2227ZM36.6426 64.3945C36.3418 64.3945 36.0762 64.4961 35.8457 64.6992C35.6191 64.9023 35.4434 65.1973 35.3184 65.584C35.1934 65.9707 35.1309 66.4297 35.1309 66.9609C35.1309 67.4961 35.1934 67.957 35.3184 68.3438C35.4434 68.7305 35.6191 69.0273 35.8457 69.2344C36.0762 69.4375 36.3418 69.5391 36.6426 69.5391C36.9395 69.5391 37.2012 69.4375 37.4277 69.2344C37.6543 69.0273 37.8301 68.7305 37.9551 68.3438C38.0801 67.957 38.1426 67.4961 38.1426 66.9609C38.1426 66.4297 38.0801 65.9727 37.9551 65.5898C37.8301 65.2031 37.6543 64.9082 37.4277 64.7051C37.2012 64.498 36.9395 64.3945 36.6426 64.3945ZM52.5098 68.4609H45.0801V63.375H52.4277V64.4297H46.3691V67.418H52.5098V68.4609ZM53.5879 71.6953H43.9082V70.6172H53.5879V71.6953Z" fill="#2E343F"/>
<path fill-rule="evenodd" clip-rule="evenodd" d="M18.9018 16.9551C23.9268 16.9551 28.0004 17.4578 28.0004 18.078C28.0004 17.4578 32.074 16.9551 37.099 16.9551C42.124 16.9551 46.1976 17.4578 46.1976 18.078V40.7502C46.1976 41.1676 45.6824 41.4513 45.2228 41.3229C43.685 40.8932 41.1086 40.5357 37.099 40.5357C33.9689 40.5357 31.7122 40.7536 30.1413 41.0536V41.1216C30.1413 41.7148 29.662 42.1957 29.0708 42.1957H26.93C26.3388 42.1957 25.8596 41.7148 25.8596 41.1216V41.0536C24.2886 40.7536 22.0319 40.5357 18.9018 40.5357C14.8922 40.5357 12.3159 40.8932 10.7781 41.3229C10.3185 41.4513 9.80322 41.1676 9.80322 40.7502V18.078C9.80322 17.4578 13.8768 16.9551 18.9018 16.9551Z" fill="#EAC0FF"/>
<path d="M30.1408 41.0525L29.9908 40.2612L29.338 40.3859V41.0525H30.1408ZM25.8592 41.0525H26.662V40.3859L26.0092 40.2612L25.8592 41.0525ZM28.8028 18.0769C28.8028 17.5347 28.3789 17.2507 28.2287 17.1601C28.0199 17.0342 27.764 16.9406 27.5091 16.8663C26.9874 16.7141 26.2716 16.5868 25.4331 16.4834C23.745 16.275 21.4361 16.1484 18.9014 16.1484V17.7595C21.3917 17.7595 23.6321 17.8843 25.2371 18.0824C26.0451 18.1821 26.6618 18.2969 27.0608 18.4133C27.2664 18.4733 27.368 18.5208 27.4015 18.541C27.4938 18.5966 27.1972 18.464 27.1972 18.0769H28.8028ZM37.0986 16.1484C34.5639 16.1484 32.255 16.275 30.5669 16.4834C29.7284 16.5868 29.0126 16.7141 28.4909 16.8663C28.236 16.9406 27.9801 17.0342 27.7713 17.1601C27.6211 17.2507 27.1972 17.5347 27.1972 18.0769H28.8028C28.8028 18.464 28.5062 18.5966 28.5985 18.541C28.632 18.5208 28.7336 18.4733 28.9392 18.4133C29.3382 18.2969 29.9549 18.1821 30.7629 18.0824C32.3679 17.8843 34.6083 17.7595 37.0986 17.7595V16.1484ZM47 18.0769C47 17.5347 46.5761 17.2507 46.4259 17.1601C46.2171 17.0342 45.9612 16.9406 45.7063 16.8663C45.1846 16.7141 44.4688 16.5868 43.6303 16.4834C41.9421 16.275 39.6332 16.1484 37.0986 16.1484V17.7595C39.5889 17.7595 41.8293 17.8843 43.4343 18.0824C44.2423 18.1821 44.8589 18.2969 45.258 18.4133C45.4636 18.4733 45.5652 18.5208 45.5987 18.541C45.691 18.5966 45.3944 18.464 45.3944 18.0769H47ZM47 40.7491V18.0769H45.3944V40.7491H47ZM45.0069 42.0978C45.4523 42.2223 45.9165 42.1487 46.2811 41.9392C46.6447 41.7302 47 41.3216 47 40.7491H45.3944C45.3944 40.6806 45.4171 40.6226 45.4421 40.5851C45.4536 40.5678 45.4643 40.5566 45.4712 40.5503C45.4782 40.544 45.4826 40.5415 45.4831 40.5412C45.4831 40.5412 45.4756 40.5449 45.4628 40.5466C45.4507 40.5483 45.442 40.547 45.4377 40.5458L45.0069 42.0978ZM37.0986 41.3402C41.0708 41.3402 43.5666 41.6954 45.0069 42.0978L45.4377 40.5458C43.8023 40.0888 41.1455 39.7291 37.0986 39.7291V41.3402ZM30.2909 41.8439C31.7982 41.5561 34.0019 41.3402 37.0986 41.3402V39.7291C33.9351 39.7291 31.6254 39.949 29.9908 40.2612L30.2909 41.8439ZM29.338 41.0525V41.1205H30.9437V41.0525H29.338ZM29.338 41.1205C29.338 41.2688 29.2182 41.389 29.0704 41.389V43.0001C30.105 43.0001 30.9437 42.1586 30.9437 41.1205H29.338ZM29.0704 41.389H26.9296V43.0001H29.0704V41.389ZM26.9296 41.389C26.7818 41.389 26.662 41.2688 26.662 41.1205H25.0563C25.0563 42.1586 25.895 43.0001 26.9296 43.0001V41.389ZM26.662 41.1205V41.0525H25.0563V41.1205H26.662ZM18.9014 41.3402C21.9981 41.3402 24.2018 41.5561 25.7091 41.8439L26.0092 40.2612C24.3746 39.949 22.0649 39.7291 18.9014 39.7291V41.3402ZM10.9931 42.0978C12.4333 41.6954 14.9291 41.3402 18.9014 41.3402V39.7291C14.8544 39.7291 12.1977 40.0888 10.5623 40.5458L10.9931 42.0978ZM9 40.7491C9 41.3216 9.35523 41.7302 9.71888 41.9392C10.0835 42.1487 10.5478 42.2223 10.9931 42.0978L10.5623 40.5458C10.5581 40.547 10.5493 40.5483 10.5372 40.5466C10.5244 40.5449 10.5169 40.5412 10.5169 40.5412C10.5174 40.5415 10.5218 40.544 10.5287 40.5503C10.5357 40.5566 10.5464 40.5678 10.5579 40.5851C10.5829 40.6226 10.6056 40.6806 10.6056 40.7491H9ZM9 18.0769V40.7491H10.6056V18.0769H9ZM18.9014 16.1484C16.3668 16.1484 14.0578 16.275 12.3697 16.4834C11.5313 16.5868 10.8154 16.7141 10.2937 16.8663C10.0389 16.9406 9.78296 17.0342 9.57409 17.1601C9.42392 17.2507 9 17.5347 9 18.0769H10.6056C10.6056 18.464 10.309 18.5966 10.4012 18.541C10.4348 18.5208 10.5364 18.4733 10.742 18.4133C11.1411 18.2969 11.7577 18.1821 12.5657 18.0824C14.1707 17.8843 16.411 17.7595 18.9014 17.7595V16.1484Z" fill="#BB4EF2"/>
<path fill-rule="evenodd" clip-rule="evenodd" d="M28.0001 15.8788C28.0001 15.2856 24.6454 14.8047 20.5071 14.8047C16.3689 14.8047 13.0142 15.2856 13.0142 15.8788V37.5653C13.0142 37.9645 13.4385 38.2359 13.817 38.113C15.0834 37.702 17.2051 37.3601 20.5071 37.3601C24.6454 37.3601 26.9297 37.8972 28.0001 38.4342C29.0705 37.8972 31.3548 37.3601 35.493 37.3601C38.7951 37.3601 40.9168 37.702 42.1832 38.113C42.5617 38.2359 42.986 37.9645 42.986 37.5653V15.8788C42.986 15.2856 39.6313 14.8047 35.493 14.8047C31.3548 14.8047 28.0001 15.2856 28.0001 15.8788Z" fill="#F0F3FA"/>
<path fill-rule="evenodd" clip-rule="evenodd" d="M20.5072 14C18.4123 14 16.4993 14.1214 15.0953 14.3227C14.3994 14.4224 13.7943 14.5465 13.3462 14.6983C13.1274 14.7725 12.8977 14.869 12.7069 15.0026C12.5454 15.1158 12.2114 15.3983 12.2114 15.8796V37.5661C12.2114 38.5876 13.2408 39.1476 14.0642 38.8804C15.2201 38.5052 17.2493 38.1665 20.5072 38.1665C24.6078 38.1665 26.7402 38.7036 27.6411 39.1555L28.0002 39.3357L28.3592 39.1555C29.2602 38.7036 31.3925 38.1665 35.4931 38.1665C38.7511 38.1665 40.7801 38.5052 41.9361 38.8804C42.7596 39.1477 43.7889 38.5875 43.7889 37.5661V15.8796C43.7889 15.3983 43.4549 15.1158 43.2934 15.0026C43.1026 14.869 42.8729 14.7725 42.6541 14.6983C42.2061 14.5465 41.6009 14.4224 40.905 14.3227C39.501 14.1214 37.588 14 35.4931 14C33.3982 14 31.4852 14.1214 30.0813 14.3227C29.3853 14.4224 28.7802 14.5465 28.3321 14.6983C28.2221 14.7356 28.1093 14.7786 28.0002 14.829C27.891 14.7786 27.7783 14.7356 27.6682 14.6983C27.2201 14.5465 26.615 14.4224 25.919 14.3227C24.5151 14.1214 22.6021 14 20.5072 14ZM27.1973 16.2397C27.1837 16.2348 27.1694 16.2298 27.1544 16.2247C26.8442 16.1196 26.352 16.0122 25.692 15.9176C24.3841 15.7301 22.5505 15.6111 20.5072 15.6111C18.4638 15.6111 16.6303 15.7301 15.3224 15.9176C14.6624 16.0122 14.1702 16.1196 13.86 16.2247C13.845 16.2298 13.8307 16.2348 13.8171 16.2397V37.2711C15.2065 36.8619 17.3543 36.5554 20.5072 36.5554C23.6398 36.5554 25.7934 36.8577 27.1973 37.2713V16.2397ZM28.803 37.2713C30.2069 36.8577 32.3605 36.5554 35.4931 36.5554C38.6459 36.5554 40.7938 36.8619 42.1833 37.2711V16.2397C42.1697 16.2348 42.1553 16.2298 42.1403 16.2247C41.8301 16.1196 41.3379 16.0122 40.6779 15.9176C39.37 15.7301 37.5364 15.6111 35.4931 15.6111C33.4498 15.6111 31.6163 15.7301 30.3083 15.9176C29.6483 16.0122 29.1561 16.1196 28.8459 16.2247C28.8309 16.2298 28.8166 16.2348 28.803 16.2397V37.2713Z" fill="#1C222B"/>
<path fill-rule="evenodd" clip-rule="evenodd" d="M20.5071 21.6521C18.9283 21.6521 17.3979 21.7856 16.4201 22.031C15.99 22.1389 15.5541 21.8765 15.4465 21.4449C15.339 21.0133 15.6005 20.5759 16.0306 20.468C17.1937 20.1761 18.8745 20.041 20.5071 20.041C22.1396 20.041 23.8204 20.1761 24.9835 20.468C25.4137 20.5759 25.6752 21.0133 25.5676 21.4449C25.46 21.8765 25.0242 22.1389 24.594 22.031C23.6162 21.7856 22.0859 21.6521 20.5071 21.6521Z" fill="#838EA1"/>
<path fill-rule="evenodd" clip-rule="evenodd" d="M35.4929 21.6521C33.9141 21.6521 32.3837 21.7856 31.4059 22.031C30.9758 22.1389 30.54 21.8765 30.4324 21.4449C30.3248 21.0133 30.5863 20.5759 31.0164 20.468C32.1795 20.1761 33.8604 20.041 35.4929 20.041C37.1254 20.041 38.8062 20.1761 39.9693 20.468C40.3995 20.5759 40.661 21.0133 40.5534 21.4449C40.4459 21.8765 40.01 22.1389 39.5798 22.031C38.6021 21.7856 37.0717 21.6521 35.4929 21.6521Z" fill="#BB4EF2"/>
<path fill-rule="evenodd" clip-rule="evenodd" d="M20.5071 26.3533C18.9283 26.3533 17.3979 26.4868 16.4202 26.7321C15.99 26.8401 15.5541 26.5778 15.4465 26.1461C15.339 25.7145 15.6004 25.2772 16.0306 25.1692C17.1937 24.8773 18.8745 24.7422 20.5071 24.7422C22.1396 24.7422 23.8204 24.8773 24.9835 25.1692C25.4137 25.2772 25.6752 25.7145 25.5676 26.1461C25.46 26.5778 25.0241 26.8401 24.594 26.7321C23.6162 26.4868 22.0858 26.3533 20.5071 26.3533Z" fill="#E44EDD"/>
<path fill-rule="evenodd" clip-rule="evenodd" d="M35.4929 26.3533C33.9141 26.3533 32.3837 26.4868 31.4059 26.7321C30.9758 26.8401 30.54 26.5778 30.4324 26.1461C30.3248 25.7145 30.5863 25.2772 31.0164 25.1692C32.1795 24.8773 33.8604 24.7422 35.4929 24.7422C37.1254 24.7422 38.8062 24.8773 39.9693 25.1692C40.3995 25.2772 40.661 25.7145 40.5534 26.1461C40.4459 26.5778 40.0099 26.8401 39.5798 26.7321C38.6021 26.4868 37.0717 26.3533 35.4929 26.3533Z" fill="#838EA1"/>
<path fill-rule="evenodd" clip-rule="evenodd" d="M20.5071 31.0506C18.9283 31.0506 17.3979 31.1841 16.4202 31.4294C15.99 31.5373 15.5541 31.275 15.4465 30.8434C15.339 30.4118 15.6004 29.9744 16.0306 29.8665C17.1937 29.5746 18.8745 29.4395 20.5071 29.4395C22.1396 29.4395 23.8204 29.5746 24.9835 29.8665C25.4137 29.9744 25.6752 30.4118 25.5676 30.8434C25.46 31.275 25.0241 31.5373 24.594 31.4294C23.6162 31.1841 22.0858 31.0506 20.5071 31.0506Z" fill="#838EA1"/>
<path fill-rule="evenodd" clip-rule="evenodd" d="M35.4929 31.0506C33.9141 31.0506 32.3837 31.1841 31.4059 31.4294C30.9758 31.5373 30.54 31.275 30.4324 30.8434C30.3248 30.4118 30.5863 29.9744 31.0164 29.8665C32.1795 29.5746 33.8604 29.4395 35.4929 29.4395C37.1254 29.4395 38.8062 29.5746 39.9693 29.8665C40.3995 29.9744 40.661 30.4118 40.5534 30.8434C40.4459 31.275 40.0099 31.5373 39.5798 31.4294C38.6021 31.1841 37.0717 31.0506 35.4929 31.0506Z" fill="#FF4193"/>
</svg>
