<svg width="56" height="76" viewBox="0 0 56 76" fill="none" xmlns="http://www.w3.org/2000/svg">
<circle cx="28" cy="28" r="28" fill="white"/>
<path d="M21.6074 73.0547H20.2949V62.4492H21.6074V73.0547ZM15.9004 63.2227C16.4316 63.2227 16.9043 63.377 17.3184 63.6855C17.7363 63.9902 18.0645 64.4258 18.3027 64.9922C18.541 65.5547 18.6621 66.2109 18.666 66.9609C18.6621 67.7148 18.541 68.375 18.3027 68.9414C18.0684 69.5078 17.7422 69.9453 17.3242 70.2539C16.9062 70.5586 16.4316 70.7109 15.9004 70.7109C15.3652 70.7109 14.8887 70.5586 14.4707 70.2539C14.0527 69.9453 13.7246 69.5078 13.4863 68.9414C13.252 68.375 13.1348 67.7148 13.1348 66.9609C13.1348 66.2109 13.252 65.5547 13.4863 64.9922C13.7246 64.4258 14.0527 63.9902 14.4707 63.6855C14.8887 63.377 15.3652 63.2227 15.9004 63.2227ZM15.9004 64.3945C15.5996 64.3945 15.334 64.4961 15.1035 64.6992C14.877 64.9023 14.7012 65.1973 14.5762 65.584C14.4512 65.9707 14.3887 66.4297 14.3887 66.9609C14.3887 67.4961 14.4512 67.957 14.5762 68.3438C14.7012 68.7305 14.877 69.0273 15.1035 69.2344C15.334 69.4375 15.5996 69.5391 15.9004 69.5391C16.1973 69.5391 16.459 69.4375 16.6855 69.2344C16.9121 69.0273 17.0879 68.7305 17.2129 68.3438C17.3379 67.957 17.4004 67.4961 17.4004 66.9609C17.4004 66.4297 17.3379 65.9727 17.2129 65.5898C17.0879 65.2031 16.9121 64.9082 16.6855 64.7051C16.459 64.498 16.1973 64.3945 15.9004 64.3945ZM32.2246 70.4648H30.9824V62.4492H32.2246V70.4648ZM30.1152 70.1367H28.8848V66.4805H27.7598V68.5664H23.5762V63.2812H24.8066V64.957H26.5527V63.2812H27.7598V65.4258H28.8848V62.6367H30.1152V70.1367ZM26.5527 67.5117V65.9531H24.8066V67.5117H26.5527ZM32.5176 72.832H25.1348V69.3984H26.4355V71.7773H32.5176V72.832ZM42.1504 69.0352H34.7207V63.2812H42.0566V64.3359H36.0449V65.6133H41.8105V66.6328H36.0449V68.0039H42.1504V69.0352ZM43.2168 71.7539H33.5371V70.6875H43.2168V71.7539Z" fill="#2E343F"/>
<path fill-rule="evenodd" clip-rule="evenodd" d="M22.3539 46.4353L20.5635 39.7953L21.9954 39.4141L23.7858 46.054C23.8918 46.4469 23.6571 46.8508 23.2617 46.9561C22.8663 47.0614 22.4599 46.8282 22.3539 46.4353Z" fill="#1C222B"/>
<path d="M19.7642 35.5666C19.8761 35.2322 20.2956 35.1206 20.5609 35.3544L23.9637 38.3546C24.2581 38.6142 24.1437 39.095 23.7636 39.1962L18.9235 40.485C18.5434 40.5861 18.2025 40.2266 18.3268 39.8555L19.7642 35.5666Z" fill="#FFCEE3"/>
<path fill-rule="evenodd" clip-rule="evenodd" d="M19.061 35.3344C19.341 34.4986 20.3898 34.2194 21.0529 34.8041L24.4557 37.8042C25.1918 38.4532 24.9061 39.655 23.9555 39.9082L19.1155 41.1968C18.165 41.4499 17.3128 40.5511 17.6237 39.6233L19.061 35.3344ZM20.3492 36.1528L19.1752 39.6559L23.1285 38.6034L20.3492 36.1528Z" fill="#FF4193"/>
<g filter="url(#filter0_i_655_16314)">
<path d="M27.5004 24.7315C29.0543 30.4941 26.0401 36.3038 20.7681 37.7075C15.496 39.1112 9.96252 35.5776 8.40861 29.8149C6.8547 24.0522 9.86886 18.2426 15.1409 16.8388C20.4129 15.4351 25.9465 18.9688 27.5004 24.7315Z" fill="#FFCEE3"/>
</g>
<path fill-rule="evenodd" clip-rule="evenodd" d="M20.3844 36.2846C24.7404 35.1248 27.4457 30.2203 26.0685 25.1127C24.6912 20.0052 19.8805 17.1019 15.5246 18.2617C11.1687 19.4215 8.46325 24.3261 9.8405 29.4336C11.2177 34.5411 16.0285 37.4444 20.3844 36.2846ZM20.7681 37.7075C26.0401 36.3038 29.0543 30.4941 27.5004 24.7315C25.9465 18.9688 20.4129 15.4351 15.1409 16.8388C9.86886 18.2426 6.8547 24.0522 8.40861 29.8149C9.96252 35.5776 15.496 39.1112 20.7681 37.7075Z" fill="#FF4193"/>
<path fill-rule="evenodd" clip-rule="evenodd" d="M32.2139 46.0541L34.0044 39.4141L35.4363 39.7953L33.6458 46.4353C33.5399 46.8282 33.1335 47.0614 32.7381 46.9561C32.3427 46.8508 32.108 46.447 32.2139 46.0541Z" fill="#1C222B"/>
<path d="M35.4389 35.3545C35.7041 35.1205 36.1236 35.2323 36.2357 35.5666L37.6729 39.8555C37.7973 40.2266 37.4564 40.5861 37.0762 40.4849L32.2362 39.1962C31.856 39.0949 31.7417 38.6142 32.0361 38.3547L35.4389 35.3545Z" fill="#FCCEFB"/>
<path fill-rule="evenodd" clip-rule="evenodd" d="M34.9469 34.8021C35.61 34.2174 36.6587 34.4967 36.9388 35.3325L38.3761 39.6214C38.687 40.5491 37.8348 41.448 36.8843 41.195L32.0443 39.9062C31.0937 39.6532 30.808 38.4512 31.5441 37.8023L34.9469 34.8021ZM35.6506 36.1509L32.8712 38.6014L36.8246 39.654L35.6506 36.1509Z" fill="#E44EDD"/>
<g filter="url(#filter1_i_655_16314)">
<path d="M47.5912 29.8149C46.0373 35.5776 40.5038 39.1112 35.2318 37.7075C29.9597 36.3038 26.9456 30.4941 28.4994 24.7315C30.0534 18.9688 35.5868 15.4351 40.8589 16.8388C46.131 18.2426 49.1451 24.0522 47.5912 29.8149Z" fill="#FCCEFB"/>
</g>
<path fill-rule="evenodd" clip-rule="evenodd" d="M35.6154 36.2846C39.9713 37.4444 44.7821 34.5411 46.1594 29.4336C47.5366 24.3261 44.8312 19.4215 40.4753 18.2617C36.1194 17.1019 31.3085 20.0052 29.9313 25.1127C28.5541 30.2203 31.2595 35.1248 35.6154 36.2846ZM35.2318 37.7075C40.5038 39.1112 46.0373 35.5776 47.5912 29.8149C49.1451 24.0522 46.131 18.2426 40.8589 16.8388C35.5868 15.4351 30.0534 18.9688 28.4994 24.7315C26.9456 30.4941 29.9597 36.3038 35.2318 37.7075Z" fill="#E44EDD"/>
<path fill-rule="evenodd" clip-rule="evenodd" d="M27.2588 46.7485V33H28.7412V46.7485C28.7412 47.1553 28.4093 47.485 28 47.485C27.5906 47.485 27.2588 47.1553 27.2588 46.7485Z" fill="#1C222B"/>
<path d="M27.5874 31.2264C27.7827 30.9323 28.217 30.9323 28.4123 31.2264L30.9177 34.9996C31.1345 35.3261 30.8989 35.761 30.5053 35.761H25.4945C25.1008 35.761 24.8652 35.3261 25.0821 34.9996L27.5874 31.2264Z" fill="#EFD2FF"/>
<path fill-rule="evenodd" clip-rule="evenodd" d="M26.969 30.821C27.4572 30.0857 28.5429 30.0857 29.0312 30.821L31.5366 34.5941C32.0786 35.4103 31.4895 36.4977 30.5055 36.4977H25.4947C24.5107 36.4977 23.9217 35.4103 24.4636 34.5941L26.969 30.821ZM28.0001 31.9428L25.9537 35.0246H30.0465L28.0001 31.9428Z" fill="#BB4EF2"/>
<g filter="url(#filter2_i_655_16314)">
<path d="M38.8707 21.2754C38.8707 28.055 34.0036 33.5509 27.9998 33.5509C21.996 33.5509 17.1289 28.055 17.1289 21.2754C17.1289 14.4959 21.996 9 27.9998 9C34.0036 9 38.8707 14.4959 38.8707 21.2754Z" fill="#EFD2FF"/>
</g>
<path fill-rule="evenodd" clip-rule="evenodd" d="M27.9998 32.0778C33.0126 32.0778 37.3883 27.424 37.3883 21.2754C37.3883 15.1269 33.0126 10.4731 27.9998 10.4731C22.987 10.4731 18.6113 15.1269 18.6113 21.2754C18.6113 27.424 22.987 32.0778 27.9998 32.0778ZM27.9998 33.5509C34.0036 33.5509 38.8707 28.055 38.8707 21.2754C38.8707 14.4959 34.0036 9 27.9998 9C21.996 9 17.1289 14.4959 17.1289 21.2754C17.1289 28.055 21.996 33.5509 27.9998 33.5509Z" fill="#BB4EF2"/>
<circle cx="48" cy="8" r="8" fill="#BB4EF2"/>
<path d="M50.9492 11.5H49.6797L46.5742 7.00781H46.5156V11.5H45.0508V4.42969H46.3398L49.4258 8.92188H49.4941V4.42969H50.9492V11.5Z" fill="white"/>
<defs>
<filter id="filter0_i_655_16314" x="8" y="16.5312" width="19.9092" height="21.4844" filterUnits="userSpaceOnUse" color-interpolation-filters="sRGB">
<feFlood flood-opacity="0" result="BackgroundImageFix"/>
<feBlend mode="normal" in="SourceGraphic" in2="BackgroundImageFix" result="shape"/>
<feColorMatrix in="SourceAlpha" type="matrix" values="0 0 0 0 0 0 0 0 0 0 0 0 0 0 0 0 0 0 127 0" result="hardAlpha"/>
<feOffset dx="-3" dy="-3"/>
<feComposite in2="hardAlpha" operator="arithmetic" k2="-1" k3="1"/>
<feColorMatrix type="matrix" values="0 0 0 0 1 0 0 0 0 0.615686 0 0 0 0 0.780392 0 0 0 1 0"/>
<feBlend mode="normal" in2="shape" result="effect1_innerShadow_655_16314"/>
</filter>
<filter id="filter1_i_655_16314" x="28.0908" y="16.5312" width="19.9092" height="21.4844" filterUnits="userSpaceOnUse" color-interpolation-filters="sRGB">
<feFlood flood-opacity="0" result="BackgroundImageFix"/>
<feBlend mode="normal" in="SourceGraphic" in2="BackgroundImageFix" result="shape"/>
<feColorMatrix in="SourceAlpha" type="matrix" values="0 0 0 0 0 0 0 0 0 0 0 0 0 0 0 0 0 0 127 0" result="hardAlpha"/>
<feOffset dx="-3" dy="-3"/>
<feComposite in2="hardAlpha" operator="arithmetic" k2="-1" k3="1"/>
<feColorMatrix type="matrix" values="0 0 0 0 0.984314 0 0 0 0 0.627451 0 0 0 0 0.964706 0 0 0 1 0"/>
<feBlend mode="normal" in2="shape" result="effect1_innerShadow_655_16314"/>
</filter>
<filter id="filter2_i_655_16314" x="17.1289" y="9" width="21.7417" height="24.5508" filterUnits="userSpaceOnUse" color-interpolation-filters="sRGB">
<feFlood flood-opacity="0" result="BackgroundImageFix"/>
<feBlend mode="normal" in="SourceGraphic" in2="BackgroundImageFix" result="shape"/>
<feColorMatrix in="SourceAlpha" type="matrix" values="0 0 0 0 0 0 0 0 0 0 0 0 0 0 0 0 0 0 127 0" result="hardAlpha"/>
<feOffset dx="-3" dy="-3"/>
<feComposite in2="hardAlpha" operator="arithmetic" k2="-1" k3="1"/>
<feColorMatrix type="matrix" values="0 0 0 0 0 0 0 0 0 0 0 0 0 0 0 0 0 0 0.25 0"/>
<feBlend mode="normal" in2="shape" result="effect1_innerShadow_655_16314"/>
</filter>
</defs>
</svg>
