<svg width="58" height="76" viewBox="0 0 58 76" fill="none" xmlns="http://www.w3.org/2000/svg">
<circle cx="28" cy="28" r="28" fill="white"/>
<path d="M4.38477 64.7461C4.38477 65.1445 4.48047 65.5273 4.67188 65.8945C4.86328 66.2617 5.14844 66.5879 5.52734 66.873C5.90625 67.1582 6.36523 67.375 6.9043 67.5234L6.30664 68.5312C5.7168 68.3672 5.20508 68.1152 4.77148 67.7754C4.33789 67.4355 4 67.0332 3.75781 66.5684C3.51953 67.0957 3.18164 67.5527 2.74414 67.9395C2.31055 68.3262 1.78711 68.6172 1.17383 68.8125L0.541016 67.7812C1.08008 67.6172 1.54102 67.3809 1.92383 67.0723C2.30664 66.7598 2.5957 66.4043 2.79102 66.0059C2.98633 65.6035 3.08398 65.1836 3.08398 64.7461V64.6406H0.869141V63.6094H3.08398V62.4141H4.39648V63.6094H6.59961V64.6406H4.38477V64.7461ZM9.44727 69.7148H8.14648V66.3984H6.29492V65.332H8.14648V62.4492H9.44727V69.7148ZM6.61133 69.2461C6.60742 69.6602 6.74609 70.0566 7.02734 70.4355C7.30859 70.8145 7.71094 71.1406 8.23438 71.4141C8.75781 71.6836 9.36914 71.8672 10.0684 71.9648L9.55273 72.9844C8.71289 72.8555 7.97852 72.6035 7.34961 72.2285C6.7207 71.8574 6.24414 71.3965 5.91992 70.8457C5.58789 71.3887 5.10547 71.8477 4.47266 72.2227C3.84375 72.6016 3.11523 72.8555 2.28711 72.9844L1.81836 71.9648C2.49023 71.8633 3.08789 71.6738 3.61133 71.3965C4.13477 71.1152 4.54102 70.7852 4.83008 70.4062C5.11914 70.0273 5.26367 69.6406 5.26367 69.2461V69.0469H6.61133V69.2461ZM17.6855 64.2656C17.6855 64.7031 17.7812 65.1289 17.9727 65.543C18.1641 65.9531 18.4473 66.3223 18.8223 66.6504C19.1973 66.9746 19.6504 67.2266 20.1816 67.4062L19.5254 68.4141C18.9473 68.2266 18.4473 67.9434 18.0254 67.5645C17.6074 67.1855 17.2793 66.7422 17.041 66.2344C16.8027 66.8008 16.4629 67.2949 16.0215 67.7168C15.5801 68.1348 15.0527 68.4453 14.4395 68.6484L13.7715 67.6172C14.3184 67.4375 14.7852 67.1758 15.1719 66.832C15.5625 66.4844 15.8574 66.0898 16.0566 65.6484C16.2598 65.2031 16.3613 64.7461 16.3613 64.2773V64.1367H14.1582V63.0938H19.877V64.1367H17.6855V64.2656ZM22.666 73.043H21.3652V70.3125H15.4473V69.2695H22.666V73.043ZM22.666 68.7656H21.3652V66.1406H19.5605V65.0742H21.3652V62.4492H22.666V68.7656ZM33.8223 68.5078H24.166V67.4766H33.8223V68.5078ZM28.9824 69.1992C29.7441 69.1953 30.3984 69.2676 30.9453 69.416C31.4922 69.5645 31.9121 69.7832 32.2051 70.0723C32.498 70.3613 32.6465 70.7109 32.6504 71.1211C32.6465 71.5273 32.498 71.873 32.2051 72.1582C31.9121 72.4473 31.4922 72.666 30.9453 72.8145C30.3984 72.9668 29.7441 73.043 28.9824 73.043C28.2129 73.043 27.5508 72.9668 26.9961 72.8145C26.4453 72.666 26.0234 72.4473 25.7305 72.1582C25.4375 71.873 25.291 71.5273 25.291 71.1211C25.291 70.7109 25.4375 70.3613 25.7305 70.0723C26.0234 69.7832 26.4453 69.5645 26.9961 69.416C27.5508 69.2676 28.2129 69.1953 28.9824 69.1992ZM28.9824 70.1836C28.2051 70.1836 27.6152 70.2637 27.2129 70.4238C26.8105 70.5801 26.6113 70.8125 26.6152 71.1211C26.6113 71.4219 26.8105 71.6504 27.2129 71.8066C27.6152 71.959 28.2051 72.0352 28.9824 72.0352C29.7441 72.0352 30.3281 71.959 30.7344 71.8066C31.1406 71.6504 31.3457 71.4219 31.3496 71.1211C31.3457 70.8125 31.1406 70.5801 30.7344 70.4238C30.3281 70.2637 29.7441 70.1836 28.9824 70.1836ZM28.9824 62.6953C29.752 62.6953 30.4238 62.7793 30.998 62.9473C31.5723 63.1113 32.0156 63.3477 32.3281 63.6562C32.6406 63.9648 32.7988 64.3281 32.8027 64.7461C32.7988 65.1719 32.6406 65.5391 32.3281 65.8477C32.0156 66.1562 31.5723 66.3926 30.998 66.5566C30.4238 66.7168 29.752 66.7969 28.9824 66.7969C28.209 66.7969 27.5352 66.7148 26.9609 66.5508C26.3867 66.3867 25.9434 66.1523 25.6309 65.8477C25.3184 65.5391 25.1621 65.1719 25.1621 64.7461C25.1621 64.3281 25.3184 63.9648 25.6309 63.6562C25.9434 63.3477 26.3867 63.1113 26.9609 62.9473C27.5391 62.7793 28.2129 62.6953 28.9824 62.6953ZM28.9824 63.7148C28.1973 63.7148 27.5898 63.8027 27.1602 63.9785C26.7305 64.1543 26.5176 64.4102 26.5215 64.7461C26.5176 65.082 26.7305 65.3379 27.1602 65.5137C27.5898 65.6895 28.1973 65.7773 28.9824 65.7773C29.7676 65.7773 30.375 65.6895 30.8047 65.5137C31.2383 65.3379 31.4551 65.082 31.4551 64.7461C31.4551 64.4102 31.2383 64.1543 30.8047 63.9785C30.375 63.8027 29.7676 63.7148 28.9824 63.7148ZM42.9863 70.4648H37.9473V63.4453H42.9863V70.4648ZM39.2363 69.4219H41.7207V64.4648H39.2363V69.4219ZM46.1973 73.0547H44.8848V62.4492H46.1973V73.0547ZM51.6113 64.3242C51.6113 64.8281 51.7051 65.3145 51.8926 65.7832C52.0801 66.252 52.3574 66.6719 52.7246 67.043C53.0957 67.4102 53.5449 67.6914 54.0723 67.8867L53.3457 68.8945C52.791 68.6758 52.3105 68.3574 51.9043 67.9395C51.502 67.5215 51.1875 67.0312 50.9609 66.4688C50.7305 67.0664 50.4004 67.5879 49.9707 68.0332C49.5449 68.4746 49.0332 68.8125 48.4355 69.0469L47.7324 68.0156C48.2793 67.8164 48.7441 67.5293 49.127 67.1543C49.5137 66.7793 49.8047 66.3477 50 65.8594C50.1953 65.3711 50.2949 64.8594 50.2988 64.3242V63.0586H51.6113V64.3242ZM56.627 70.3242H55.3262V67.043H53.3926V66H55.3262V64.957H53.3926V63.9023H55.3262V62.4609H56.627V70.3242ZM56.8613 72.832H49.6426V69.5508H50.9668V71.7773H56.8613V72.832Z" fill="#2E343F"/>
<path fill-rule="evenodd" clip-rule="evenodd" d="M27.5191 18.6912C27.8436 18.019 28.801 18.019 29.1255 18.6912L34.1069 29.0097C34.2557 29.318 34.5678 29.5139 34.91 29.5139H38.854C39.2088 29.5139 39.5299 29.7242 39.6716 30.0495L44.7243 41.6441C44.981 42.2332 44.5493 42.8923 43.9066 42.8923H40.8088H33.6736H15.8361C15.8359 42.8923 15.8359 42.8921 15.8359 42.892C15.836 42.8919 15.8359 42.8918 15.8358 42.8918H11.7853C11.1588 42.8918 10.7275 42.2628 10.9534 41.6784L16.475 27.3903C16.6079 27.0466 16.9385 26.8199 17.307 26.8199H23.035C23.3773 26.8199 23.6894 26.624 23.8382 26.3158L27.5191 18.6912Z" fill="#DDE2ED"/>
<mask id="mask0_1064_85180" style="mask-type:alpha" maskUnits="userSpaceOnUse" x="10" y="18" width="35" height="25">
<path fill-rule="evenodd" clip-rule="evenodd" d="M27.5191 18.6916C27.8436 18.0195 28.801 18.0195 29.1255 18.6916L34.1069 29.0102C34.2557 29.3185 34.5678 29.5144 34.91 29.5144H38.854C39.2088 29.5144 39.5299 29.7247 39.6717 30.05L44.7243 41.6446C44.981 42.2337 44.5493 42.8927 43.9066 42.8927H40.8088H33.6736H15.8361C15.8359 42.8927 15.8359 42.8926 15.8359 42.8925C15.836 42.8924 15.8359 42.8923 15.8358 42.8923H11.7853C11.1588 42.8923 10.7275 42.2633 10.9534 41.6789L16.475 27.3908C16.6079 27.0471 16.9385 26.8204 17.307 26.8204H23.035C23.3773 26.8204 23.6894 26.6245 23.8382 26.3163L27.5191 18.6916Z" fill="#DDE2ED"/>
</mask>
<g mask="url(#mask0_1064_85180)">
<rect x="10.001" y="32.1895" width="37.4594" height="11.5946" fill="#929DB0"/>
</g>
<path fill-rule="evenodd" clip-rule="evenodd" d="M34.9107 28.6218H38.8542C39.5638 28.6218 40.2059 29.0424 40.4894 29.693L45.5421 41.2875C46.0555 42.4658 45.1921 43.7839 43.9068 43.7839H15.8362L15.8193 43.7838L15.8062 43.7834H11.7855C10.5324 43.7834 9.66992 42.5255 10.1216 41.3567L15.6433 27.0686C15.9089 26.3811 16.5701 25.9278 17.3071 25.9278L21.6049 25.9278L21.617 25.9277H23.0352L26.716 18.3032C27.3633 16.9625 29.2693 16.9588 29.9234 18.2921C29.9301 18.3051 29.9366 18.3183 29.943 18.3315L34.9107 28.6218ZM33.322 29.4338L35.3236 33.58C35.5377 34.0235 36.0709 34.2095 36.5145 33.9954C36.9581 33.7813 37.1441 33.248 36.9299 32.8045L35.7719 30.4056H38.8542L43.9068 42.0001H15.8659C15.8559 41.9998 15.846 41.9997 15.8359 41.9997L11.7855 41.9997L17.3071 27.7116H23.0352L23.0521 27.7115H25.9229L28.3478 34.1105C28.5223 34.5712 29.0372 34.8031 29.4978 34.6285C29.9584 34.454 30.1903 33.9391 30.0158 33.4784L27.5909 27.0794C27.3282 26.3862 26.6642 25.9277 25.9229 25.9277H25.1557L28.3364 19.1076L33.3038 29.3973C33.3097 29.4095 33.3158 29.4217 33.322 29.4338Z" fill="#1C222B"/>
<path fill-rule="evenodd" clip-rule="evenodd" d="M22.7784 36.9143C23.0395 36.2181 23.7051 35.7568 24.4486 35.7568H31.8576C32.3502 35.7568 32.7495 36.1561 32.7495 36.6487C32.7495 37.1413 32.3502 37.5406 31.8576 37.5406H24.4486L23.3278 40.5295C23.1549 40.9907 22.6408 41.2243 22.1796 41.0514C21.7183 40.8784 21.4847 40.3643 21.6576 39.9031L22.7784 36.9143Z" fill="#1C222B"/>
<path fill-rule="evenodd" clip-rule="evenodd" d="M28.2742 9.8916C28.7668 9.8916 29.1661 10.2909 29.1661 10.7835L29.1661 17.9186C29.1661 18.4112 28.7668 18.8105 28.2742 18.8105C27.7816 18.8105 27.3823 18.4112 27.3823 17.9186L27.3823 10.7835C27.3823 10.2909 27.7816 9.8916 28.2742 9.8916Z" fill="#1C222B"/>
<path d="M35.8657 12.5678L28.7306 15.2434L28.7306 9.89209L35.8657 12.5678Z" fill="#BB4EF2"/>
<path fill-rule="evenodd" clip-rule="evenodd" d="M36.3013 12.5676C36.3013 12.9393 36.0707 13.2721 35.7225 13.4027L28.5874 16.0783C28.3135 16.1811 28.0067 16.1429 27.7662 15.9763C27.5258 15.8097 27.3824 15.5358 27.3824 15.2432L27.3824 9.8919C27.3824 9.59937 27.5258 9.32545 27.7662 9.15883C28.0067 8.99221 28.3135 8.95408 28.5874 9.05679L35.7225 11.7325C36.0707 11.863 36.3013 12.1958 36.3013 12.5676ZM29.1661 11.1789L29.1661 13.9562L32.8693 12.5676L29.1661 11.1789Z" fill="#1C222B"/>
<g clip-path="url(#clip0_1064_85180)">
<circle cx="48" cy="8" r="8" fill="#BB4EF2"/>
<path d="M52 9H47.5V4.5" stroke="white" stroke-width="1.5" stroke-linecap="round" stroke-linejoin="round"/>
</g>
<defs>
<clipPath id="clip0_1064_85180">
<rect width="16" height="16" fill="white" transform="translate(40)"/>
</clipPath>
</defs>
</svg>
