<svg width="79" height="84" viewBox="0 0 79 84" fill="none" xmlns="http://www.w3.org/2000/svg">
<g clip-path="url(#clip0_762_34855)">
<path fill-rule="evenodd" clip-rule="evenodd" d="M61.1937 24.3756C62.4234 22.2457 61.6936 19.5223 59.5637 18.2926C57.4338 17.0629 54.7103 17.7926 53.4806 19.9225L47.2116 30.7809C47.3076 29.1519 46.5013 27.5303 44.992 26.6589C42.8621 25.4292 40.1386 26.1589 38.9089 28.2888L38.2637 29.4064C38.3607 27.7765 37.5544 26.1536 36.0442 25.2816C33.9143 24.052 31.1908 24.7817 29.9611 26.9116L28.3201 29.754C28.3672 28.3312 27.6483 26.9296 26.3294 26.1681C24.4237 25.0678 21.9869 25.7208 20.8867 27.6264L17.7226 33.1068L17.7239 33.1075L13.2777 40.8086C12.2358 42.6773 10.368 47.3141 11.2309 50.9114L7.4385 57.48L31.7693 71.5273L37.0003 62.4669C39.8844 61.9386 46.5441 60.0808 50.1103 56.8755C52.87 54.3951 56.7616 52.6808 59.4384 51.7717C60.6075 51.3746 61.5455 50.3378 61.2993 49.1279C60.6488 45.9306 57.6022 42.65 48.7129 45.993L61.1937 24.3756Z" fill="white"/>
<path d="M61.1937 24.3756L62.2711 24.9977L61.1937 24.3756ZM53.4806 19.9225L54.558 20.5446L53.4806 19.9225ZM47.2116 30.7809L48.289 31.4029C48.0006 31.9024 47.4068 32.1382 46.8544 31.9726C46.3019 31.807 45.9357 31.2834 45.9697 30.7077L47.2116 30.7809ZM38.2637 29.4064L39.3411 30.0284C39.0526 30.528 38.4586 30.7638 37.9061 30.598C37.3536 30.4322 36.9875 29.9083 37.0218 29.3324L38.2637 29.4064ZM28.3201 29.754L29.3975 30.376C29.1121 30.8703 28.527 31.107 27.9782 30.9502C27.4295 30.7934 27.0578 30.2832 27.0767 29.7128L28.3201 29.754ZM17.7226 33.1068L17.1006 34.1842C16.5055 33.8406 16.3017 33.0798 16.6452 32.4847L17.7226 33.1068ZM17.7239 33.1075L18.3459 32.0301C18.9409 32.3736 19.1448 33.1345 18.8013 33.7295L17.7239 33.1075ZM13.2777 40.8086L12.191 40.2028C12.1941 40.1973 12.1971 40.1919 12.2003 40.1865L13.2777 40.8086ZM11.2309 50.9114L12.4406 50.6212C12.5149 50.931 12.4676 51.2575 12.3083 51.5334L11.2309 50.9114ZM7.4385 57.48L6.81646 58.5574C6.22143 58.2138 6.01756 57.453 6.3611 56.8579L7.4385 57.48ZM31.7693 71.5273L32.8466 72.1494C32.6817 72.4351 32.4099 72.6436 32.0912 72.729C31.7725 72.8144 31.433 72.7697 31.1472 72.6047L31.7693 71.5273ZM37.0003 62.4669L35.9229 61.8448C36.1054 61.5288 36.4173 61.3089 36.7762 61.2431L37.0003 62.4669ZM50.1103 56.8755L49.2786 55.9503L50.1103 56.8755ZM59.4384 51.7717L59.8384 52.9497L59.8384 52.9497L59.4384 51.7717ZM61.2993 49.1279L60.0802 49.3759L60.0802 49.3759L61.2993 49.1279ZM48.7129 45.993L49.1508 47.1574C48.659 47.3424 48.1041 47.1984 47.7642 46.7977C47.4243 46.397 47.3728 45.826 47.6355 45.3709L48.7129 45.993ZM60.1858 17.2152C62.9107 18.7884 63.8443 22.2728 62.2711 24.9977L60.1163 23.7536C61.0024 22.2187 60.4765 20.2561 58.9417 19.37L60.1858 17.2152ZM52.4032 19.3005C53.9765 16.5756 57.4608 15.6419 60.1858 17.2152L58.9417 19.37C57.4068 18.4838 55.4442 19.0097 54.558 20.5446L52.4032 19.3005ZM46.1342 30.1588L52.4032 19.3005L54.558 20.5446L48.289 31.4029L46.1342 30.1588ZM45.614 25.5815C47.5466 26.6973 48.5761 28.7734 48.4535 30.8541L45.9697 30.7077C46.039 29.5304 45.4561 28.3633 44.3699 27.7363L45.614 25.5815ZM37.8315 27.6668C39.4047 24.9418 42.8891 24.0082 45.614 25.5815L44.3699 27.7363C42.8351 26.8501 40.8724 27.376 39.9863 28.9108L37.8315 27.6668ZM37.1863 28.7843L37.8315 27.6668L39.9863 28.9108L39.3411 30.0284L37.1863 28.7843ZM36.6662 24.2043C38.6 25.3207 39.6295 27.3985 39.5055 29.4803L37.0218 29.3324C37.0919 28.1545 36.5089 26.9865 35.4222 26.359L36.6662 24.2043ZM28.8837 26.2896C30.457 23.5646 33.9413 22.631 36.6662 24.2043L35.4222 26.359C33.8873 25.4729 31.9247 25.9988 31.0385 27.5336L28.8837 26.2896ZM27.2427 29.1319L28.8837 26.2896L31.0385 27.5336L29.3975 30.376L27.2427 29.1319ZM27.0767 29.7128C27.1092 28.7307 26.613 27.7683 25.7074 27.2455L26.9514 25.0907C28.6837 26.0908 29.6252 27.9318 29.5635 29.7952L27.0767 29.7128ZM25.7074 27.2455C24.3967 26.4888 22.7208 26.9378 21.9641 28.2485L19.8093 27.0044C21.2531 24.5037 24.4507 23.6469 26.9514 25.0907L25.7074 27.2455ZM21.9641 28.2485L18.8 33.7288L16.6452 32.4847L19.8093 27.0044L21.9641 28.2485ZM18.3446 32.0294L18.3459 32.0301L17.1018 34.1849L17.1006 34.1842L18.3446 32.0294ZM12.2003 40.1865L16.6465 32.4855L18.8013 33.7295L14.3551 41.4306L12.2003 40.1865ZM10.0211 51.2016C9.52044 49.1144 9.82478 46.8233 10.3376 44.8924C10.8552 42.9437 11.6231 41.2215 12.191 40.2028L14.3643 41.4143C13.8904 42.2644 13.2035 43.795 12.7424 45.5311C12.2765 47.2851 12.0784 49.1111 12.4406 50.6212L10.0211 51.2016ZM6.3611 56.8579L10.1535 50.2893L12.3083 51.5334L8.51589 58.102L6.3611 56.8579ZM31.1472 72.6047L6.81646 58.5574L8.06053 56.4026L32.3913 70.4499L31.1472 72.6047ZM38.0777 63.0889L32.8466 72.1494L30.6919 70.9053L35.9229 61.8448L38.0777 63.0889ZM50.9419 57.8008C48.9889 59.5561 46.2636 60.8877 43.7382 61.8393C41.1937 62.798 38.7357 63.4138 37.2245 63.6906L36.7762 61.2431C38.1491 60.9917 40.4629 60.4144 42.8609 59.5109C45.2779 58.6002 47.6655 57.4002 49.2786 55.9503L50.9419 57.8008ZM59.8384 52.9497C57.224 53.8376 53.5177 55.4857 50.9419 57.8008L49.2786 55.9503C52.2222 53.3045 56.2992 51.524 59.0383 50.5937L59.8384 52.9497ZM62.5184 48.8799C62.9419 50.9614 61.3121 52.4492 59.8384 52.9497L59.0383 50.5937C59.4199 50.4641 59.7285 50.2393 59.9093 50.0016C60.0779 49.7798 60.1209 49.576 60.0802 49.3759L62.5184 48.8799ZM48.275 44.8285C52.8517 43.1073 56.1949 42.983 58.568 43.9569C61.0032 44.9563 62.1338 46.9895 62.5184 48.8799L60.0802 49.3759C59.8143 48.0689 59.0963 46.8632 57.6233 46.2587C56.0881 45.6287 53.4634 45.5356 49.1508 47.1574L48.275 44.8285ZM62.2711 24.9977L49.7903 46.615L47.6355 45.3709L60.1163 23.7536L62.2711 24.9977Z" fill="#1E1E1E"/>
</g>
<defs>
<clipPath id="clip0_762_34855">
<rect width="52" height="66" fill="white" transform="matrix(-0.866025 -0.5 -0.5 0.866025 78.0332 26)"/>
</clipPath>
</defs>
</svg>
