<svg width="18" height="18" viewBox="0 0 18 18" fill="none" xmlns="http://www.w3.org/2000/svg">
<rect width="18" height="18" rx="9" fill="#BCC5D5"/>
<path d="M8.03408 10.7346C8.03818 10.2301 8.0874 9.82197 8.18174 9.51025C8.27607 9.19854 8.40732 8.95039 8.57549 8.76582C8.74775 8.57715 8.97744 8.39258 9.26455 8.21211C9.55576 8.02754 9.78135 7.82656 9.94131 7.60918C10.1054 7.3877 10.1874 7.1334 10.1874 6.84629C10.1874 6.6207 10.1341 6.42383 10.0274 6.25566C9.9208 6.0834 9.7752 5.9501 9.59062 5.85576C9.41016 5.76143 9.20713 5.71426 8.98154 5.71426C8.76826 5.71426 8.56934 5.75938 8.38477 5.84961C8.2002 5.93984 8.04844 6.07725 7.92949 6.26182C7.81465 6.44639 7.75107 6.66992 7.73877 6.93242H6.20068C6.21299 6.39922 6.34424 5.946 6.59443 5.57275C6.84463 5.19541 7.17891 4.9124 7.59727 4.72373C8.01562 4.53096 8.48115 4.43457 8.99385 4.43457C9.54346 4.43457 10.0295 4.53301 10.452 4.72988C10.8785 4.92266 11.2087 5.19951 11.4425 5.56045C11.6804 5.92139 11.7993 6.3418 11.7993 6.82168C11.7993 7.29746 11.6865 7.70762 11.4609 8.05215C11.2395 8.39668 10.9175 8.69609 10.495 8.95039C10.2489 9.09805 10.0521 9.25186 9.90439 9.41182C9.76084 9.56768 9.6542 9.7502 9.58447 9.95938C9.51475 10.1686 9.47783 10.427 9.47373 10.7346V10.8453H8.03408V10.7346ZM8.79697 13.5646C8.62471 13.5646 8.46475 13.5216 8.31709 13.4354C8.16943 13.3493 8.05254 13.2324 7.96641 13.0848C7.88027 12.9371 7.83721 12.7771 7.83721 12.6049C7.83721 12.4367 7.88027 12.2809 7.96641 12.1373C8.05254 11.9896 8.16943 11.8728 8.31709 11.7866C8.46475 11.7005 8.62471 11.6574 8.79697 11.6574C8.96104 11.6574 9.11484 11.7005 9.2584 11.7866C9.40605 11.8728 9.52295 11.9896 9.60908 12.1373C9.69932 12.2809 9.74443 12.4367 9.74443 12.6049C9.74443 12.7771 9.69932 12.9371 9.60908 13.0848C9.52295 13.2324 9.40605 13.3493 9.2584 13.4354C9.11484 13.5216 8.96104 13.5646 8.79697 13.5646Z" fill="white"/>
</svg>
