<svg width="40" height="40" viewBox="0 0 40 40" fill="none" xmlns="http://www.w3.org/2000/svg">
<path fill-rule="evenodd" clip-rule="evenodd" d="M13.4211 7.05259C13.6168 6.42637 14.1967 6 14.8528 6H25.1472C25.8033 6 26.3832 6.42637 26.5789 7.05259L27.5 10H36C37.1046 10 38 10.8954 38 12V33C38 34.1046 37.1046 35 36 35H4C2.89543 35 2 34.1046 2 33V12C2 10.8954 2.89543 10 4 10H12.5L13.4211 7.05259ZM25 22.5C25 25.2614 22.7614 27.5 20 27.5C17.2386 27.5 15 25.2614 15 22.5C15 19.7386 17.2386 17.5 20 17.5C22.7614 17.5 25 19.7386 25 22.5ZM27.5 22.5C27.5 26.6421 24.1421 30 20 30C15.8579 30 12.5 26.6421 12.5 22.5C12.5 18.3579 15.8579 15 20 15C24.1421 15 27.5 18.3579 27.5 22.5ZM28.75 12.5C28.0596 12.5 27.5 13.0596 27.5 13.75C27.5 14.4404 28.0596 15 28.75 15H32.5C33.1904 15 33.75 14.4404 33.75 13.75C33.75 13.0596 33.1904 12.5 32.5 12.5H28.75Z" fill="#929DB0"/>
</svg>
