<svg width="19" height="18" viewBox="0 0 19 18" fill="none" xmlns="http://www.w3.org/2000/svg">
<path fill-rule="evenodd" clip-rule="evenodd" d="M18.1395 9.20487C18.1395 8.56681 18.0824 7.95303 17.9757 7.36401H9.49951V10.8455H14.3431C14.1343 11.9704 13.5002 12.924 12.5472 13.562V15.82H15.4559C17.1577 14.2532 18.1395 11.9457 18.1395 9.20487Z" fill="#3E82F1"/>
<path fill-rule="evenodd" clip-rule="evenodd" d="M9.49946 17.9998C11.9293 17.9998 13.9669 17.1939 15.4558 15.8192L12.5472 13.5612C11.7412 14.1012 10.7103 14.4202 9.49946 14.4202C7.15555 14.4202 5.17111 12.8372 4.46328 10.7097H1.45654V13.0415C2.93741 15.983 5.98106 17.9998 9.49946 17.9998Z" fill="#32A753"/>
<path fill-rule="evenodd" clip-rule="evenodd" d="M4.46384 10.7098C4.28385 10.1699 4.18172 9.59299 4.18172 8.99994C4.18172 8.40688 4.28385 7.83 4.46384 7.29003V4.95825H1.45659C0.847357 6.17318 0.499512 7.54788 0.499512 8.99994C0.499512 10.452 0.847357 11.8267 1.45659 13.0416L4.46384 10.7098Z" fill="#F9BB00"/>
<path fill-rule="evenodd" clip-rule="evenodd" d="M9.49946 3.57957C10.8211 3.57957 12.0072 4.03359 12.94 4.92545L15.5215 2.34391C13.9628 0.89186 11.9253 0 9.49946 0C5.98106 0 2.93741 2.0168 1.45654 4.95832L4.46328 7.2901C5.17111 5.16258 7.15555 3.57957 9.49946 3.57957Z" fill="#E74133"/>
</svg>
