<svg width="19" height="18" viewBox="0 0 19 18" fill="none" xmlns="http://www.w3.org/2000/svg">
<path fill-rule="evenodd" clip-rule="evenodd" d="M9.49951 0.50499C4.52951 0.50499 0.499512 3.63499 0.499512 7.50499C0.499512 9.89999 2.0545 12.005 4.4295 13.275L3.4295 16.94C3.41194 17.0124 3.41662 17.0884 3.44295 17.1581C3.46927 17.2277 3.51601 17.2878 3.57706 17.3305C3.6381 17.3732 3.71062 17.3964 3.7851 17.3972C3.85957 17.398 3.93256 17.3763 3.99451 17.335L8.36951 14.435C8.73951 14.47 9.11451 14.49 9.49951 14.49C14.4695 14.49 18.4995 11.36 18.4995 7.48999C18.4995 3.61999 14.4695 0.48999 9.49951 0.48999" fill="#1A1A1A"/>
</svg>
