<svg width="19" height="18" viewBox="0 0 19 18" fill="none" xmlns="http://www.w3.org/2000/svg">
<path d="M12.9132 0C13.0298 1.05402 12.6059 2.11267 11.9757 2.87241C11.3483 3.63494 10.3147 4.22534 9.30692 4.14945C9.16811 3.11857 9.67985 2.03864 10.2638 1.36218C10.9115 0.60428 12.0081 0.0351649 12.9132 0Z" fill="#333333"/>
<path d="M16.1782 6.14334C16.0283 6.23427 14.2221 7.32941 14.2429 9.56111C14.2661 12.2882 16.6323 13.196 16.6573 13.2053C16.6567 13.2073 16.6557 13.2105 16.6544 13.2148C16.6137 13.3474 16.2488 14.538 15.4099 15.7677C14.6621 16.8615 13.883 17.9544 12.6578 17.9803C12.069 17.9894 11.6747 17.8186 11.2655 17.6414C10.836 17.4554 10.39 17.2622 9.6854 17.2622C8.94704 17.2622 8.48041 17.4607 8.03087 17.6519C7.64093 17.8178 7.26383 17.9782 6.7334 17.9988C5.55075 18.0432 4.65034 16.8153 3.89522 15.7214C2.34519 13.4875 1.16625 9.40565 2.75329 6.65076C3.54173 5.28581 4.94739 4.41779 6.47892 4.39651C7.13735 4.38339 7.77527 4.6362 8.33397 4.85761C8.76072 5.02673 9.14125 5.17754 9.44942 5.17754C9.72456 5.17754 10.0941 5.03156 10.5253 4.86121C11.2051 4.59269 12.0381 4.26361 12.8965 4.35024C13.4804 4.37615 15.1285 4.59176 16.1853 6.13902C16.1837 6.14004 16.1813 6.14148 16.1782 6.14334Z" fill="#333333"/>
</svg>
