<svg width="218" height="212" viewBox="0 0 218 212" fill="none" xmlns="http://www.w3.org/2000/svg">
<path fill-rule="evenodd" clip-rule="evenodd" d="M107.932 7.76019C145.269 5.25477 183.527 19.495 198.505 53.9614C213.972 89.5521 200.748 129.667 172.332 155.954C140.591 185.319 95.9779 205.01 58.4773 183.502C18.7011 160.689 3.41521 110.472 15.8688 66.2169C26.7896 27.4088 67.8732 10.4483 107.932 7.76019Z" fill="#E5E9F2"/>
<g filter="url(#filter0_i_16_3626)">
<rect width="26.7351" height="26.7351" rx="4.86093" transform="matrix(-0.965926 0.258819 0.258819 0.965926 31.8242 131)" fill="#FCCEFB"/>
</g>
<rect x="-0.343719" y="0.595339" width="25.7629" height="25.7629" rx="4.37483" transform="matrix(-0.965926 0.258819 0.258819 0.965926 30.9944 131.109)" stroke="#1C222B" stroke-width="0.972185"/>
<ellipse cx="1.36714" cy="0.75952" rx="1.36714" ry="0.75952" transform="matrix(-0.965926 0.258819 0.258819 0.965926 29.7812 140.983)" fill="#FBBAF9"/>
<ellipse cx="1.36714" cy="0.75952" rx="1.36714" ry="0.75952" transform="matrix(-0.965926 0.258819 0.258819 0.965926 21.124 143.303)" fill="#FBBAF9"/>
<path d="M26.0579 141.016C26.1853 141.492 26.6739 141.774 27.1493 141.647C27.6247 141.519 27.9069 141.031 27.7795 140.555C27.6521 140.08 27.1634 139.798 26.688 139.925C26.2126 140.052 25.9305 140.541 26.0579 141.016Z" fill="#1C222B"/>
<path d="M26.0218 145.574L26.2256 145.109C26.2922 144.958 26.222 144.781 26.0695 144.716L24.742 144.154C24.6158 144.101 24.4694 144.14 24.3876 144.25L23.5368 145.395C23.4389 145.527 23.4664 145.713 23.5983 145.811L24.0014 146.11C24.6909 146.621 25.6768 146.36 26.0218 145.574Z" fill="#FF6661"/>
<path d="M19.6018 142.746C19.7292 143.222 20.2179 143.504 20.6933 143.377C21.1687 143.249 21.4508 142.761 21.3234 142.285C21.196 141.81 20.7074 141.528 20.232 141.655C19.7566 141.782 19.4744 142.271 19.6018 142.746Z" fill="#1C222B"/>
<path fill-rule="evenodd" clip-rule="evenodd" d="M26.7325 142.849C26.556 142.795 26.3692 142.894 26.3152 143.071L25.8881 144.467C25.8737 144.514 25.8148 144.53 25.7786 144.497L24.7106 143.501C24.6264 143.422 24.5075 143.393 24.3963 143.422C24.285 143.452 24.1969 143.537 24.1632 143.648L23.7361 145.044C23.7217 145.091 23.6628 145.107 23.6266 145.073L22.5586 144.077C22.4236 143.952 22.2122 143.959 22.0863 144.094C21.9604 144.229 21.9678 144.44 22.1028 144.566L23.1708 145.562C23.5682 145.933 24.2164 145.759 24.3753 145.239L24.6459 144.354L25.3229 144.985C25.7202 145.356 26.3684 145.182 26.5273 144.663L26.9543 143.266C27.0083 143.09 26.909 142.903 26.7325 142.849Z" fill="#1C222B"/>
<g filter="url(#filter1_i_16_3626)">
<rect x="179.29" y="45" width="26.7351" height="26.7351" rx="4.86093" transform="rotate(7.06863 179.29 45)" fill="#F9EEFF"/>
</g>
<rect x="179.713" y="45.5422" width="25.7629" height="25.7629" rx="4.37483" transform="rotate(7.06863 179.713 45.5422)" stroke="#1C222B" stroke-width="0.972185"/>
<ellipse cx="185.45" cy="57.5065" rx="1.36714" ry="0.75952" transform="rotate(7.06863 185.45 57.5065)" fill="#EFD2FF"/>
<ellipse cx="194.343" cy="58.6095" rx="1.36714" ry="0.75952" transform="rotate(7.06863 194.343 58.6095)" fill="#EFD2FF"/>
<path d="M187.878 56.1037C187.817 56.5922 187.372 56.939 186.884 56.8785C186.395 56.8179 186.049 56.3728 186.109 55.8844C186.17 55.396 186.615 55.0491 187.103 55.1097C187.592 55.1702 187.938 55.6153 187.878 56.1037Z" fill="#1C222B"/>
<path d="M188.542 60.6124L188.277 60.1807C188.19 60.0397 188.235 59.8549 188.377 59.7699L189.614 59.0298C189.732 58.9594 189.882 58.9787 189.978 59.0764L190.979 60.093C191.094 60.21 191.093 60.3982 190.976 60.5133L190.618 60.8649C190.005 61.4665 188.993 61.3432 188.542 60.6124Z" fill="#FF6661"/>
<path d="M194.511 56.926C194.45 57.4144 194.005 57.7613 193.517 57.7007C193.028 57.6402 192.681 57.1951 192.742 56.7067C192.802 56.2182 193.248 55.8714 193.736 55.9319C194.224 55.9925 194.571 56.4376 194.511 56.926Z" fill="#1C222B"/>
<path fill-rule="evenodd" clip-rule="evenodd" d="M187.463 58.0122C187.631 57.9344 187.829 58.0069 187.907 58.1743L188.523 59.4984C188.544 59.5431 188.604 59.5507 188.635 59.5123L189.556 58.3787C189.628 58.2893 189.742 58.2435 189.856 58.2577C189.971 58.2719 190.069 58.344 190.118 58.4485L190.734 59.7725C190.755 59.8173 190.815 59.8248 190.846 59.7865L191.767 58.6529C191.883 58.5096 192.093 58.4878 192.237 58.6041C192.38 58.7204 192.402 58.9309 192.285 59.0742L191.365 60.2078C191.023 60.6296 190.357 60.547 190.128 60.0543L189.737 59.2151L189.154 59.9336C188.812 60.3554 188.146 60.2728 187.917 59.7802L187.301 58.4561C187.223 58.2887 187.296 58.09 187.463 58.0122Z" fill="#1C222B"/>
<path d="M186.37 56.2433C186.35 56.4098 186.468 56.5616 186.634 56.5822C186.801 56.6029 186.953 56.4846 186.973 56.3181C186.994 56.1516 186.876 55.9999 186.709 55.9792C186.543 55.9586 186.391 56.0768 186.37 56.2433Z" fill="white"/>
<path d="M187.048 55.7155C187.027 55.882 187.146 56.0337 187.312 56.0544C187.479 56.075 187.63 55.9568 187.651 55.7903C187.672 55.6238 187.553 55.472 187.387 55.4514C187.22 55.4307 187.069 55.549 187.048 55.7155Z" fill="white"/>
<path d="M193.003 57.0661C192.983 57.2326 193.101 57.3843 193.267 57.405C193.434 57.4256 193.586 57.3074 193.606 57.1409C193.627 56.9743 193.509 56.8226 193.342 56.802C193.176 56.7813 193.024 56.8996 193.003 57.0661Z" fill="white"/>
<path d="M193.682 56.5378C193.661 56.7043 193.779 56.856 193.946 56.8766C194.113 56.8973 194.264 56.779 194.285 56.6125C194.306 56.446 194.187 56.2943 194.021 56.2736C193.854 56.253 193.703 56.3712 193.682 56.5378Z" fill="white"/>
<g filter="url(#filter2_i_16_3626)">
<rect width="26.7351" height="26.7351" rx="4.86093" transform="matrix(-0.99585 0.0910123 0.0910123 0.99585 42.624 18)" fill="#FFCEE3"/>
</g>
<rect x="-0.439835" y="0.528316" width="25.7629" height="25.7629" rx="4.37483" transform="matrix(-0.99585 0.0910123 0.0910123 0.99585 41.6981 18.0422)" stroke="#1C222B" stroke-width="0.972185"/>
<ellipse cx="1.36714" cy="0.75952" rx="1.36714" ry="0.75952" transform="matrix(-0.99585 0.0910123 0.0910123 0.99585 40.6475 31.6494)" fill="#FFBDDA"/>
<ellipse cx="1.36714" cy="0.75952" rx="1.36714" ry="0.75952" transform="matrix(-0.99585 0.0910123 0.0910123 0.99585 31.7227 32.4648)" fill="#FFBDDA"/>
<path d="M36.9722 31.0497C37.017 31.5398 37.4506 31.9008 37.9408 31.8561C38.4309 31.8113 38.7919 31.3776 38.7471 30.8875C38.7023 30.3973 38.2687 30.0363 37.7785 30.0811C37.2884 30.1259 36.9274 30.5595 36.9722 31.0497Z" fill="#1C222B"/>
<path d="M30.3159 31.6581C30.3607 32.1482 30.7944 32.5092 31.2845 32.4644C31.7746 32.4197 32.1357 31.986 32.0909 31.4959C32.0461 31.0057 31.6124 30.6447 31.1223 30.6895C30.6322 30.7343 30.2711 31.1679 30.3159 31.6581Z" fill="#1C222B"/>
<path fill-rule="evenodd" clip-rule="evenodd" d="M37.3257 32.9702C37.1609 32.887 36.9599 32.9532 36.8768 33.1179L36.2188 34.4215C36.1965 34.4656 36.1358 34.4711 36.1059 34.4318L35.2225 33.2691C35.1528 33.1774 35.0408 33.128 34.926 33.1385C34.8113 33.149 34.71 33.2179 34.6581 33.3207L34.0001 34.6242C33.9779 34.6683 33.9171 34.6739 33.8872 34.6346L33.0039 33.4719C32.8922 33.3249 32.6825 33.2963 32.5356 33.408C32.3886 33.5196 32.36 33.7293 32.4717 33.8763L33.355 35.0389C33.6837 35.4715 34.352 35.4105 34.5968 34.9254L35.0138 34.0992L35.5737 34.8361C35.9024 35.2688 36.5706 35.2077 36.8155 34.7227L37.4734 33.4191C37.5566 33.2544 37.4905 33.0534 37.3257 32.9702Z" fill="#1C222B"/>
<g filter="url(#filter3_i_16_3626)">
<rect x="181.92" y="156" width="26.7351" height="26.7351" rx="4.86093" transform="rotate(15 181.92 156)" fill="#DDE2ED"/>
</g>
<rect x="182.264" y="156.595" width="25.7629" height="25.7629" rx="4.37483" transform="rotate(15 182.264 156.595)" stroke="#1C222B" stroke-width="0.972185"/>
<ellipse cx="183.518" cy="169.377" rx="1.36714" ry="0.75952" transform="rotate(15 183.518 169.377)" fill="#CED5E4"/>
<ellipse cx="192.175" cy="171.696" rx="1.36714" ry="0.75952" transform="rotate(15 192.175 171.696)" fill="#CED5E4"/>
<path d="M186.117 168.322C185.99 168.798 185.501 169.08 185.025 168.952C184.55 168.825 184.268 168.336 184.395 167.861C184.523 167.385 185.011 167.103 185.487 167.231C185.962 167.358 186.244 167.847 186.117 168.322Z" fill="#1C222B"/>
<path d="M186.153 172.879L185.949 172.415C185.883 172.263 185.953 172.087 186.105 172.022L187.433 171.46C187.559 171.406 187.705 171.446 187.787 171.556L188.638 172.701C188.736 172.833 188.708 173.019 188.576 173.117L188.173 173.416C187.484 173.927 186.498 173.665 186.153 172.879Z" fill="#FF6661"/>
<path d="M192.573 170.052C192.446 170.527 191.957 170.81 191.482 170.682C191.006 170.555 190.724 170.066 190.851 169.591C190.979 169.115 191.467 168.833 191.943 168.961C192.418 169.088 192.7 169.577 192.573 170.052Z" fill="#1C222B"/>
<path fill-rule="evenodd" clip-rule="evenodd" d="M185.442 170.155C185.619 170.101 185.806 170.2 185.86 170.377L186.287 171.773C186.301 171.82 186.36 171.836 186.396 171.802L187.464 170.806C187.548 170.728 187.667 170.698 187.779 170.728C187.89 170.758 187.978 170.843 188.012 170.953L188.439 172.35C188.453 172.397 188.512 172.413 188.548 172.379L189.616 171.383C189.751 171.257 189.963 171.265 190.089 171.4C190.214 171.535 190.207 171.746 190.072 171.872L189.004 172.868C188.607 173.238 187.958 173.065 187.8 172.545L187.529 171.66L186.852 172.291C186.455 172.662 185.806 172.488 185.648 171.968L185.22 170.572C185.166 170.396 185.266 170.209 185.442 170.155Z" fill="#1C222B"/>
<path d="M55.75 39C55.75 37.2051 57.2051 35.75 59 35.75H159C160.795 35.75 162.25 37.2051 162.25 39V208.25H55.75V39Z" fill="#B3C3E0" stroke="#1C222B" stroke-width="1.5"/>
<mask id="path-38-inside-1_16_3626" fill="white">
<path d="M79 35H139V33C139 31.8954 138.105 31 137 31H81C79.8954 31 79 31.8954 79 33V35Z"/>
</mask>
<path d="M79 35H139V33C139 31.8954 138.105 31 137 31H81C79.8954 31 79 31.8954 79 33V35Z" fill="#6B8BC2"/>
<path d="M79 35H139H79ZM140.5 33C140.5 31.067 138.933 29.5 137 29.5H81C79.067 29.5 77.5 31.067 77.5 33H80.5C80.5 32.7239 80.7239 32.5 81 32.5H137C137.276 32.5 137.5 32.7239 137.5 33H140.5ZM81 29.5C79.067 29.5 77.5 31.067 77.5 33V35H80.5V33C80.5 32.7239 80.7239 32.5 81 32.5V29.5ZM140.5 35V33C140.5 31.067 138.933 29.5 137 29.5V32.5C137.276 32.5 137.5 32.7239 137.5 33V35H140.5Z" fill="#1C222B" mask="url(#path-38-inside-1_16_3626)"/>
<rect x="70.25" y="50.25" width="21.5" height="29.5" fill="#D7E0EF" stroke="#1C222B" stroke-width="1.5" stroke-linejoin="round"/>
<path d="M85.75 72.25L91 65V79H81L85.75 72.25Z" fill="#EEF2F8"/>
<rect x="70.25" y="84.25" width="21.5" height="29.5" fill="#D7E0EF" stroke="#1C222B" stroke-width="1.5" stroke-linejoin="round"/>
<rect x="70.25" y="118.25" width="21.5" height="29.5" fill="#D7E0EF" stroke="#1C222B" stroke-width="1.5" stroke-linejoin="round"/>
<rect x="70.25" y="118.25" width="21.5" height="3.5" fill="#6B8BC2" stroke="#1C222B" stroke-width="1.5" stroke-linejoin="round"/>
<rect x="70.25" y="84.25" width="21.5" height="3.5" fill="#6B8BC2" stroke="#1C222B" stroke-width="1.5" stroke-linejoin="round"/>
<rect x="70.25" y="50.25" width="21.5" height="3.5" fill="#6B8BC2" stroke="#1C222B" stroke-width="1.5" stroke-linejoin="round"/>
<rect x="70.25" y="152.25" width="77.5" height="20.5" fill="#D7E0EF" stroke="#1C222B" stroke-width="1.5" stroke-linejoin="round"/>
<path d="M135.125 162L147 153V172H122L135.125 162Z" fill="#EEF2F8"/>
<rect x="70.25" y="152.25" width="77.5" height="3.5" fill="#6B8BC2" stroke="#1C222B" stroke-width="1.5" stroke-linejoin="round"/>
<rect x="98.25" y="50.25" width="21.5" height="29.5" fill="#D7E0EF" stroke="#1C222B" stroke-width="1.5" stroke-linejoin="round"/>
<rect x="98.25" y="84.25" width="21.5" height="29.5" fill="#D7E0EF" stroke="#1C222B" stroke-width="1.5" stroke-linejoin="round"/>
<rect x="98.25" y="118.25" width="21.5" height="29.5" fill="#D7E0EF" stroke="#1C222B" stroke-width="1.5" stroke-linejoin="round"/>
<rect x="98.25" y="118.25" width="21.5" height="3.5" fill="#6B8BC2" stroke="#1C222B" stroke-width="1.5" stroke-linejoin="round"/>
<rect x="98.25" y="84.25" width="21.5" height="3.5" fill="#6B8BC2" stroke="#1C222B" stroke-width="1.5" stroke-linejoin="round"/>
<rect x="98.25" y="50.25" width="21.5" height="3.5" fill="#6B8BC2" stroke="#1C222B" stroke-width="1.5" stroke-linejoin="round"/>
<path d="M94 180H124V208H94V180Z" fill="#D7E0EF" stroke="#1C222B" stroke-width="1.5"/>
<path fill-rule="evenodd" clip-rule="evenodd" d="M121.133 181.929H96.8667V205.071H121.133V181.929ZM95 180V207H123V180H95Z" fill="#6B8BC2"/>
<rect x="108" y="180" width="2" height="27" fill="#6B8BC2"/>
<rect x="89.25" y="179.25" width="39.5" height="7.5" fill="#6B8BC2" stroke="#1C222B" stroke-width="1.5" stroke-linejoin="round"/>
<rect x="126.25" y="50.25" width="21.5" height="29.5" fill="#D7E0EF" stroke="#1C222B" stroke-width="1.5" stroke-linejoin="round"/>
<rect x="126.25" y="84.25" width="21.5" height="29.5" fill="#D7E0EF" stroke="#1C222B" stroke-width="1.5" stroke-linejoin="round"/>
<rect x="126.25" y="118.25" width="21.5" height="29.5" fill="#D7E0EF" stroke="#1C222B" stroke-width="1.5" stroke-linejoin="round"/>
<rect x="126.25" y="118.25" width="21.5" height="3.5" fill="#6B8BC2" stroke="#1C222B" stroke-width="1.5" stroke-linejoin="round"/>
<rect x="126.25" y="84.25" width="21.5" height="3.5" fill="#6B8BC2" stroke="#1C222B" stroke-width="1.5" stroke-linejoin="round"/>
<rect x="126.25" y="50.25" width="21.5" height="3.5" fill="#6B8BC2" stroke="#1C222B" stroke-width="1.5" stroke-linejoin="round"/>
<path d="M85.75 72.25L91 65V79H81L85.75 72.25Z" fill="#EEF2F8"/>
<path d="M85.75 106.25L91 99V113H81L85.75 106.25Z" fill="#EEF2F8"/>
<path d="M85.75 140.25L91 133V147H81L85.75 140.25Z" fill="#EEF2F8"/>
<path d="M113.75 72.25L119 65V79H109L113.75 72.25Z" fill="#EEF2F8"/>
<path d="M113.75 106.25L119 99V113H109L113.75 106.25Z" fill="#EEF2F8"/>
<path d="M113.75 140.25L119 133V147H109L113.75 140.25Z" fill="#EEF2F8"/>
<path d="M141.75 72.25L147 65V79H137L141.75 72.25Z" fill="#EEF2F8"/>
<path d="M141.75 106.25L147 99V113H137L141.75 106.25Z" fill="#EEF2F8"/>
<path d="M141.75 140.25L147 133V147H137L141.75 140.25Z" fill="#EEF2F8"/>
<defs>
<filter id="filter0_i_16_3626" x="7.09131" y="132.091" width="30.561" height="30.561" filterUnits="userSpaceOnUse" color-interpolation-filters="sRGB">
<feFlood flood-opacity="0" result="BackgroundImageFix"/>
<feBlend mode="normal" in="SourceGraphic" in2="BackgroundImageFix" result="shape"/>
<feColorMatrix in="SourceAlpha" type="matrix" values="0 0 0 0 0 0 0 0 0 0 0 0 0 0 0 0 0 0 127 0" result="hardAlpha"/>
<feOffset dx="2.22" dy="-2.78"/>
<feComposite in2="hardAlpha" operator="arithmetic" k2="-1" k3="1"/>
<feColorMatrix type="matrix" values="0 0 0 0 1 0 0 0 0 0.665501 0 0 0 0 0.992728 0 0 0 1 0"/>
<feBlend mode="normal" in2="shape" result="effect1_innerShadow_16_3626"/>
</filter>
<filter id="filter1_i_16_3626" x="176.561" y="45.5605" width="28.7002" height="28.7007" filterUnits="userSpaceOnUse" color-interpolation-filters="sRGB">
<feFlood flood-opacity="0" result="BackgroundImageFix"/>
<feBlend mode="normal" in="SourceGraphic" in2="BackgroundImageFix" result="shape"/>
<feColorMatrix in="SourceAlpha" type="matrix" values="0 0 0 0 0 0 0 0 0 0 0 0 0 0 0 0 0 0 127 0" result="hardAlpha"/>
<feOffset dx="-1.78234" dy="-1.78234"/>
<feComposite in2="hardAlpha" operator="arithmetic" k2="-1" k3="1"/>
<feColorMatrix type="matrix" values="0 0 0 0 0.937255 0 0 0 0 0.823529 0 0 0 0 1 0 0 0 1 0"/>
<feBlend mode="normal" in2="shape" result="effect1_innerShadow_16_3626"/>
</filter>
<filter id="filter2_i_16_3626" x="16.4219" y="18.4219" width="28.2134" height="28.2134" filterUnits="userSpaceOnUse" color-interpolation-filters="sRGB">
<feFlood flood-opacity="0" result="BackgroundImageFix"/>
<feBlend mode="normal" in="SourceGraphic" in2="BackgroundImageFix" result="shape"/>
<feColorMatrix in="SourceAlpha" type="matrix" values="0 0 0 0 0 0 0 0 0 0 0 0 0 0 0 0 0 0 127 0" result="hardAlpha"/>
<feOffset dx="2.22" dy="2.22"/>
<feComposite in2="hardAlpha" operator="arithmetic" k2="-1" k3="1"/>
<feColorMatrix type="matrix" values="0 0 0 0 1 0 0 0 0 0.710114 0 0 0 0 0.834351 0 0 0 1 0"/>
<feBlend mode="normal" in2="shape" result="effect1_innerShadow_16_3626"/>
</filter>
<filter id="filter3_i_16_3626" x="176.092" y="157.091" width="30.561" height="30.561" filterUnits="userSpaceOnUse" color-interpolation-filters="sRGB">
<feFlood flood-opacity="0" result="BackgroundImageFix"/>
<feBlend mode="normal" in="SourceGraphic" in2="BackgroundImageFix" result="shape"/>
<feColorMatrix in="SourceAlpha" type="matrix" values="0 0 0 0 0 0 0 0 0 0 0 0 0 0 0 0 0 0 127 0" result="hardAlpha"/>
<feOffset dx="-1.78234" dy="-1.78234"/>
<feComposite in2="hardAlpha" operator="arithmetic" k2="-1" k3="1"/>
<feColorMatrix type="matrix" values="0 0 0 0 0.689739 0 0 0 0 0.723581 0 0 0 0 0.798033 0 0 0 1 0"/>
<feBlend mode="normal" in2="shape" result="effect1_innerShadow_16_3626"/>
</filter>
</defs>
</svg>
