<svg width="400" height="96" viewBox="0 0 400 96" fill="none" xmlns="http://www.w3.org/2000/svg">
<path d="M58.4236 20.081C59.2357 20.081 59.8939 20.7393 59.8939 21.5513V60.5399C59.8939 61.352 59.2357 62.0103 58.4236 62.0103H31.1711C30.3591 62.0103 29.7008 61.352 29.7008 60.5399V21.5513C29.7008 20.7393 30.3591 20.081 31.1711 20.081H58.4236ZM36.3962 55.0155C36.3962 55.8276 37.0545 56.4859 37.8666 56.4859H51.6009C52.4129 56.4859 53.0712 55.8276 53.0712 55.0155V26.9738C53.0712 26.1618 52.4129 25.5035 51.6009 25.5035H37.8666C37.0545 25.5035 36.3962 26.1618 36.3962 26.9738V55.0155ZM72.133 78.2015C71.321 78.2015 70.6627 77.5432 70.6627 76.7312V15.1614C70.6627 14.3493 71.321 13.691 72.133 13.691H76.0405C76.8526 13.691 77.5109 14.3493 77.5109 15.1614V37.5005C77.5109 38.3125 78.1691 38.9708 78.9812 38.9708H86.3765C87.1885 38.9708 87.8468 39.6291 87.8468 40.4411V43.2794C87.8468 44.0915 87.1885 44.7497 86.3765 44.7497H78.9812C78.1691 44.7497 77.5109 45.408 77.5109 46.2201V76.7312C77.5109 77.5432 76.8526 78.2015 76.0405 78.2015H72.133Z" fill="#1C222B"/>
<path d="M114.651 30.1114C114.603 41.2312 120.922 52.419 130.038 57.3478C130.873 57.7994 131.158 58.8926 130.585 59.6496L128.308 62.6579C127.886 63.2145 127.13 63.4021 126.514 63.0718C120.782 59.9938 116.057 54.6594 112.97 48.1241C112.364 46.8414 110.296 46.8693 109.732 48.1713C106.65 55.2917 101.789 61.1294 95.7503 64.4301C95.1298 64.7693 94.3618 64.5773 93.9407 64.0092L91.5315 60.7581C90.9716 60.0026 91.2563 58.9238 92.0815 58.473C101.358 53.4053 107.729 41.7583 107.778 30.1114V20.533C107.778 19.7209 108.436 19.0627 109.248 19.0627H113.181C113.993 19.0627 114.651 19.7209 114.651 20.533V30.1114ZM139.008 78.3288C138.196 78.3288 137.538 77.6705 137.538 76.8585V15.1614C137.538 14.3493 138.196 13.691 139.008 13.691H142.941C143.753 13.691 144.412 14.3493 144.412 15.1614V76.8585C144.412 77.6705 143.753 78.3288 142.941 78.3288H139.008Z" fill="#1C222B"/>
<path d="M209.384 13.7419C210.196 13.7419 210.855 14.4002 210.855 15.2123V43.0975C210.855 43.9096 210.196 44.5678 209.384 44.5678H205.859C205.047 44.5678 204.388 43.9096 204.388 43.0975V15.2123C204.388 14.4002 205.047 13.7419 205.859 13.7419H209.384ZM160.009 43.706C159.197 43.706 158.539 43.0477 158.539 42.2356V19.1583C158.539 18.3462 159.197 17.6879 160.009 17.6879H182.323C183.135 17.6879 183.793 18.3462 183.793 19.1583V26.1208C183.793 26.9328 184.451 27.5911 185.263 27.5911H190.444C191.256 27.5911 191.914 26.9328 191.914 26.1208V16.4852C191.914 15.6731 192.572 15.0148 193.384 15.0148H196.935C197.747 15.0148 198.406 15.6731 198.406 16.4852V43.0975C198.406 43.9096 197.747 44.5678 196.935 44.5678H193.37C192.558 44.5678 191.899 43.9085 191.9 43.0957L191.912 34.6894C191.913 33.8767 191.255 33.2173 190.442 33.2173H185.263C184.451 33.2173 183.793 33.8756 183.793 34.6876V42.2356C183.793 43.0477 183.135 43.706 182.323 43.706H160.009ZM165.005 37.0168C165.005 37.8288 165.663 38.4871 166.475 38.4871H175.958C176.77 38.4871 177.428 37.8288 177.428 37.0168V24.5299C177.428 23.7178 176.77 23.0596 175.958 23.0596H166.475C165.663 23.0596 165.005 23.7178 165.005 24.5299V37.0168ZM169.072 55.2384C168.26 55.2384 167.602 54.5801 167.602 53.7681V51.2353C167.602 50.4233 168.26 49.765 169.072 49.765H209.384C210.196 49.765 210.855 50.4233 210.855 51.2353V64.3332C210.855 65.1452 210.196 65.8035 209.384 65.8035H176.047C175.235 65.8035 174.577 66.4618 174.577 67.2738V70.4431C174.577 71.2551 175.235 71.9134 176.047 71.9134H211.854C212.666 71.9134 213.324 72.5717 213.324 73.3837V75.9165C213.324 76.7286 212.666 77.3869 211.854 77.3869H169.199C168.387 77.3869 167.729 76.7286 167.729 75.9165V62.1313C167.729 61.3193 168.387 60.661 169.199 60.661H202.612C203.425 60.661 204.083 60.0027 204.083 59.1907V56.7088C204.083 55.8967 203.425 55.2384 202.612 55.2384H169.072Z" fill="#1C222B"/>
<path d="M280.734 64.7852C281.546 64.7852 282.204 65.4435 282.204 66.2555V68.992C282.204 69.804 281.546 70.4623 280.734 70.4623H224.637C223.825 70.4623 223.167 69.804 223.167 68.992V66.2555C223.167 65.4435 223.825 64.7852 224.637 64.7852H247.664C248.476 64.7852 249.134 64.1269 249.134 63.3148V54.9012C249.134 54.0892 248.476 53.4309 247.664 53.4309H231.816C231.004 53.4309 230.346 52.7726 230.346 51.9606V34.3821C230.346 33.5701 231.004 32.9118 231.816 32.9118H266.757C267.569 32.9118 268.227 32.2535 268.227 31.4415V25.3191C268.227 24.507 267.569 23.8488 266.757 23.8488H231.689C230.877 23.8488 230.219 23.1905 230.219 22.3784V19.7438C230.219 18.9317 230.877 18.2735 231.689 18.2735H273.503C274.316 18.2735 274.974 18.9317 274.974 19.7438V36.9404C274.974 37.7524 274.316 38.4107 273.503 38.4107H238.614C237.802 38.4107 237.143 39.069 237.143 39.881V46.3598C237.143 47.1719 237.802 47.8302 238.614 47.8302H275.005C275.818 47.8302 276.476 48.4885 276.476 49.3005V51.9606C276.476 52.7726 275.818 53.4309 275.005 53.4309H257.376C256.564 53.4309 255.906 54.0892 255.906 54.9012V63.3148C255.906 64.1269 256.564 64.7852 257.376 64.7852H280.734Z" fill="#1C222B"/>
<path d="M347.291 50.3505C348.103 50.3505 348.761 51.0088 348.761 51.8208V54.5573C348.761 55.3693 348.103 56.0276 347.291 56.0276H323.908C323.096 56.0276 322.438 56.6859 322.438 57.498V76.7567C322.438 77.5687 321.779 78.227 320.967 78.227H317.187C316.375 78.227 315.717 77.5687 315.717 76.7567V57.498C315.717 56.6859 315.058 56.0276 314.246 56.0276H291.194C290.382 56.0276 289.724 55.3693 289.724 54.5573V51.8208C289.724 51.0088 290.382 50.3505 291.194 50.3505H347.291ZM296.165 30.4678C296.165 21.6848 305.457 16.1605 319.103 16.1095C332.748 16.1605 342.117 21.6848 342.117 30.4678C342.117 39.149 332.748 44.6479 319.103 44.6479C305.457 44.6479 296.165 39.149 296.165 30.4678ZM303.191 30.4678C303.141 35.8395 309.53 39.1745 319.103 39.1745C328.7 39.1745 335.065 35.8395 335.065 30.4678C335.065 25.0453 328.7 21.6594 319.103 21.6594C309.53 21.6594 303.141 25.0453 303.191 30.4678Z" fill="#1C222B"/>
<path fill-rule="evenodd" clip-rule="evenodd" d="M116.122 30.1178C116.076 40.7446 122.14 51.4062 130.737 56.0545C132.293 56.8956 132.923 58.9979 131.757 60.537L129.48 63.5453C128.648 64.6449 127.11 65.0602 125.819 64.3673C119.763 61.1155 114.838 55.5206 111.64 48.7522C111.633 48.737 111.622 48.7191 111.582 48.6974C111.535 48.6713 111.455 48.6472 111.356 48.6486C111.257 48.65 111.179 48.6763 111.134 48.7027C111.097 48.7244 111.088 48.741 111.081 48.7553C107.898 56.1095 102.84 62.2309 96.4555 65.7203C95.1522 66.4327 93.5909 66.0065 92.7594 64.8846L90.3502 61.6335C89.2121 60.0978 89.8391 58.0226 91.3766 57.1827C100.117 52.4075 106.26 41.2967 106.307 30.108V20.533C106.307 18.9089 107.624 17.5923 109.248 17.5923H113.181C114.805 17.5923 116.122 18.9089 116.122 20.533V30.1178ZM107.778 30.1114C107.729 41.7583 101.358 53.4053 92.0815 58.473C91.2563 58.9238 90.9716 60.0026 91.5315 60.7581L93.9407 64.0092C94.3618 64.5773 95.1298 64.7693 95.7503 64.4301C101.789 61.1294 106.65 55.2917 109.732 48.1713C110.296 46.8693 112.364 46.8414 112.97 48.1241C116.057 54.6594 120.782 59.9938 126.514 63.0718C127.13 63.4021 127.886 63.2145 128.308 62.6579L130.585 59.6496C131.158 58.8926 130.873 57.7994 130.038 57.3478C120.922 52.419 114.603 41.2312 114.651 30.1114V20.533C114.651 19.7209 113.993 19.0627 113.181 19.0627H109.248C108.436 19.0627 107.778 19.7209 107.778 20.533V30.1114ZM319.097 14.6392L319.108 14.6392C326.102 14.6653 332.147 16.0909 336.496 18.7612C340.886 21.4569 343.587 25.4649 343.587 30.4678C343.587 35.427 340.879 39.4028 336.49 42.0698C332.141 44.7127 326.097 46.1182 319.103 46.1182C312.108 46.1182 306.082 44.7127 301.751 42.0682C297.378 39.3986 294.695 35.4219 294.695 30.4678C294.695 25.4699 297.371 21.4611 301.745 18.7628C306.076 16.0909 312.103 14.6653 319.097 14.6392ZM304.662 30.4679L304.662 30.4818C304.643 32.464 305.772 34.2106 308.237 35.5417C310.735 36.8906 314.458 37.7041 319.103 37.7041C323.76 37.7041 327.483 36.8906 329.985 35.5414C332.453 34.2101 333.594 32.4587 333.594 30.4678C333.594 28.4432 332.444 26.6673 329.978 25.3205C327.478 23.955 323.757 23.1297 319.103 23.1297C314.461 23.1297 310.741 23.955 308.244 25.3202C305.781 26.6668 304.643 28.438 304.662 30.454L304.662 30.4679ZM61.3643 21.5513V60.5399C61.3643 62.164 60.0477 63.4806 58.4236 63.4806H31.1711C29.547 63.4806 28.2305 62.164 28.2305 60.5399V21.5513C28.2305 19.9272 29.547 18.6107 31.1711 18.6107H58.4236C60.0477 18.6107 61.3643 19.9272 61.3643 21.5513ZM37.8666 55.0155H51.6009L51.6009 26.9738H37.8666L37.8666 55.0155ZM69.1923 76.7312V15.1614C69.1923 13.5373 70.5089 12.2207 72.133 12.2207H76.0405C77.6646 12.2207 78.9812 13.5373 78.9812 15.1614V37.5005L86.3765 37.5005C88.0005 37.5005 89.3171 38.817 89.3171 40.4411V43.2794C89.3171 44.9035 88.0005 46.2201 86.3765 46.2201H78.9812V76.7312C78.9812 78.3553 77.6646 79.6718 76.0405 79.6718H72.133C70.5089 79.6718 69.1923 78.3553 69.1923 76.7312ZM136.068 76.8585V15.1614C136.068 13.5373 137.384 12.2207 139.008 12.2207H142.941C144.565 12.2207 145.882 13.5373 145.882 15.1614V76.8585C145.882 78.4826 144.565 79.7991 142.941 79.7991H139.008C137.384 79.7991 136.068 78.4826 136.068 76.8585ZM212.325 15.2123V43.0975C212.325 44.7216 211.008 46.0382 209.384 46.0382H205.859C204.235 46.0382 202.918 44.7216 202.918 43.0975V15.2123C202.918 13.5882 204.235 12.2716 205.859 12.2716H209.384C211.008 12.2716 212.325 13.5882 212.325 15.2123ZM157.068 42.2356V19.1583C157.068 17.5342 158.385 16.2176 160.009 16.2176H182.323C183.947 16.2176 185.263 17.5342 185.263 19.1583V26.1208L190.444 26.1208V16.4852C190.444 14.8611 191.76 13.5445 193.384 13.5445H196.935C198.559 13.5445 199.876 14.8611 199.876 16.4852V43.0975C199.876 44.7216 198.559 46.0382 196.935 46.0382H193.37C191.745 46.0382 190.428 44.7194 190.43 43.094L190.442 34.6876H185.263V42.2356C185.263 43.8597 183.947 45.1763 182.323 45.1763H160.009C158.385 45.1763 157.068 43.8597 157.068 42.2356ZM166.475 37.0168H175.958V24.5299L166.475 24.5299V37.0168ZM166.131 53.7681V51.2353C166.131 49.6112 167.448 48.2946 169.072 48.2946H209.384C211.008 48.2946 212.325 49.6112 212.325 51.2353V64.3332C212.325 65.9572 211.008 67.2738 209.384 67.2738H176.047V70.4431H211.854C213.478 70.4431 214.794 71.7597 214.794 73.3837V75.9165C214.794 77.5406 213.478 78.8572 211.854 78.8572H169.199C167.575 78.8572 166.259 77.5406 166.259 75.9165V62.1313C166.259 60.5072 167.575 59.1907 169.199 59.1907H202.612V56.7088H169.072C167.448 56.7088 166.131 55.3922 166.131 53.7681ZM283.674 66.2555V68.992C283.674 70.616 282.358 71.9326 280.734 71.9326H224.637C223.013 71.9326 221.696 70.616 221.696 68.992V66.2555C221.696 64.6314 223.013 63.3148 224.637 63.3148H247.664V54.9012H231.816C230.192 54.9012 228.876 53.5847 228.876 51.9606V34.3821C228.876 32.758 230.192 31.4415 231.816 31.4415H266.757V25.3191H231.689C230.065 25.3191 228.748 24.0025 228.748 22.3784V19.7438C228.748 18.1197 230.065 16.8031 231.689 16.8031H273.503C275.128 16.8031 276.444 18.1197 276.444 19.7438V36.9404C276.444 38.5645 275.128 39.881 273.503 39.881H238.614V46.3598H275.005C276.63 46.3598 277.946 47.6764 277.946 49.3005V51.9606C277.946 53.5847 276.63 54.9012 275.005 54.9012H257.376V63.3148H280.734C282.358 63.3148 283.674 64.6314 283.674 66.2555ZM350.232 51.8208V54.5573C350.232 56.1814 348.915 57.498 347.291 57.498H323.908V76.7567C323.908 78.3807 322.591 79.6973 320.967 79.6973H317.187C315.563 79.6973 314.246 78.3807 314.246 76.7567V57.498H291.194C289.57 57.498 288.254 56.1814 288.254 54.5573V51.8208C288.254 50.1967 289.57 48.8802 291.194 48.8802H347.291C348.915 48.8802 350.232 50.1967 350.232 51.8208ZM303.191 30.4678C303.141 35.8395 309.53 39.1745 319.103 39.1745C328.7 39.1745 335.065 35.8395 335.065 30.4678C335.065 25.0453 328.7 21.6594 319.103 21.6594C309.53 21.6594 303.141 25.0453 303.191 30.4678ZM58.4236 20.081C59.2357 20.081 59.8939 20.7393 59.8939 21.5513V60.5399C59.8939 61.352 59.2357 62.0103 58.4236 62.0103H31.1711C30.3591 62.0103 29.7008 61.352 29.7008 60.5399V21.5513C29.7008 20.7393 30.3591 20.081 31.1711 20.081H58.4236ZM36.3962 55.0155C36.3962 55.8276 37.0545 56.4859 37.8666 56.4859H51.6009C52.4129 56.4859 53.0712 55.8276 53.0712 55.0155V26.9738C53.0712 26.1618 52.4129 25.5035 51.6009 25.5035H37.8666C37.0545 25.5035 36.3962 26.1618 36.3962 26.9738V55.0155ZM72.133 78.2015C71.321 78.2015 70.6627 77.5432 70.6627 76.7312V15.1614C70.6627 14.3493 71.321 13.691 72.133 13.691H76.0405C76.8526 13.691 77.5109 14.3493 77.5109 15.1614V37.5005C77.5109 38.3125 78.1691 38.9708 78.9812 38.9708H86.3765C87.1885 38.9708 87.8468 39.6291 87.8468 40.4411V43.2794C87.8468 44.0915 87.1885 44.7497 86.3765 44.7497H78.9812C78.1691 44.7497 77.5109 45.408 77.5109 46.2201V76.7312C77.5109 77.5432 76.8526 78.2015 76.0405 78.2015H72.133ZM139.008 78.3288C138.196 78.3288 137.538 77.6705 137.538 76.8585V15.1614C137.538 14.3493 138.196 13.691 139.008 13.691H142.941C143.753 13.691 144.412 14.3493 144.412 15.1614V76.8585C144.412 77.6705 143.753 78.3288 142.941 78.3288H139.008ZM210.855 15.2123C210.855 14.4002 210.196 13.7419 209.384 13.7419H205.859C205.047 13.7419 204.388 14.4002 204.388 15.2123V43.0975C204.388 43.9096 205.047 44.5678 205.859 44.5678H209.384C210.196 44.5678 210.855 43.9096 210.855 43.0975V15.2123ZM158.539 42.2356C158.539 43.0477 159.197 43.706 160.009 43.706H182.323C183.135 43.706 183.793 43.0477 183.793 42.2356V34.6876C183.793 33.8756 184.451 33.2173 185.263 33.2173H190.442C191.255 33.2173 191.913 33.8767 191.912 34.6894L191.9 43.0957C191.899 43.9085 192.558 44.5678 193.37 44.5678H196.935C197.747 44.5678 198.406 43.9096 198.406 43.0975V16.4852C198.406 15.6731 197.747 15.0148 196.935 15.0148H193.384C192.572 15.0148 191.914 15.6731 191.914 16.4852V26.1208C191.914 26.9328 191.256 27.5911 190.444 27.5911H185.263C184.451 27.5911 183.793 26.9328 183.793 26.1208V19.1583C183.793 18.3462 183.135 17.6879 182.323 17.6879H160.009C159.197 17.6879 158.539 18.3462 158.539 19.1583V42.2356ZM166.475 38.4871C165.663 38.4871 165.005 37.8288 165.005 37.0168V24.5299C165.005 23.7178 165.663 23.0596 166.475 23.0596H175.958C176.77 23.0596 177.428 23.7178 177.428 24.5299V37.0168C177.428 37.8288 176.77 38.4871 175.958 38.4871H166.475ZM167.602 53.7681C167.602 54.5801 168.26 55.2384 169.072 55.2384H202.612C203.425 55.2384 204.083 55.8967 204.083 56.7088V59.1907C204.083 60.0027 203.425 60.661 202.612 60.661H169.199C168.387 60.661 167.729 61.3193 167.729 62.1313V75.9165C167.729 76.7286 168.387 77.3869 169.199 77.3869H211.854C212.666 77.3869 213.324 76.7286 213.324 75.9165V73.3837C213.324 72.5717 212.666 71.9134 211.854 71.9134H176.047C175.235 71.9134 174.577 71.2551 174.577 70.4431V67.2738C174.577 66.4618 175.235 65.8035 176.047 65.8035H209.384C210.196 65.8035 210.855 65.1452 210.855 64.3332V51.2353C210.855 50.4233 210.196 49.765 209.384 49.765H169.072C168.26 49.765 167.602 50.4233 167.602 51.2353V53.7681ZM280.734 64.7852C281.546 64.7852 282.204 65.4435 282.204 66.2555V68.992C282.204 69.804 281.546 70.4623 280.734 70.4623H224.637C223.825 70.4623 223.167 69.804 223.167 68.992V66.2555C223.167 65.4435 223.825 64.7852 224.637 64.7852H247.664C248.476 64.7852 249.134 64.1269 249.134 63.3148V54.9012C249.134 54.0892 248.476 53.4309 247.664 53.4309H231.816C231.004 53.4309 230.346 52.7726 230.346 51.9606V34.3821C230.346 33.5701 231.004 32.9118 231.816 32.9118H266.757C267.569 32.9118 268.227 32.2535 268.227 31.4415V25.3191C268.227 24.507 267.569 23.8488 266.757 23.8488H231.689C230.877 23.8488 230.219 23.1905 230.219 22.3784V19.7438C230.219 18.9317 230.877 18.2735 231.689 18.2735H273.503C274.316 18.2735 274.974 18.9317 274.974 19.7438V36.9404C274.974 37.7524 274.316 38.4107 273.503 38.4107H238.614C237.802 38.4107 237.143 39.069 237.143 39.881V46.3598C237.143 47.1719 237.802 47.8302 238.614 47.8302H275.005C275.818 47.8302 276.476 48.4885 276.476 49.3005V51.9606C276.476 52.7726 275.818 53.4309 275.005 53.4309H257.376C256.564 53.4309 255.906 54.0892 255.906 54.9012V63.3148C255.906 64.1269 256.564 64.7852 257.376 64.7852H280.734ZM348.761 51.8208C348.761 51.0088 348.103 50.3505 347.291 50.3505H291.194C290.382 50.3505 289.724 51.0088 289.724 51.8208V54.5573C289.724 55.3693 290.382 56.0276 291.194 56.0276H314.246C315.058 56.0276 315.717 56.6859 315.717 57.498V76.7567C315.717 77.5687 316.375 78.227 317.187 78.227H320.967C321.779 78.227 322.438 77.5687 322.438 76.7567V57.498C322.438 56.6859 323.096 56.0276 323.908 56.0276H347.291C348.103 56.0276 348.761 55.3693 348.761 54.5573V51.8208ZM319.103 16.1095C305.457 16.1605 296.165 21.6848 296.165 30.4678C296.165 39.149 305.457 44.6479 319.103 44.6479C332.748 44.6479 342.117 39.149 342.117 30.4678C342.117 21.6848 332.748 16.1605 319.103 16.1095Z" fill="#1C222B"/>
<rect x="355.336" y="65.1484" width="14.7032" height="14.7032" rx="2.75686" fill="#1C222B"/>
<path fill-rule="evenodd" clip-rule="evenodd" d="M68.9619 15.1612C68.9619 13.4153 70.3772 12 72.1231 12H76.0306C77.7765 12 79.1918 13.4153 79.1918 15.1612V37.2798L86.3665 37.2798C88.1124 37.2798 89.5277 38.6951 89.5277 40.441V43.2793C89.5277 45.0252 88.1124 46.4405 86.3665 46.4405H79.1918V76.731C79.1918 78.4769 77.7765 79.8922 76.0306 79.8922H72.1231C70.3772 79.8922 68.9619 78.4769 68.9619 76.731V15.1612ZM72.1231 12.4411C70.6208 12.4411 69.403 13.6589 69.403 15.1612V76.731C69.403 78.2333 70.6208 79.4511 72.1231 79.4511H76.0306C77.5329 79.4511 78.7507 78.2333 78.7507 76.731V45.9994H86.3665C87.8688 45.9994 89.0866 44.7815 89.0866 43.2793V40.441C89.0866 38.9387 87.8688 37.7209 86.3665 37.7209L78.7507 37.7209V15.1612C78.7507 13.6589 77.5329 12.4411 76.0306 12.4411H72.1231ZM135.837 15.1612C135.837 13.4153 137.252 12 138.998 12H142.931C144.677 12 146.093 13.4153 146.093 15.1612V76.8583C146.093 78.6042 144.677 80.0195 142.931 80.0195H138.998C137.252 80.0195 135.837 78.6042 135.837 76.8583V15.1612ZM138.998 12.4411C137.496 12.4411 136.278 13.6589 136.278 15.1612V76.8583C136.278 78.3606 137.496 79.5784 138.998 79.5784H142.931C144.434 79.5784 145.651 78.3606 145.651 76.8583V15.1612C145.651 13.6589 144.434 12.4411 142.931 12.4411H138.998ZM202.688 15.2121C202.688 13.4662 204.103 12.0509 205.849 12.0509H209.374C211.12 12.0509 212.536 13.4662 212.536 15.2121V43.0974C212.536 44.8433 211.12 46.2586 209.374 46.2586H205.849C204.103 46.2586 202.688 44.8432 202.688 43.0974V15.2121ZM205.849 12.492C204.346 12.492 203.129 13.7098 203.129 15.2121V43.0974C203.129 44.5996 204.346 45.8175 205.849 45.8175H209.374C210.877 45.8175 212.094 44.5996 212.094 43.0974V15.2121C212.094 13.7098 210.877 12.492 209.374 12.492H205.849ZM190.213 16.485C190.213 14.7391 191.628 13.3238 193.374 13.3238H196.925C198.671 13.3238 200.087 14.7391 200.087 16.485V43.0974C200.087 44.8433 198.671 46.2586 196.925 46.2586H193.361C191.613 46.2586 190.197 44.8409 190.199 43.0935L190.211 34.908H185.474V42.2355C185.474 43.9814 184.058 45.3967 182.313 45.3967H159.999C158.253 45.3967 156.838 43.9814 156.838 42.2355V19.1581C156.838 17.4122 158.253 15.9969 159.999 15.9969H182.313C184.058 15.9969 185.474 17.4122 185.474 19.1581V25.9L190.213 25.9V16.485ZM193.374 13.7649C191.872 13.7649 190.654 14.9827 190.654 16.485V26.3411L185.033 26.3411V19.1581C185.033 17.6558 183.815 16.438 182.313 16.438H159.999C158.497 16.438 157.279 17.6558 157.279 19.1581V42.2355C157.279 43.7378 158.497 44.9556 159.999 44.9556H182.313C183.815 44.9556 185.033 43.7378 185.033 42.2355V34.4669H190.653L190.64 43.0941C190.639 44.5976 191.857 45.8175 193.361 45.8175H196.925C198.428 45.8175 199.646 44.5996 199.646 43.0974V16.485C199.646 14.9827 198.428 13.7649 196.925 13.7649H193.374ZM72.1231 13.9114C71.4328 13.9114 70.8733 14.471 70.8733 15.1612V76.731C70.8733 77.4213 71.4328 77.9808 72.1231 77.9808H76.0306C76.7208 77.9808 77.2804 77.4213 77.2804 76.731V46.2199C77.2804 45.2861 78.0374 44.529 78.9713 44.529H86.3665C87.0568 44.529 87.6163 43.9695 87.6163 43.2793V40.441C87.6163 39.7507 87.0568 39.1912 86.3665 39.1912H78.9713C78.0374 39.1912 77.2804 38.4341 77.2804 37.5003V15.1612C77.2804 14.471 76.7208 13.9114 76.0306 13.9114H72.1231ZM70.4322 15.1612C70.4322 14.2274 71.1892 13.4703 72.1231 13.4703H76.0306C76.9645 13.4703 77.7215 14.2274 77.7215 15.1612V37.5003C77.7215 38.1905 78.281 38.7501 78.9713 38.7501H86.3665C87.3004 38.7501 88.0574 39.5071 88.0574 40.441V43.2793C88.0574 44.2131 87.3004 44.9701 86.3665 44.9701H78.9713C78.281 44.9701 77.7215 45.5297 77.7215 46.2199V76.731C77.7215 77.6649 76.9645 78.4219 76.0306 78.4219H72.1231C71.1892 78.4219 70.4322 77.6649 70.4322 76.731V15.1612ZM138.998 13.9114C138.308 13.9114 137.749 14.471 137.749 15.1612V76.8583C137.749 77.5486 138.308 78.1081 138.998 78.1081H142.931C143.622 78.1081 144.181 77.5486 144.181 76.8583V15.1612C144.181 14.471 143.622 13.9114 142.931 13.9114H138.998ZM137.307 15.1612C137.307 14.2274 138.065 13.4703 138.998 13.4703H142.931C143.865 13.4703 144.622 14.2274 144.622 15.1612V76.8583C144.622 77.7922 143.865 78.5492 142.931 78.5492H138.998C138.065 78.5492 137.307 77.7922 137.307 76.8583V15.1612ZM205.849 13.9623C205.158 13.9623 204.599 14.5219 204.599 15.2121V43.0974C204.599 43.7876 205.158 44.3471 205.849 44.3471H209.374C210.065 44.3471 210.624 43.7876 210.624 43.0974V15.2121C210.624 14.5219 210.065 13.9623 209.374 13.9623H205.849ZM204.158 15.2121C204.158 14.2783 204.915 13.5212 205.849 13.5212H209.374C210.308 13.5212 211.065 14.2783 211.065 15.2121V43.0974C211.065 44.0312 210.308 44.7882 209.374 44.7882H205.849C204.915 44.7882 204.158 44.0312 204.158 43.0974V15.2121ZM319.099 14.4185C326.119 14.4447 332.207 15.875 336.601 18.5731C341.043 21.3002 343.798 25.3728 343.798 30.4677C343.798 35.5198 341.035 39.5601 336.595 42.2581C332.201 44.9284 326.113 46.3386 319.093 46.3386C312.072 46.3386 306.002 44.9285 301.626 42.2563C297.202 39.5553 294.464 35.5139 294.464 30.4677C294.464 25.3787 297.194 21.3051 301.619 18.5749C305.996 15.875 312.067 14.4447 319.086 14.4185L319.099 14.4185ZM319.097 14.8596L319.088 14.8596C312.12 14.8856 306.136 16.3064 301.851 18.9503C297.528 21.6168 294.905 25.5609 294.905 30.4677C294.905 35.3295 297.535 39.2415 301.856 41.8798C306.141 44.4966 312.124 45.8975 319.093 45.8975C326.062 45.8975 332.062 44.4966 336.366 41.8812C340.704 39.2451 343.356 35.3339 343.356 30.4677C343.356 25.5566 340.71 21.6132 336.371 18.949C332.067 16.3065 326.066 14.8857 319.097 14.8596C319.097 14.8596 319.098 14.8596 319.097 14.8596ZM193.374 15.2352C192.684 15.2352 192.125 15.7948 192.125 16.485V26.1206C192.125 27.0544 191.368 27.8115 190.434 27.8115H185.253C184.319 27.8115 183.562 27.0544 183.562 26.1206V19.1581C183.562 18.4679 183.003 17.9083 182.313 17.9083H159.999C159.309 17.9083 158.749 18.4679 158.749 19.1581V42.2355C158.749 42.9257 159.309 43.4853 159.999 43.4853H182.313C183.003 43.4853 183.562 42.9257 183.562 42.2355V34.6875C183.562 33.7536 184.319 32.9966 185.253 32.9966H190.432C191.367 32.9966 192.124 33.7549 192.123 34.6895L192.111 43.0959C192.11 43.7867 192.67 44.3471 193.361 44.3471H196.925C197.616 44.3471 198.175 43.7876 198.175 43.0974V16.485C198.175 15.7948 197.616 15.2352 196.925 15.2352H193.374ZM191.683 16.485C191.683 15.5512 192.44 14.7941 193.374 14.7941H196.925C197.859 14.7941 198.616 15.5512 198.616 16.485V43.0974C198.616 44.0312 197.859 44.7882 196.925 44.7882H193.361C192.426 44.7882 191.669 44.03 191.67 43.0953L191.682 34.689C191.682 33.9982 191.123 33.4377 190.432 33.4377H185.253C184.563 33.4377 184.003 33.9972 184.003 34.6875V42.2355C184.003 43.1693 183.246 43.9264 182.313 43.9264H159.999C159.065 43.9264 158.308 43.1693 158.308 42.2355V19.1581C158.308 18.2243 159.065 17.4672 159.999 17.4672H182.313C183.246 17.4672 184.003 18.2243 184.003 19.1581V26.1206C184.003 26.8108 184.563 27.3704 185.253 27.3704H190.434C191.124 27.3704 191.683 26.8108 191.683 26.1206V16.485ZM319.092 15.8888L319.094 15.8888C325.942 15.9144 331.739 17.313 335.832 19.826C339.931 22.3429 342.327 25.9845 342.327 30.4677C342.327 34.901 339.93 38.5107 335.831 41.0016C331.738 43.489 325.941 44.8683 319.093 44.8683C312.244 44.8683 306.466 43.489 302.392 41.0014C298.312 38.51 295.935 34.9003 295.935 30.4677C295.935 25.9852 298.311 22.3436 302.391 19.8263C306.465 17.313 312.243 15.9144 319.092 15.8888ZM302.623 20.2017C298.646 22.6551 296.376 26.1671 296.376 30.4677C296.376 34.7162 298.645 38.1965 302.622 40.6249C306.605 43.0571 312.296 44.4272 319.093 44.4272C325.89 44.4272 331.6 43.0571 335.602 40.6247C339.599 38.1959 341.886 34.7155 341.886 30.4677C341.886 26.1679 339.598 22.6557 335.601 20.2019C331.599 17.7445 325.889 16.3554 319.093 16.3299C312.296 16.3554 306.606 17.7445 302.623 20.2017ZM228.518 19.7436C228.518 17.9978 229.933 16.5824 231.679 16.5824H273.494C275.239 16.5824 276.655 17.9977 276.655 19.7436V36.9402C276.655 38.6861 275.239 40.1014 273.494 40.1014H238.824V46.1391H274.996C276.741 46.1391 278.157 47.5545 278.157 49.3003V51.9604C278.157 53.7063 276.741 55.1216 274.996 55.1216H257.587V63.0941H280.724C282.469 63.0941 283.885 64.5095 283.885 66.2553V68.9918C283.885 70.7377 282.469 72.153 280.724 72.153H224.627C222.881 72.153 221.466 70.7377 221.466 68.9918V66.2553C221.466 64.5095 222.881 63.0941 224.627 63.0941H247.433V55.1216H231.806C230.06 55.1216 228.645 53.7063 228.645 51.9604V34.382C228.645 32.6361 230.06 31.2208 231.806 31.2208H266.527V25.5395H231.679C229.933 25.5395 228.518 24.1242 228.518 22.3783V19.7436ZM231.679 17.0235C230.177 17.0235 228.959 18.2414 228.959 19.7436V22.3783C228.959 23.8805 230.177 25.0984 231.679 25.0984H266.968V31.6619H231.806C230.304 31.6619 229.086 32.8797 229.086 34.382V51.9604C229.086 53.4627 230.304 54.6805 231.806 54.6805H247.874V63.5352H224.627C223.125 63.5352 221.907 64.7531 221.907 66.2553V68.9918C221.907 70.4941 223.125 71.7119 224.627 71.7119H280.724C282.226 71.7119 283.444 70.4941 283.444 68.9918V66.2553C283.444 64.7531 282.226 63.5352 280.724 63.5352H257.146V54.6805H274.996C276.498 54.6805 277.716 53.4627 277.716 51.9604V49.3003C277.716 47.7981 276.498 46.5802 274.996 46.5802H238.383V39.6603H273.494C274.996 39.6603 276.214 38.4425 276.214 36.9402V19.7436C276.214 18.2414 274.996 17.0235 273.494 17.0235H231.679ZM106.077 20.5328C106.077 18.787 107.492 17.3716 109.238 17.3716H113.171C114.917 17.3716 116.332 18.7869 116.332 20.5328V30.1176C116.287 40.6705 122.313 51.2541 130.832 55.8603C132.494 56.7587 133.179 59.0117 131.923 60.67L129.646 63.6783C128.752 64.8587 127.097 65.3091 125.705 64.5614C119.611 61.2895 114.663 55.67 111.449 48.8832C111.428 48.8762 111.394 48.8684 111.349 48.869C111.307 48.8696 111.275 48.8773 111.256 48.884C108.057 56.255 102.975 62.4025 96.5513 65.9137C95.1449 66.6824 93.4648 66.2201 92.5723 65.0157L90.163 61.7647C88.9369 60.1102 89.6186 57.8862 91.2609 56.989C99.9214 52.2577 106.03 41.2276 106.077 30.1079C106.077 30.1076 106.077 30.1082 106.077 30.1079M106.077 30.1079V20.5328ZM109.238 17.8127C107.736 17.8127 106.518 19.0306 106.518 20.5328V30.1079C106.47 41.3652 100.293 52.5571 91.4724 57.3761C90.0398 58.1587 89.4674 60.0851 90.5174 61.502L92.9267 64.7531C93.6971 65.7927 95.1396 66.1826 96.3398 65.5266C102.672 62.0655 107.701 55.9867 110.869 48.6676C110.877 48.6481 110.893 48.6171 110.922 48.5844C110.949 48.5542 110.98 48.5311 111.013 48.5123C111.093 48.4651 111.208 48.4298 111.343 48.4279C111.477 48.426 111.595 48.458 111.678 48.5037C111.712 48.5223 111.745 48.5451 111.773 48.5746C111.803 48.6063 111.82 48.6368 111.83 48.6578C115.011 55.3913 119.906 60.9471 125.913 64.1728C127.102 64.811 128.523 64.4308 129.294 63.4121L131.572 60.4038C132.647 58.9837 132.072 57.0321 130.622 56.2483C121.948 51.5581 115.845 40.8181 115.891 30.1176C115.891 30.1173 115.891 30.1179 115.891 30.1176M115.891 30.1176V20.5328C115.891 19.0306 114.673 17.8127 113.171 17.8127H109.238M231.679 18.4939C230.989 18.4939 230.429 19.0534 230.429 19.7436V22.3783C230.429 23.0685 230.989 23.6281 231.679 23.6281H266.747C267.681 23.6281 268.438 24.3851 268.438 25.3189V31.4413C268.438 32.3752 267.681 33.1322 266.747 33.1322H231.806C231.116 33.1322 230.557 33.6917 230.557 34.382V51.9604C230.557 52.6507 231.116 53.2102 231.806 53.2102H247.654C248.588 53.2102 249.345 53.9672 249.345 54.9011V63.3147C249.345 64.2485 248.588 65.0056 247.654 65.0056H224.627C223.937 65.0056 223.377 65.5651 223.377 66.2553V68.9918C223.377 69.6821 223.937 70.2416 224.627 70.2416H280.724C281.414 70.2416 281.973 69.6821 281.973 68.9918V66.2553C281.973 65.5651 281.414 65.0056 280.724 65.0056H257.366C256.432 65.0056 255.675 64.2485 255.675 63.3147V54.9011C255.675 53.9672 256.432 53.2102 257.366 53.2102H274.996C275.686 53.2102 276.245 52.6507 276.245 51.9604V49.3003C276.245 48.6101 275.686 48.0506 274.996 48.0506H238.604C237.67 48.0506 236.913 47.2935 236.913 46.3597V39.8809C236.913 38.947 237.67 38.19 238.604 38.19H273.494C274.184 38.19 274.743 37.6305 274.743 36.9402V19.7436C274.743 19.0534 274.184 18.4939 273.494 18.4939H231.679ZM229.988 19.7436C229.988 18.8098 230.745 18.0528 231.679 18.0528H273.494C274.427 18.0528 275.184 18.8098 275.184 19.7436V36.9402C275.184 37.8741 274.427 38.6311 273.494 38.6311H238.604C237.913 38.6311 237.354 39.1907 237.354 39.8809V46.3597C237.354 47.0499 237.913 47.6095 238.604 47.6095H274.996C275.929 47.6095 276.686 48.3665 276.686 49.3003V51.9604C276.686 52.8943 275.929 53.6513 274.996 53.6513H257.366C256.676 53.6513 256.116 54.2109 256.116 54.9011V63.3147C256.116 64.0049 256.676 64.5645 257.366 64.5645H280.724C281.657 64.5645 282.414 65.3215 282.414 66.2553V68.9918C282.414 69.9257 281.657 70.6827 280.724 70.6827H224.627C223.693 70.6827 222.936 69.9257 222.936 68.9918V66.2553C222.936 65.3215 223.693 64.5645 224.627 64.5645H247.654C248.344 64.5645 248.903 64.0049 248.903 63.3147V54.9011C248.903 54.2109 248.344 53.6513 247.654 53.6513H231.806C230.873 53.6513 230.115 52.8943 230.115 51.9604V34.382C230.115 33.4481 230.873 32.6911 231.806 32.6911H266.747C267.437 32.6911 267.997 32.1315 267.997 31.4413V25.3189C267.997 24.6287 267.437 24.0691 266.747 24.0691H231.679C230.745 24.0691 229.988 23.3121 229.988 22.3783V19.7436ZM28 21.5511C28 19.8053 29.4153 18.3899 31.1612 18.3899H58.4137C60.1596 18.3899 61.5749 19.8053 61.5749 21.5511V60.5398C61.5749 62.2857 60.1596 63.701 58.4137 63.701H31.1612C29.4153 63.701 28 62.2857 28 60.5398V21.5511ZM31.1612 18.831C29.6589 18.831 28.4411 20.0489 28.4411 21.5511V60.5398C28.4411 62.042 29.6589 63.2599 31.1612 63.2599H58.4137C59.916 63.2599 61.1338 62.042 61.1338 60.5398V21.5511C61.1338 20.0489 59.916 18.831 58.4137 18.831H31.1612ZM109.238 19.2831C108.548 19.2831 107.988 19.8426 107.988 20.5328V30.1113C107.94 41.8268 101.534 53.5548 92.1773 58.6664C91.4589 59.0589 91.2256 59.9882 91.6987 60.6266L94.108 63.8777C94.4675 64.3628 95.1165 64.5196 95.6346 64.2365C101.622 60.964 106.453 55.1688 109.52 48.0835C109.844 47.3351 110.593 46.9681 111.322 46.9578C112.051 46.9475 112.811 47.2929 113.159 48.0298C116.23 54.5301 120.925 59.8254 126.609 62.8774C127.123 63.1532 127.762 62.9998 128.122 62.5246L130.399 59.5163C130.884 58.8766 130.65 57.9348 129.923 57.5417C120.729 52.5709 114.373 41.3047 114.421 30.1113C114.421 30.1109 114.421 30.1116 114.421 30.1113M114.421 30.1113V20.5328C114.421 19.8426 113.861 19.2831 113.171 19.2831H109.238M107.547 20.5328C107.547 19.599 108.304 18.842 109.238 18.842H113.171C114.105 18.842 114.862 19.599 114.862 20.5328V30.1113C114.814 41.1571 121.095 52.2669 130.133 57.1537C131.076 57.6637 131.413 58.9082 130.751 59.7826L128.474 62.7909C127.991 63.4289 127.117 63.6507 126.4 63.266C120.619 60.1619 115.865 54.7884 112.761 48.2182C112.503 47.6723 111.926 47.3904 111.328 47.3988C110.731 47.4073 110.164 47.7052 109.924 48.2587C106.827 55.4142 101.937 61.2945 95.8461 64.6235C95.1232 65.0187 94.2362 64.7915 93.7536 64.1403L91.3443 60.8892C90.6977 60.0167 91.0338 58.7885 91.9658 58.2793C101.162 53.2555 107.499 41.6893 107.547 30.1113C107.547 30.111 107.547 30.1116 107.547 30.1113M107.547 30.1113V20.5328ZM31.1612 20.3014C30.471 20.3014 29.9114 20.8609 29.9114 21.5511V60.5398C29.9114 61.23 30.471 61.7895 31.1612 61.7895H58.4137C59.1039 61.7895 59.6635 61.23 59.6635 60.5398V21.5511C59.6635 20.8609 59.1039 20.3014 58.4137 20.3014H31.1612ZM29.4703 21.5511C29.4703 20.6173 30.2274 19.8603 31.1612 19.8603H58.4137C59.3475 19.8603 60.1046 20.6173 60.1046 21.5511V60.5398C60.1046 61.4736 59.3475 62.2306 58.4137 62.2306H31.1612C30.2274 62.2306 29.4703 61.4736 29.4703 60.5398V21.5511ZM307.423 23.8365C310.254 22.2883 314.285 21.4387 319.093 21.4387C323.913 21.4387 327.944 22.2883 330.779 23.8364C333.618 25.3874 335.275 27.6534 335.275 30.4677C335.275 33.2577 333.617 35.4982 330.778 37.0295C327.943 38.5581 323.913 39.3948 319.093 39.3948C314.285 39.3948 310.255 38.5581 307.424 37.0294C304.588 35.4985 302.935 33.258 302.961 30.4677C302.935 27.6531 304.587 25.387 307.423 23.8365ZM307.634 24.2235C304.895 25.7211 303.378 27.8586 303.402 30.4656V30.4698C303.378 33.05 304.894 35.1622 307.633 36.6413C310.377 38.123 314.328 38.9537 319.093 38.9537C323.87 38.9537 327.821 38.123 330.568 36.6412C333.311 35.1621 334.834 33.0493 334.834 30.4677C334.834 27.8594 333.309 25.7212 330.567 24.2235C327.82 22.7231 323.87 21.8798 319.093 21.8798C314.328 21.8798 310.378 22.7231 307.634 24.2235ZM164.774 24.5297C164.774 23.5959 165.531 22.8389 166.465 22.8389H175.948C176.882 22.8389 177.639 23.5959 177.639 24.5297V37.0166C177.639 37.9505 176.882 38.7075 175.948 38.7075H166.465C165.531 38.7075 164.774 37.9505 164.774 37.0166V24.5297ZM166.465 23.28C165.775 23.28 165.215 23.8395 165.215 24.5297V37.0166C165.215 37.7068 165.775 38.2664 166.465 38.2664H175.948C176.638 38.2664 177.198 37.7068 177.198 37.0166V24.5297C177.198 23.8395 176.638 23.28 175.948 23.28H166.465ZM319.093 23.3501C314.473 23.3501 310.793 24.1722 308.34 25.5136C305.926 26.8331 304.854 28.5394 304.872 30.4518L304.872 30.4656V30.4699L304.872 30.4837C304.854 32.361 305.916 34.0429 308.332 35.3475C310.787 36.673 314.469 37.4834 319.093 37.4834C323.729 37.4834 327.412 36.6729 329.87 35.3471C332.29 34.0423 333.364 32.355 333.364 30.4677C333.364 28.5455 332.279 26.8338 329.862 25.5139C327.406 24.1723 323.725 23.3501 319.093 23.3501ZM308.128 25.1265C310.668 23.7375 314.429 22.909 319.093 22.909C323.769 22.909 327.53 23.7375 330.074 25.1268C332.589 26.5006 333.805 28.3406 333.805 30.4677C333.805 32.5622 332.597 34.3776 330.08 35.7354C327.535 37.1079 323.771 37.9245 319.093 37.9245C314.427 37.9245 310.664 37.108 308.122 35.7356C305.608 34.378 304.411 32.5667 304.431 30.4795L304.431 30.4699V30.4656L304.431 30.4559C304.411 28.3362 305.616 26.5002 308.128 25.1265ZM166.686 24.7503V36.7961H175.728V24.7503L166.686 24.7503ZM176.169 24.3092V37.2372H166.245V24.3092L176.169 24.3092ZM36.1658 26.9737C36.1658 26.0398 36.9228 25.2828 37.8566 25.2828H51.591C52.5248 25.2828 53.2818 26.0398 53.2818 26.9737V55.0154C53.2818 55.9492 52.5248 56.7063 51.591 56.7063H37.8566C36.9228 56.7063 36.1658 55.9492 36.1658 55.0154V26.9737ZM37.8566 25.7239C37.1664 25.7239 36.6069 26.2835 36.6069 26.9737V55.0154C36.6069 55.7056 37.1664 56.2652 37.8566 56.2652H51.591C52.2812 56.2652 52.8407 55.7056 52.8407 55.0154V26.9737C52.8407 26.2835 52.2812 25.7239 51.591 25.7239H37.8566ZM37.6361 26.7531H51.8115V55.2359H37.6361L37.6361 26.7531ZM38.0772 27.1942L38.0772 54.7948H51.3704L51.3704 27.1942H38.0772ZM165.901 51.2351C165.901 49.4892 167.316 48.0739 169.062 48.0739H209.374C211.12 48.0739 212.536 49.4893 212.536 51.2351V64.333C212.536 66.0789 211.12 67.4942 209.374 67.4942H176.258V70.2224H211.844C213.59 70.2224 215.005 71.6377 215.005 73.3836V75.9164C215.005 77.6623 213.59 79.0776 211.844 79.0776H169.189C167.443 79.0776 166.028 77.6623 166.028 75.9164V62.1312C166.028 60.3853 167.443 58.97 169.189 58.97H202.382V56.9291H169.062C167.316 56.9291 165.901 55.5138 165.901 53.768V51.2351ZM169.062 48.515C167.56 48.515 166.342 49.7329 166.342 51.2351V53.768C166.342 55.2702 167.56 56.4881 169.062 56.4881H202.823V59.411H169.189C167.687 59.411 166.469 60.6289 166.469 62.1312V75.9164C166.469 77.4187 167.687 78.6365 169.189 78.6365H211.844C213.346 78.6365 214.564 77.4187 214.564 75.9164V73.3836C214.564 71.8813 213.346 70.6635 211.844 70.6635H175.817V67.0531H209.374C210.877 67.0531 212.094 65.8353 212.094 64.333V51.2351C212.094 49.7329 210.877 48.515 209.374 48.515H169.062ZM288.023 51.8207C288.023 50.0748 289.439 48.6595 291.185 48.6595H347.281C349.027 48.6595 350.442 50.0748 350.442 51.8207V54.5571C350.442 56.303 349.027 57.7183 347.281 57.7183H324.119V76.7565C324.119 78.5024 322.703 79.9177 320.957 79.9177H317.177C315.431 79.9177 314.016 78.5024 314.016 76.7565V57.7183H291.185C289.439 57.7183 288.023 56.303 288.023 54.5571V51.8207ZM291.185 49.1006C289.682 49.1006 288.464 50.3184 288.464 51.8207V54.5571C288.464 56.0594 289.682 57.2772 291.185 57.2772H314.457V76.7565C314.457 78.2588 315.675 79.4766 317.177 79.4766H320.957C322.46 79.4766 323.677 78.2588 323.677 76.7565V57.2772H347.281C348.783 57.2772 350.001 56.0594 350.001 54.5571V51.8207C350.001 50.3184 348.783 49.1006 347.281 49.1006H291.185ZM169.062 49.9854C168.372 49.9854 167.812 50.5449 167.812 51.2351V53.768C167.812 54.4582 168.372 55.0177 169.062 55.0177H202.603C203.536 55.0177 204.293 55.7748 204.293 56.7086V59.1905C204.293 60.1243 203.536 60.8814 202.603 60.8814H169.189C168.499 60.8814 167.939 61.4409 167.939 62.1312V75.9164C167.939 76.6066 168.499 77.1662 169.189 77.1662H211.844C212.534 77.1662 213.094 76.6066 213.094 75.9164V73.3836C213.094 72.6933 212.534 72.1338 211.844 72.1338H176.037C175.104 72.1338 174.347 71.3768 174.347 70.4429V67.2737C174.347 66.3398 175.104 65.5828 176.037 65.5828H209.374C210.065 65.5828 210.624 65.0232 210.624 64.333V51.2351C210.624 50.5449 210.065 49.9854 209.374 49.9854H169.062ZM167.371 51.2351C167.371 50.3013 168.128 49.5443 169.062 49.5443H209.374C210.308 49.5443 211.065 50.3013 211.065 51.2351V64.333C211.065 65.2669 210.308 66.0239 209.374 66.0239H176.037C175.347 66.0239 174.788 66.5834 174.788 67.2737V70.4429C174.788 71.1332 175.347 71.6927 176.037 71.6927H211.844C212.778 71.6927 213.535 72.4497 213.535 73.3836V75.9164C213.535 76.8502 212.778 77.6073 211.844 77.6073H169.189C168.255 77.6073 167.498 76.8502 167.498 75.9164V62.1312C167.498 61.1973 168.255 60.4403 169.189 60.4403H202.603C203.293 60.4403 203.852 59.8807 203.852 59.1905V56.7086C203.852 56.0184 203.293 55.4588 202.603 55.4588H169.062C168.128 55.4588 167.371 54.7018 167.371 53.768V51.2351ZM291.185 50.5709C290.494 50.5709 289.935 51.1304 289.935 51.8207V54.5571C289.935 55.2474 290.494 55.8069 291.185 55.8069H314.236C315.17 55.8069 315.927 56.564 315.927 57.4978V76.7565C315.927 77.4467 316.487 78.0063 317.177 78.0063H320.957C321.648 78.0063 322.207 77.4467 322.207 76.7565V57.4978C322.207 56.564 322.964 55.8069 323.898 55.8069H347.281C347.971 55.8069 348.531 55.2474 348.531 54.5571V51.8207C348.531 51.1304 347.971 50.5709 347.281 50.5709H291.185ZM289.494 51.8207C289.494 50.8868 290.251 50.1298 291.185 50.1298H347.281C348.215 50.1298 348.972 50.8868 348.972 51.8207V54.5571C348.972 55.491 348.215 56.248 347.281 56.248H323.898C323.208 56.248 322.648 56.8076 322.648 57.4978V76.7565C322.648 77.6903 321.891 78.4474 320.957 78.4474H317.177C316.243 78.4474 315.486 77.6903 315.486 76.7565V57.4978C315.486 56.8076 314.927 56.248 314.236 56.248H291.185C290.251 56.248 289.494 55.491 289.494 54.5571V51.8207Z" fill="#1C222B"/>
</svg>
