<svg width="130" height="23" viewBox="0 0 130 23" fill="none" xmlns="http://www.w3.org/2000/svg">
<path d="M18.2786 11.296C18.5186 11.328 18.7746 11.408 19.0466 11.536C19.3186 11.664 19.5746 11.824 19.8146 12.016C20.0546 12.192 20.2466 12.376 20.3906 12.568C20.5346 12.76 20.5986 12.936 20.5826 13.096C20.5666 13.176 20.5106 13.272 20.4146 13.384C20.3186 13.48 20.2066 13.576 20.0786 13.672C19.9506 13.768 19.8146 13.856 19.6706 13.936C19.5426 14.016 19.4306 14.072 19.3346 14.104C19.1106 14.184 18.9186 14.224 18.7586 14.224C18.5986 14.224 18.4306 14.224 18.2546 14.224C18.0626 14.224 17.7746 14.216 17.3906 14.2C17.0066 14.184 16.6066 14.168 16.1906 14.152C15.7746 14.12 15.3666 14.096 14.9666 14.08C14.5826 14.048 14.2866 14.032 14.0786 14.032C13.9026 14.032 13.6306 14.04 13.2626 14.056C12.9106 14.056 12.5106 14.064 12.0626 14.08C11.6306 14.08 11.1746 14.088 10.6946 14.104C10.2306 14.104 9.79056 14.112 9.37456 14.128C8.97456 14.128 8.62256 14.136 8.31856 14.152C8.01456 14.152 7.82256 14.152 7.74256 14.152L2.84656 14.392C2.59056 14.408 2.31856 14.368 2.03056 14.272C1.75856 14.176 1.52656 14.064 1.33456 13.936C1.12656 13.808 0.894563 13.656 0.638563 13.48C0.398563 13.288 0.222563 13.128 0.110563 13C0.0305625 12.888 -0.00143749 12.768 0.0145625 12.64C0.0465625 12.496 0.0865625 12.368 0.134563 12.256C0.182563 12.144 0.278563 11.984 0.422563 11.776C0.582563 11.552 0.718563 11.384 0.830563 11.272C1.02256 11.08 1.26256 11.024 1.55056 11.104L2.24656 11.32C2.50256 11.4 2.73456 11.456 2.94256 11.488C3.16656 11.504 3.49456 11.512 3.92656 11.512C4.07056 11.512 4.30256 11.512 4.62256 11.512C4.95856 11.496 5.34256 11.488 5.77456 11.488C6.22256 11.472 6.70256 11.456 7.21456 11.44C7.74256 11.424 8.28656 11.408 8.84656 11.392V10.696C8.84656 10.632 8.84656 10.576 8.84656 10.528C8.84656 10.464 8.83856 10.392 8.82256 10.312C8.35856 10.312 7.92656 10.312 7.52656 10.312C7.14256 10.296 6.80656 10.288 6.51856 10.288C6.24656 10.464 5.91856 10.536 5.53456 10.504C5.15056 10.472 4.85456 10.36 4.64656 10.168C4.45456 9.96 4.32656 9.728 4.26256 9.472C4.21456 9.248 4.19056 9.008 4.19056 8.752C4.20656 8.48 4.21456 8.232 4.21456 8.008C4.21456 7.752 4.20656 7.472 4.19056 7.168C4.19056 6.848 4.18256 6.536 4.16656 6.232C4.15056 5.912 4.13456 5.624 4.11856 5.368C4.11856 5.112 4.11856 4.912 4.11856 4.768C4.11856 4.672 4.09456 4.552 4.04656 4.408C4.01456 4.264 3.94256 4.12 3.83056 3.976C3.70256 3.8 3.67056 3.632 3.73456 3.472C3.81456 3.312 3.99056 3.12 4.26256 2.896C4.53456 2.672 4.80656 2.568 5.07856 2.584C5.35056 2.584 5.63056 2.68 5.91856 2.872C6.22256 3.064 6.48656 3.28 6.71056 3.52C6.93456 3.744 7.05456 4.04 7.07056 4.408V4.504C7.29456 4.488 7.57456 4.472 7.91056 4.456C8.24656 4.44 8.62256 4.424 9.03856 4.408V4.384C9.00656 4.096 8.97456 3.896 8.94256 3.784C8.92656 3.672 8.85456 3.544 8.72656 3.4C8.56656 3.224 8.55056 3.056 8.67856 2.896C8.82256 2.72 9.00656 2.52 9.23056 2.296C9.40656 2.12 9.60656 2.016 9.83056 1.984C10.0706 1.936 10.3026 1.968 10.5266 2.08C10.8306 2.224 11.0706 2.368 11.2466 2.512C11.4386 2.64 11.5826 2.792 11.6786 2.968C11.7746 3.128 11.8386 3.312 11.8706 3.52C11.9026 3.728 11.9186 3.976 11.9186 4.264V4.336H12.6386C12.9266 4.352 13.1666 4.368 13.3586 4.384C13.5666 4.4 13.7346 4.432 13.8626 4.48V3.976C13.8626 3.8 13.8546 3.664 13.8386 3.568C13.8226 3.456 13.7986 3.36 13.7666 3.28C13.7346 3.2 13.6786 3.12 13.5986 3.04C13.5346 2.96 13.4546 2.856 13.3586 2.728C13.1826 2.504 13.1426 2.304 13.2386 2.128C13.3346 1.952 13.5106 1.768 13.7666 1.576C14.2946 1.192 14.8146 1.184 15.3266 1.552C15.5986 1.744 15.8226 1.928 15.9986 2.104C16.1906 2.264 16.3426 2.432 16.4546 2.608C16.5666 2.768 16.6466 2.944 16.6946 3.136C16.7586 3.312 16.7986 3.52 16.8146 3.76C16.8306 3.904 16.8386 4.152 16.8386 4.504C16.8386 4.84 16.8386 5.232 16.8386 5.68C16.8386 6.128 16.8306 6.584 16.8146 7.048C16.8146 7.512 16.8066 7.936 16.7906 8.32C16.9186 8.496 16.9826 8.672 16.9826 8.848C16.9826 9.008 16.9746 9.128 16.9586 9.208C16.9106 9.512 16.7586 9.76 16.5026 9.952C16.2626 10.128 15.9826 10.224 15.6626 10.24C14.5266 10.288 13.3586 10.312 12.1586 10.312V11.296C12.7506 11.28 13.2546 11.272 13.6706 11.272C14.1026 11.256 14.4066 11.24 14.5826 11.224C15.3026 11.192 15.9426 11.184 16.5026 11.2C17.0626 11.2 17.6546 11.232 18.2786 11.296ZM13.0466 6.616C12.9666 6.616 12.8226 6.624 12.6146 6.64C12.4226 6.64 12.1826 6.64 11.8946 6.64C11.8946 6.832 11.8866 7.032 11.8706 7.24C11.8706 7.432 11.8706 7.632 11.8706 7.84C12.2546 7.824 12.6146 7.816 12.9506 7.816C13.3026 7.816 13.6146 7.816 13.8866 7.816C13.8866 7.608 13.8866 7.392 13.8866 7.168C13.8866 6.944 13.8786 6.72 13.8626 6.496C13.6226 6.576 13.3506 6.616 13.0466 6.616ZM9.11056 6.688C8.69456 6.704 8.31856 6.712 7.98256 6.712C7.64656 6.712 7.36656 6.712 7.14256 6.712V7.936C7.36656 7.92 7.64656 7.912 7.98256 7.912C8.31856 7.912 8.68656 7.904 9.08656 7.888C9.08656 7.696 9.08656 7.504 9.08656 7.312C9.10256 7.104 9.11056 6.896 9.11056 6.688ZM16.1186 15.712C16.2946 16.032 16.4146 16.344 16.4786 16.648C16.5426 16.952 16.5826 17.312 16.5986 17.728C16.5986 17.952 16.5986 18.232 16.5986 18.568C16.6146 18.888 16.6146 19.224 16.5986 19.576C16.5986 19.944 16.5906 20.296 16.5746 20.632C16.5586 20.968 16.5426 21.256 16.5266 21.496C16.4626 22.232 16.1586 22.648 15.6146 22.744C15.5826 22.744 15.4946 22.744 15.3506 22.744C15.2066 22.76 15.0466 22.768 14.8706 22.768C14.6946 22.768 14.5186 22.76 14.3426 22.744C14.1826 22.744 14.0626 22.728 13.9826 22.696C13.8866 22.664 13.7906 22.616 13.6946 22.552C13.5986 22.488 13.5186 22.416 13.4546 22.336C13.0386 22.32 12.5666 22.304 12.0386 22.288C11.5106 22.288 10.9666 22.288 10.4066 22.288C9.86256 22.288 9.31856 22.296 8.77456 22.312C8.24656 22.328 7.78256 22.352 7.38256 22.384C7.31856 22.448 7.24656 22.488 7.16656 22.504C6.79856 22.616 6.46256 22.68 6.15856 22.696C5.87056 22.728 5.61456 22.688 5.39056 22.576C5.16656 22.464 5.00656 22.312 4.91056 22.12C4.83056 21.928 4.79056 21.728 4.79056 21.52C4.79056 21.248 4.79056 20.936 4.79056 20.584C4.79056 20.248 4.78256 19.896 4.76656 19.528C4.75056 19.176 4.73456 18.832 4.71856 18.496C4.70256 18.16 4.68656 17.864 4.67056 17.608C4.63856 17.336 4.60656 17.128 4.57456 16.984C4.54256 16.824 4.46256 16.656 4.33456 16.48C4.17456 16.256 4.15056 16.056 4.26256 15.88C4.31056 15.784 4.39056 15.688 4.50256 15.592C4.63056 15.48 4.76656 15.376 4.91056 15.28C5.05456 15.184 5.19856 15.104 5.34256 15.04C5.50256 14.976 5.63056 14.928 5.72656 14.896C5.96656 14.832 6.16656 14.84 6.32656 14.92C6.50256 14.984 6.64656 15.08 6.75856 15.208C6.93456 15.4 7.10256 15.616 7.26256 15.856C7.43856 16.096 7.56656 16.352 7.64656 16.624C8.07856 16.592 8.53456 16.576 9.01456 16.576C9.49456 16.56 9.85456 16.544 10.0946 16.528C10.2066 16.528 10.3506 16.52 10.5266 16.504C10.7026 16.488 10.8786 16.48 11.0546 16.48C11.2306 16.48 11.3986 16.488 11.5586 16.504C11.7186 16.504 11.8466 16.52 11.9426 16.552C12.1186 16.616 12.2946 16.744 12.4706 16.936C12.6626 17.128 12.7986 17.32 12.8786 17.512C12.9266 17.64 12.9426 17.76 12.9266 17.872C12.9266 17.968 12.9106 18.064 12.8786 18.16C12.8466 18.288 12.7666 18.408 12.6386 18.52C12.5106 18.632 12.3986 18.712 12.3026 18.76C12.1746 18.824 11.9906 18.856 11.7506 18.856C11.5106 18.856 11.2226 18.84 10.8866 18.808C10.7426 18.792 10.5586 18.784 10.3346 18.784C10.1106 18.784 9.86256 18.792 9.59056 18.808C9.31856 18.808 9.03056 18.816 8.72656 18.832C8.42256 18.848 8.12656 18.864 7.83856 18.88L7.88656 19.888C8.86256 19.888 9.83056 19.88 10.7906 19.864C11.7506 19.864 12.6146 19.848 13.3826 19.816C13.4146 19.128 13.4386 18.528 13.4546 18.016C13.4866 17.488 13.4866 17.144 13.4546 16.984C13.4226 16.808 13.3746 16.632 13.3106 16.456C13.2466 16.28 13.1746 16.136 13.0946 16.024C12.9346 15.8 12.9746 15.568 13.2146 15.328C13.3746 15.168 13.5746 15.016 13.8146 14.872C14.0706 14.712 14.3026 14.616 14.5106 14.584C14.8306 14.536 15.1186 14.6 15.3746 14.776C15.5506 14.904 15.7026 15.064 15.8306 15.256C15.9586 15.448 16.0546 15.6 16.1186 15.712ZM36.1078 22.672C35.9638 22.56 35.8358 22.368 35.7238 22.096C35.6278 21.84 35.5478 21.536 35.4838 21.184C35.4358 20.832 35.3878 20.44 35.3398 20.008C35.3078 19.592 35.2838 19.152 35.2678 18.688C35.2198 17.68 35.2038 16.56 35.2198 15.328C35.2358 14.08 35.2678 12.824 35.3158 11.56C35.3638 10.28 35.4038 9.032 35.4358 7.816C35.4678 6.584 35.4678 5.488 35.4358 4.528C35.4358 4.288 35.4198 4.104 35.3878 3.976C35.3558 3.832 35.3078 3.712 35.2438 3.616C35.1958 3.504 35.1318 3.4 35.0518 3.304C34.9878 3.192 34.9158 3.064 34.8358 2.92C34.7238 2.728 34.6438 2.592 34.5958 2.512C34.5478 2.416 34.5478 2.296 34.5958 2.152C34.6438 1.992 34.7398 1.848 34.8838 1.72C35.0438 1.592 35.2198 1.48 35.4118 1.384C35.6038 1.288 35.8038 1.216 36.0118 1.168C36.2358 1.104 36.4438 1.064 36.6358 1.048C36.9878 1.016 37.2598 1.096 37.4518 1.288C37.6598 1.496 37.8598 1.712 38.0518 1.936C38.2598 2.144 38.4198 2.352 38.5318 2.56C38.6438 2.768 38.7158 2.968 38.7478 3.16C38.7958 3.336 38.8198 3.544 38.8198 3.784C38.8358 4.488 38.8438 5.272 38.8438 6.136C38.8438 6.984 38.8438 7.864 38.8438 8.776C38.8438 9.672 38.8358 10.576 38.8198 11.488C38.8198 12.384 38.8118 13.224 38.7958 14.008C38.7958 14.776 38.7878 15.464 38.7718 16.072C38.7558 16.68 38.7398 17.144 38.7238 17.464C38.7078 17.688 38.6518 18.008 38.5558 18.424C38.4758 18.824 38.3078 19.208 38.0518 19.576C37.5878 20.184 37.1558 20.744 36.7558 21.256C36.3558 21.784 36.1398 22.256 36.1078 22.672ZM20.4837 17.392C21.1718 17.216 21.8278 16.968 22.4518 16.648C23.0918 16.328 23.6678 15.936 24.1798 15.472C25.2358 14.512 26.1638 13.464 26.9638 12.328C27.7638 11.192 28.3958 10 28.8598 8.752C28.6038 8.768 28.3318 8.784 28.0438 8.8C27.7558 8.816 27.4678 8.832 27.1797 8.848C26.8918 8.848 26.6118 8.848 26.3398 8.848C26.0838 8.848 25.8598 8.848 25.6678 8.848C25.4438 8.832 25.2358 8.808 25.0438 8.776C24.8678 8.744 24.6758 8.68 24.4678 8.584C24.3078 8.504 24.1398 8.4 23.9638 8.272C23.7878 8.128 23.6198 7.984 23.4598 7.84C23.2998 7.68 23.1638 7.528 23.0518 7.384C22.9398 7.224 22.8598 7.088 22.8118 6.976C22.7478 6.832 22.7718 6.688 22.8838 6.544C23.0118 6.384 23.2118 6.208 23.4838 6.016C23.7558 5.808 23.9558 5.688 24.0838 5.656C24.2118 5.624 24.3318 5.632 24.4438 5.68C24.5718 5.712 24.7078 5.76 24.8518 5.824C24.9798 5.872 25.1238 5.904 25.2838 5.92C25.4598 5.936 25.6118 5.944 25.7398 5.944C25.9798 5.944 26.2918 5.936 26.6758 5.92C27.0758 5.888 27.4758 5.864 27.8758 5.848C28.2918 5.816 28.6758 5.792 29.0278 5.776C29.3958 5.744 29.6758 5.72 29.8678 5.704C30.0918 5.672 30.3158 5.624 30.5398 5.56C30.7638 5.48 30.9878 5.456 31.2118 5.488C31.4358 5.52 31.6438 5.6 31.8358 5.728C32.0438 5.84 32.2198 5.96 32.3638 6.088C32.7478 6.424 32.9558 6.768 32.9878 7.12C33.0038 7.36 32.9638 7.552 32.8678 7.696C32.7718 7.84 32.6998 8 32.6518 8.176C32.4118 8.992 32.1238 9.816 31.7878 10.648C31.4518 11.464 31.0678 12.264 30.6358 13.048C30.2198 13.816 29.7558 14.552 29.2438 15.256C28.7478 15.96 28.2118 16.6 27.6358 17.176C27.1558 17.656 26.6758 17.992 26.1958 18.184C25.7158 18.36 25.2278 18.48 24.7318 18.544C24.4598 18.576 24.2198 18.584 24.0117 18.568C23.8038 18.536 23.6118 18.488 23.4358 18.424C23.2598 18.36 23.0918 18.28 22.9318 18.184C22.7718 18.088 22.5958 17.976 22.4038 17.848C22.2118 17.736 22.0278 17.656 21.8518 17.608C21.6758 17.544 21.5078 17.504 21.3478 17.488C21.1878 17.472 21.0358 17.464 20.8918 17.464C20.7477 17.448 20.6117 17.424 20.4837 17.392ZM65.7853 9.256C66.0253 9.576 66.1773 9.832 66.2413 10.024C66.3053 10.216 66.2573 10.504 66.0973 10.888C65.9693 11.16 65.8093 11.376 65.6173 11.536C65.4413 11.68 65.2093 11.728 64.9213 11.68C64.5693 11.616 64.1853 11.568 63.7693 11.536C63.3533 11.504 62.9693 11.488 62.6173 11.488L62.5453 11.8C62.4493 12.168 62.2653 12.624 61.9933 13.168C61.7373 13.712 61.4253 14.2 61.0573 14.632C61.6973 15.064 62.1933 15.632 62.5453 16.336C62.8973 17.024 63.0573 17.808 63.0253 18.688C62.9933 19.328 62.8253 19.896 62.5213 20.392C62.2333 20.904 61.8333 21.328 61.3213 21.664C60.8093 22 60.2093 22.256 59.5213 22.432C58.8493 22.608 58.1213 22.696 57.3373 22.696C56.5853 22.696 55.8413 22.592 55.1053 22.384C54.3853 22.192 53.7453 21.912 53.1853 21.544C52.8813 21.448 52.6093 21.288 52.3693 21.064C52.1293 20.856 51.9213 20.616 51.7453 20.344C51.5693 20.088 51.4253 19.8 51.3133 19.48C51.2173 19.176 51.1613 18.88 51.1453 18.592C51.0813 17.904 51.2013 17.288 51.5053 16.744C51.8253 16.2 52.2653 15.736 52.8253 15.352C53.4013 14.968 54.0733 14.664 54.8413 14.44C55.6093 14.2 56.4173 14.04 57.2653 13.96C57.3933 13.88 57.5373 13.832 57.6973 13.816C57.8733 13.784 58.0173 13.768 58.1293 13.768C58.7853 13.768 59.3773 13.864 59.9053 14.056C59.7453 13.688 59.6173 13.32 59.5213 12.952C59.4413 12.584 59.3773 12.2 59.3293 11.8C59.1213 11.912 58.8653 12.024 58.5613 12.136C58.2733 12.232 57.9693 12.328 57.6493 12.424C57.3293 12.504 57.0013 12.576 56.6653 12.64C56.3453 12.688 56.0413 12.728 55.7533 12.76C55.4333 12.792 54.9933 12.832 54.4333 12.88C53.8733 12.928 53.2813 12.968 52.6573 13C52.0333 13.032 51.4333 13.048 50.8573 13.048C50.2813 13.032 49.8333 12.984 49.5133 12.904C49.1453 12.824 48.8733 12.68 48.6973 12.472C48.5373 12.248 48.4413 11.912 48.4093 11.464C48.3933 10.904 48.5293 10.536 48.8173 10.36C48.8173 9.832 48.8013 9.256 48.7693 8.632C48.7533 7.992 48.7293 7.432 48.6973 6.952C48.4733 6.808 48.3533 6.64 48.3373 6.448C48.2893 6.08 48.2893 5.712 48.3373 5.344C48.3853 4.96 48.5133 4.648 48.7213 4.408C48.9933 4.088 49.2893 3.976 49.6093 4.072C50.0093 4.184 50.5533 4.24 51.2413 4.24C51.4493 4.24 51.7293 4.24 52.0813 4.24C52.4493 4.224 52.8333 4.208 53.2333 4.192C53.6333 4.176 54.0253 4.152 54.4093 4.12C54.7933 4.088 55.1133 4.048 55.3693 4C55.7053 3.936 55.9933 3.944 56.2333 4.024C56.4893 4.088 56.7293 4.256 56.9533 4.528C57.0173 4.608 57.0893 4.712 57.1693 4.84C57.2493 4.968 57.3213 5.104 57.3853 5.248C57.4653 5.392 57.5293 5.536 57.5773 5.68C57.6253 5.808 57.6573 5.92 57.6733 6.016C57.6893 6.144 57.6573 6.272 57.5773 6.4C57.4973 6.528 57.3853 6.64 57.2413 6.736C57.1133 6.832 56.9693 6.912 56.8093 6.976C56.6493 7.024 56.4973 7.048 56.3533 7.048C55.8093 7.016 55.1613 7 54.4093 7C53.6573 7 52.9133 7.008 52.1773 7.024C52.1933 7.488 52.2013 8 52.2013 8.56C52.2173 9.12 52.2093 9.632 52.1773 10.096C52.8333 10.064 53.4893 10.04 54.1453 10.024C54.8013 9.992 55.3933 9.96 55.9213 9.928C56.4333 9.896 56.9933 9.864 57.6013 9.832C58.2093 9.8 58.7533 9.744 59.2333 9.664C59.2333 9.36 59.2413 9.008 59.2573 8.608C59.2733 8.208 59.2893 7.8 59.3053 7.384C59.3373 6.968 59.3613 6.552 59.3773 6.136C59.4093 5.72 59.4333 5.344 59.4493 5.008C59.4653 4.752 59.4653 4.544 59.4493 4.384C59.4493 4.208 59.4253 4.048 59.3773 3.904C59.3293 3.76 59.2653 3.616 59.1853 3.472C59.1053 3.328 58.9933 3.152 58.8493 2.944C58.6733 2.672 58.5693 2.48 58.5373 2.368C58.5213 2.24 58.5853 2.088 58.7293 1.912C58.7773 1.864 58.8493 1.8 58.9453 1.72C59.0413 1.624 59.1453 1.536 59.2573 1.456C59.3693 1.376 59.4733 1.304 59.5693 1.24C59.6653 1.16 59.7373 1.104 59.7853 1.072C60.0573 0.927999 60.2493 0.855999 60.3613 0.855999C60.4893 0.839999 60.6733 0.919999 60.9133 1.096C61.2493 1.336 61.5133 1.544 61.7053 1.72C61.9133 1.896 62.1053 2.104 62.2812 2.344C62.5373 2.664 62.7133 3.024 62.8093 3.424C62.9053 3.808 62.9453 4.288 62.9293 4.864C62.9133 5.392 62.8973 5.944 62.8813 6.52C62.8813 7.096 62.8653 7.664 62.8333 8.224C62.8493 8.224 62.8573 8.224 62.8573 8.224C62.8573 8.208 62.8653 8.2 62.8813 8.2C63.1053 8.056 63.3533 8 63.6253 8.032C63.9133 8.048 64.1853 8.112 64.4413 8.224C64.7133 8.336 64.9693 8.488 65.2093 8.68C65.4493 8.872 65.6413 9.064 65.7853 9.256ZM57.2893 19.768C57.5933 19.768 57.8893 19.744 58.1773 19.696C58.4653 19.648 58.7213 19.568 58.9453 19.456C59.1853 19.344 59.3693 19.2 59.4973 19.024C59.6413 18.848 59.7133 18.624 59.7133 18.352C59.7133 17.792 59.5053 17.368 59.0893 17.08C58.6893 16.792 58.2013 16.536 57.6253 16.312C57.3053 16.328 56.9613 16.392 56.5933 16.504C56.2413 16.6 55.9133 16.728 55.6093 16.888C55.3053 17.048 55.0493 17.232 54.8413 17.44C54.6493 17.648 54.5453 17.864 54.5293 18.088C54.4973 18.52 54.6653 18.92 55.0333 19.288C55.3053 19.448 55.6493 19.56 56.0653 19.624C56.4973 19.704 56.9053 19.752 57.2893 19.768ZM83.1868 15.16C83.2508 15.416 83.2508 15.624 83.1868 15.784C83.1388 15.944 83.0508 16.08 82.9228 16.192C82.8908 16.464 82.8588 16.76 82.8268 17.08C82.7948 17.4 82.7548 17.728 82.7068 18.064C82.6588 18.4 82.6108 18.728 82.5628 19.048C82.5148 19.368 82.4668 19.664 82.4188 19.936C82.6268 20.112 82.7308 20.312 82.7308 20.536C82.7468 21.016 82.5948 21.424 82.2748 21.76C81.9548 22.096 81.5388 22.264 81.0268 22.264C80.8348 22.264 80.5148 22.264 80.0668 22.264C79.6348 22.264 79.1148 22.264 78.5068 22.264C77.8988 22.264 77.2348 22.264 76.5148 22.264C75.7948 22.28 75.0668 22.288 74.3308 22.288C74.1868 22.496 74.0188 22.608 73.8268 22.624C73.4108 22.688 73.0028 22.568 72.6028 22.264C72.2188 21.96 71.9548 21.392 71.8108 20.56L71.2348 17.344C71.1708 17.024 71.0908 16.776 70.9948 16.6C70.9148 16.408 70.8268 16.256 70.7308 16.144C70.6508 16.048 70.5788 15.952 70.5148 15.856C70.4508 15.744 70.4188 15.624 70.4188 15.496C70.4188 15.176 70.5708 14.92 70.8748 14.728C71.1948 14.52 71.5548 14.376 71.9548 14.296C72.3388 14.216 72.7228 14.176 73.1068 14.176C73.4908 14.176 73.7868 14.28 73.9948 14.488C74.5068 14.472 75.0508 14.456 75.6268 14.44C76.2028 14.408 76.7548 14.384 77.2828 14.368C77.8268 14.336 78.3228 14.32 78.7708 14.32C79.2188 14.304 79.5868 14.296 79.8748 14.296C80.0028 14.248 80.1308 14.208 80.2588 14.176C80.3868 14.144 80.5228 14.112 80.6668 14.08C80.5388 13.792 80.3948 13.512 80.2348 13.24C80.0908 12.968 79.9868 12.664 79.9228 12.328C79.7948 11.64 79.7308 10.936 79.7308 10.216H79.5148C79.1148 10.2 78.7148 10.112 78.3148 9.952C77.9308 9.792 77.5868 9.56 77.2828 9.256C77.1548 9.128 77.0348 8.976 76.9228 8.8C76.8108 8.624 76.7708 8.44 76.8028 8.248C76.8188 8.072 76.8908 7.92 77.0188 7.792C77.1628 7.648 77.3228 7.536 77.4988 7.456C77.6908 7.36 77.8908 7.288 78.0988 7.24C78.3228 7.192 78.5228 7.16 78.6988 7.144C78.8268 7.128 78.9868 7.12 79.1788 7.12C79.3708 7.12 79.5788 7.12 79.8028 7.12C79.8188 6.704 79.8268 6.312 79.8268 5.944C79.8428 5.576 79.8668 5.264 79.8988 5.008C79.9148 4.752 79.9228 4.544 79.9228 4.384C79.9228 4.208 79.8988 4.048 79.8508 3.904C79.8028 3.76 79.7308 3.616 79.6348 3.472C79.5548 3.328 79.4428 3.152 79.2988 2.944C79.1228 2.672 79.0188 2.48 78.9868 2.368C78.9708 2.24 79.0348 2.088 79.1788 1.912C79.2268 1.864 79.2908 1.8 79.3708 1.72C79.4508 1.624 79.5388 1.536 79.6348 1.456C79.7308 1.376 79.8188 1.304 79.8988 1.24C79.9948 1.16 80.0668 1.104 80.1148 1.072C80.3868 0.927999 80.5788 0.855999 80.6908 0.855999C80.8188 0.839999 81.0028 0.919999 81.2428 1.096C81.5788 1.336 81.8428 1.544 82.0348 1.72C82.2268 1.896 82.4108 2.104 82.5868 2.344C82.8428 2.664 83.0108 3.024 83.0908 3.424C83.1708 3.808 83.2108 4.288 83.2108 4.864C83.2108 5.248 83.2108 5.704 83.2108 6.232C83.2108 6.744 83.2028 7.272 83.1868 7.816C83.1868 8.36 83.1788 8.896 83.1628 9.424C83.1628 9.952 83.1548 10.416 83.1388 10.816C83.1228 11.328 82.9868 11.88 82.7308 12.472C82.4908 13.048 82.1868 13.592 81.8188 14.104C82.2828 14.184 82.6108 14.328 82.8028 14.536C82.9948 14.728 83.1228 14.936 83.1868 15.16ZM73.3468 11.296C72.7868 11.872 72.2988 12.32 71.8828 12.64C71.2908 13.056 70.7068 13.344 70.1308 13.504C69.5708 13.664 69.0108 13.704 68.4508 13.624C68.0188 13.56 67.6108 13.392 67.2268 13.12C66.8428 12.832 66.4908 12.504 66.1707 12.136C66.4908 12.104 66.7868 12.04 67.0588 11.944C67.3308 11.832 67.6268 11.688 67.9468 11.512C68.2828 11.32 68.6668 11.064 69.0988 10.744C69.5308 10.424 69.9628 10.088 70.3948 9.736C70.8268 9.368 71.2348 9 71.6188 8.632C72.0188 8.264 72.3548 7.936 72.6268 7.648C72.1788 7.68 71.7068 7.72 71.2108 7.768C70.7148 7.8 70.2908 7.816 69.9388 7.816C69.3948 7.816 68.9388 7.656 68.5708 7.336C68.2188 7.016 67.9228 6.688 67.6828 6.352C67.5868 6.224 67.5308 6.088 67.5148 5.944C67.5148 5.8 67.5788 5.648 67.7068 5.488C67.7868 5.408 67.8908 5.288 68.0188 5.128C68.1628 4.968 68.2908 4.84 68.4028 4.744C68.5628 4.616 68.6988 4.552 68.8108 4.552C68.9228 4.552 69.0668 4.592 69.2428 4.672C69.5148 4.8 69.7548 4.888 69.9628 4.936C70.1708 4.968 70.4188 4.992 70.7068 5.008H71.0668V4.624C71.0668 4.432 71.0268 4.288 70.9468 4.192C70.8828 4.08 70.8028 3.968 70.7068 3.856C70.4988 3.616 70.3868 3.416 70.3708 3.256C70.3708 3.08 70.5068 2.808 70.7788 2.44C71.0348 2.088 71.2588 1.896 71.4508 1.864C71.6588 1.832 71.9468 1.88 72.3148 2.008C72.5548 2.088 72.8268 2.2 73.1308 2.344C73.4348 2.472 73.6668 2.608 73.8268 2.752C74.0188 2.928 74.1388 3.128 74.1868 3.352C74.2508 3.56 74.2828 3.832 74.2828 4.168V4.792H74.4268C74.5548 4.76 74.7068 4.728 74.8828 4.696C75.0588 4.648 75.2348 4.624 75.4108 4.624C75.6668 4.624 75.9068 4.672 76.1308 4.768C76.3548 4.848 76.5788 5 76.8028 5.224C76.9788 5.4 77.1068 5.568 77.1868 5.728C77.2828 5.872 77.3228 6.024 77.3068 6.184C77.2908 6.328 77.2268 6.504 77.1148 6.712C77.0188 6.904 76.8748 7.136 76.6828 7.408C76.3308 7.888 75.8828 8.448 75.3388 9.088C75.5948 9.2 75.8668 9.32 76.1548 9.448C76.4428 9.576 76.6828 9.696 76.8748 9.808C77.1468 9.968 77.3548 10.192 77.4988 10.48C77.6588 10.768 77.7628 11.072 77.8108 11.392C77.8588 11.696 77.8508 11.984 77.7868 12.256C77.7388 12.528 77.6428 12.728 77.4988 12.856C77.3388 13 77.1228 13.096 76.8508 13.144C76.5948 13.192 76.3148 13.2 76.0108 13.168C75.7228 13.136 75.4348 13.056 75.1468 12.928C74.8588 12.8 74.6188 12.624 74.4268 12.4C74.2988 12.256 74.1308 12.08 73.9228 11.872C73.7308 11.664 73.5388 11.472 73.3468 11.296ZM79.4188 17.128C78.8428 17.08 78.1468 17.072 77.3308 17.104C76.5308 17.12 75.6028 17.152 74.5468 17.2C74.6108 17.632 74.6588 18.064 74.6908 18.496C74.7388 18.928 74.7788 19.312 74.8108 19.648C75.1788 19.632 75.5628 19.608 75.9628 19.576C76.3788 19.56 76.7868 19.536 77.1868 19.504C77.5868 19.488 77.9708 19.464 78.3387 19.432C78.7228 19.416 79.0668 19.4 79.3708 19.384L79.4908 17.128H79.4188ZM108.247 4.864C108.247 5.248 108.247 5.696 108.247 6.208C108.247 6.704 108.239 7.216 108.223 7.744C108.223 8.272 108.215 8.8 108.199 9.328C108.199 9.84 108.191 10.296 108.175 10.696C108.159 11.016 108.095 11.36 107.983 11.728C107.887 12.08 107.743 12.44 107.551 12.808C107.375 13.16 107.167 13.512 106.927 13.864C106.703 14.2 106.455 14.512 106.183 14.8C106.791 15.264 107.255 15.84 107.575 16.528C107.911 17.2 108.063 17.944 108.031 18.76C107.999 19.464 107.831 20.072 107.527 20.584C107.239 21.096 106.831 21.512 106.303 21.832C105.791 22.152 105.183 22.384 104.479 22.528C103.775 22.672 102.999 22.728 102.151 22.696C101.399 22.664 100.671 22.552 99.9671 22.36C99.2631 22.184 98.6311 21.912 98.0711 21.544C97.8471 21.48 97.6391 21.392 97.4471 21.28C97.2711 21.184 97.0711 21 96.8471 20.728C96.6231 20.456 96.4231 20.128 96.2471 19.744C96.0871 19.376 95.9911 18.992 95.9591 18.592C95.8951 17.904 96.0151 17.288 96.3191 16.744C96.6391 16.2 97.0791 15.736 97.6391 15.352C98.2151 14.968 98.8871 14.664 99.6551 14.44C100.423 14.2 101.231 14.04 102.079 13.96C102.207 13.88 102.351 13.832 102.511 13.816C102.687 13.784 102.831 13.768 102.943 13.768C104.111 13.768 105.111 14.064 105.943 14.656C105.847 14.272 105.703 13.92 105.511 13.6C105.319 13.28 105.167 12.936 105.055 12.568L103.855 12.64C103.439 12.672 103.087 12.632 102.799 12.52C102.511 12.408 102.231 12.248 101.959 12.04C101.655 11.816 101.391 11.568 101.167 11.296C100.943 11.024 100.831 10.76 100.831 10.504C100.831 10.36 100.919 10.248 101.095 10.168C101.271 10.072 101.479 10 101.719 9.952C101.959 9.904 102.207 9.872 102.463 9.856C102.719 9.84 102.919 9.832 103.063 9.832C103.255 9.816 103.503 9.808 103.807 9.808C104.127 9.808 104.447 9.8 104.767 9.784V9.52C104.767 9.376 104.767 9.224 104.767 9.064C104.783 8.888 104.791 8.712 104.791 8.536C104.583 8.552 104.359 8.568 104.119 8.584C103.895 8.584 103.671 8.584 103.447 8.584C103.079 8.568 102.735 8.464 102.415 8.272C102.095 8.08 101.799 7.872 101.527 7.648C101.063 8.608 100.503 9.56 99.8471 10.504C99.2071 11.448 98.5031 12.272 97.7351 12.976C97.0951 13.568 96.3431 13.864 95.4791 13.864C95.1271 13.864 94.7511 13.84 94.3511 13.792C93.9671 13.744 93.5831 13.68 93.1991 13.6C92.8311 13.52 92.4791 13.416 92.1431 13.288C91.8231 13.16 91.5511 13.024 91.3271 12.88C91.6791 12.848 92.0311 12.768 92.3831 12.64C92.7511 12.496 93.1191 12.32 93.4871 12.112C93.9191 11.872 94.3591 11.568 94.8071 11.2C95.2551 10.832 95.6791 10.432 96.0791 10C96.4951 9.568 96.8791 9.12 97.2311 8.656C97.5831 8.192 97.8791 7.752 98.1191 7.336C97.7191 7.352 97.3271 7.36 96.9431 7.36C96.5751 7.36 96.2231 7.344 95.8871 7.312C95.3111 7.28 94.7911 7.152 94.3271 6.928C93.8791 6.688 93.4951 6.328 93.1751 5.848C93.0471 5.656 92.9831 5.512 92.9831 5.416C92.9831 5.32 93.0231 5.208 93.1031 5.08C93.1351 5.032 93.1911 4.968 93.2711 4.888C93.3511 4.792 93.4311 4.696 93.5111 4.6C93.6071 4.488 93.6951 4.392 93.7751 4.312C93.8711 4.216 93.9351 4.152 93.9671 4.12C94.1271 3.992 94.2631 3.936 94.3751 3.952C94.4871 3.968 94.6231 4.04 94.7831 4.168C94.9751 4.312 95.1271 4.392 95.2391 4.408C95.3511 4.424 95.5431 4.424 95.8151 4.408C96.0871 4.392 96.4071 4.376 96.7751 4.36C97.1591 4.344 97.5431 4.328 97.9271 4.312C98.3271 4.28 98.7031 4.248 99.0551 4.216C99.4071 4.168 99.6951 4.12 99.9191 4.072C100.335 3.976 100.679 4.016 100.951 4.192C101.239 4.352 101.543 4.64 101.863 5.056C101.959 5.184 102.039 5.32 102.103 5.464C102.167 5.592 102.215 5.72 102.247 5.848C102.359 5.832 102.519 5.824 102.727 5.824C102.935 5.808 103.159 5.792 103.399 5.776C103.639 5.76 103.887 5.752 104.143 5.752C104.399 5.736 104.647 5.72 104.887 5.704L104.935 5.008C104.951 4.752 104.959 4.544 104.959 4.384C104.959 4.208 104.935 4.048 104.887 3.904C104.839 3.76 104.767 3.616 104.671 3.472C104.591 3.328 104.479 3.152 104.335 2.944C104.159 2.672 104.055 2.48 104.023 2.368C104.007 2.24 104.071 2.088 104.215 1.912C104.263 1.864 104.327 1.8 104.407 1.72C104.487 1.624 104.575 1.536 104.671 1.456C104.767 1.376 104.855 1.304 104.935 1.24C105.031 1.16 105.103 1.104 105.151 1.072C105.423 0.927999 105.615 0.855999 105.727 0.855999C105.855 0.839999 106.039 0.919999 106.279 1.096C106.615 1.336 106.879 1.544 107.071 1.72C107.263 1.896 107.447 2.104 107.623 2.344C107.879 2.664 108.047 3.024 108.127 3.424C108.207 3.808 108.247 4.288 108.247 4.864ZM104.527 18.664C104.559 18.232 104.455 17.848 104.215 17.512C103.975 17.16 103.671 16.912 103.303 16.768C102.919 16.608 102.631 16.456 102.439 16.312C102.119 16.328 101.775 16.392 101.407 16.504C101.055 16.6 100.727 16.736 100.423 16.912C100.119 17.072 99.8631 17.256 99.6551 17.464C99.4631 17.672 99.3591 17.888 99.3431 18.112C99.3271 18.24 99.3431 18.376 99.3911 18.52C99.4551 18.664 99.5351 18.8 99.6311 18.928C99.6791 18.992 99.7191 19.048 99.7511 19.096C99.7831 19.16 99.8151 19.224 99.8471 19.288C100.119 19.448 100.463 19.56 100.879 19.624C101.311 19.704 101.719 19.752 102.103 19.768C102.407 19.784 102.703 19.768 102.991 19.72C103.279 19.688 103.527 19.624 103.735 19.528C103.959 19.432 104.143 19.312 104.287 19.168C104.431 19.024 104.511 18.856 104.527 18.664ZM114.317 9.472C114.077 9.28 113.837 9.016 113.597 8.68C113.469 8.504 113.381 8.368 113.333 8.272C113.285 8.16 113.277 8.04 113.309 7.912C113.373 7.736 113.605 7.584 114.005 7.456C114.261 7.376 114.685 7.32 115.277 7.288L116.285 7.24L116.069 6.712C115.989 6.536 115.941 6.304 115.925 6.016C115.909 5.712 115.973 5.488 116.117 5.344C116.149 5.312 116.205 5.264 116.285 5.2C116.381 5.12 116.485 5.04 116.597 4.96C116.229 4.88 115.845 4.744 115.445 4.552C115.061 4.36 114.685 4.112 114.317 3.808C114.141 3.664 114.045 3.512 114.029 3.352C114.029 3.176 114.093 2.992 114.221 2.8C114.301 2.672 114.397 2.536 114.509 2.392C114.621 2.232 114.757 2.128 114.917 2.08C115.077 2.032 115.229 2.008 115.373 2.008C115.517 1.992 115.717 2.04 115.973 2.152C116.229 2.264 116.469 2.328 116.693 2.344C116.917 2.36 117.133 2.368 117.341 2.368C117.549 2.368 117.869 2.36 118.301 2.344C118.749 2.312 119.213 2.288 119.693 2.272C120.189 2.24 120.653 2.216 121.085 2.2C121.533 2.168 121.877 2.144 122.117 2.128C122.325 2.112 122.565 2.096 122.837 2.08C123.109 2.048 123.309 2.016 123.437 1.984C123.517 1.952 123.661 1.912 123.869 1.864C124.077 1.816 124.245 1.776 124.373 1.744C124.517 1.712 124.677 1.744 124.853 1.84C125.045 1.92 125.221 2.056 125.381 2.248C125.717 2.664 125.925 3.008 126.005 3.28C126.037 3.424 126.037 3.576 126.005 3.736C125.989 3.88 125.917 4.016 125.789 4.144C125.661 4.272 125.469 4.344 125.213 4.36C124.957 4.36 124.573 4.376 124.061 4.408C124.029 4.408 123.917 4.416 123.725 4.432C123.549 4.432 123.317 4.448 123.029 4.48C123.205 4.624 123.365 4.8 123.509 5.008C123.653 5.2 123.741 5.408 123.773 5.632C123.853 6.112 123.869 6.536 123.821 6.904C123.917 6.904 124.005 6.904 124.085 6.904C124.181 6.904 124.285 6.912 124.397 6.928C124.621 6.944 124.853 6.992 125.093 7.072C125.333 7.152 125.501 7.224 125.597 7.288C125.693 7.352 125.805 7.424 125.933 7.504C126.077 7.584 126.293 7.76 126.581 8.032C126.725 8.16 126.829 8.264 126.893 8.344C126.957 8.424 126.997 8.488 127.013 8.536C127.029 8.584 127.029 8.624 127.013 8.656C127.013 8.688 127.005 8.728 126.989 8.776C126.957 8.856 126.877 8.96 126.749 9.088C126.637 9.216 126.517 9.336 126.389 9.448C126.165 9.624 125.957 9.704 125.765 9.688C125.669 9.672 125.501 9.656 125.261 9.64C125.037 9.624 124.781 9.608 124.493 9.592C123.885 9.56 123.301 9.544 122.741 9.544C122.197 9.528 121.645 9.528 121.085 9.544C120.685 9.56 120.197 9.584 119.621 9.616C119.045 9.648 118.557 9.688 118.157 9.736C117.837 9.768 117.509 9.8 117.173 9.832C116.837 9.848 116.525 9.88 116.237 9.928C116.013 9.96 115.813 9.976 115.637 9.976C115.477 9.96 115.341 9.936 115.229 9.904C115.101 9.872 114.949 9.824 114.773 9.76C114.597 9.696 114.445 9.6 114.317 9.472ZM119.021 5.8C119.085 6.232 119.109 6.664 119.093 7.096L120.821 7.024C120.805 6.848 120.797 6.672 120.797 6.496C120.797 6.304 120.821 6.096 120.869 5.872C120.933 5.6 121.005 5.36 121.085 5.152C121.181 4.944 121.269 4.76 121.349 4.6C120.901 4.632 120.485 4.672 120.101 4.72C119.717 4.768 119.413 4.816 119.189 4.864L118.589 4.984C118.717 5.128 118.813 5.28 118.877 5.44C118.957 5.6 119.005 5.72 119.021 5.8ZM128.573 10.912C128.733 11.008 128.893 11.128 129.053 11.272C129.213 11.416 129.357 11.56 129.485 11.704C129.613 11.848 129.717 11.984 129.797 12.112C129.877 12.24 129.909 12.336 129.893 12.4C129.845 12.576 129.741 12.736 129.581 12.88C129.421 13.008 129.229 13.12 129.005 13.216C128.781 13.296 128.541 13.36 128.285 13.408C128.029 13.456 127.789 13.48 127.565 13.48C126.877 13.48 126.061 13.48 125.117 13.48C124.189 13.48 123.197 13.488 122.141 13.504C122.141 13.68 122.133 13.848 122.117 14.008C122.117 14.168 122.117 14.288 122.117 14.368C122.117 14.432 122.109 14.504 122.093 14.584C122.077 14.648 122.061 14.72 122.045 14.8C123.005 14.768 123.757 14.768 124.301 14.8C124.541 14.816 124.741 14.816 124.901 14.8C125.077 14.784 125.221 14.776 125.333 14.776C125.461 14.76 125.565 14.752 125.645 14.752C125.725 14.736 125.805 14.744 125.885 14.776C126.077 14.84 126.245 14.944 126.389 15.088C126.549 15.216 126.669 15.368 126.749 15.544C126.845 15.704 126.901 15.88 126.917 16.072C126.933 16.248 126.893 16.432 126.797 16.624C126.749 16.72 126.701 16.816 126.653 16.912C126.605 16.992 126.549 17.064 126.485 17.128C126.389 17.512 126.285 17.904 126.173 18.304C126.061 18.688 125.949 19.056 125.837 19.408C125.725 19.776 125.621 20.104 125.525 20.392C125.429 20.68 125.349 20.904 125.285 21.064C125.141 21.432 124.877 21.712 124.493 21.904C124.205 22.048 123.829 22.032 123.365 21.856L123.269 21.808C123.045 21.792 122.749 21.776 122.381 21.76C122.029 21.76 121.669 21.752 121.301 21.736C120.949 21.72 120.621 21.704 120.317 21.688C120.029 21.688 119.837 21.688 119.741 21.688C119.645 21.688 119.501 21.688 119.309 21.688C119.117 21.688 118.909 21.688 118.685 21.688C118.477 21.704 118.261 21.72 118.037 21.736C117.829 21.752 117.637 21.768 117.461 21.784C117.445 21.784 117.429 21.784 117.413 21.784C117.413 21.8 117.405 21.808 117.389 21.808C117.293 21.84 117.189 21.872 117.077 21.904C116.965 21.936 116.837 21.952 116.693 21.952C116.597 21.952 116.469 21.92 116.309 21.856C116.165 21.792 116.069 21.72 116.021 21.64C115.941 21.528 115.853 21.376 115.757 21.184C115.661 20.992 115.565 20.792 115.469 20.584C115.389 20.392 115.309 20.192 115.229 19.984C115.149 19.776 115.093 19.6 115.061 19.456C115.013 19.248 114.941 19 114.845 18.712C114.765 18.424 114.677 18.144 114.581 17.872C114.485 17.584 114.389 17.32 114.293 17.08C114.197 16.824 114.117 16.632 114.053 16.504C113.909 16.232 113.805 16.008 113.741 15.832C113.693 15.656 113.781 15.488 114.005 15.328C114.245 15.152 114.509 15.016 114.797 14.92C115.085 14.808 115.341 14.736 115.565 14.704C115.885 14.656 116.189 14.64 116.477 14.656C116.781 14.672 117.021 14.776 117.197 14.968C117.469 14.936 117.749 14.92 118.037 14.92C118.325 14.904 118.621 14.888 118.925 14.872C118.861 14.76 118.805 14.656 118.757 14.56C118.725 14.448 118.709 14.352 118.709 14.272C118.693 14.192 118.685 14.088 118.685 13.96C118.685 13.832 118.685 13.696 118.685 13.552C117.661 13.568 116.677 13.584 115.733 13.6C114.789 13.6 113.957 13.616 113.237 13.648C112.981 13.664 112.709 13.624 112.421 13.528C112.149 13.432 111.917 13.328 111.725 13.216C111.517 13.088 111.285 12.936 111.029 12.76C110.789 12.584 110.613 12.432 110.501 12.304C110.421 12.208 110.389 12.096 110.405 11.968C110.437 11.824 110.477 11.704 110.525 11.608C110.573 11.496 110.669 11.352 110.813 11.176C110.973 10.984 111.109 10.832 111.221 10.72C111.413 10.56 111.653 10.504 111.941 10.552C112.213 10.632 112.445 10.704 112.637 10.768C112.845 10.816 113.029 10.856 113.189 10.888C113.365 10.92 113.541 10.944 113.717 10.96C113.893 10.96 114.093 10.96 114.317 10.96C114.813 10.944 115.461 10.928 116.261 10.912C117.061 10.88 117.925 10.856 118.853 10.84C119.781 10.808 120.725 10.784 121.685 10.768C122.661 10.736 123.557 10.712 124.373 10.696C125.189 10.664 125.885 10.64 126.461 10.624C127.037 10.608 127.405 10.6 127.565 10.6C127.725 10.6 127.901 10.632 128.093 10.696C128.285 10.76 128.445 10.832 128.573 10.912ZM123.221 17.416C122.293 17.384 121.341 17.368 120.365 17.368C119.405 17.368 118.541 17.376 117.773 17.392L117.965 19.048C118.109 19.064 118.285 19.072 118.493 19.072C118.717 19.088 118.941 19.096 119.165 19.096C119.389 19.112 119.597 19.12 119.789 19.12C119.981 19.136 120.133 19.144 120.245 19.144C120.389 19.144 120.565 19.136 120.773 19.12C120.981 19.12 121.205 19.112 121.445 19.096C121.685 19.096 121.925 19.088 122.165 19.072C122.405 19.072 122.629 19.072 122.837 19.072C122.901 18.8 122.965 18.512 123.029 18.208C123.093 17.904 123.157 17.64 123.221 17.416Z" fill="#1C222B"/>
</svg>
