<svg width="63" height="66" viewBox="0 0 63 66" fill="none" xmlns="http://www.w3.org/2000/svg">
<g filter="url(#filter0_i_961_73253)">
<rect x="0.149414" y="0.523438" width="62.6997" height="65.0219" rx="9.28885" fill="#CA6AFB"/>
<rect x="0.729967" y="1.10399" width="61.5386" height="63.8608" rx="8.70829" stroke="#BB4EF2" stroke-width="1.16111"/>
<path d="M38.5799 29.3666C38.6858 29.4592 38.8049 29.5651 38.9373 29.6843C39.0697 29.8034 39.1888 29.9225 39.2947 30.0417C39.4139 30.1608 39.5131 30.2799 39.5926 30.3991C39.672 30.5182 39.7117 30.6241 39.7117 30.7168C39.7117 30.8756 39.6587 31.0212 39.5528 31.1536C39.4602 31.2727 39.3278 31.3853 39.1557 31.4912C38.9836 31.5838 38.7917 31.6632 38.5799 31.7294C38.3681 31.7824 38.1497 31.8155 37.9247 31.8287C37.7658 31.8419 37.5805 31.8486 37.3687 31.8486C37.1701 31.8486 36.9716 31.8486 36.773 31.8486C36.7598 32.0074 36.7465 32.1596 36.7333 32.3053C36.7201 32.4376 36.7068 32.5568 36.6936 32.6627C36.6274 33.1657 36.4752 33.6952 36.2369 34.2511C35.9986 34.8071 35.6611 35.277 35.2243 35.6609C35.6081 35.9654 35.906 36.3228 36.1178 36.7331C36.3428 37.1302 36.4421 37.5869 36.4156 38.1032C36.4024 38.5135 36.27 38.904 36.0185 39.2747C35.7802 39.6453 35.4493 39.9696 35.0257 40.2476C34.6021 40.5388 34.0925 40.7705 33.4968 40.9426C32.9143 41.1147 32.2657 41.2007 31.5509 41.2007C30.8758 41.2007 30.2139 41.1147 29.5653 40.9426C28.9167 40.7837 28.3342 40.5521 27.818 40.2476C27.315 39.9564 26.9046 39.6056 26.5869 39.1953C26.2692 38.7981 26.1038 38.3547 26.0905 37.8649C26.0773 37.3884 26.1964 36.9582 26.4479 36.5743C26.6994 36.1904 27.0238 35.8661 27.4209 35.6013C27.8312 35.3234 28.2879 35.1049 28.7909 34.9461C29.294 34.7872 29.8036 34.688 30.3198 34.6483C30.439 34.5688 30.6309 34.5026 30.8957 34.4497C31.1604 34.3967 31.4053 34.3835 31.6303 34.41C32.2392 34.4762 32.8217 34.5953 33.3777 34.7674C33.9469 34.9262 34.4499 35.1447 34.8867 35.4226C34.6749 35.0652 34.5227 34.6681 34.43 34.2313C34.3374 33.7944 34.2778 33.3245 34.2513 32.8215C33.7351 33.0465 33.0798 33.2319 32.2856 33.3775C31.5046 33.5098 30.664 33.6091 29.7639 33.6753C28.877 33.7415 27.9768 33.7746 27.0635 33.7746C26.1501 33.7746 25.3095 33.7547 24.5418 33.715C24.3564 33.7018 24.1777 33.6621 24.0057 33.5959C23.8468 33.5165 23.7144 33.3907 23.6085 33.2186C23.5026 33.073 23.4034 32.9208 23.3107 32.7619C23.2313 32.5899 23.1651 32.4112 23.1121 32.2258C23.0857 32.1067 23.132 31.9611 23.2511 31.789C23.3703 31.6169 23.5026 31.5176 23.6482 31.4912C23.7939 31.4647 23.9792 31.4647 24.2042 31.4912C24.4292 31.5176 24.6741 31.5375 24.9389 31.5507C25.0183 31.5507 25.0977 31.5573 25.1772 31.5706C25.2698 31.5706 25.3625 31.5706 25.4551 31.5706C25.4022 31.372 25.3625 31.1602 25.336 30.9352C25.3228 30.7102 25.3294 30.505 25.3559 30.3197C25.3956 30.0549 25.4287 29.8166 25.4551 29.6048C25.4948 29.3798 25.5279 29.168 25.5544 28.9695C25.5809 28.7577 25.6074 28.5392 25.6338 28.3142C25.6603 28.0892 25.6868 27.8443 25.7133 27.5795C25.0514 27.5663 24.5021 27.3347 24.0652 26.8846C23.8005 26.6198 23.7343 26.3419 23.8667 26.0506C23.9196 25.9447 23.999 25.8057 24.1049 25.6337C24.2108 25.4616 24.3101 25.3292 24.4028 25.2365C24.5219 25.1174 24.6278 25.038 24.7205 24.9983C24.8264 24.9586 25.0051 24.9917 25.2566 25.0976C25.4154 25.1637 25.5478 25.2101 25.6537 25.2365C25.7728 25.2498 25.892 25.2564 26.0111 25.2564H26.2097C26.3023 25.1505 26.395 25.0645 26.4876 24.9983C26.5935 24.9188 26.6928 24.8858 26.7855 24.899C26.9973 24.9122 27.2091 24.9519 27.4209 25.0181C27.6327 25.0711 27.8378 25.1704 28.0364 25.316C28.1026 25.3557 28.1555 25.402 28.1953 25.455C28.235 25.4947 28.2681 25.5344 28.2945 25.5741C28.374 25.4285 28.4732 25.3093 28.5924 25.2167C28.7247 25.1108 28.8571 25.0645 28.9895 25.0777C29.2542 25.0909 29.5918 25.0909 30.0021 25.0777C30.4257 25.0645 30.8361 25.0512 31.2332 25.038C31.2994 24.985 31.3722 24.9453 31.4516 24.9188C31.5443 24.8791 31.6568 24.8527 31.7892 24.8394C31.9083 24.8262 32.0473 24.8394 32.2062 24.8791C32.365 24.9188 32.5569 24.9917 32.782 25.0976C33.007 25.2035 33.1592 25.3358 33.2387 25.4947C33.3313 25.6535 33.3909 25.8653 33.4174 26.1301C33.4174 26.1962 33.4041 26.3419 33.3777 26.5669C33.3644 26.7787 33.3379 27.0236 33.2982 27.3016C33.2718 27.5795 33.2453 27.8641 33.2188 28.1554C33.1923 28.4466 33.1725 28.6915 33.1592 28.89C33.1328 29.2342 33.0732 29.5916 32.9805 29.9623C32.8879 30.3197 32.7555 30.6307 32.5834 30.8955C32.5305 30.9749 32.4775 31.0543 32.4246 31.1338C32.3716 31.1999 32.3187 31.2661 32.2657 31.3323C33.1791 31.2529 33.8343 31.1602 34.2315 31.0543C34.2315 30.7631 34.2315 30.4322 34.2315 30.0615C34.2447 29.6909 34.2513 29.3004 34.2513 28.89C34.2646 28.4797 34.2712 28.0693 34.2712 27.659C34.2844 27.2354 34.2976 26.8316 34.3109 26.4478C34.3241 25.9845 34.2712 25.6403 34.152 25.4152C34.0461 25.1902 33.9138 24.9586 33.7549 24.7203C33.5564 24.4158 33.4902 24.1776 33.5564 24.0055C33.6358 23.8334 33.8079 23.6481 34.0726 23.4495C34.3506 23.2377 34.5955 23.0987 34.8073 23.0325C35.0191 22.9531 35.2309 23.0061 35.4427 23.1914C35.6809 23.3899 35.8795 23.5753 36.0383 23.7473C36.2104 23.9062 36.3494 24.0783 36.4553 24.2636C36.6406 24.5945 36.7664 24.899 36.8326 25.177C36.8988 25.455 36.9385 25.8322 36.9517 26.3088C36.9517 26.7324 36.9517 27.1957 36.9517 27.6987C36.9517 28.2017 36.9385 28.7179 36.912 29.2474L37.3687 29.1482C37.6334 29.082 37.8651 29.0754 38.0637 29.1283C38.2622 29.168 38.4343 29.2474 38.5799 29.3666ZM28.096 27.1229C28.0166 27.5067 27.9305 27.9833 27.8378 28.5525C27.7584 29.1085 27.6658 29.6379 27.5599 30.141C27.4804 30.4851 27.3812 30.7697 27.262 30.9948C27.1561 31.2198 27.0238 31.4117 26.8649 31.5706C27.0767 31.5706 27.2885 31.5706 27.5003 31.5706C27.7253 31.5706 27.9504 31.564 28.1754 31.5507C28.1754 31.233 28.1754 30.9153 28.1754 30.5976C28.1754 30.2667 28.1688 30.0284 28.1555 29.8828C28.1423 29.7372 28.1092 29.6313 28.0563 29.5651C28.0033 29.499 27.9835 29.3931 27.9967 29.2474C28.0099 29.1415 28.043 29.0555 28.096 28.9893C28.1622 28.9099 28.2283 28.8503 28.2945 28.8106C28.4269 28.7312 28.599 28.665 28.8108 28.6121C29.0358 28.5591 29.2609 28.5459 29.4859 28.5723C29.8565 28.6121 30.0948 28.7974 30.2007 29.1283C30.2404 29.2739 30.2537 29.4526 30.2404 29.6644C30.2272 29.8762 30.2139 30.0748 30.2007 30.2601L30.1213 31.4713C30.2934 31.4713 30.4588 31.4713 30.6177 31.4713C30.7765 31.4581 30.9354 31.4448 31.0942 31.4316C30.9883 31.2066 30.9023 30.9286 30.8361 30.5976C30.7831 30.2667 30.7699 29.8894 30.7964 29.4659C30.8229 28.9364 30.8361 28.5194 30.8361 28.2149C30.8493 27.8972 30.8427 27.5597 30.8162 27.2023C30.4853 27.2288 30.1544 27.2486 29.8234 27.2618C29.5057 27.2751 29.2344 27.2817 29.0093 27.2817C28.8902 27.2817 28.7512 27.2288 28.5924 27.1229C28.4335 27.0037 28.3078 26.8846 28.2151 26.7654C28.1489 26.8846 28.1092 27.0037 28.096 27.1229ZM33.5762 37.8649C33.5895 37.7325 33.5564 37.62 33.4769 37.5274C33.4107 37.4347 33.3115 37.3553 33.1791 37.2891C33.06 37.2229 32.921 37.17 32.7621 37.1302C32.6165 37.0773 32.4643 37.0177 32.3054 36.9515C32.1466 36.8854 31.9282 36.8258 31.6502 36.7728C31.3854 36.7199 31.1604 36.6405 30.9751 36.5346C30.3926 36.561 29.8962 36.6669 29.4859 36.8523C29.0888 37.0243 28.877 37.2957 28.8505 37.6664C28.9961 38.0105 29.2675 38.3084 29.6646 38.5599C30.0617 38.8114 30.6375 38.9371 31.3921 38.9371C31.67 38.9371 31.9414 38.904 32.2062 38.8379C32.4709 38.7849 32.7026 38.7055 32.9011 38.5996C33.0997 38.5069 33.2585 38.3944 33.3777 38.262C33.4968 38.1429 33.563 38.0105 33.5762 37.8649Z" fill="white"/>
</g>
<defs>
<filter id="filter0_i_961_73253" x="0.149414" y="0.523438" width="62.6997" height="65.0234" filterUnits="userSpaceOnUse" color-interpolation-filters="sRGB">
<feFlood flood-opacity="0" result="BackgroundImageFix"/>
<feBlend mode="normal" in="SourceGraphic" in2="BackgroundImageFix" result="shape"/>
<feColorMatrix in="SourceAlpha" type="matrix" values="0 0 0 0 0 0 0 0 0 0 0 0 0 0 0 0 0 0 127 0" result="hardAlpha"/>
<feOffset dy="-2.32221"/>
<feComposite in2="hardAlpha" operator="arithmetic" k2="-1" k3="1"/>
<feColorMatrix type="matrix" values="0 0 0 0 0.733333 0 0 0 0 0.305882 0 0 0 0 0.94902 0 0 0 1 0"/>
<feBlend mode="normal" in2="shape" result="effect1_innerShadow_961_73253"/>
</filter>
</defs>
</svg>
