<svg width="78" height="23" viewBox="0 0 78 23" fill="none" xmlns="http://www.w3.org/2000/svg">
<path d="M20.1119 8.32C20.3999 8.608 20.5759 8.856 20.6399 9.064C20.7039 9.256 20.6559 9.552 20.4959 9.952C20.3839 10.224 20.2399 10.44 20.0639 10.6C19.8879 10.76 19.6479 10.824 19.3439 10.792C18.9919 10.744 18.6079 10.712 18.1919 10.696C17.7759 10.68 17.3919 10.68 17.0399 10.696L16.9919 11.368C16.9439 11.784 16.8159 12.248 16.6079 12.76C16.4159 13.272 16.1679 13.768 15.8639 14.248C16.3439 14.328 16.6799 14.472 16.8719 14.68C17.0639 14.872 17.1919 15.08 17.2559 15.304C17.3199 15.576 17.3199 15.792 17.2559 15.952C17.2079 16.112 17.1039 16.248 16.9439 16.36C16.8959 16.904 16.8239 17.512 16.7279 18.184C16.6479 18.84 16.5679 19.424 16.4879 19.936C16.6959 20.112 16.7999 20.312 16.7999 20.536C16.8159 21.016 16.6639 21.424 16.3439 21.76C16.0239 22.096 15.6079 22.264 15.0959 22.264C14.9039 22.264 14.5759 22.264 14.1119 22.264C13.6479 22.264 13.1039 22.264 12.4799 22.264C11.8559 22.264 11.1679 22.264 10.4159 22.264C9.67988 22.28 8.92788 22.296 8.15988 22.312C8.01588 22.456 7.87188 22.536 7.72787 22.552C7.31188 22.616 6.91188 22.504 6.52788 22.216C6.14388 21.944 5.84788 21.392 5.63988 20.56L4.91988 17.512C4.83988 17.192 4.75188 16.944 4.65588 16.768C4.55988 16.592 4.46388 16.448 4.36788 16.336C4.28788 16.24 4.21588 16.144 4.15188 16.048C4.08788 15.952 4.04788 15.84 4.03188 15.712C3.99988 15.392 4.14388 15.12 4.46388 14.896C4.78388 14.672 5.13588 14.52 5.51988 14.44C5.72788 14.392 5.93588 14.352 6.14388 14.32C6.36788 14.288 6.57588 14.272 6.76788 14.272C6.95988 14.272 7.12788 14.304 7.27188 14.368C7.43188 14.416 7.55188 14.512 7.63188 14.656C8.14388 14.64 8.70388 14.616 9.31188 14.584C9.91988 14.552 10.5119 14.528 11.0879 14.512C11.6799 14.496 12.2239 14.48 12.7199 14.464C13.2159 14.448 13.6239 14.44 13.9439 14.44L14.1599 14.368C13.9199 13.76 13.7519 13.104 13.6559 12.4C13.5759 11.696 13.5279 10.96 13.5119 10.192L13.7279 5.008C13.7439 4.752 13.7439 4.544 13.7279 4.384C13.7279 4.208 13.7039 4.048 13.6559 3.904C13.6079 3.76 13.5439 3.616 13.4639 3.472C13.3839 3.328 13.2719 3.152 13.1279 2.944C12.9519 2.672 12.8479 2.48 12.8159 2.368C12.7999 2.24 12.8639 2.088 13.0079 1.912C13.0559 1.864 13.1279 1.8 13.2239 1.72C13.3199 1.624 13.4239 1.536 13.5359 1.456C13.6479 1.376 13.7519 1.304 13.8479 1.24C13.9439 1.16 14.0159 1.104 14.0639 1.072C14.3359 0.927999 14.5279 0.855999 14.6399 0.855999C14.7679 0.839999 14.9519 0.919999 15.1919 1.096C15.5279 1.336 15.7919 1.544 15.9839 1.72C16.1919 1.896 16.3839 2.104 16.5599 2.344C16.8159 2.664 16.9919 3.024 17.0879 3.424C17.1839 3.808 17.2239 4.288 17.2079 4.864L17.1359 7.624C17.1999 7.608 17.2559 7.592 17.3039 7.576C17.3679 7.56 17.4159 7.544 17.4479 7.528C17.8959 7.352 18.3599 7.352 18.8399 7.528C19.3199 7.688 19.7439 7.952 20.1119 8.32ZM7.89588 11.248C7.57588 11.52 7.27988 11.768 7.00787 11.992C6.75188 12.216 6.52788 12.392 6.33588 12.52C5.15188 13.32 4.00788 13.648 2.90388 13.504C2.47188 13.44 2.06388 13.272 1.67988 13C1.29588 12.712 0.943875 12.384 0.623875 12.016C0.943875 11.984 1.23988 11.92 1.51188 11.824C1.78388 11.712 2.07988 11.568 2.39988 11.392C2.73588 11.2 3.12788 10.96 3.57588 10.672C4.02388 10.368 4.47188 10.048 4.91988 9.712C5.38388 9.376 5.82388 9.04 6.23988 8.704C6.67188 8.352 7.03188 8.024 7.31988 7.72C6.87188 7.752 6.35988 7.792 5.78388 7.84C5.20788 7.872 4.74388 7.888 4.39188 7.888C3.84788 7.888 3.39188 7.728 3.02388 7.408C2.67188 7.088 2.37588 6.76 2.13588 6.424C2.03988 6.296 1.98388 6.16 1.96788 6.016C1.96788 5.872 2.03188 5.72 2.15988 5.56C2.23988 5.48 2.34388 5.36 2.47188 5.2C2.61588 5.04 2.74388 4.912 2.85588 4.816C3.01588 4.688 3.15188 4.624 3.26388 4.624C3.37588 4.624 3.51988 4.664 3.69588 4.744C3.96788 4.872 4.20788 4.96 4.41588 5.008C4.62388 5.04 4.87188 5.064 5.15988 5.08H5.68788C5.70388 5 5.71188 4.92 5.71188 4.84C5.71188 4.76 5.71188 4.688 5.71188 4.624C5.71188 4.432 5.67188 4.288 5.59188 4.192C5.52788 4.08 5.44788 3.968 5.35188 3.856C5.14388 3.616 5.03188 3.416 5.01588 3.256C5.01588 3.08 5.15188 2.808 5.42388 2.44C5.67988 2.088 5.90388 1.896 6.09588 1.864C6.30388 1.832 6.59188 1.88 6.95988 2.008C7.19988 2.088 7.47188 2.2 7.77588 2.344C8.07988 2.472 8.31188 2.608 8.47188 2.752C8.66388 2.928 8.78388 3.128 8.83188 3.352C8.89588 3.56 8.92788 3.832 8.92788 4.168V4.888C8.97588 4.888 9.02388 4.888 9.07188 4.888C9.11988 4.872 9.16788 4.864 9.21588 4.864C9.34388 4.832 9.49588 4.8 9.67188 4.768C9.84788 4.72 10.0239 4.696 10.1999 4.696C10.4559 4.696 10.6959 4.744 10.9199 4.84C11.1439 4.92 11.3679 5.072 11.5919 5.296C11.7679 5.472 11.9039 5.64 11.9999 5.8C12.0959 5.944 12.1359 6.096 12.1199 6.256C12.1199 6.416 12.0719 6.592 11.9759 6.784C11.8799 6.976 11.7279 7.208 11.5199 7.48C11.3439 7.72 11.1279 7.984 10.8719 8.272C10.6159 8.56 10.3359 8.864 10.0319 9.184C10.2879 9.28 10.5519 9.392 10.8239 9.52C11.1119 9.648 11.3439 9.768 11.5199 9.88C11.7919 10.04 11.9999 10.264 12.1439 10.552C12.3039 10.84 12.4079 11.144 12.4559 11.464C12.5039 11.768 12.4959 12.056 12.4319 12.328C12.3839 12.6 12.2879 12.8 12.1439 12.928C11.9839 13.072 11.7679 13.168 11.4959 13.216C11.2399 13.264 10.9599 13.272 10.6559 13.24C10.3679 13.208 10.0799 13.128 9.79188 13C9.50388 12.872 9.26388 12.696 9.07188 12.472C8.92788 12.296 8.74388 12.096 8.51988 11.872C8.29588 11.648 8.08788 11.44 7.89588 11.248ZM13.4879 17.272C12.8639 17.224 12.1279 17.216 11.2799 17.248C10.4319 17.264 9.43188 17.304 8.27988 17.368C8.35988 17.784 8.42388 18.192 8.47188 18.592C8.53588 18.992 8.58388 19.352 8.61588 19.672C8.98388 19.656 9.37588 19.632 9.79188 19.6C10.2239 19.584 10.6559 19.56 11.0879 19.528C11.5199 19.496 11.9359 19.464 12.3359 19.432C12.7519 19.416 13.1199 19.4 13.4399 19.384C13.4719 19.032 13.4959 18.672 13.5119 18.304C13.5279 17.936 13.5359 17.592 13.5359 17.272H13.4879ZM38.4023 7.912C38.4023 8.344 38.4023 8.8 38.4023 9.28C38.4183 9.76 38.4263 10.248 38.4263 10.744C38.4263 11.24 38.4263 11.72 38.4263 12.184C38.4263 12.632 38.4183 13.048 38.4023 13.432C38.4023 13.672 38.3943 13.984 38.3783 14.368C38.3623 14.752 38.3463 15.152 38.3303 15.568C38.3303 15.968 38.3223 16.352 38.3063 16.72C38.2903 17.088 38.2743 17.376 38.2583 17.584C38.2423 17.808 38.2103 18.104 38.1623 18.472C38.1303 18.824 37.9783 19.184 37.7063 19.552C37.5943 19.712 37.4583 19.88 37.2983 20.056C37.1543 20.232 37.0103 20.408 36.8663 20.584C36.7223 20.776 36.5863 20.952 36.4583 21.112C36.3303 21.272 36.2343 21.408 36.1703 21.52C35.8663 22.016 35.7143 22.4 35.7143 22.672C35.5223 22.528 35.3863 22.328 35.3063 22.072C35.2263 21.816 35.1703 21.576 35.1383 21.352C35.1063 21.096 35.0583 20.712 34.9943 20.2C34.9463 19.688 34.9063 19.184 34.8743 18.688C34.8423 18.16 34.8183 17.704 34.8023 17.32C34.8023 16.92 34.8023 16.472 34.8023 15.976C34.5143 16.008 34.2263 16.032 33.9383 16.048C33.6503 16.064 33.4343 16.056 33.2903 16.024C33.0183 15.976 32.7143 15.848 32.3783 15.64C32.0423 15.432 31.7863 15.248 31.6103 15.088C31.4823 14.976 31.3703 14.88 31.2743 14.8C31.1783 14.72 31.0903 14.632 31.0103 14.536C30.6903 15 30.3223 15.424 29.9063 15.808C29.5063 16.176 29.0743 16.472 28.6103 16.696C28.3703 16.824 28.1223 16.904 27.8663 16.936C27.6903 17.096 27.4823 17.224 27.2423 17.32C27.0023 17.416 26.7383 17.456 26.4503 17.44C25.8423 17.424 25.2503 17.272 24.6743 16.984C24.0983 16.696 23.5863 16.312 23.1383 15.832C22.6903 15.352 22.3303 14.792 22.0583 14.152C21.8023 13.512 21.6743 12.832 21.6743 12.112C21.6743 11.456 21.7703 10.808 21.9623 10.168C22.1543 9.528 22.4183 8.928 22.7543 8.368C23.0903 7.792 23.4823 7.288 23.9303 6.856C24.3783 6.408 24.8583 6.048 25.3703 5.776C25.5463 5.424 25.7703 5.208 26.0423 5.128C26.3303 5.032 26.6103 4.968 26.8823 4.936C27.0263 4.92 27.1783 4.928 27.3383 4.96C27.5143 4.992 27.6823 5.04 27.8423 5.104C28.0183 5.152 28.1783 5.216 28.3223 5.296C28.4823 5.36 28.6103 5.424 28.7063 5.488C29.7303 6.08 30.5223 6.928 31.0823 8.032L31.2503 7.888C31.3463 7.824 31.5143 7.76 31.7543 7.696C31.9943 7.632 32.2423 7.568 32.4983 7.504C32.7703 7.44 33.0263 7.392 33.2663 7.36C33.5223 7.312 33.7223 7.288 33.8663 7.288C33.9943 7.288 34.1623 7.296 34.3703 7.312C34.5783 7.312 34.7863 7.32 34.9943 7.336C35.0103 6.712 35.0183 6.152 35.0183 5.656C35.0343 5.144 35.0423 4.768 35.0423 4.528C35.0423 4.288 35.0263 4.104 34.9943 3.976C34.9623 3.832 34.9143 3.712 34.8503 3.616C34.8023 3.504 34.7383 3.4 34.6583 3.304C34.5943 3.192 34.5223 3.064 34.4423 2.92C34.3303 2.728 34.2503 2.592 34.2023 2.512C34.1543 2.416 34.1543 2.296 34.2023 2.152C34.2503 1.992 34.3463 1.848 34.4903 1.72C34.6503 1.592 34.8263 1.48 35.0183 1.384C35.2103 1.288 35.4103 1.216 35.6183 1.168C35.8423 1.104 36.0503 1.064 36.2423 1.048C36.5943 1.016 36.8663 1.096 37.0583 1.288C37.2663 1.496 37.4663 1.712 37.6583 1.936C37.8663 2.144 38.0263 2.352 38.1383 2.56C38.2503 2.768 38.3223 2.968 38.3543 3.16C38.4023 3.336 38.4263 3.544 38.4263 3.784L38.4023 7.912ZM26.8583 14.2C27.5143 13.928 27.9863 13.536 28.2743 13.024C28.5783 12.496 28.6983 11.896 28.6343 11.224C28.5703 10.52 28.3863 9.872 28.0823 9.28C27.7943 8.688 27.4023 8.224 26.9063 7.888C26.6183 8.064 26.3543 8.296 26.1143 8.584C25.8743 8.872 25.6663 9.192 25.4903 9.544C25.3303 9.896 25.2023 10.264 25.1063 10.648C25.0263 11.032 24.9863 11.4 24.9863 11.752C24.9863 12.136 25.0423 12.472 25.1543 12.76C25.2663 13.032 25.4103 13.272 25.5863 13.48C25.7783 13.672 25.9783 13.832 26.1863 13.96C26.4103 14.072 26.6343 14.152 26.8583 14.2ZM33.1223 12.64C33.2823 12.64 33.5303 12.648 33.8663 12.664C34.2023 12.68 34.5303 12.696 34.8503 12.712L34.9223 10.6C34.7943 10.616 34.6743 10.624 34.5623 10.624C34.4663 10.624 34.3703 10.624 34.2743 10.624C34.1463 10.624 33.9623 10.6 33.7223 10.552C33.4983 10.504 33.2583 10.456 33.0023 10.408C32.7623 10.344 32.5383 10.272 32.3303 10.192C32.1223 10.112 31.9703 10.032 31.8743 9.952L31.7303 9.832C31.7623 10.008 31.7863 10.192 31.8023 10.384C31.8343 10.56 31.8663 10.736 31.8983 10.912C31.9303 11.28 31.9303 11.632 31.8983 11.968C31.8663 12.288 31.8103 12.608 31.7303 12.928C31.9543 12.848 32.1863 12.784 32.4263 12.736C32.6823 12.672 32.9143 12.64 33.1223 12.64ZM59.0224 8.08C59.1504 8.192 59.2944 8.32 59.4544 8.464C59.6144 8.608 59.7584 8.76 59.8864 8.92C60.0304 9.08 60.1424 9.232 60.2224 9.376C60.3184 9.52 60.3664 9.648 60.3664 9.76C60.3664 9.936 60.3024 10.096 60.1744 10.24C60.0624 10.384 59.9024 10.512 59.6944 10.624C59.5024 10.72 59.2784 10.8 59.0224 10.864C58.7664 10.928 58.5024 10.968 58.2304 10.984C58.0064 11 57.7504 11.008 57.4624 11.008C57.1904 11.008 56.9184 11.008 56.6464 11.008C56.6304 11.344 56.5904 11.608 56.5264 11.8C56.4784 12.008 56.3984 12.248 56.2864 12.52C56.1744 12.776 56.0464 13.04 55.9024 13.312C55.7584 13.584 55.5984 13.856 55.4224 14.128C55.2464 14.4 55.0544 14.64 54.8464 14.848C55.4544 15.28 55.9264 15.832 56.2624 16.504C56.6144 17.16 56.7744 17.896 56.7424 18.712C56.7104 19.352 56.5424 19.92 56.2384 20.416C55.9504 20.912 55.5504 21.328 55.0384 21.664C54.5264 22 53.9264 22.256 53.2384 22.432C52.5664 22.608 51.8384 22.696 51.0544 22.696C50.3024 22.696 49.5584 22.592 48.8224 22.384C48.1024 22.192 47.4624 21.912 46.9024 21.544C46.2944 21.336 45.8144 20.96 45.4624 20.416C45.1104 19.872 44.9104 19.304 44.8624 18.712C44.8144 18.04 44.9424 17.44 45.2464 16.912C45.5664 16.384 46.0064 15.928 46.5664 15.544C47.1264 15.16 47.7904 14.856 48.5584 14.632C49.3264 14.392 50.1344 14.232 50.9824 14.152C51.1104 14.072 51.2544 14.024 51.4144 14.008C51.5904 13.976 51.7344 13.96 51.8464 13.96C52.6304 13.96 53.3744 14.112 54.0784 14.416C53.7104 13.728 53.4784 13.008 53.3824 12.256C53.2864 11.504 53.2304 10.704 53.2144 9.856C53.2144 9.552 53.2144 9.2 53.2144 8.8C53.2304 8.384 53.2464 7.96 53.2624 7.528C53.2944 7.08 53.3264 6.64 53.3584 6.208C53.3904 5.776 53.4144 5.376 53.4304 5.008C53.4464 4.752 53.4464 4.544 53.4304 4.384C53.4304 4.208 53.4064 4.048 53.3584 3.904C53.3104 3.76 53.2464 3.616 53.1664 3.472C53.0864 3.328 52.9744 3.152 52.8304 2.944C52.6544 2.672 52.5504 2.48 52.5184 2.368C52.5024 2.24 52.5664 2.088 52.7104 1.912C52.7584 1.864 52.8304 1.8 52.9264 1.72C53.0224 1.624 53.1264 1.536 53.2384 1.456C53.3504 1.376 53.4544 1.304 53.5504 1.24C53.6464 1.16 53.7184 1.104 53.7664 1.072C54.0384 0.927999 54.2304 0.855999 54.3424 0.855999C54.4704 0.839999 54.6544 0.919999 54.8944 1.096C55.2304 1.336 55.4944 1.544 55.6864 1.72C55.8944 1.896 56.0864 2.104 56.2624 2.344C56.5184 2.664 56.6944 3.024 56.7904 3.424C56.8864 3.808 56.9264 4.288 56.9104 4.864L56.8384 7.792L57.5584 7.648C57.8784 7.568 58.1584 7.584 58.3984 7.696C58.6384 7.808 58.8464 7.936 59.0224 8.08ZM48.9184 13.072C48.6144 13.072 48.2544 13.08 47.8384 13.096C47.4384 13.096 47.0224 13.104 46.5904 13.12C46.1584 13.12 45.7264 13.136 45.2944 13.168C44.8784 13.184 44.4944 13.2 44.1424 13.216C43.9664 13.376 43.7664 13.456 43.5424 13.456C43.4144 13.456 43.2704 13.424 43.1104 13.36C42.9504 13.28 42.7904 13.184 42.6304 13.072C42.4704 12.944 42.3264 12.808 42.1984 12.664C42.0864 12.504 42.0224 12.336 42.0064 12.16C41.9904 12.048 41.9824 11.76 41.9824 11.296C41.9824 10.832 41.9824 10.328 41.9824 9.784C41.9824 9.224 41.9824 8.68 41.9824 8.152C41.9984 7.608 42.0064 7.2 42.0064 6.928C42.0064 6.656 41.9904 6.464 41.9584 6.352C41.9424 6.24 41.8784 6.112 41.7664 5.968C41.6544 5.824 41.5744 5.68 41.5264 5.536C41.4784 5.392 41.4944 5.248 41.5744 5.104C41.6864 4.928 41.8544 4.744 42.0784 4.552C42.3024 4.344 42.5024 4.2 42.6784 4.12C42.8064 4.056 42.9184 4.024 43.0144 4.024C43.1264 4.008 43.2464 4.04 43.3744 4.12C43.5344 4.2 43.6944 4.304 43.8544 4.432C44.0304 4.544 44.1984 4.688 44.3584 4.864C44.4704 4.992 44.5824 5.152 44.6944 5.344C44.8064 5.536 44.8784 5.768 44.9104 6.04C44.9104 6.088 44.9104 6.152 44.9104 6.232C44.9264 6.296 44.9344 6.368 44.9344 6.448L46.3744 6.304C46.8544 6.256 47.2224 6.32 47.4784 6.496C47.6224 6.608 47.7664 6.752 47.9104 6.928C48.0704 7.088 48.1904 7.256 48.2704 7.432C48.2704 7.112 48.2704 6.832 48.2704 6.592C48.2704 6.336 48.2624 6.128 48.2464 5.968C48.2304 5.696 48.1984 5.488 48.1504 5.344C48.1024 5.2 47.9904 5.04 47.8144 4.864C47.7344 4.784 47.6784 4.688 47.6464 4.576C47.6144 4.448 47.6384 4.296 47.7184 4.12C47.7504 4.04 47.8144 3.952 47.9104 3.856C48.0064 3.744 48.1104 3.64 48.2224 3.544C48.3504 3.448 48.4704 3.36 48.5824 3.28C48.7104 3.2 48.8224 3.136 48.9184 3.088C49.1104 3.008 49.2624 2.984 49.3744 3.016C49.4864 3.048 49.5984 3.104 49.7104 3.184C49.9824 3.392 50.2144 3.616 50.4064 3.856C50.5984 4.08 50.7664 4.368 50.9104 4.72C51.0064 4.944 51.1024 5.216 51.1984 5.536C51.2944 5.856 51.3344 6.248 51.3184 6.712C51.3184 7.048 51.3104 7.456 51.2944 7.936C51.2784 8.4 51.2624 8.864 51.2464 9.328C51.2464 9.792 51.2384 10.216 51.2224 10.6C51.2064 10.984 51.1904 11.248 51.1744 11.392C51.1584 11.6 51.0864 11.808 50.9584 12.016C50.8304 12.224 50.6784 12.416 50.5024 12.592C50.3264 12.768 50.1424 12.92 49.9504 13.048C49.7584 13.16 49.5904 13.224 49.4464 13.24C49.3024 13.256 49.1264 13.2 48.9184 13.072ZM46.7344 8.968C46.6064 8.984 46.3664 8.992 46.0144 8.992C45.6624 8.992 45.3184 8.992 44.9824 8.992V10.552C45.4784 10.568 46.0384 10.568 46.6624 10.552C47.3024 10.536 47.8384 10.512 48.2704 10.48V8.08C48.1424 8.272 47.9264 8.464 47.6224 8.656C47.3344 8.832 47.0384 8.936 46.7344 8.968ZM51.0064 19.768C51.3104 19.784 51.6064 19.768 51.8944 19.72C52.1824 19.688 52.4384 19.616 52.6624 19.504C52.9024 19.392 53.0864 19.248 53.2144 19.072C53.3584 18.896 53.4304 18.672 53.4304 18.4C53.4304 18.128 53.3744 17.896 53.2624 17.704C53.1504 17.512 52.9984 17.344 52.8064 17.2C52.6304 17.056 52.4144 16.936 52.1584 16.84C51.9024 16.728 51.6304 16.616 51.3424 16.504C51.0224 16.52 50.6784 16.576 50.3104 16.672C49.9584 16.768 49.6304 16.888 49.3264 17.032C49.0224 17.176 48.7664 17.344 48.5584 17.536C48.3664 17.728 48.2624 17.936 48.2464 18.16C48.2304 18.56 48.3984 18.936 48.7504 19.288C49.0224 19.448 49.3664 19.56 49.7824 19.624C50.2144 19.704 50.6224 19.752 51.0064 19.768ZM76.7129 2.344C76.9689 2.664 77.1449 3.024 77.2409 3.424C77.3369 3.808 77.3769 4.288 77.3609 4.864C77.3289 5.84 77.3129 6.768 77.3129 7.648C77.3289 8.528 77.3049 9.376 77.2409 10.192C77.1929 10.624 77.0729 11.104 76.8809 11.632C76.6889 12.144 76.4329 12.648 76.1129 13.144L76.2569 13.312C76.4009 13.488 76.5129 13.64 76.5929 13.768C76.6729 13.896 76.7369 14.024 76.7849 14.152C76.8489 14.264 76.8969 14.392 76.9289 14.536C76.9609 14.664 76.9929 14.824 77.0249 15.016C77.0729 15.24 77.1049 15.64 77.1209 16.216C77.1529 16.792 77.1689 17.416 77.1689 18.088C77.1849 18.76 77.1769 19.416 77.1449 20.056C77.1289 20.712 77.0889 21.216 77.0249 21.568C76.8809 22.32 76.4409 22.672 75.7049 22.624C75.5449 22.608 75.3369 22.568 75.0809 22.504C74.8249 22.456 74.6089 22.392 74.4329 22.312C74.3369 22.264 74.2649 22.2 74.2169 22.12C73.7849 22.12 73.2969 22.12 72.7529 22.12C72.2249 22.12 71.6809 22.128 71.1209 22.144C70.5609 22.16 69.9929 22.176 69.4169 22.192C68.8569 22.208 68.3209 22.224 67.8089 22.24C67.7609 22.32 67.6969 22.384 67.6169 22.432C67.4889 22.528 67.2809 22.6 66.9929 22.648C66.7049 22.712 66.5049 22.744 66.3929 22.744C66.1689 22.744 65.9529 22.624 65.7449 22.384C65.5529 22.16 65.4249 21.888 65.3609 21.568C65.3289 21.456 65.3049 21.192 65.2889 20.776C65.2729 20.376 65.2489 19.936 65.2169 19.456C65.2009 18.976 65.1849 18.504 65.1689 18.04C65.1529 17.56 65.1369 17.184 65.1209 16.912C65.1049 16.656 65.0809 16.48 65.0489 16.384C65.0329 16.272 64.9609 16.136 64.8329 15.976C64.7209 15.848 64.6329 15.728 64.5689 15.616C64.5049 15.504 64.5129 15.376 64.5929 15.232C64.6409 15.136 64.7289 15.04 64.8569 14.944C65.0009 14.832 65.1449 14.728 65.2889 14.632C65.4489 14.52 65.5929 14.424 65.7209 14.344C65.8649 14.248 65.9609 14.184 66.0089 14.152C66.2329 13.992 66.4489 13.976 66.6569 14.104C66.8009 14.184 66.9449 14.28 67.0889 14.392C67.2329 14.504 67.3929 14.64 67.5689 14.8C67.6649 14.88 67.7769 15.016 67.9049 15.208C68.0489 15.384 68.1369 15.608 68.1689 15.88C68.1689 15.912 68.1769 15.944 68.1929 15.976C68.4809 15.944 68.7849 15.912 69.1049 15.88C69.4409 15.832 69.7609 15.784 70.0649 15.736C70.3849 15.688 70.6729 15.648 70.9289 15.616C71.1849 15.584 71.3929 15.568 71.5529 15.568C71.7609 15.568 71.9689 15.616 72.1769 15.712C72.4009 15.808 72.5929 15.936 72.7529 16.096C72.9289 16.24 73.0729 16.4 73.1849 16.576C73.2969 16.752 73.3529 16.904 73.3529 17.032C73.3529 17.16 73.2889 17.304 73.1609 17.464C73.0329 17.624 72.8729 17.768 72.6809 17.896C72.5049 18.024 72.3209 18.136 72.1289 18.232C71.9369 18.312 71.7689 18.352 71.6249 18.352C71.1769 18.32 70.6569 18.304 70.0649 18.304C69.4889 18.288 68.9209 18.288 68.3609 18.304C68.3929 18.576 68.4089 18.832 68.4089 19.072C68.4249 19.328 68.4329 19.544 68.4329 19.72C69.3449 19.704 70.3049 19.68 71.3129 19.648C72.3209 19.632 73.2089 19.608 73.9769 19.576C73.9769 19.176 73.9769 18.768 73.9769 18.352C73.9929 17.92 74.0009 17.52 74.0009 17.152C74.0009 16.768 74.0009 16.44 74.0009 16.168C74.0169 15.88 74.0249 15.688 74.0249 15.592C74.0249 15.272 74.0009 15.04 73.9529 14.896C73.9209 14.752 73.8329 14.576 73.6889 14.368C73.5129 14.112 73.4249 13.92 73.4249 13.792C73.4249 13.648 73.5049 13.512 73.6649 13.384C73.8729 13.224 74.1369 13.08 74.4569 12.952C74.2969 12.488 74.1849 12.008 74.1209 11.512C74.0569 11.016 74.0089 10.488 73.9769 9.928C73.8329 9.944 73.6809 9.952 73.5209 9.952C73.3769 9.952 73.2329 9.952 73.0889 9.952C72.7689 9.936 72.4489 9.856 72.1289 9.712C71.8249 9.568 71.5369 9.384 71.2649 9.16C71.2489 9.72 71.2329 10.224 71.2169 10.672C71.2169 11.104 71.2089 11.392 71.1929 11.536C71.1609 11.808 71.0729 12.04 70.9289 12.232C70.8009 12.408 70.6489 12.584 70.4729 12.76C70.2969 12.936 70.1209 13.08 69.9449 13.192C69.7849 13.304 69.6169 13.368 69.4409 13.384C69.3609 13.384 69.2489 13.36 69.1049 13.312C68.9609 13.264 68.8169 13.192 68.6729 13.096C68.3849 13.096 68.0489 13.096 67.6649 13.096C67.2809 13.096 66.8889 13.096 66.4889 13.096C66.0889 13.096 65.6809 13.104 65.2649 13.12C64.8649 13.136 64.4969 13.152 64.1609 13.168C63.9369 13.424 63.7049 13.552 63.4649 13.552C63.3369 13.552 63.1849 13.52 63.0089 13.456C62.8489 13.392 62.6889 13.304 62.5289 13.192C62.3849 13.08 62.2569 12.952 62.1449 12.808C62.0329 12.664 61.9689 12.504 61.9529 12.328C61.9369 12.248 61.9209 12.088 61.9049 11.848C61.9049 11.592 61.8969 11.296 61.8809 10.96C61.8649 10.624 61.8489 10.264 61.8329 9.88C61.8169 9.48 61.8009 9.096 61.7849 8.728C61.7849 8.36 61.7769 8.024 61.7609 7.72C61.7449 7.4 61.7369 7.152 61.7369 6.976C61.7209 6.704 61.6969 6.512 61.6649 6.4C61.6489 6.288 61.5769 6.16 61.4489 6.016C61.3369 5.888 61.2489 5.768 61.1849 5.656C61.1209 5.528 61.1289 5.392 61.2089 5.248C61.2569 5.152 61.3369 5.048 61.4489 4.936C61.5609 4.824 61.6809 4.712 61.8089 4.6C61.9529 4.488 62.0809 4.392 62.1929 4.312C62.3209 4.232 62.4169 4.168 62.4809 4.12C62.7369 3.96 63.0249 3.976 63.3449 4.168C63.6649 4.344 63.9449 4.552 64.1849 4.792C64.3129 4.92 64.4329 5.08 64.5449 5.272C64.6729 5.448 64.7529 5.672 64.7849 5.944C64.8169 6.104 64.8329 6.28 64.8329 6.472C65.1369 6.44 65.4329 6.424 65.7209 6.424C66.0249 6.408 66.3049 6.392 66.5609 6.376C67.0409 6.344 67.4089 6.432 67.6649 6.64C67.8409 6.784 67.9929 6.944 68.1209 7.12C68.1209 6.88 68.1129 6.664 68.0969 6.472C68.0969 6.28 68.0969 6.12 68.0969 5.992C68.0649 5.432 67.9209 4.976 67.6649 4.624C67.6009 4.544 67.5449 4.448 67.4969 4.336C67.4649 4.208 67.4889 4.056 67.5689 3.88C67.6169 3.8 67.6969 3.712 67.8089 3.616C67.9209 3.52 68.0489 3.424 68.1929 3.328C68.3369 3.232 68.4729 3.144 68.6009 3.064C68.7449 2.984 68.8649 2.92 68.9609 2.872C69.1369 2.776 69.2969 2.76 69.4409 2.824C69.5849 2.888 69.7129 2.96 69.8249 3.04C70.0969 3.264 70.3289 3.472 70.5209 3.664C70.7289 3.84 70.8889 4.04 71.0009 4.264C71.1289 4.472 71.2169 4.72 71.2649 5.008C71.3289 5.28 71.3529 5.616 71.3369 6.016C71.3369 6.144 71.3289 6.296 71.3129 6.472C71.3129 6.648 71.3129 6.84 71.3129 7.048C71.4729 7.016 71.6329 6.992 71.7929 6.976C71.9689 6.944 72.1289 6.92 72.2729 6.904C72.4489 6.888 72.6969 6.88 73.0169 6.88C73.3369 6.864 73.6649 6.864 74.0009 6.88L74.0729 5.032C74.0889 4.776 74.0889 4.56 74.0729 4.384C74.0569 4.208 74.0249 4.048 73.9769 3.904C73.9449 3.76 73.8809 3.616 73.7849 3.472C73.7049 3.312 73.6009 3.136 73.4729 2.944C73.2969 2.672 73.2009 2.48 73.1849 2.368C73.1689 2.24 73.2249 2.088 73.3529 1.912C73.4009 1.864 73.4729 1.8 73.5689 1.72C73.6649 1.624 73.7689 1.536 73.8809 1.456C73.9929 1.36 74.0969 1.28 74.1929 1.216C74.2889 1.152 74.3609 1.104 74.4089 1.072C74.6809 0.927999 74.8729 0.855999 74.9849 0.855999C75.1129 0.839999 75.2969 0.919999 75.5369 1.096C75.8729 1.336 76.1049 1.544 76.2329 1.72C76.3769 1.896 76.5369 2.104 76.7129 2.344ZM65.0729 10.48C65.5529 10.48 66.0729 10.488 66.6329 10.504C67.2089 10.504 67.6969 10.488 68.0969 10.456C68.0969 10.12 68.0969 9.776 68.0969 9.424C68.0969 9.072 68.1049 8.728 68.1209 8.392C67.8969 8.536 67.6409 8.672 67.3529 8.8C67.0649 8.912 66.7929 8.976 66.5369 8.992C66.4089 9.008 66.2009 9.016 65.9129 9.016C65.6249 9 65.3289 8.984 65.0249 8.968C65.0409 9.256 65.0489 9.528 65.0489 9.784C65.0649 10.04 65.0729 10.272 65.0729 10.48Z" fill="#1C222B"/>
</svg>
