<svg width="174" height="46" viewBox="0 0 174 46" fill="none" xmlns="http://www.w3.org/2000/svg">
<mask id="path-1-outside-1_11_49" maskUnits="userSpaceOnUse" x="4.77768" y="4.50751" width="165" height="37" fill="black">
<rect fill="white" x="4.77768" y="4.50751" width="165" height="37"/>
<path d="M33.2017 10.9445C33.2977 12.3125 33.3817 13.8725 33.4537 15.6245C33.5257 17.3525 33.4777 19.2005 33.3097 21.1685C33.1897 22.6325 32.8657 23.9765 32.3377 25.2005C31.8097 26.4245 30.9937 27.6245 29.8897 28.8005C30.8257 29.4005 31.5457 30.1565 32.0497 31.0685C32.5777 31.9805 32.7817 33.0485 32.6617 34.2725C32.5897 35.0645 32.2777 35.7725 31.7257 36.3965C31.1977 37.0445 30.5137 37.5965 29.6737 38.0525C28.8577 38.5085 27.9337 38.8565 26.9017 39.0965C25.8697 39.3605 24.8257 39.4925 23.7697 39.4925C22.6417 39.4925 21.5137 39.3725 20.3857 39.1325C19.2817 38.8925 18.2737 38.5445 17.3617 38.0885C16.4497 37.6325 15.6817 37.0685 15.0577 36.3965C14.4577 35.7245 14.1097 34.9565 14.0137 34.0925C13.8937 33.1805 14.0617 32.3525 14.5177 31.6085C14.9977 30.8405 15.6697 30.1805 16.5337 29.6285C17.3977 29.0765 18.4177 28.6325 19.5937 28.2965C20.7697 27.9605 21.9937 27.7565 23.2657 27.6845C23.0017 27.1325 22.7257 26.5325 22.4377 25.8845C22.1737 25.2365 22.0177 24.5885 21.9697 23.9405C21.9457 23.2925 21.9337 22.5245 21.9337 21.6365C21.9337 20.7485 21.9457 19.8245 21.9697 18.8645C21.9937 17.9045 22.0057 16.9445 22.0057 15.9845C22.0297 15.0245 22.0417 14.1485 22.0417 13.3565C22.0417 13.0685 22.0297 12.8405 22.0057 12.6725C22.0057 12.4805 21.9697 12.3125 21.8977 12.1685C21.8497 12.0245 21.7777 11.8925 21.6817 11.7725C21.5857 11.6285 21.4657 11.4605 21.3217 11.2685C21.0337 10.9085 20.9017 10.5845 20.9257 10.2965C20.9737 9.98451 21.1657 9.66051 21.5017 9.32451C21.5497 9.27651 21.7057 9.14451 21.9697 8.92851C22.2337 8.71251 22.4377 8.58051 22.5817 8.53251C22.7737 8.46051 22.9897 8.44851 23.2297 8.49651C23.4697 8.52051 23.7577 8.62851 24.0937 8.82051C24.4297 9.03651 24.7297 9.27651 24.9937 9.54051C25.2817 9.80451 25.5217 10.0325 25.7137 10.2245C26.1217 10.7045 26.3497 11.2325 26.3977 11.8085C26.4697 12.3845 26.5177 12.9845 26.5417 13.6085C26.5417 13.9445 26.5417 14.4125 26.5417 15.0125C26.5657 15.5885 26.5897 16.2245 26.6137 16.9205C26.9257 16.8485 27.2617 16.7885 27.6217 16.7405C27.9817 16.6685 28.3297 16.6205 28.6657 16.5965C28.6657 15.7565 28.6537 14.9165 28.6297 14.0765C28.6297 13.2125 28.6297 12.4325 28.6297 11.7365C28.6297 11.4005 28.6057 11.1125 28.5577 10.8725C28.5097 10.6325 28.4257 10.4165 28.3057 10.2245C28.2097 10.0085 28.0777 9.79251 27.9097 9.57651C27.7417 9.36051 27.5377 9.09651 27.2977 8.78451C27.1777 8.61651 27.1057 8.42451 27.0817 8.20851C27.0577 7.96851 27.1177 7.75251 27.2617 7.56051C27.3337 7.46451 27.4777 7.33251 27.6937 7.16451C27.9097 6.99651 28.0777 6.87651 28.1977 6.80451C28.4857 6.63651 28.7257 6.54051 28.9177 6.51651C29.1337 6.49251 29.4097 6.51651 29.7457 6.58851C30.1297 6.66051 30.5257 6.86451 30.9337 7.20051C31.3417 7.51251 31.6537 7.78851 31.8697 8.02851C32.2537 8.43651 32.5537 8.89251 32.7697 9.39651C33.0097 9.87651 33.1537 10.3925 33.2017 10.9445ZM18.4057 17.4245C18.0697 17.4485 17.5537 17.4725 16.8577 17.4965C16.1857 17.5205 15.4537 17.5445 14.6617 17.5685C13.8937 17.5925 13.1617 17.6165 12.4657 17.6405C11.7697 17.6405 11.2417 17.6405 10.8817 17.6405C10.2097 17.6405 9.64568 17.5805 9.18968 17.4605C8.73368 17.3405 8.22968 17.1125 7.67768 16.7765C7.07768 16.4165 6.77768 16.0805 6.77768 15.7685C6.77768 15.4325 6.92168 14.9885 7.20968 14.4365C7.47368 13.9565 7.72568 13.6085 7.96568 13.3925C8.20568 13.1525 8.49368 13.0925 8.82968 13.2125C9.26168 13.3805 9.68168 13.5005 10.0897 13.5725C10.4977 13.6205 10.9057 13.6445 11.3137 13.6445H12.1777C12.1777 13.2845 12.1177 13.0205 11.9977 12.8525C11.9017 12.6845 11.7697 12.5045 11.6017 12.3125C11.3137 11.9765 11.1457 11.7125 11.0977 11.5205C11.0497 11.3285 11.1097 11.1005 11.2777 10.8365C11.3497 10.7165 11.4817 10.5365 11.6737 10.2965C11.8657 10.0565 12.0217 9.87651 12.1417 9.75651C12.4057 9.49251 12.6457 9.33651 12.8617 9.28851C13.1017 9.24051 13.3777 9.27651 13.6897 9.39651C14.0737 9.51651 14.4817 9.70851 14.9137 9.97251C15.3697 10.2365 15.7297 10.4765 15.9937 10.6925C16.3297 10.9565 16.5337 11.3045 16.6057 11.7365C16.7017 12.1445 16.7497 12.6245 16.7497 13.1765V13.3565C17.0137 13.3325 17.2537 13.3205 17.4697 13.3205C17.7097 13.2965 17.9377 13.2605 18.1537 13.2125C18.9937 13.0925 19.6777 13.3325 20.2057 13.9325C20.6857 14.4845 20.9977 14.9045 21.1417 15.1925C21.2857 15.4565 21.3577 15.7085 21.3577 15.9485C21.3577 16.4525 21.0577 16.8125 20.4577 17.0285C19.8817 17.2445 19.1977 17.3765 18.4057 17.4245ZM20.6017 23.2565C20.5777 23.9045 20.3977 24.5045 20.0617 25.0565C19.7257 25.6085 19.2817 26.0885 18.7297 26.4965C18.1777 26.8805 17.5297 27.1805 16.7857 27.3965C16.0417 27.5885 15.2617 27.6725 14.4457 27.6485C14.2537 27.6965 14.0017 27.7325 13.6897 27.7565C13.3777 27.7565 13.0537 27.7325 12.7177 27.6845C11.3017 27.4685 10.2217 26.9645 9.47768 26.1725C8.75768 25.3565 8.39768 24.3965 8.39768 23.2925C8.39768 22.7885 8.50568 22.2845 8.72168 21.7805C8.93768 21.2765 9.24968 20.8205 9.65768 20.4125C10.0657 19.9805 10.5577 19.6085 11.1337 19.2965C11.7097 18.9845 12.3577 18.7685 13.0777 18.6485C13.2217 18.5285 13.4137 18.4565 13.6537 18.4325C13.8937 18.3845 14.1217 18.3605 14.3377 18.3605C15.2257 18.3605 16.0537 18.4805 16.8217 18.7205C17.5897 18.9365 18.2497 19.2605 18.8017 19.6925C19.3777 20.1245 19.8217 20.6405 20.1337 21.2405C20.4697 21.8405 20.6257 22.5125 20.6017 23.2565ZM24.3097 27.3245C26.2777 27.3245 28.0057 27.7325 29.4937 28.5485C29.4457 27.9725 29.3377 27.3365 29.1697 26.6405C29.0257 25.9445 28.9297 25.4045 28.8817 25.0205C28.7857 24.3965 28.7137 23.7725 28.6657 23.1485C28.6177 22.5245 28.5937 21.9005 28.5937 21.2765L26.6857 21.1685C26.6617 21.3605 26.6497 21.5525 26.6497 21.7445C26.6497 21.9125 26.6497 22.0565 26.6497 22.1765C26.6257 23.1845 26.3137 24.1805 25.7137 25.1645C25.4977 25.5245 25.2577 25.8845 24.9937 26.2445C24.7537 26.6045 24.5017 26.9645 24.2377 27.3245H24.3097ZM12.3937 23.0405C12.3937 23.4485 12.5857 23.7845 12.9697 24.0485C13.3777 24.2885 13.8577 24.4325 14.4097 24.4805C15.0337 24.4325 15.5017 24.2645 15.8137 23.9765C16.1497 23.6645 16.3177 23.3525 16.3177 23.0405C16.3177 22.6325 16.1377 22.3085 15.7777 22.0685C15.4177 21.8045 14.8177 21.6245 13.9777 21.5285C13.4257 21.6005 13.0177 21.8045 12.7537 22.1405C12.5137 22.4525 12.3937 22.7525 12.3937 23.0405ZM27.4417 33.5885C27.4897 33.2525 27.4057 32.9525 27.1897 32.6885C26.9977 32.4245 26.7217 32.1965 26.3617 32.0045C26.0257 31.7885 25.6417 31.6205 25.2097 31.5005C24.7777 31.3565 24.3457 31.2485 23.9137 31.1765C23.3617 31.2005 22.8097 31.2605 22.2577 31.3565C21.7057 31.4525 21.1897 31.5965 20.7097 31.7885C20.2297 31.9565 19.8097 32.1605 19.4497 32.4005C19.1137 32.6165 18.8857 32.8565 18.7657 33.1205C19.0057 33.8405 19.5577 34.3325 20.4217 34.5965C21.2857 34.8605 22.3297 34.9925 23.5537 34.9925C23.9857 34.9925 24.4297 34.9685 24.8857 34.9205C25.3417 34.8725 25.7497 34.7885 26.1097 34.6685C26.4697 34.5725 26.7697 34.4285 27.0097 34.2365C27.2497 34.0685 27.3937 33.8525 27.4417 33.5885Z"/>
<path d="M47.6321 18.7205C46.9121 18.4805 46.3361 17.9765 45.9041 17.2085C45.4721 16.4405 45.2441 15.6485 45.2201 14.8325C45.1961 13.8965 45.4961 13.0445 46.1201 12.2765C46.7441 11.4845 47.5121 10.8005 48.4241 10.2245C49.3601 9.62451 50.3561 9.14451 51.4121 8.78451C52.4921 8.40051 53.4761 8.14851 54.3641 8.02851C54.4841 7.93251 54.6641 7.86051 54.9041 7.81251C55.1441 7.74051 55.3841 7.71651 55.6241 7.74051C56.4401 7.81251 57.2321 8.05251 58.0001 8.46051C58.7921 8.84451 59.4881 9.34851 60.0881 9.97251C60.7121 10.5725 61.1921 11.2685 61.5281 12.0605C61.8881 12.8285 62.0561 13.6205 62.0321 14.4365C61.9841 15.3725 61.7321 16.2005 61.2761 16.9205C60.8441 17.6165 60.2681 18.2045 59.5481 18.6845C58.8281 19.1405 57.9881 19.5005 57.0281 19.7645C56.0921 20.0045 55.1081 20.1365 54.0761 20.1605C53.4521 20.1845 52.8041 20.1725 52.1321 20.1245C51.4841 20.0525 50.8601 19.9565 50.2601 19.8365C49.6841 19.7165 49.1561 19.5725 48.6761 19.4045C48.2201 19.2125 47.8721 18.9845 47.6321 18.7205ZM55.3001 11.9165C54.8201 11.9165 54.2921 11.9765 53.7161 12.0965C53.1401 12.2165 52.6001 12.3845 52.0961 12.6005C51.5921 12.7925 51.1721 13.0325 50.8361 13.3205C50.5001 13.5845 50.3321 13.8725 50.3321 14.1845C50.3321 14.5205 50.4401 14.8085 50.6561 15.0485C50.8961 15.2645 51.1841 15.4445 51.5201 15.5885C51.7121 15.6365 52.0361 15.6965 52.4921 15.7685C52.9481 15.8165 53.3681 15.8405 53.7521 15.8405C54.1361 15.8405 54.5201 15.8165 54.9041 15.7685C55.3121 15.6965 55.6721 15.6005 55.9841 15.4805C56.2961 15.3605 56.5481 15.2045 56.7401 15.0125C56.9321 14.8205 57.0401 14.5925 57.0641 14.3285C57.0881 13.9925 57.0401 13.7045 56.9201 13.4645C56.8001 13.2245 56.6441 13.0205 56.4521 12.8525C56.2601 12.6845 56.0561 12.5285 55.8401 12.3845C55.6241 12.2405 55.4441 12.0845 55.3001 11.9165ZM68.9801 23.8325C69.0281 24.0005 69.0401 24.1925 69.0161 24.4085C68.9921 24.6245 68.9561 24.7805 68.9081 24.8765C68.7881 25.1405 68.5121 25.4165 68.0801 25.7045C67.6481 25.9925 67.2881 26.1845 67.0001 26.2805C66.6641 26.4005 66.3761 26.4845 66.1361 26.5325C65.9201 26.5565 65.6801 26.5205 65.4161 26.4245C65.1281 26.3285 64.7441 26.2565 64.2641 26.2085C63.8081 26.1365 63.4001 26.0765 63.0401 26.0285C62.6801 25.9805 62.1521 25.9445 61.4561 25.9205C60.7601 25.8725 59.9921 25.8485 59.1521 25.8485C58.9361 25.8485 58.6001 25.8605 58.1441 25.8845C57.6881 25.8845 57.1721 25.8845 56.5961 25.8845C56.5961 26.2205 56.5841 26.5805 56.5601 26.9645C56.5601 27.3245 56.5601 27.5885 56.5601 27.7565C56.5601 28.3325 56.4641 28.8725 56.2721 29.3765C56.0801 29.8565 55.8401 30.2765 55.5521 30.6365C55.2641 30.9965 54.9521 31.2845 54.6161 31.5005C54.2801 31.6925 53.9681 31.7885 53.6801 31.7885C53.2001 31.3805 52.7201 30.8765 52.2401 30.2765C51.7841 29.6525 51.5201 28.8605 51.4481 27.9005C51.4241 27.7565 51.4121 27.5045 51.4121 27.1445C51.4121 26.7845 51.4121 26.4245 51.4121 26.0645C50.6441 26.0885 49.9841 26.1125 49.4321 26.1365C48.9041 26.1605 48.5681 26.1725 48.4241 26.1725C48.0161 26.1965 47.5121 26.2205 46.9121 26.2445C46.3121 26.2685 45.6761 26.2925 45.0041 26.3165C44.3321 26.3405 43.6481 26.3645 42.9521 26.3885C42.2801 26.3885 41.6561 26.3885 41.0801 26.3885C40.6961 26.3885 40.2881 26.3165 39.8561 26.1725C39.4481 26.0285 39.1001 25.8725 38.8121 25.7045C38.5001 25.5365 38.1521 25.3205 37.7681 25.0565C37.4081 24.7685 37.1441 24.5165 36.9761 24.3005C36.8561 24.1325 36.8081 23.9525 36.8321 23.7605C36.8561 23.5685 36.9161 23.3765 37.0121 23.1845C37.0841 23.0165 37.2281 22.7525 37.4441 22.3925C37.6841 22.0085 37.8881 21.7325 38.0561 21.5645C38.3441 21.2765 38.7041 21.1925 39.1361 21.3125L40.1801 21.6725C40.5641 21.7925 40.9121 21.8645 41.2241 21.8885C41.5601 21.9125 42.0521 21.9245 42.7001 21.9245C43.0121 21.9245 43.5041 21.9125 44.1761 21.8885C44.8481 21.8405 45.5441 21.8045 46.2641 21.7805C46.9841 21.7325 47.6561 21.6965 48.2801 21.6725C48.9041 21.6245 49.3481 21.6005 49.6121 21.6005C49.9481 21.6005 50.5721 21.5885 51.4841 21.5645C52.3961 21.5165 53.3801 21.4805 54.4361 21.4565C55.4921 21.4085 56.5241 21.3725 57.5321 21.3485C58.5641 21.3245 59.3561 21.3125 59.9081 21.3125C60.9881 21.3365 61.9961 21.3605 62.9321 21.3845C63.8921 21.4085 64.8761 21.4805 65.8841 21.6005C66.2201 21.6485 66.5681 21.7805 66.9281 21.9965C67.2881 22.1885 67.6121 22.4045 67.9001 22.6445C68.1881 22.8845 68.4281 23.1245 68.6201 23.3645C68.8121 23.5805 68.9321 23.7365 68.9801 23.8325ZM62.2841 32.7965C62.4281 32.8205 62.5841 32.9045 62.7521 33.0485C62.9441 33.1685 63.1241 33.3245 63.2921 33.5165C63.4841 33.6845 63.6641 33.8645 63.8321 34.0565C64.0001 34.2485 64.1201 34.4045 64.1921 34.5245C64.5281 35.0525 64.5761 35.5325 64.3361 35.9645C64.2161 36.1565 64.0001 36.3965 63.6881 36.6845C63.4001 36.9965 63.1001 37.2485 62.7881 37.4405C62.5001 37.6325 62.1881 37.7885 61.8521 37.9085C61.5161 38.0285 61.1441 38.1005 60.7361 38.1245C60.2801 38.1485 59.6201 38.1725 58.7561 38.1965C57.9161 38.2205 57.0161 38.2445 56.0561 38.2685C55.1201 38.2925 54.1961 38.3165 53.2841 38.3405C52.3721 38.3645 51.6161 38.3765 51.0161 38.3765C50.4161 38.3765 49.9121 38.3405 49.5041 38.2685C49.0961 38.1965 48.7361 38.0765 48.4241 37.9085C48.1121 37.7405 47.8241 37.5365 47.5601 37.2965C47.3201 37.0565 47.0561 36.7565 46.7681 36.3965C46.2641 35.7965 45.7601 35.1965 45.2561 34.5965C44.7761 34.0205 44.2241 33.4205 43.6001 32.7965C43.4801 32.6765 43.3481 32.5445 43.2041 32.4005C43.0601 32.2325 42.9161 32.1005 42.7721 32.0045C42.6041 31.8845 42.4361 31.7765 42.2681 31.6805C42.1001 31.5605 41.9801 31.4165 41.9081 31.2485C41.8601 31.1285 41.8481 30.9845 41.8721 30.8165C41.8961 30.6245 41.9801 30.4565 42.1241 30.3125C42.4601 29.9765 42.8561 29.6885 43.3121 29.4485C43.7681 29.1845 44.2361 29.0045 44.7161 28.9085C45.1241 28.8365 45.4601 28.8125 45.7241 28.8365C46.0121 28.8605 46.3001 29.0165 46.5881 29.3045C46.7321 29.4485 46.9241 29.6525 47.1641 29.9165C47.4281 30.1805 47.7041 30.4685 47.9921 30.7805C48.3041 31.0925 48.6041 31.4165 48.8921 31.7525C49.2041 32.0645 49.4801 32.3405 49.7201 32.5805C49.9121 32.7725 50.1401 32.9765 50.4041 33.1925C50.6681 33.3845 50.9441 33.5045 51.2321 33.5525C51.3761 33.5765 51.6161 33.6005 51.9521 33.6245C52.3121 33.6245 52.6961 33.6245 53.1041 33.6245C53.5361 33.6245 53.9561 33.6245 54.3641 33.6245C54.7961 33.6245 55.1681 33.6125 55.4801 33.5885C56.1521 33.5405 56.8481 33.5045 57.5681 33.4805C58.2881 33.4565 58.9961 33.3965 59.6921 33.3005C60.0761 33.2525 60.4001 33.1925 60.6641 33.1205C60.9281 33.0485 61.1561 32.9885 61.3481 32.9405C61.5401 32.8685 61.7081 32.8205 61.8521 32.7965C61.9961 32.7725 62.1401 32.7725 62.2841 32.7965Z"/>
<path d="M95.8701 30.7445C95.8941 31.6085 95.8581 32.4365 95.7621 33.2285C95.6661 33.9965 95.4861 34.7285 95.2221 35.4245C94.9821 36.1445 94.6341 36.8405 94.1781 37.5125C93.7461 38.1845 93.1941 38.8445 92.5221 39.4925C92.3541 38.8685 92.0661 38.2085 91.6581 37.5125C91.2741 36.8165 90.9741 36.1805 90.7581 35.6045C90.4941 34.9325 90.3261 34.2725 90.2541 33.6245C90.1821 32.9525 90.1581 32.2805 90.1821 31.6085C90.1821 31.3685 90.1821 31.1165 90.1821 30.8525C90.2061 30.5885 90.2181 30.3245 90.2181 30.0605C89.3541 30.3965 88.3941 30.7085 87.3381 30.9965C86.3061 31.2845 85.3581 31.5005 84.4941 31.6445C83.9661 31.7405 83.2341 31.8365 82.2981 31.9325C81.3861 32.0285 80.4141 32.1125 79.3821 32.1845C78.3501 32.2565 77.3301 32.3165 76.3221 32.3645C75.3381 32.4125 74.4981 32.4365 73.8021 32.4365C73.5381 32.4365 73.2261 32.4125 72.8661 32.3645C72.5301 32.3165 72.2301 32.2565 71.9661 32.1845C71.0781 31.9205 70.4301 31.5005 70.0221 30.9245C69.9261 30.8045 69.8541 30.6485 69.8061 30.4565C69.7821 30.2405 69.7701 30.0605 69.7701 29.9165C69.7701 29.4365 69.8421 28.9805 69.9861 28.5485C70.1301 28.1165 70.3701 27.8165 70.7061 27.6485C70.9221 27.5285 71.1021 27.4805 71.2461 27.5045C71.4141 27.5285 71.6061 27.5645 71.8221 27.6125C72.0861 27.6605 72.3381 27.6965 72.5781 27.7205C72.8421 27.7445 73.0941 27.7565 73.3341 27.7565C73.7901 27.7565 74.4621 27.7445 75.3501 27.7205C76.2381 27.6725 77.1741 27.6245 78.1581 27.5765C79.1421 27.5285 80.1021 27.4805 81.0381 27.4325C81.9741 27.3605 82.7061 27.3005 83.2341 27.2525C84.5301 27.1325 85.7301 27.0125 86.8341 26.8925C87.9381 26.7485 89.1021 26.5685 90.3261 26.3525C90.3501 25.2005 90.3741 24.0245 90.3981 22.8245C90.4221 21.6005 90.4341 20.4125 90.4341 19.2605C90.4581 18.1085 90.4701 17.0165 90.4701 15.9845C90.4701 14.9525 90.4701 14.0405 90.4701 13.2485C90.4461 12.3125 90.3141 11.6165 90.0741 11.1605C89.8581 10.6805 89.5821 10.2485 89.2461 9.86451C88.8141 9.36051 88.6701 8.95251 88.8141 8.64051C88.9821 8.32851 89.3781 7.92051 90.0021 7.41651C90.3141 7.17651 90.5781 6.98451 90.7941 6.84051C91.0341 6.67251 91.2501 6.57651 91.4421 6.55251C91.6581 6.52851 91.8741 6.56451 92.0901 6.66051C92.3061 6.75651 92.5701 6.91251 92.8821 7.12851C93.4581 7.56051 93.9261 7.95651 94.2861 8.31651C94.6461 8.65251 94.9221 9.02451 95.1141 9.43251C95.3301 9.81651 95.4741 10.2485 95.5461 10.7285C95.6181 11.2085 95.6541 11.7845 95.6541 12.4565C95.6541 13.2965 95.6541 14.2565 95.6541 15.3365C95.6541 16.4165 95.6541 17.5445 95.6541 18.7205C95.6781 19.8965 95.6901 21.0845 95.6901 22.2845C95.7141 23.4605 95.7381 24.5885 95.7621 25.6685C95.7861 26.7245 95.7981 27.6965 95.7981 28.5845C95.8221 29.4725 95.8461 30.1925 95.8701 30.7445ZM80.7141 25.0925C79.6341 25.1405 78.6141 25.0205 77.6541 24.7325C76.7181 24.4205 75.8781 23.9885 75.1341 23.4365C74.4141 22.8845 73.8381 22.2245 73.4061 21.4565C72.9741 20.6885 72.7461 19.8365 72.7221 18.9005C72.6981 18.3005 72.8181 17.6765 73.0821 17.0285C73.3461 16.3565 73.6941 15.7325 74.1261 15.1565C74.5821 14.5565 75.0861 14.0525 75.6381 13.6445C76.2141 13.2125 76.8141 12.9245 77.4381 12.7805C77.6061 12.7325 77.7501 12.6965 77.8701 12.6725C78.0141 12.6245 78.1461 12.5525 78.2661 12.4565C78.3141 12.4565 78.3501 12.4325 78.3741 12.3845C78.3981 12.3125 78.4461 12.2525 78.5181 12.2045C78.8541 11.9645 79.1541 11.8205 79.4181 11.7725C79.7061 11.7245 80.0061 11.7245 80.3181 11.7725C81.1581 11.9165 81.9981 12.2045 82.8381 12.6365C83.7021 13.0445 84.4701 13.5605 85.1421 14.1845C85.8381 14.8085 86.4021 15.5045 86.8341 16.2725C87.2901 17.0405 87.5301 17.8325 87.5541 18.6485C87.5781 19.6085 87.3981 20.4845 87.0141 21.2765C86.6541 22.0445 86.1501 22.7165 85.5021 23.2925C84.8541 23.8445 84.1101 24.2765 83.2701 24.5885C82.4541 24.9005 81.6021 25.0685 80.7141 25.0925ZM79.5981 15.6965C79.2621 15.7685 78.9501 15.9125 78.6621 16.1285C78.3741 16.3445 78.1221 16.6085 77.9061 16.9205C77.6901 17.2325 77.5221 17.5685 77.4021 17.9285C77.3061 18.2645 77.2821 18.6125 77.3301 18.9725C77.5221 19.4045 77.8581 19.8005 78.3381 20.1605C78.8181 20.5205 79.4061 20.7005 80.1021 20.7005C80.8701 20.7005 81.5421 20.4845 82.1181 20.0525C82.6941 19.6205 82.9821 19.0925 82.9821 18.4685C82.9821 18.1565 82.8981 17.8325 82.7301 17.4965C82.5861 17.1365 82.3821 16.8245 82.1181 16.5605C81.8541 16.2965 81.5541 16.1045 81.2181 15.9845C80.8821 15.8405 80.5461 15.8285 80.2101 15.9485C79.9941 16.0205 79.7901 15.9365 79.5981 15.6965Z"/>
<path d="M136.369 22.1765C136.729 22.2245 137.113 22.3445 137.521 22.5365C137.929 22.7285 138.313 22.9685 138.673 23.2565C139.033 23.5205 139.321 23.7965 139.537 24.0845C139.753 24.3725 139.849 24.6365 139.825 24.8765C139.801 24.9965 139.717 25.1405 139.573 25.3085C139.429 25.4525 139.261 25.5965 139.069 25.7405C138.877 25.8845 138.673 26.0165 138.457 26.1365C138.265 26.2565 138.097 26.3405 137.953 26.3885C137.617 26.5085 137.329 26.5685 137.089 26.5685C136.849 26.5685 136.597 26.5685 136.333 26.5685C136.045 26.5685 135.613 26.5565 135.037 26.5325C134.461 26.5085 133.861 26.4845 133.237 26.4605C132.613 26.4125 132.001 26.3765 131.401 26.3525C130.825 26.3045 130.381 26.2805 130.069 26.2805C129.805 26.2805 129.397 26.2925 128.845 26.3165C128.317 26.3165 127.717 26.3285 127.045 26.3525C126.397 26.3525 125.713 26.3645 124.993 26.3885C124.297 26.3885 123.637 26.4005 123.013 26.4245C122.413 26.4245 121.885 26.4365 121.429 26.4605C120.973 26.4605 120.685 26.4605 120.565 26.4605L113.221 26.8205C112.837 26.8445 112.429 26.7845 111.997 26.6405C111.589 26.4965 111.241 26.3285 110.953 26.1365C110.641 25.9445 110.293 25.7165 109.909 25.4525C109.549 25.1645 109.285 24.9245 109.117 24.7325C108.997 24.5645 108.949 24.3845 108.973 24.1925C109.021 23.9765 109.081 23.7845 109.153 23.6165C109.225 23.4485 109.369 23.2085 109.585 22.8965C109.825 22.5605 110.029 22.3085 110.197 22.1405C110.485 21.8525 110.845 21.7685 111.277 21.8885L112.321 22.2125C112.705 22.3325 113.053 22.4165 113.365 22.4645C113.701 22.4885 114.193 22.5005 114.841 22.5005C115.057 22.5005 115.405 22.5005 115.885 22.5005C116.389 22.4765 116.965 22.4645 117.613 22.4645C118.285 22.4405 119.005 22.4165 119.773 22.3925C120.565 22.3685 121.381 22.3445 122.221 22.3205V21.2765C122.221 21.1805 122.221 21.0965 122.221 21.0245C122.221 20.9285 122.209 20.8205 122.185 20.7005C121.489 20.7005 120.841 20.7005 120.241 20.7005C119.665 20.6765 119.161 20.6645 118.729 20.6645C118.321 20.9285 117.829 21.0365 117.253 20.9885C116.677 20.9405 116.233 20.7725 115.921 20.4845C115.633 20.1725 115.441 19.8245 115.345 19.4405C115.273 19.1045 115.237 18.7445 115.237 18.3605C115.261 17.9525 115.273 17.5805 115.273 17.2445C115.273 16.8605 115.261 16.4405 115.237 15.9845C115.237 15.5045 115.225 15.0365 115.201 14.5805C115.177 14.1005 115.153 13.6685 115.129 13.2845C115.129 12.9005 115.129 12.6005 115.129 12.3845C115.129 12.2405 115.093 12.0605 115.021 11.8445C114.973 11.6285 114.865 11.4125 114.697 11.1965C114.505 10.9325 114.457 10.6805 114.553 10.4405C114.673 10.2005 114.937 9.91251 115.345 9.57651C115.753 9.24051 116.161 9.08451 116.569 9.10851C116.977 9.10851 117.397 9.25251 117.829 9.54051C118.285 9.82851 118.681 10.1525 119.017 10.5125C119.353 10.8485 119.533 11.2925 119.557 11.8445V11.9885C119.893 11.9645 120.313 11.9405 120.817 11.9165C121.321 11.8925 121.885 11.8685 122.509 11.8445V11.8085C122.461 11.3765 122.413 11.0765 122.365 10.9085C122.341 10.7405 122.233 10.5485 122.041 10.3325C121.801 10.0685 121.777 9.81651 121.969 9.57651C122.185 9.31251 122.461 9.01251 122.797 8.67651C123.061 8.41251 123.361 8.25651 123.697 8.20851C124.057 8.13651 124.405 8.18451 124.741 8.35251C125.197 8.56851 125.557 8.78451 125.821 9.00051C126.109 9.19251 126.325 9.42051 126.469 9.68451C126.613 9.92451 126.709 10.2005 126.757 10.5125C126.805 10.8245 126.829 11.1965 126.829 11.6285V11.7365H127.909C128.341 11.7605 128.701 11.7845 128.989 11.8085C129.301 11.8325 129.553 11.8805 129.745 11.9525V11.1965C129.745 10.9325 129.733 10.7285 129.709 10.5845C129.685 10.4165 129.649 10.2725 129.601 10.1525C129.553 10.0325 129.469 9.91251 129.349 9.79251C129.253 9.67251 129.133 9.51651 128.989 9.32451C128.725 8.98851 128.665 8.68851 128.809 8.42451C128.953 8.16051 129.217 7.88451 129.601 7.59651C130.393 7.02051 131.173 7.00851 131.941 7.56051C132.349 7.84851 132.685 8.12451 132.949 8.38851C133.237 8.62851 133.465 8.88051 133.633 9.14451C133.801 9.38451 133.921 9.64851 133.993 9.93651C134.089 10.2005 134.149 10.5125 134.173 10.8725C134.197 11.0885 134.209 11.4605 134.209 11.9885C134.209 12.4925 134.209 13.0805 134.209 13.7525C134.209 14.4245 134.197 15.1085 134.173 15.8045C134.173 16.5005 134.161 17.1365 134.137 17.7125C134.329 17.9765 134.425 18.2405 134.425 18.5045C134.425 18.7445 134.413 18.9245 134.389 19.0445C134.317 19.5005 134.089 19.8725 133.705 20.1605C133.345 20.4245 132.925 20.5685 132.445 20.5925C130.741 20.6645 128.989 20.7005 127.189 20.7005V22.1765C128.077 22.1525 128.833 22.1405 129.457 22.1405C130.105 22.1165 130.561 22.0925 130.825 22.0685C131.905 22.0205 132.865 22.0085 133.705 22.0325C134.545 22.0325 135.433 22.0805 136.369 22.1765ZM128.521 15.1565C128.401 15.1565 128.185 15.1685 127.873 15.1925C127.585 15.1925 127.225 15.1925 126.793 15.1925C126.793 15.4805 126.781 15.7805 126.757 16.0925C126.757 16.3805 126.757 16.6805 126.757 16.9925C127.333 16.9685 127.873 16.9565 128.377 16.9565C128.905 16.9565 129.373 16.9565 129.781 16.9565C129.781 16.6445 129.781 16.3205 129.781 15.9845C129.781 15.6485 129.769 15.3125 129.745 14.9765C129.385 15.0965 128.977 15.1565 128.521 15.1565ZM122.617 15.2645C121.993 15.2885 121.429 15.3005 120.925 15.3005C120.421 15.3005 120.001 15.3005 119.665 15.3005V17.1365C120.001 17.1125 120.421 17.1005 120.925 17.1005C121.429 17.1005 121.981 17.0885 122.581 17.0645C122.581 16.7765 122.581 16.4885 122.581 16.2005C122.605 15.8885 122.617 15.5765 122.617 15.2645ZM133.129 28.8005C133.393 29.2805 133.573 29.7485 133.669 30.2045C133.765 30.6605 133.825 31.2005 133.849 31.8245C133.849 32.1605 133.849 32.5805 133.849 33.0845C133.873 33.5645 133.873 34.0685 133.849 34.5965C133.849 35.1485 133.837 35.6765 133.813 36.1805C133.789 36.6845 133.765 37.1165 133.741 37.4765C133.645 38.5805 133.189 39.2045 132.373 39.3485C132.325 39.3485 132.193 39.3485 131.977 39.3485C131.761 39.3725 131.521 39.3845 131.257 39.3845C130.993 39.3845 130.729 39.3725 130.465 39.3485C130.225 39.3485 130.045 39.3245 129.925 39.2765C129.781 39.2285 129.637 39.1565 129.493 39.0605C129.349 38.9645 129.229 38.8565 129.133 38.7365C128.509 38.7125 127.801 38.6885 127.009 38.6645C126.217 38.6645 125.401 38.6645 124.561 38.6645C123.745 38.6645 122.929 38.6765 122.113 38.7005C121.321 38.7245 120.625 38.7605 120.025 38.8085C119.929 38.9045 119.821 38.9645 119.701 38.9885C119.149 39.1565 118.645 39.2525 118.189 39.2765C117.757 39.3245 117.373 39.2645 117.037 39.0965C116.701 38.9285 116.461 38.7005 116.317 38.4125C116.197 38.1245 116.137 37.8245 116.137 37.5125C116.137 37.1045 116.137 36.6365 116.137 36.1085C116.137 35.6045 116.125 35.0765 116.101 34.5245C116.077 33.9965 116.053 33.4805 116.029 32.9765C116.005 32.4725 115.981 32.0285 115.957 31.6445C115.909 31.2365 115.861 30.9245 115.813 30.7085C115.765 30.4685 115.645 30.2165 115.453 29.9525C115.213 29.6165 115.177 29.3165 115.345 29.0525C115.417 28.9085 115.537 28.7645 115.705 28.6205C115.897 28.4525 116.101 28.2965 116.317 28.1525C116.533 28.0085 116.749 27.8885 116.965 27.7925C117.205 27.6965 117.397 27.6245 117.541 27.5765C117.901 27.4805 118.201 27.4925 118.441 27.6125C118.705 27.7085 118.921 27.8525 119.089 28.0445C119.353 28.3325 119.605 28.6565 119.845 29.0165C120.109 29.3765 120.301 29.7605 120.421 30.1685C121.069 30.1205 121.753 30.0965 122.473 30.0965C123.193 30.0725 123.733 30.0485 124.093 30.0245C124.261 30.0245 124.477 30.0125 124.741 29.9885C125.005 29.9645 125.269 29.9525 125.533 29.9525C125.797 29.9525 126.049 29.9645 126.289 29.9885C126.529 29.9885 126.721 30.0125 126.865 30.0605C127.129 30.1565 127.393 30.3485 127.657 30.6365C127.945 30.9245 128.149 31.2125 128.269 31.5005C128.341 31.6925 128.365 31.8725 128.341 32.0405C128.341 32.1845 128.317 32.3285 128.269 32.4725C128.221 32.6645 128.101 32.8445 127.909 33.0125C127.717 33.1805 127.549 33.3005 127.405 33.3725C127.213 33.4685 126.937 33.5165 126.577 33.5165C126.217 33.5165 125.785 33.4925 125.281 33.4445C125.065 33.4205 124.789 33.4085 124.453 33.4085C124.117 33.4085 123.745 33.4205 123.337 33.4445C122.929 33.4445 122.497 33.4565 122.041 33.4805C121.585 33.5045 121.141 33.5285 120.709 33.5525L120.781 35.0645C122.245 35.0645 123.697 35.0525 125.137 35.0285C126.577 35.0285 127.873 35.0045 129.025 34.9565C129.073 33.9245 129.109 33.0245 129.133 32.2565C129.181 31.4645 129.181 30.9485 129.133 30.7085C129.085 30.4445 129.013 30.1805 128.917 29.9165C128.821 29.6525 128.713 29.4365 128.593 29.2685C128.353 28.9325 128.413 28.5845 128.773 28.2245C129.013 27.9845 129.313 27.7565 129.673 27.5405C130.057 27.3005 130.405 27.1565 130.717 27.1085C131.197 27.0365 131.629 27.1325 132.013 27.3965C132.277 27.5885 132.505 27.8285 132.697 28.1165C132.889 28.4045 133.033 28.6325 133.129 28.8005Z"/>
<path d="M163.112 39.2405C162.896 39.0725 162.704 38.7845 162.536 38.3765C162.392 37.9925 162.272 37.5365 162.176 37.0085C162.104 36.4805 162.032 35.8925 161.96 35.2445C161.912 34.6205 161.876 33.9605 161.852 33.2645C161.78 31.7525 161.756 30.0725 161.78 28.2245C161.804 26.3525 161.852 24.4685 161.924 22.5725C161.996 20.6525 162.056 18.7805 162.104 16.9565C162.152 15.1085 162.152 13.4645 162.104 12.0245C162.104 11.6645 162.08 11.3885 162.032 11.1965C161.984 10.9805 161.912 10.8005 161.816 10.6565C161.744 10.4885 161.648 10.3325 161.528 10.1885C161.432 10.0205 161.324 9.82851 161.204 9.61251C161.036 9.32451 160.916 9.12051 160.844 9.00051C160.772 8.85651 160.772 8.67651 160.844 8.46051C160.916 8.22051 161.06 8.00451 161.276 7.81251C161.516 7.62051 161.78 7.45251 162.068 7.30851C162.356 7.16451 162.656 7.05651 162.968 6.98451C163.304 6.88851 163.616 6.82851 163.904 6.80451C164.432 6.75651 164.84 6.87651 165.128 7.16451C165.44 7.47651 165.74 7.80051 166.028 8.13651C166.34 8.44851 166.58 8.76051 166.748 9.07251C166.916 9.38451 167.024 9.68451 167.072 9.97251C167.144 10.2365 167.18 10.5485 167.18 10.9085C167.204 11.9645 167.216 13.1405 167.216 14.4365C167.216 15.7085 167.216 17.0285 167.216 18.3965C167.216 19.7405 167.204 21.0965 167.18 22.4645C167.18 23.8085 167.168 25.0685 167.144 26.2445C167.144 27.3965 167.132 28.4285 167.108 29.3405C167.084 30.2525 167.06 30.9485 167.036 31.4285C167.012 31.7645 166.928 32.2445 166.784 32.8685C166.664 33.4685 166.412 34.0445 166.028 34.5965C165.332 35.5085 164.684 36.3485 164.084 37.1165C163.484 37.9085 163.16 38.6165 163.112 39.2405ZM139.676 31.3205C140.708 31.0565 141.692 30.6845 142.628 30.2045C143.588 29.7245 144.452 29.1365 145.22 28.4405C146.804 27.0005 148.196 25.4285 149.396 23.7245C150.596 22.0205 151.544 20.2325 152.24 18.3605C151.856 18.3845 151.448 18.4085 151.016 18.4325C150.584 18.4565 150.152 18.4805 149.72 18.5045C149.288 18.5045 148.868 18.5045 148.46 18.5045C148.076 18.5045 147.74 18.5045 147.452 18.5045C147.116 18.4805 146.804 18.4445 146.516 18.3965C146.252 18.3485 145.964 18.2525 145.652 18.1085C145.412 17.9885 145.16 17.8325 144.896 17.6405C144.632 17.4245 144.38 17.2085 144.14 16.9925C143.9 16.7525 143.696 16.5245 143.528 16.3085C143.36 16.0685 143.24 15.8645 143.168 15.6965C143.072 15.4805 143.108 15.2645 143.276 15.0485C143.468 14.8085 143.768 14.5445 144.176 14.2565C144.584 13.9445 144.884 13.7645 145.076 13.7165C145.268 13.6685 145.448 13.6805 145.616 13.7525C145.808 13.8005 146.012 13.8725 146.228 13.9685C146.42 14.0405 146.636 14.0885 146.876 14.1125C147.14 14.1365 147.368 14.1485 147.56 14.1485C147.92 14.1485 148.388 14.1365 148.964 14.1125C149.564 14.0645 150.164 14.0285 150.764 14.0045C151.388 13.9565 151.964 13.9205 152.492 13.8965C153.044 13.8485 153.464 13.8125 153.752 13.7885C154.088 13.7405 154.424 13.6685 154.76 13.5725C155.096 13.4525 155.432 13.4165 155.768 13.4645C156.104 13.5125 156.416 13.6325 156.704 13.8245C157.016 13.9925 157.28 14.1725 157.496 14.3645C158.072 14.8685 158.384 15.3845 158.432 15.9125C158.456 16.2725 158.396 16.5605 158.252 16.7765C158.108 16.9925 158 17.2325 157.928 17.4965C157.568 18.7205 157.136 19.9565 156.632 21.2045C156.128 22.4285 155.552 23.6285 154.904 24.8045C154.28 25.9565 153.584 27.0605 152.816 28.1165C152.072 29.1725 151.268 30.1325 150.404 30.9965C149.684 31.7165 148.964 32.2205 148.244 32.5085C147.524 32.7725 146.792 32.9525 146.048 33.0485C145.64 33.0965 145.28 33.1085 144.968 33.0845C144.656 33.0365 144.368 32.9645 144.104 32.8685C143.84 32.7725 143.588 32.6525 143.348 32.5085C143.108 32.3645 142.844 32.1965 142.556 32.0045C142.268 31.8365 141.992 31.7165 141.728 31.6445C141.464 31.5485 141.212 31.4885 140.972 31.4645C140.732 31.4405 140.504 31.4285 140.288 31.4285C140.072 31.4045 139.868 31.3685 139.676 31.3205Z"/>
</mask>
<path d="M33.2017 10.9445C33.2977 12.3125 33.3817 13.8725 33.4537 15.6245C33.5257 17.3525 33.4777 19.2005 33.3097 21.1685C33.1897 22.6325 32.8657 23.9765 32.3377 25.2005C31.8097 26.4245 30.9937 27.6245 29.8897 28.8005C30.8257 29.4005 31.5457 30.1565 32.0497 31.0685C32.5777 31.9805 32.7817 33.0485 32.6617 34.2725C32.5897 35.0645 32.2777 35.7725 31.7257 36.3965C31.1977 37.0445 30.5137 37.5965 29.6737 38.0525C28.8577 38.5085 27.9337 38.8565 26.9017 39.0965C25.8697 39.3605 24.8257 39.4925 23.7697 39.4925C22.6417 39.4925 21.5137 39.3725 20.3857 39.1325C19.2817 38.8925 18.2737 38.5445 17.3617 38.0885C16.4497 37.6325 15.6817 37.0685 15.0577 36.3965C14.4577 35.7245 14.1097 34.9565 14.0137 34.0925C13.8937 33.1805 14.0617 32.3525 14.5177 31.6085C14.9977 30.8405 15.6697 30.1805 16.5337 29.6285C17.3977 29.0765 18.4177 28.6325 19.5937 28.2965C20.7697 27.9605 21.9937 27.7565 23.2657 27.6845C23.0017 27.1325 22.7257 26.5325 22.4377 25.8845C22.1737 25.2365 22.0177 24.5885 21.9697 23.9405C21.9457 23.2925 21.9337 22.5245 21.9337 21.6365C21.9337 20.7485 21.9457 19.8245 21.9697 18.8645C21.9937 17.9045 22.0057 16.9445 22.0057 15.9845C22.0297 15.0245 22.0417 14.1485 22.0417 13.3565C22.0417 13.0685 22.0297 12.8405 22.0057 12.6725C22.0057 12.4805 21.9697 12.3125 21.8977 12.1685C21.8497 12.0245 21.7777 11.8925 21.6817 11.7725C21.5857 11.6285 21.4657 11.4605 21.3217 11.2685C21.0337 10.9085 20.9017 10.5845 20.9257 10.2965C20.9737 9.98451 21.1657 9.66051 21.5017 9.32451C21.5497 9.27651 21.7057 9.14451 21.9697 8.92851C22.2337 8.71251 22.4377 8.58051 22.5817 8.53251C22.7737 8.46051 22.9897 8.44851 23.2297 8.49651C23.4697 8.52051 23.7577 8.62851 24.0937 8.82051C24.4297 9.03651 24.7297 9.27651 24.9937 9.54051C25.2817 9.80451 25.5217 10.0325 25.7137 10.2245C26.1217 10.7045 26.3497 11.2325 26.3977 11.8085C26.4697 12.3845 26.5177 12.9845 26.5417 13.6085C26.5417 13.9445 26.5417 14.4125 26.5417 15.0125C26.5657 15.5885 26.5897 16.2245 26.6137 16.9205C26.9257 16.8485 27.2617 16.7885 27.6217 16.7405C27.9817 16.6685 28.3297 16.6205 28.6657 16.5965C28.6657 15.7565 28.6537 14.9165 28.6297 14.0765C28.6297 13.2125 28.6297 12.4325 28.6297 11.7365C28.6297 11.4005 28.6057 11.1125 28.5577 10.8725C28.5097 10.6325 28.4257 10.4165 28.3057 10.2245C28.2097 10.0085 28.0777 9.79251 27.9097 9.57651C27.7417 9.36051 27.5377 9.09651 27.2977 8.78451C27.1777 8.61651 27.1057 8.42451 27.0817 8.20851C27.0577 7.96851 27.1177 7.75251 27.2617 7.56051C27.3337 7.46451 27.4777 7.33251 27.6937 7.16451C27.9097 6.99651 28.0777 6.87651 28.1977 6.80451C28.4857 6.63651 28.7257 6.54051 28.9177 6.51651C29.1337 6.49251 29.4097 6.51651 29.7457 6.58851C30.1297 6.66051 30.5257 6.86451 30.9337 7.20051C31.3417 7.51251 31.6537 7.78851 31.8697 8.02851C32.2537 8.43651 32.5537 8.89251 32.7697 9.39651C33.0097 9.87651 33.1537 10.3925 33.2017 10.9445ZM18.4057 17.4245C18.0697 17.4485 17.5537 17.4725 16.8577 17.4965C16.1857 17.5205 15.4537 17.5445 14.6617 17.5685C13.8937 17.5925 13.1617 17.6165 12.4657 17.6405C11.7697 17.6405 11.2417 17.6405 10.8817 17.6405C10.2097 17.6405 9.64568 17.5805 9.18968 17.4605C8.73368 17.3405 8.22968 17.1125 7.67768 16.7765C7.07768 16.4165 6.77768 16.0805 6.77768 15.7685C6.77768 15.4325 6.92168 14.9885 7.20968 14.4365C7.47368 13.9565 7.72568 13.6085 7.96568 13.3925C8.20568 13.1525 8.49368 13.0925 8.82968 13.2125C9.26168 13.3805 9.68168 13.5005 10.0897 13.5725C10.4977 13.6205 10.9057 13.6445 11.3137 13.6445H12.1777C12.1777 13.2845 12.1177 13.0205 11.9977 12.8525C11.9017 12.6845 11.7697 12.5045 11.6017 12.3125C11.3137 11.9765 11.1457 11.7125 11.0977 11.5205C11.0497 11.3285 11.1097 11.1005 11.2777 10.8365C11.3497 10.7165 11.4817 10.5365 11.6737 10.2965C11.8657 10.0565 12.0217 9.87651 12.1417 9.75651C12.4057 9.49251 12.6457 9.33651 12.8617 9.28851C13.1017 9.24051 13.3777 9.27651 13.6897 9.39651C14.0737 9.51651 14.4817 9.70851 14.9137 9.97251C15.3697 10.2365 15.7297 10.4765 15.9937 10.6925C16.3297 10.9565 16.5337 11.3045 16.6057 11.7365C16.7017 12.1445 16.7497 12.6245 16.7497 13.1765V13.3565C17.0137 13.3325 17.2537 13.3205 17.4697 13.3205C17.7097 13.2965 17.9377 13.2605 18.1537 13.2125C18.9937 13.0925 19.6777 13.3325 20.2057 13.9325C20.6857 14.4845 20.9977 14.9045 21.1417 15.1925C21.2857 15.4565 21.3577 15.7085 21.3577 15.9485C21.3577 16.4525 21.0577 16.8125 20.4577 17.0285C19.8817 17.2445 19.1977 17.3765 18.4057 17.4245ZM20.6017 23.2565C20.5777 23.9045 20.3977 24.5045 20.0617 25.0565C19.7257 25.6085 19.2817 26.0885 18.7297 26.4965C18.1777 26.8805 17.5297 27.1805 16.7857 27.3965C16.0417 27.5885 15.2617 27.6725 14.4457 27.6485C14.2537 27.6965 14.0017 27.7325 13.6897 27.7565C13.3777 27.7565 13.0537 27.7325 12.7177 27.6845C11.3017 27.4685 10.2217 26.9645 9.47768 26.1725C8.75768 25.3565 8.39768 24.3965 8.39768 23.2925C8.39768 22.7885 8.50568 22.2845 8.72168 21.7805C8.93768 21.2765 9.24968 20.8205 9.65768 20.4125C10.0657 19.9805 10.5577 19.6085 11.1337 19.2965C11.7097 18.9845 12.3577 18.7685 13.0777 18.6485C13.2217 18.5285 13.4137 18.4565 13.6537 18.4325C13.8937 18.3845 14.1217 18.3605 14.3377 18.3605C15.2257 18.3605 16.0537 18.4805 16.8217 18.7205C17.5897 18.9365 18.2497 19.2605 18.8017 19.6925C19.3777 20.1245 19.8217 20.6405 20.1337 21.2405C20.4697 21.8405 20.6257 22.5125 20.6017 23.2565ZM24.3097 27.3245C26.2777 27.3245 28.0057 27.7325 29.4937 28.5485C29.4457 27.9725 29.3377 27.3365 29.1697 26.6405C29.0257 25.9445 28.9297 25.4045 28.8817 25.0205C28.7857 24.3965 28.7137 23.7725 28.6657 23.1485C28.6177 22.5245 28.5937 21.9005 28.5937 21.2765L26.6857 21.1685C26.6617 21.3605 26.6497 21.5525 26.6497 21.7445C26.6497 21.9125 26.6497 22.0565 26.6497 22.1765C26.6257 23.1845 26.3137 24.1805 25.7137 25.1645C25.4977 25.5245 25.2577 25.8845 24.9937 26.2445C24.7537 26.6045 24.5017 26.9645 24.2377 27.3245H24.3097ZM12.3937 23.0405C12.3937 23.4485 12.5857 23.7845 12.9697 24.0485C13.3777 24.2885 13.8577 24.4325 14.4097 24.4805C15.0337 24.4325 15.5017 24.2645 15.8137 23.9765C16.1497 23.6645 16.3177 23.3525 16.3177 23.0405C16.3177 22.6325 16.1377 22.3085 15.7777 22.0685C15.4177 21.8045 14.8177 21.6245 13.9777 21.5285C13.4257 21.6005 13.0177 21.8045 12.7537 22.1405C12.5137 22.4525 12.3937 22.7525 12.3937 23.0405ZM27.4417 33.5885C27.4897 33.2525 27.4057 32.9525 27.1897 32.6885C26.9977 32.4245 26.7217 32.1965 26.3617 32.0045C26.0257 31.7885 25.6417 31.6205 25.2097 31.5005C24.7777 31.3565 24.3457 31.2485 23.9137 31.1765C23.3617 31.2005 22.8097 31.2605 22.2577 31.3565C21.7057 31.4525 21.1897 31.5965 20.7097 31.7885C20.2297 31.9565 19.8097 32.1605 19.4497 32.4005C19.1137 32.6165 18.8857 32.8565 18.7657 33.1205C19.0057 33.8405 19.5577 34.3325 20.4217 34.5965C21.2857 34.8605 22.3297 34.9925 23.5537 34.9925C23.9857 34.9925 24.4297 34.9685 24.8857 34.9205C25.3417 34.8725 25.7497 34.7885 26.1097 34.6685C26.4697 34.5725 26.7697 34.4285 27.0097 34.2365C27.2497 34.0685 27.3937 33.8525 27.4417 33.5885Z" fill="#BB1C17"/>
<path d="M47.6321 18.7205C46.9121 18.4805 46.3361 17.9765 45.9041 17.2085C45.4721 16.4405 45.2441 15.6485 45.2201 14.8325C45.1961 13.8965 45.4961 13.0445 46.1201 12.2765C46.7441 11.4845 47.5121 10.8005 48.4241 10.2245C49.3601 9.62451 50.3561 9.14451 51.4121 8.78451C52.4921 8.40051 53.4761 8.14851 54.3641 8.02851C54.4841 7.93251 54.6641 7.86051 54.9041 7.81251C55.1441 7.74051 55.3841 7.71651 55.6241 7.74051C56.4401 7.81251 57.2321 8.05251 58.0001 8.46051C58.7921 8.84451 59.4881 9.34851 60.0881 9.97251C60.7121 10.5725 61.1921 11.2685 61.5281 12.0605C61.8881 12.8285 62.0561 13.6205 62.0321 14.4365C61.9841 15.3725 61.7321 16.2005 61.2761 16.9205C60.8441 17.6165 60.2681 18.2045 59.5481 18.6845C58.8281 19.1405 57.9881 19.5005 57.0281 19.7645C56.0921 20.0045 55.1081 20.1365 54.0761 20.1605C53.4521 20.1845 52.8041 20.1725 52.1321 20.1245C51.4841 20.0525 50.8601 19.9565 50.2601 19.8365C49.6841 19.7165 49.1561 19.5725 48.6761 19.4045C48.2201 19.2125 47.8721 18.9845 47.6321 18.7205ZM55.3001 11.9165C54.8201 11.9165 54.2921 11.9765 53.7161 12.0965C53.1401 12.2165 52.6001 12.3845 52.0961 12.6005C51.5921 12.7925 51.1721 13.0325 50.8361 13.3205C50.5001 13.5845 50.3321 13.8725 50.3321 14.1845C50.3321 14.5205 50.4401 14.8085 50.6561 15.0485C50.8961 15.2645 51.1841 15.4445 51.5201 15.5885C51.7121 15.6365 52.0361 15.6965 52.4921 15.7685C52.9481 15.8165 53.3681 15.8405 53.7521 15.8405C54.1361 15.8405 54.5201 15.8165 54.9041 15.7685C55.3121 15.6965 55.6721 15.6005 55.9841 15.4805C56.2961 15.3605 56.5481 15.2045 56.7401 15.0125C56.9321 14.8205 57.0401 14.5925 57.0641 14.3285C57.0881 13.9925 57.0401 13.7045 56.9201 13.4645C56.8001 13.2245 56.6441 13.0205 56.4521 12.8525C56.2601 12.6845 56.0561 12.5285 55.8401 12.3845C55.6241 12.2405 55.4441 12.0845 55.3001 11.9165ZM68.9801 23.8325C69.0281 24.0005 69.0401 24.1925 69.0161 24.4085C68.9921 24.6245 68.9561 24.7805 68.9081 24.8765C68.7881 25.1405 68.5121 25.4165 68.0801 25.7045C67.6481 25.9925 67.2881 26.1845 67.0001 26.2805C66.6641 26.4005 66.3761 26.4845 66.1361 26.5325C65.9201 26.5565 65.6801 26.5205 65.4161 26.4245C65.1281 26.3285 64.7441 26.2565 64.2641 26.2085C63.8081 26.1365 63.4001 26.0765 63.0401 26.0285C62.6801 25.9805 62.1521 25.9445 61.4561 25.9205C60.7601 25.8725 59.9921 25.8485 59.1521 25.8485C58.9361 25.8485 58.6001 25.8605 58.1441 25.8845C57.6881 25.8845 57.1721 25.8845 56.5961 25.8845C56.5961 26.2205 56.5841 26.5805 56.5601 26.9645C56.5601 27.3245 56.5601 27.5885 56.5601 27.7565C56.5601 28.3325 56.4641 28.8725 56.2721 29.3765C56.0801 29.8565 55.8401 30.2765 55.5521 30.6365C55.2641 30.9965 54.9521 31.2845 54.6161 31.5005C54.2801 31.6925 53.9681 31.7885 53.6801 31.7885C53.2001 31.3805 52.7201 30.8765 52.2401 30.2765C51.7841 29.6525 51.5201 28.8605 51.4481 27.9005C51.4241 27.7565 51.4121 27.5045 51.4121 27.1445C51.4121 26.7845 51.4121 26.4245 51.4121 26.0645C50.6441 26.0885 49.9841 26.1125 49.4321 26.1365C48.9041 26.1605 48.5681 26.1725 48.4241 26.1725C48.0161 26.1965 47.5121 26.2205 46.9121 26.2445C46.3121 26.2685 45.6761 26.2925 45.0041 26.3165C44.3321 26.3405 43.6481 26.3645 42.9521 26.3885C42.2801 26.3885 41.6561 26.3885 41.0801 26.3885C40.6961 26.3885 40.2881 26.3165 39.8561 26.1725C39.4481 26.0285 39.1001 25.8725 38.8121 25.7045C38.5001 25.5365 38.1521 25.3205 37.7681 25.0565C37.4081 24.7685 37.1441 24.5165 36.9761 24.3005C36.8561 24.1325 36.8081 23.9525 36.8321 23.7605C36.8561 23.5685 36.9161 23.3765 37.0121 23.1845C37.0841 23.0165 37.2281 22.7525 37.4441 22.3925C37.6841 22.0085 37.8881 21.7325 38.0561 21.5645C38.3441 21.2765 38.7041 21.1925 39.1361 21.3125L40.1801 21.6725C40.5641 21.7925 40.9121 21.8645 41.2241 21.8885C41.5601 21.9125 42.0521 21.9245 42.7001 21.9245C43.0121 21.9245 43.5041 21.9125 44.1761 21.8885C44.8481 21.8405 45.5441 21.8045 46.2641 21.7805C46.9841 21.7325 47.6561 21.6965 48.2801 21.6725C48.9041 21.6245 49.3481 21.6005 49.6121 21.6005C49.9481 21.6005 50.5721 21.5885 51.4841 21.5645C52.3961 21.5165 53.3801 21.4805 54.4361 21.4565C55.4921 21.4085 56.5241 21.3725 57.5321 21.3485C58.5641 21.3245 59.3561 21.3125 59.9081 21.3125C60.9881 21.3365 61.9961 21.3605 62.9321 21.3845C63.8921 21.4085 64.8761 21.4805 65.8841 21.6005C66.2201 21.6485 66.5681 21.7805 66.9281 21.9965C67.2881 22.1885 67.6121 22.4045 67.9001 22.6445C68.1881 22.8845 68.4281 23.1245 68.6201 23.3645C68.8121 23.5805 68.9321 23.7365 68.9801 23.8325ZM62.2841 32.7965C62.4281 32.8205 62.5841 32.9045 62.7521 33.0485C62.9441 33.1685 63.1241 33.3245 63.2921 33.5165C63.4841 33.6845 63.6641 33.8645 63.8321 34.0565C64.0001 34.2485 64.1201 34.4045 64.1921 34.5245C64.5281 35.0525 64.5761 35.5325 64.3361 35.9645C64.2161 36.1565 64.0001 36.3965 63.6881 36.6845C63.4001 36.9965 63.1001 37.2485 62.7881 37.4405C62.5001 37.6325 62.1881 37.7885 61.8521 37.9085C61.5161 38.0285 61.1441 38.1005 60.7361 38.1245C60.2801 38.1485 59.6201 38.1725 58.7561 38.1965C57.9161 38.2205 57.0161 38.2445 56.0561 38.2685C55.1201 38.2925 54.1961 38.3165 53.2841 38.3405C52.3721 38.3645 51.6161 38.3765 51.0161 38.3765C50.4161 38.3765 49.9121 38.3405 49.5041 38.2685C49.0961 38.1965 48.7361 38.0765 48.4241 37.9085C48.1121 37.7405 47.8241 37.5365 47.5601 37.2965C47.3201 37.0565 47.0561 36.7565 46.7681 36.3965C46.2641 35.7965 45.7601 35.1965 45.2561 34.5965C44.7761 34.0205 44.2241 33.4205 43.6001 32.7965C43.4801 32.6765 43.3481 32.5445 43.2041 32.4005C43.0601 32.2325 42.9161 32.1005 42.7721 32.0045C42.6041 31.8845 42.4361 31.7765 42.2681 31.6805C42.1001 31.5605 41.9801 31.4165 41.9081 31.2485C41.8601 31.1285 41.8481 30.9845 41.8721 30.8165C41.8961 30.6245 41.9801 30.4565 42.1241 30.3125C42.4601 29.9765 42.8561 29.6885 43.3121 29.4485C43.7681 29.1845 44.2361 29.0045 44.7161 28.9085C45.1241 28.8365 45.4601 28.8125 45.7241 28.8365C46.0121 28.8605 46.3001 29.0165 46.5881 29.3045C46.7321 29.4485 46.9241 29.6525 47.1641 29.9165C47.4281 30.1805 47.7041 30.4685 47.9921 30.7805C48.3041 31.0925 48.6041 31.4165 48.8921 31.7525C49.2041 32.0645 49.4801 32.3405 49.7201 32.5805C49.9121 32.7725 50.1401 32.9765 50.4041 33.1925C50.6681 33.3845 50.9441 33.5045 51.2321 33.5525C51.3761 33.5765 51.6161 33.6005 51.9521 33.6245C52.3121 33.6245 52.6961 33.6245 53.1041 33.6245C53.5361 33.6245 53.9561 33.6245 54.3641 33.6245C54.7961 33.6245 55.1681 33.6125 55.4801 33.5885C56.1521 33.5405 56.8481 33.5045 57.5681 33.4805C58.2881 33.4565 58.9961 33.3965 59.6921 33.3005C60.0761 33.2525 60.4001 33.1925 60.6641 33.1205C60.9281 33.0485 61.1561 32.9885 61.3481 32.9405C61.5401 32.8685 61.7081 32.8205 61.8521 32.7965C61.9961 32.7725 62.1401 32.7725 62.2841 32.7965Z" fill="#BB1C17"/>
<path d="M95.8701 30.7445C95.8941 31.6085 95.8581 32.4365 95.7621 33.2285C95.6661 33.9965 95.4861 34.7285 95.2221 35.4245C94.9821 36.1445 94.6341 36.8405 94.1781 37.5125C93.7461 38.1845 93.1941 38.8445 92.5221 39.4925C92.3541 38.8685 92.0661 38.2085 91.6581 37.5125C91.2741 36.8165 90.9741 36.1805 90.7581 35.6045C90.4941 34.9325 90.3261 34.2725 90.2541 33.6245C90.1821 32.9525 90.1581 32.2805 90.1821 31.6085C90.1821 31.3685 90.1821 31.1165 90.1821 30.8525C90.2061 30.5885 90.2181 30.3245 90.2181 30.0605C89.3541 30.3965 88.3941 30.7085 87.3381 30.9965C86.3061 31.2845 85.3581 31.5005 84.4941 31.6445C83.9661 31.7405 83.2341 31.8365 82.2981 31.9325C81.3861 32.0285 80.4141 32.1125 79.3821 32.1845C78.3501 32.2565 77.3301 32.3165 76.3221 32.3645C75.3381 32.4125 74.4981 32.4365 73.8021 32.4365C73.5381 32.4365 73.2261 32.4125 72.8661 32.3645C72.5301 32.3165 72.2301 32.2565 71.9661 32.1845C71.0781 31.9205 70.4301 31.5005 70.0221 30.9245C69.9261 30.8045 69.8541 30.6485 69.8061 30.4565C69.7821 30.2405 69.7701 30.0605 69.7701 29.9165C69.7701 29.4365 69.8421 28.9805 69.9861 28.5485C70.1301 28.1165 70.3701 27.8165 70.7061 27.6485C70.9221 27.5285 71.1021 27.4805 71.2461 27.5045C71.4141 27.5285 71.6061 27.5645 71.8221 27.6125C72.0861 27.6605 72.3381 27.6965 72.5781 27.7205C72.8421 27.7445 73.0941 27.7565 73.3341 27.7565C73.7901 27.7565 74.4621 27.7445 75.3501 27.7205C76.2381 27.6725 77.1741 27.6245 78.1581 27.5765C79.1421 27.5285 80.1021 27.4805 81.0381 27.4325C81.9741 27.3605 82.7061 27.3005 83.2341 27.2525C84.5301 27.1325 85.7301 27.0125 86.8341 26.8925C87.9381 26.7485 89.1021 26.5685 90.3261 26.3525C90.3501 25.2005 90.3741 24.0245 90.3981 22.8245C90.4221 21.6005 90.4341 20.4125 90.4341 19.2605C90.4581 18.1085 90.4701 17.0165 90.4701 15.9845C90.4701 14.9525 90.4701 14.0405 90.4701 13.2485C90.4461 12.3125 90.3141 11.6165 90.0741 11.1605C89.8581 10.6805 89.5821 10.2485 89.2461 9.86451C88.8141 9.36051 88.6701 8.95251 88.8141 8.64051C88.9821 8.32851 89.3781 7.92051 90.0021 7.41651C90.3141 7.17651 90.5781 6.98451 90.7941 6.84051C91.0341 6.67251 91.2501 6.57651 91.4421 6.55251C91.6581 6.52851 91.8741 6.56451 92.0901 6.66051C92.3061 6.75651 92.5701 6.91251 92.8821 7.12851C93.4581 7.56051 93.9261 7.95651 94.2861 8.31651C94.6461 8.65251 94.9221 9.02451 95.1141 9.43251C95.3301 9.81651 95.4741 10.2485 95.5461 10.7285C95.6181 11.2085 95.6541 11.7845 95.6541 12.4565C95.6541 13.2965 95.6541 14.2565 95.6541 15.3365C95.6541 16.4165 95.6541 17.5445 95.6541 18.7205C95.6781 19.8965 95.6901 21.0845 95.6901 22.2845C95.7141 23.4605 95.7381 24.5885 95.7621 25.6685C95.7861 26.7245 95.7981 27.6965 95.7981 28.5845C95.8221 29.4725 95.8461 30.1925 95.8701 30.7445ZM80.7141 25.0925C79.6341 25.1405 78.6141 25.0205 77.6541 24.7325C76.7181 24.4205 75.8781 23.9885 75.1341 23.4365C74.4141 22.8845 73.8381 22.2245 73.4061 21.4565C72.9741 20.6885 72.7461 19.8365 72.7221 18.9005C72.6981 18.3005 72.8181 17.6765 73.0821 17.0285C73.3461 16.3565 73.6941 15.7325 74.1261 15.1565C74.5821 14.5565 75.0861 14.0525 75.6381 13.6445C76.2141 13.2125 76.8141 12.9245 77.4381 12.7805C77.6061 12.7325 77.7501 12.6965 77.8701 12.6725C78.0141 12.6245 78.1461 12.5525 78.2661 12.4565C78.3141 12.4565 78.3501 12.4325 78.3741 12.3845C78.3981 12.3125 78.4461 12.2525 78.5181 12.2045C78.8541 11.9645 79.1541 11.8205 79.4181 11.7725C79.7061 11.7245 80.0061 11.7245 80.3181 11.7725C81.1581 11.9165 81.9981 12.2045 82.8381 12.6365C83.7021 13.0445 84.4701 13.5605 85.1421 14.1845C85.8381 14.8085 86.4021 15.5045 86.8341 16.2725C87.2901 17.0405 87.5301 17.8325 87.5541 18.6485C87.5781 19.6085 87.3981 20.4845 87.0141 21.2765C86.6541 22.0445 86.1501 22.7165 85.5021 23.2925C84.8541 23.8445 84.1101 24.2765 83.2701 24.5885C82.4541 24.9005 81.6021 25.0685 80.7141 25.0925ZM79.5981 15.6965C79.2621 15.7685 78.9501 15.9125 78.6621 16.1285C78.3741 16.3445 78.1221 16.6085 77.9061 16.9205C77.6901 17.2325 77.5221 17.5685 77.4021 17.9285C77.3061 18.2645 77.2821 18.6125 77.3301 18.9725C77.5221 19.4045 77.8581 19.8005 78.3381 20.1605C78.8181 20.5205 79.4061 20.7005 80.1021 20.7005C80.8701 20.7005 81.5421 20.4845 82.1181 20.0525C82.6941 19.6205 82.9821 19.0925 82.9821 18.4685C82.9821 18.1565 82.8981 17.8325 82.7301 17.4965C82.5861 17.1365 82.3821 16.8245 82.1181 16.5605C81.8541 16.2965 81.5541 16.1045 81.2181 15.9845C80.8821 15.8405 80.5461 15.8285 80.2101 15.9485C79.9941 16.0205 79.7901 15.9365 79.5981 15.6965Z" fill="#BB1C17"/>
<path d="M136.369 22.1765C136.729 22.2245 137.113 22.3445 137.521 22.5365C137.929 22.7285 138.313 22.9685 138.673 23.2565C139.033 23.5205 139.321 23.7965 139.537 24.0845C139.753 24.3725 139.849 24.6365 139.825 24.8765C139.801 24.9965 139.717 25.1405 139.573 25.3085C139.429 25.4525 139.261 25.5965 139.069 25.7405C138.877 25.8845 138.673 26.0165 138.457 26.1365C138.265 26.2565 138.097 26.3405 137.953 26.3885C137.617 26.5085 137.329 26.5685 137.089 26.5685C136.849 26.5685 136.597 26.5685 136.333 26.5685C136.045 26.5685 135.613 26.5565 135.037 26.5325C134.461 26.5085 133.861 26.4845 133.237 26.4605C132.613 26.4125 132.001 26.3765 131.401 26.3525C130.825 26.3045 130.381 26.2805 130.069 26.2805C129.805 26.2805 129.397 26.2925 128.845 26.3165C128.317 26.3165 127.717 26.3285 127.045 26.3525C126.397 26.3525 125.713 26.3645 124.993 26.3885C124.297 26.3885 123.637 26.4005 123.013 26.4245C122.413 26.4245 121.885 26.4365 121.429 26.4605C120.973 26.4605 120.685 26.4605 120.565 26.4605L113.221 26.8205C112.837 26.8445 112.429 26.7845 111.997 26.6405C111.589 26.4965 111.241 26.3285 110.953 26.1365C110.641 25.9445 110.293 25.7165 109.909 25.4525C109.549 25.1645 109.285 24.9245 109.117 24.7325C108.997 24.5645 108.949 24.3845 108.973 24.1925C109.021 23.9765 109.081 23.7845 109.153 23.6165C109.225 23.4485 109.369 23.2085 109.585 22.8965C109.825 22.5605 110.029 22.3085 110.197 22.1405C110.485 21.8525 110.845 21.7685 111.277 21.8885L112.321 22.2125C112.705 22.3325 113.053 22.4165 113.365 22.4645C113.701 22.4885 114.193 22.5005 114.841 22.5005C115.057 22.5005 115.405 22.5005 115.885 22.5005C116.389 22.4765 116.965 22.4645 117.613 22.4645C118.285 22.4405 119.005 22.4165 119.773 22.3925C120.565 22.3685 121.381 22.3445 122.221 22.3205V21.2765C122.221 21.1805 122.221 21.0965 122.221 21.0245C122.221 20.9285 122.209 20.8205 122.185 20.7005C121.489 20.7005 120.841 20.7005 120.241 20.7005C119.665 20.6765 119.161 20.6645 118.729 20.6645C118.321 20.9285 117.829 21.0365 117.253 20.9885C116.677 20.9405 116.233 20.7725 115.921 20.4845C115.633 20.1725 115.441 19.8245 115.345 19.4405C115.273 19.1045 115.237 18.7445 115.237 18.3605C115.261 17.9525 115.273 17.5805 115.273 17.2445C115.273 16.8605 115.261 16.4405 115.237 15.9845C115.237 15.5045 115.225 15.0365 115.201 14.5805C115.177 14.1005 115.153 13.6685 115.129 13.2845C115.129 12.9005 115.129 12.6005 115.129 12.3845C115.129 12.2405 115.093 12.0605 115.021 11.8445C114.973 11.6285 114.865 11.4125 114.697 11.1965C114.505 10.9325 114.457 10.6805 114.553 10.4405C114.673 10.2005 114.937 9.91251 115.345 9.57651C115.753 9.24051 116.161 9.08451 116.569 9.10851C116.977 9.10851 117.397 9.25251 117.829 9.54051C118.285 9.82851 118.681 10.1525 119.017 10.5125C119.353 10.8485 119.533 11.2925 119.557 11.8445V11.9885C119.893 11.9645 120.313 11.9405 120.817 11.9165C121.321 11.8925 121.885 11.8685 122.509 11.8445V11.8085C122.461 11.3765 122.413 11.0765 122.365 10.9085C122.341 10.7405 122.233 10.5485 122.041 10.3325C121.801 10.0685 121.777 9.81651 121.969 9.57651C122.185 9.31251 122.461 9.01251 122.797 8.67651C123.061 8.41251 123.361 8.25651 123.697 8.20851C124.057 8.13651 124.405 8.18451 124.741 8.35251C125.197 8.56851 125.557 8.78451 125.821 9.00051C126.109 9.19251 126.325 9.42051 126.469 9.68451C126.613 9.92451 126.709 10.2005 126.757 10.5125C126.805 10.8245 126.829 11.1965 126.829 11.6285V11.7365H127.909C128.341 11.7605 128.701 11.7845 128.989 11.8085C129.301 11.8325 129.553 11.8805 129.745 11.9525V11.1965C129.745 10.9325 129.733 10.7285 129.709 10.5845C129.685 10.4165 129.649 10.2725 129.601 10.1525C129.553 10.0325 129.469 9.91251 129.349 9.79251C129.253 9.67251 129.133 9.51651 128.989 9.32451C128.725 8.98851 128.665 8.68851 128.809 8.42451C128.953 8.16051 129.217 7.88451 129.601 7.59651C130.393 7.02051 131.173 7.00851 131.941 7.56051C132.349 7.84851 132.685 8.12451 132.949 8.38851C133.237 8.62851 133.465 8.88051 133.633 9.14451C133.801 9.38451 133.921 9.64851 133.993 9.93651C134.089 10.2005 134.149 10.5125 134.173 10.8725C134.197 11.0885 134.209 11.4605 134.209 11.9885C134.209 12.4925 134.209 13.0805 134.209 13.7525C134.209 14.4245 134.197 15.1085 134.173 15.8045C134.173 16.5005 134.161 17.1365 134.137 17.7125C134.329 17.9765 134.425 18.2405 134.425 18.5045C134.425 18.7445 134.413 18.9245 134.389 19.0445C134.317 19.5005 134.089 19.8725 133.705 20.1605C133.345 20.4245 132.925 20.5685 132.445 20.5925C130.741 20.6645 128.989 20.7005 127.189 20.7005V22.1765C128.077 22.1525 128.833 22.1405 129.457 22.1405C130.105 22.1165 130.561 22.0925 130.825 22.0685C131.905 22.0205 132.865 22.0085 133.705 22.0325C134.545 22.0325 135.433 22.0805 136.369 22.1765ZM128.521 15.1565C128.401 15.1565 128.185 15.1685 127.873 15.1925C127.585 15.1925 127.225 15.1925 126.793 15.1925C126.793 15.4805 126.781 15.7805 126.757 16.0925C126.757 16.3805 126.757 16.6805 126.757 16.9925C127.333 16.9685 127.873 16.9565 128.377 16.9565C128.905 16.9565 129.373 16.9565 129.781 16.9565C129.781 16.6445 129.781 16.3205 129.781 15.9845C129.781 15.6485 129.769 15.3125 129.745 14.9765C129.385 15.0965 128.977 15.1565 128.521 15.1565ZM122.617 15.2645C121.993 15.2885 121.429 15.3005 120.925 15.3005C120.421 15.3005 120.001 15.3005 119.665 15.3005V17.1365C120.001 17.1125 120.421 17.1005 120.925 17.1005C121.429 17.1005 121.981 17.0885 122.581 17.0645C122.581 16.7765 122.581 16.4885 122.581 16.2005C122.605 15.8885 122.617 15.5765 122.617 15.2645ZM133.129 28.8005C133.393 29.2805 133.573 29.7485 133.669 30.2045C133.765 30.6605 133.825 31.2005 133.849 31.8245C133.849 32.1605 133.849 32.5805 133.849 33.0845C133.873 33.5645 133.873 34.0685 133.849 34.5965C133.849 35.1485 133.837 35.6765 133.813 36.1805C133.789 36.6845 133.765 37.1165 133.741 37.4765C133.645 38.5805 133.189 39.2045 132.373 39.3485C132.325 39.3485 132.193 39.3485 131.977 39.3485C131.761 39.3725 131.521 39.3845 131.257 39.3845C130.993 39.3845 130.729 39.3725 130.465 39.3485C130.225 39.3485 130.045 39.3245 129.925 39.2765C129.781 39.2285 129.637 39.1565 129.493 39.0605C129.349 38.9645 129.229 38.8565 129.133 38.7365C128.509 38.7125 127.801 38.6885 127.009 38.6645C126.217 38.6645 125.401 38.6645 124.561 38.6645C123.745 38.6645 122.929 38.6765 122.113 38.7005C121.321 38.7245 120.625 38.7605 120.025 38.8085C119.929 38.9045 119.821 38.9645 119.701 38.9885C119.149 39.1565 118.645 39.2525 118.189 39.2765C117.757 39.3245 117.373 39.2645 117.037 39.0965C116.701 38.9285 116.461 38.7005 116.317 38.4125C116.197 38.1245 116.137 37.8245 116.137 37.5125C116.137 37.1045 116.137 36.6365 116.137 36.1085C116.137 35.6045 116.125 35.0765 116.101 34.5245C116.077 33.9965 116.053 33.4805 116.029 32.9765C116.005 32.4725 115.981 32.0285 115.957 31.6445C115.909 31.2365 115.861 30.9245 115.813 30.7085C115.765 30.4685 115.645 30.2165 115.453 29.9525C115.213 29.6165 115.177 29.3165 115.345 29.0525C115.417 28.9085 115.537 28.7645 115.705 28.6205C115.897 28.4525 116.101 28.2965 116.317 28.1525C116.533 28.0085 116.749 27.8885 116.965 27.7925C117.205 27.6965 117.397 27.6245 117.541 27.5765C117.901 27.4805 118.201 27.4925 118.441 27.6125C118.705 27.7085 118.921 27.8525 119.089 28.0445C119.353 28.3325 119.605 28.6565 119.845 29.0165C120.109 29.3765 120.301 29.7605 120.421 30.1685C121.069 30.1205 121.753 30.0965 122.473 30.0965C123.193 30.0725 123.733 30.0485 124.093 30.0245C124.261 30.0245 124.477 30.0125 124.741 29.9885C125.005 29.9645 125.269 29.9525 125.533 29.9525C125.797 29.9525 126.049 29.9645 126.289 29.9885C126.529 29.9885 126.721 30.0125 126.865 30.0605C127.129 30.1565 127.393 30.3485 127.657 30.6365C127.945 30.9245 128.149 31.2125 128.269 31.5005C128.341 31.6925 128.365 31.8725 128.341 32.0405C128.341 32.1845 128.317 32.3285 128.269 32.4725C128.221 32.6645 128.101 32.8445 127.909 33.0125C127.717 33.1805 127.549 33.3005 127.405 33.3725C127.213 33.4685 126.937 33.5165 126.577 33.5165C126.217 33.5165 125.785 33.4925 125.281 33.4445C125.065 33.4205 124.789 33.4085 124.453 33.4085C124.117 33.4085 123.745 33.4205 123.337 33.4445C122.929 33.4445 122.497 33.4565 122.041 33.4805C121.585 33.5045 121.141 33.5285 120.709 33.5525L120.781 35.0645C122.245 35.0645 123.697 35.0525 125.137 35.0285C126.577 35.0285 127.873 35.0045 129.025 34.9565C129.073 33.9245 129.109 33.0245 129.133 32.2565C129.181 31.4645 129.181 30.9485 129.133 30.7085C129.085 30.4445 129.013 30.1805 128.917 29.9165C128.821 29.6525 128.713 29.4365 128.593 29.2685C128.353 28.9325 128.413 28.5845 128.773 28.2245C129.013 27.9845 129.313 27.7565 129.673 27.5405C130.057 27.3005 130.405 27.1565 130.717 27.1085C131.197 27.0365 131.629 27.1325 132.013 27.3965C132.277 27.5885 132.505 27.8285 132.697 28.1165C132.889 28.4045 133.033 28.6325 133.129 28.8005Z" fill="#2E343F"/>
<path d="M163.112 39.2405C162.896 39.0725 162.704 38.7845 162.536 38.3765C162.392 37.9925 162.272 37.5365 162.176 37.0085C162.104 36.4805 162.032 35.8925 161.96 35.2445C161.912 34.6205 161.876 33.9605 161.852 33.2645C161.78 31.7525 161.756 30.0725 161.78 28.2245C161.804 26.3525 161.852 24.4685 161.924 22.5725C161.996 20.6525 162.056 18.7805 162.104 16.9565C162.152 15.1085 162.152 13.4645 162.104 12.0245C162.104 11.6645 162.08 11.3885 162.032 11.1965C161.984 10.9805 161.912 10.8005 161.816 10.6565C161.744 10.4885 161.648 10.3325 161.528 10.1885C161.432 10.0205 161.324 9.82851 161.204 9.61251C161.036 9.32451 160.916 9.12051 160.844 9.00051C160.772 8.85651 160.772 8.67651 160.844 8.46051C160.916 8.22051 161.06 8.00451 161.276 7.81251C161.516 7.62051 161.78 7.45251 162.068 7.30851C162.356 7.16451 162.656 7.05651 162.968 6.98451C163.304 6.88851 163.616 6.82851 163.904 6.80451C164.432 6.75651 164.84 6.87651 165.128 7.16451C165.44 7.47651 165.74 7.80051 166.028 8.13651C166.34 8.44851 166.58 8.76051 166.748 9.07251C166.916 9.38451 167.024 9.68451 167.072 9.97251C167.144 10.2365 167.18 10.5485 167.18 10.9085C167.204 11.9645 167.216 13.1405 167.216 14.4365C167.216 15.7085 167.216 17.0285 167.216 18.3965C167.216 19.7405 167.204 21.0965 167.18 22.4645C167.18 23.8085 167.168 25.0685 167.144 26.2445C167.144 27.3965 167.132 28.4285 167.108 29.3405C167.084 30.2525 167.06 30.9485 167.036 31.4285C167.012 31.7645 166.928 32.2445 166.784 32.8685C166.664 33.4685 166.412 34.0445 166.028 34.5965C165.332 35.5085 164.684 36.3485 164.084 37.1165C163.484 37.9085 163.16 38.6165 163.112 39.2405ZM139.676 31.3205C140.708 31.0565 141.692 30.6845 142.628 30.2045C143.588 29.7245 144.452 29.1365 145.22 28.4405C146.804 27.0005 148.196 25.4285 149.396 23.7245C150.596 22.0205 151.544 20.2325 152.24 18.3605C151.856 18.3845 151.448 18.4085 151.016 18.4325C150.584 18.4565 150.152 18.4805 149.72 18.5045C149.288 18.5045 148.868 18.5045 148.46 18.5045C148.076 18.5045 147.74 18.5045 147.452 18.5045C147.116 18.4805 146.804 18.4445 146.516 18.3965C146.252 18.3485 145.964 18.2525 145.652 18.1085C145.412 17.9885 145.16 17.8325 144.896 17.6405C144.632 17.4245 144.38 17.2085 144.14 16.9925C143.9 16.7525 143.696 16.5245 143.528 16.3085C143.36 16.0685 143.24 15.8645 143.168 15.6965C143.072 15.4805 143.108 15.2645 143.276 15.0485C143.468 14.8085 143.768 14.5445 144.176 14.2565C144.584 13.9445 144.884 13.7645 145.076 13.7165C145.268 13.6685 145.448 13.6805 145.616 13.7525C145.808 13.8005 146.012 13.8725 146.228 13.9685C146.42 14.0405 146.636 14.0885 146.876 14.1125C147.14 14.1365 147.368 14.1485 147.56 14.1485C147.92 14.1485 148.388 14.1365 148.964 14.1125C149.564 14.0645 150.164 14.0285 150.764 14.0045C151.388 13.9565 151.964 13.9205 152.492 13.8965C153.044 13.8485 153.464 13.8125 153.752 13.7885C154.088 13.7405 154.424 13.6685 154.76 13.5725C155.096 13.4525 155.432 13.4165 155.768 13.4645C156.104 13.5125 156.416 13.6325 156.704 13.8245C157.016 13.9925 157.28 14.1725 157.496 14.3645C158.072 14.8685 158.384 15.3845 158.432 15.9125C158.456 16.2725 158.396 16.5605 158.252 16.7765C158.108 16.9925 158 17.2325 157.928 17.4965C157.568 18.7205 157.136 19.9565 156.632 21.2045C156.128 22.4285 155.552 23.6285 154.904 24.8045C154.28 25.9565 153.584 27.0605 152.816 28.1165C152.072 29.1725 151.268 30.1325 150.404 30.9965C149.684 31.7165 148.964 32.2205 148.244 32.5085C147.524 32.7725 146.792 32.9525 146.048 33.0485C145.64 33.0965 145.28 33.1085 144.968 33.0845C144.656 33.0365 144.368 32.9645 144.104 32.8685C143.84 32.7725 143.588 32.6525 143.348 32.5085C143.108 32.3645 142.844 32.1965 142.556 32.0045C142.268 31.8365 141.992 31.7165 141.728 31.6445C141.464 31.5485 141.212 31.4885 140.972 31.4645C140.732 31.4405 140.504 31.4285 140.288 31.4285C140.072 31.4045 139.868 31.3685 139.676 31.3205Z" fill="#2E343F"/>
<path d="M33.2017 10.9445C33.2977 12.3125 33.3817 13.8725 33.4537 15.6245C33.5257 17.3525 33.4777 19.2005 33.3097 21.1685C33.1897 22.6325 32.8657 23.9765 32.3377 25.2005C31.8097 26.4245 30.9937 27.6245 29.8897 28.8005C30.8257 29.4005 31.5457 30.1565 32.0497 31.0685C32.5777 31.9805 32.7817 33.0485 32.6617 34.2725C32.5897 35.0645 32.2777 35.7725 31.7257 36.3965C31.1977 37.0445 30.5137 37.5965 29.6737 38.0525C28.8577 38.5085 27.9337 38.8565 26.9017 39.0965C25.8697 39.3605 24.8257 39.4925 23.7697 39.4925C22.6417 39.4925 21.5137 39.3725 20.3857 39.1325C19.2817 38.8925 18.2737 38.5445 17.3617 38.0885C16.4497 37.6325 15.6817 37.0685 15.0577 36.3965C14.4577 35.7245 14.1097 34.9565 14.0137 34.0925C13.8937 33.1805 14.0617 32.3525 14.5177 31.6085C14.9977 30.8405 15.6697 30.1805 16.5337 29.6285C17.3977 29.0765 18.4177 28.6325 19.5937 28.2965C20.7697 27.9605 21.9937 27.7565 23.2657 27.6845C23.0017 27.1325 22.7257 26.5325 22.4377 25.8845C22.1737 25.2365 22.0177 24.5885 21.9697 23.9405C21.9457 23.2925 21.9337 22.5245 21.9337 21.6365C21.9337 20.7485 21.9457 19.8245 21.9697 18.8645C21.9937 17.9045 22.0057 16.9445 22.0057 15.9845C22.0297 15.0245 22.0417 14.1485 22.0417 13.3565C22.0417 13.0685 22.0297 12.8405 22.0057 12.6725C22.0057 12.4805 21.9697 12.3125 21.8977 12.1685C21.8497 12.0245 21.7777 11.8925 21.6817 11.7725C21.5857 11.6285 21.4657 11.4605 21.3217 11.2685C21.0337 10.9085 20.9017 10.5845 20.9257 10.2965C20.9737 9.98451 21.1657 9.66051 21.5017 9.32451C21.5497 9.27651 21.7057 9.14451 21.9697 8.92851C22.2337 8.71251 22.4377 8.58051 22.5817 8.53251C22.7737 8.46051 22.9897 8.44851 23.2297 8.49651C23.4697 8.52051 23.7577 8.62851 24.0937 8.82051C24.4297 9.03651 24.7297 9.27651 24.9937 9.54051C25.2817 9.80451 25.5217 10.0325 25.7137 10.2245C26.1217 10.7045 26.3497 11.2325 26.3977 11.8085C26.4697 12.3845 26.5177 12.9845 26.5417 13.6085C26.5417 13.9445 26.5417 14.4125 26.5417 15.0125C26.5657 15.5885 26.5897 16.2245 26.6137 16.9205C26.9257 16.8485 27.2617 16.7885 27.6217 16.7405C27.9817 16.6685 28.3297 16.6205 28.6657 16.5965C28.6657 15.7565 28.6537 14.9165 28.6297 14.0765C28.6297 13.2125 28.6297 12.4325 28.6297 11.7365C28.6297 11.4005 28.6057 11.1125 28.5577 10.8725C28.5097 10.6325 28.4257 10.4165 28.3057 10.2245C28.2097 10.0085 28.0777 9.79251 27.9097 9.57651C27.7417 9.36051 27.5377 9.09651 27.2977 8.78451C27.1777 8.61651 27.1057 8.42451 27.0817 8.20851C27.0577 7.96851 27.1177 7.75251 27.2617 7.56051C27.3337 7.46451 27.4777 7.33251 27.6937 7.16451C27.9097 6.99651 28.0777 6.87651 28.1977 6.80451C28.4857 6.63651 28.7257 6.54051 28.9177 6.51651C29.1337 6.49251 29.4097 6.51651 29.7457 6.58851C30.1297 6.66051 30.5257 6.86451 30.9337 7.20051C31.3417 7.51251 31.6537 7.78851 31.8697 8.02851C32.2537 8.43651 32.5537 8.89251 32.7697 9.39651C33.0097 9.87651 33.1537 10.3925 33.2017 10.9445ZM18.4057 17.4245C18.0697 17.4485 17.5537 17.4725 16.8577 17.4965C16.1857 17.5205 15.4537 17.5445 14.6617 17.5685C13.8937 17.5925 13.1617 17.6165 12.4657 17.6405C11.7697 17.6405 11.2417 17.6405 10.8817 17.6405C10.2097 17.6405 9.64568 17.5805 9.18968 17.4605C8.73368 17.3405 8.22968 17.1125 7.67768 16.7765C7.07768 16.4165 6.77768 16.0805 6.77768 15.7685C6.77768 15.4325 6.92168 14.9885 7.20968 14.4365C7.47368 13.9565 7.72568 13.6085 7.96568 13.3925C8.20568 13.1525 8.49368 13.0925 8.82968 13.2125C9.26168 13.3805 9.68168 13.5005 10.0897 13.5725C10.4977 13.6205 10.9057 13.6445 11.3137 13.6445H12.1777C12.1777 13.2845 12.1177 13.0205 11.9977 12.8525C11.9017 12.6845 11.7697 12.5045 11.6017 12.3125C11.3137 11.9765 11.1457 11.7125 11.0977 11.5205C11.0497 11.3285 11.1097 11.1005 11.2777 10.8365C11.3497 10.7165 11.4817 10.5365 11.6737 10.2965C11.8657 10.0565 12.0217 9.87651 12.1417 9.75651C12.4057 9.49251 12.6457 9.33651 12.8617 9.28851C13.1017 9.24051 13.3777 9.27651 13.6897 9.39651C14.0737 9.51651 14.4817 9.70851 14.9137 9.97251C15.3697 10.2365 15.7297 10.4765 15.9937 10.6925C16.3297 10.9565 16.5337 11.3045 16.6057 11.7365C16.7017 12.1445 16.7497 12.6245 16.7497 13.1765V13.3565C17.0137 13.3325 17.2537 13.3205 17.4697 13.3205C17.7097 13.2965 17.9377 13.2605 18.1537 13.2125C18.9937 13.0925 19.6777 13.3325 20.2057 13.9325C20.6857 14.4845 20.9977 14.9045 21.1417 15.1925C21.2857 15.4565 21.3577 15.7085 21.3577 15.9485C21.3577 16.4525 21.0577 16.8125 20.4577 17.0285C19.8817 17.2445 19.1977 17.3765 18.4057 17.4245ZM20.6017 23.2565C20.5777 23.9045 20.3977 24.5045 20.0617 25.0565C19.7257 25.6085 19.2817 26.0885 18.7297 26.4965C18.1777 26.8805 17.5297 27.1805 16.7857 27.3965C16.0417 27.5885 15.2617 27.6725 14.4457 27.6485C14.2537 27.6965 14.0017 27.7325 13.6897 27.7565C13.3777 27.7565 13.0537 27.7325 12.7177 27.6845C11.3017 27.4685 10.2217 26.9645 9.47768 26.1725C8.75768 25.3565 8.39768 24.3965 8.39768 23.2925C8.39768 22.7885 8.50568 22.2845 8.72168 21.7805C8.93768 21.2765 9.24968 20.8205 9.65768 20.4125C10.0657 19.9805 10.5577 19.6085 11.1337 19.2965C11.7097 18.9845 12.3577 18.7685 13.0777 18.6485C13.2217 18.5285 13.4137 18.4565 13.6537 18.4325C13.8937 18.3845 14.1217 18.3605 14.3377 18.3605C15.2257 18.3605 16.0537 18.4805 16.8217 18.7205C17.5897 18.9365 18.2497 19.2605 18.8017 19.6925C19.3777 20.1245 19.8217 20.6405 20.1337 21.2405C20.4697 21.8405 20.6257 22.5125 20.6017 23.2565ZM24.3097 27.3245C26.2777 27.3245 28.0057 27.7325 29.4937 28.5485C29.4457 27.9725 29.3377 27.3365 29.1697 26.6405C29.0257 25.9445 28.9297 25.4045 28.8817 25.0205C28.7857 24.3965 28.7137 23.7725 28.6657 23.1485C28.6177 22.5245 28.5937 21.9005 28.5937 21.2765L26.6857 21.1685C26.6617 21.3605 26.6497 21.5525 26.6497 21.7445C26.6497 21.9125 26.6497 22.0565 26.6497 22.1765C26.6257 23.1845 26.3137 24.1805 25.7137 25.1645C25.4977 25.5245 25.2577 25.8845 24.9937 26.2445C24.7537 26.6045 24.5017 26.9645 24.2377 27.3245H24.3097ZM12.3937 23.0405C12.3937 23.4485 12.5857 23.7845 12.9697 24.0485C13.3777 24.2885 13.8577 24.4325 14.4097 24.4805C15.0337 24.4325 15.5017 24.2645 15.8137 23.9765C16.1497 23.6645 16.3177 23.3525 16.3177 23.0405C16.3177 22.6325 16.1377 22.3085 15.7777 22.0685C15.4177 21.8045 14.8177 21.6245 13.9777 21.5285C13.4257 21.6005 13.0177 21.8045 12.7537 22.1405C12.5137 22.4525 12.3937 22.7525 12.3937 23.0405ZM27.4417 33.5885C27.4897 33.2525 27.4057 32.9525 27.1897 32.6885C26.9977 32.4245 26.7217 32.1965 26.3617 32.0045C26.0257 31.7885 25.6417 31.6205 25.2097 31.5005C24.7777 31.3565 24.3457 31.2485 23.9137 31.1765C23.3617 31.2005 22.8097 31.2605 22.2577 31.3565C21.7057 31.4525 21.1897 31.5965 20.7097 31.7885C20.2297 31.9565 19.8097 32.1605 19.4497 32.4005C19.1137 32.6165 18.8857 32.8565 18.7657 33.1205C19.0057 33.8405 19.5577 34.3325 20.4217 34.5965C21.2857 34.8605 22.3297 34.9925 23.5537 34.9925C23.9857 34.9925 24.4297 34.9685 24.8857 34.9205C25.3417 34.8725 25.7497 34.7885 26.1097 34.6685C26.4697 34.5725 26.7697 34.4285 27.0097 34.2365C27.2497 34.0685 27.3937 33.8525 27.4417 33.5885Z" stroke="white" stroke-width="4" stroke-linejoin="round" mask="url(#path-1-outside-1_11_49)"/>
<path d="M47.6321 18.7205C46.9121 18.4805 46.3361 17.9765 45.9041 17.2085C45.4721 16.4405 45.2441 15.6485 45.2201 14.8325C45.1961 13.8965 45.4961 13.0445 46.1201 12.2765C46.7441 11.4845 47.5121 10.8005 48.4241 10.2245C49.3601 9.62451 50.3561 9.14451 51.4121 8.78451C52.4921 8.40051 53.4761 8.14851 54.3641 8.02851C54.4841 7.93251 54.6641 7.86051 54.9041 7.81251C55.1441 7.74051 55.3841 7.71651 55.6241 7.74051C56.4401 7.81251 57.2321 8.05251 58.0001 8.46051C58.7921 8.84451 59.4881 9.34851 60.0881 9.97251C60.7121 10.5725 61.1921 11.2685 61.5281 12.0605C61.8881 12.8285 62.0561 13.6205 62.0321 14.4365C61.9841 15.3725 61.7321 16.2005 61.2761 16.9205C60.8441 17.6165 60.2681 18.2045 59.5481 18.6845C58.8281 19.1405 57.9881 19.5005 57.0281 19.7645C56.0921 20.0045 55.1081 20.1365 54.0761 20.1605C53.4521 20.1845 52.8041 20.1725 52.1321 20.1245C51.4841 20.0525 50.8601 19.9565 50.2601 19.8365C49.6841 19.7165 49.1561 19.5725 48.6761 19.4045C48.2201 19.2125 47.8721 18.9845 47.6321 18.7205ZM55.3001 11.9165C54.8201 11.9165 54.2921 11.9765 53.7161 12.0965C53.1401 12.2165 52.6001 12.3845 52.0961 12.6005C51.5921 12.7925 51.1721 13.0325 50.8361 13.3205C50.5001 13.5845 50.3321 13.8725 50.3321 14.1845C50.3321 14.5205 50.4401 14.8085 50.6561 15.0485C50.8961 15.2645 51.1841 15.4445 51.5201 15.5885C51.7121 15.6365 52.0361 15.6965 52.4921 15.7685C52.9481 15.8165 53.3681 15.8405 53.7521 15.8405C54.1361 15.8405 54.5201 15.8165 54.9041 15.7685C55.3121 15.6965 55.6721 15.6005 55.9841 15.4805C56.2961 15.3605 56.5481 15.2045 56.7401 15.0125C56.9321 14.8205 57.0401 14.5925 57.0641 14.3285C57.0881 13.9925 57.0401 13.7045 56.9201 13.4645C56.8001 13.2245 56.6441 13.0205 56.4521 12.8525C56.2601 12.6845 56.0561 12.5285 55.8401 12.3845C55.6241 12.2405 55.4441 12.0845 55.3001 11.9165ZM68.9801 23.8325C69.0281 24.0005 69.0401 24.1925 69.0161 24.4085C68.9921 24.6245 68.9561 24.7805 68.9081 24.8765C68.7881 25.1405 68.5121 25.4165 68.0801 25.7045C67.6481 25.9925 67.2881 26.1845 67.0001 26.2805C66.6641 26.4005 66.3761 26.4845 66.1361 26.5325C65.9201 26.5565 65.6801 26.5205 65.4161 26.4245C65.1281 26.3285 64.7441 26.2565 64.2641 26.2085C63.8081 26.1365 63.4001 26.0765 63.0401 26.0285C62.6801 25.9805 62.1521 25.9445 61.4561 25.9205C60.7601 25.8725 59.9921 25.8485 59.1521 25.8485C58.9361 25.8485 58.6001 25.8605 58.1441 25.8845C57.6881 25.8845 57.1721 25.8845 56.5961 25.8845C56.5961 26.2205 56.5841 26.5805 56.5601 26.9645C56.5601 27.3245 56.5601 27.5885 56.5601 27.7565C56.5601 28.3325 56.4641 28.8725 56.2721 29.3765C56.0801 29.8565 55.8401 30.2765 55.5521 30.6365C55.2641 30.9965 54.9521 31.2845 54.6161 31.5005C54.2801 31.6925 53.9681 31.7885 53.6801 31.7885C53.2001 31.3805 52.7201 30.8765 52.2401 30.2765C51.7841 29.6525 51.5201 28.8605 51.4481 27.9005C51.4241 27.7565 51.4121 27.5045 51.4121 27.1445C51.4121 26.7845 51.4121 26.4245 51.4121 26.0645C50.6441 26.0885 49.9841 26.1125 49.4321 26.1365C48.9041 26.1605 48.5681 26.1725 48.4241 26.1725C48.0161 26.1965 47.5121 26.2205 46.9121 26.2445C46.3121 26.2685 45.6761 26.2925 45.0041 26.3165C44.3321 26.3405 43.6481 26.3645 42.9521 26.3885C42.2801 26.3885 41.6561 26.3885 41.0801 26.3885C40.6961 26.3885 40.2881 26.3165 39.8561 26.1725C39.4481 26.0285 39.1001 25.8725 38.8121 25.7045C38.5001 25.5365 38.1521 25.3205 37.7681 25.0565C37.4081 24.7685 37.1441 24.5165 36.9761 24.3005C36.8561 24.1325 36.8081 23.9525 36.8321 23.7605C36.8561 23.5685 36.9161 23.3765 37.0121 23.1845C37.0841 23.0165 37.2281 22.7525 37.4441 22.3925C37.6841 22.0085 37.8881 21.7325 38.0561 21.5645C38.3441 21.2765 38.7041 21.1925 39.1361 21.3125L40.1801 21.6725C40.5641 21.7925 40.9121 21.8645 41.2241 21.8885C41.5601 21.9125 42.0521 21.9245 42.7001 21.9245C43.0121 21.9245 43.5041 21.9125 44.1761 21.8885C44.8481 21.8405 45.5441 21.8045 46.2641 21.7805C46.9841 21.7325 47.6561 21.6965 48.2801 21.6725C48.9041 21.6245 49.3481 21.6005 49.6121 21.6005C49.9481 21.6005 50.5721 21.5885 51.4841 21.5645C52.3961 21.5165 53.3801 21.4805 54.4361 21.4565C55.4921 21.4085 56.5241 21.3725 57.5321 21.3485C58.5641 21.3245 59.3561 21.3125 59.9081 21.3125C60.9881 21.3365 61.9961 21.3605 62.9321 21.3845C63.8921 21.4085 64.8761 21.4805 65.8841 21.6005C66.2201 21.6485 66.5681 21.7805 66.9281 21.9965C67.2881 22.1885 67.6121 22.4045 67.9001 22.6445C68.1881 22.8845 68.4281 23.1245 68.6201 23.3645C68.8121 23.5805 68.9321 23.7365 68.9801 23.8325ZM62.2841 32.7965C62.4281 32.8205 62.5841 32.9045 62.7521 33.0485C62.9441 33.1685 63.1241 33.3245 63.2921 33.5165C63.4841 33.6845 63.6641 33.8645 63.8321 34.0565C64.0001 34.2485 64.1201 34.4045 64.1921 34.5245C64.5281 35.0525 64.5761 35.5325 64.3361 35.9645C64.2161 36.1565 64.0001 36.3965 63.6881 36.6845C63.4001 36.9965 63.1001 37.2485 62.7881 37.4405C62.5001 37.6325 62.1881 37.7885 61.8521 37.9085C61.5161 38.0285 61.1441 38.1005 60.7361 38.1245C60.2801 38.1485 59.6201 38.1725 58.7561 38.1965C57.9161 38.2205 57.0161 38.2445 56.0561 38.2685C55.1201 38.2925 54.1961 38.3165 53.2841 38.3405C52.3721 38.3645 51.6161 38.3765 51.0161 38.3765C50.4161 38.3765 49.9121 38.3405 49.5041 38.2685C49.0961 38.1965 48.7361 38.0765 48.4241 37.9085C48.1121 37.7405 47.8241 37.5365 47.5601 37.2965C47.3201 37.0565 47.0561 36.7565 46.7681 36.3965C46.2641 35.7965 45.7601 35.1965 45.2561 34.5965C44.7761 34.0205 44.2241 33.4205 43.6001 32.7965C43.4801 32.6765 43.3481 32.5445 43.2041 32.4005C43.0601 32.2325 42.9161 32.1005 42.7721 32.0045C42.6041 31.8845 42.4361 31.7765 42.2681 31.6805C42.1001 31.5605 41.9801 31.4165 41.9081 31.2485C41.8601 31.1285 41.8481 30.9845 41.8721 30.8165C41.8961 30.6245 41.9801 30.4565 42.1241 30.3125C42.4601 29.9765 42.8561 29.6885 43.3121 29.4485C43.7681 29.1845 44.2361 29.0045 44.7161 28.9085C45.1241 28.8365 45.4601 28.8125 45.7241 28.8365C46.0121 28.8605 46.3001 29.0165 46.5881 29.3045C46.7321 29.4485 46.9241 29.6525 47.1641 29.9165C47.4281 30.1805 47.7041 30.4685 47.9921 30.7805C48.3041 31.0925 48.6041 31.4165 48.8921 31.7525C49.2041 32.0645 49.4801 32.3405 49.7201 32.5805C49.9121 32.7725 50.1401 32.9765 50.4041 33.1925C50.6681 33.3845 50.9441 33.5045 51.2321 33.5525C51.3761 33.5765 51.6161 33.6005 51.9521 33.6245C52.3121 33.6245 52.6961 33.6245 53.1041 33.6245C53.5361 33.6245 53.9561 33.6245 54.3641 33.6245C54.7961 33.6245 55.1681 33.6125 55.4801 33.5885C56.1521 33.5405 56.8481 33.5045 57.5681 33.4805C58.2881 33.4565 58.9961 33.3965 59.6921 33.3005C60.0761 33.2525 60.4001 33.1925 60.6641 33.1205C60.9281 33.0485 61.1561 32.9885 61.3481 32.9405C61.5401 32.8685 61.7081 32.8205 61.8521 32.7965C61.9961 32.7725 62.1401 32.7725 62.2841 32.7965Z" stroke="white" stroke-width="4" stroke-linejoin="round" mask="url(#path-1-outside-1_11_49)"/>
<path d="M95.8701 30.7445C95.8941 31.6085 95.8581 32.4365 95.7621 33.2285C95.6661 33.9965 95.4861 34.7285 95.2221 35.4245C94.9821 36.1445 94.6341 36.8405 94.1781 37.5125C93.7461 38.1845 93.1941 38.8445 92.5221 39.4925C92.3541 38.8685 92.0661 38.2085 91.6581 37.5125C91.2741 36.8165 90.9741 36.1805 90.7581 35.6045C90.4941 34.9325 90.3261 34.2725 90.2541 33.6245C90.1821 32.9525 90.1581 32.2805 90.1821 31.6085C90.1821 31.3685 90.1821 31.1165 90.1821 30.8525C90.2061 30.5885 90.2181 30.3245 90.2181 30.0605C89.3541 30.3965 88.3941 30.7085 87.3381 30.9965C86.3061 31.2845 85.3581 31.5005 84.4941 31.6445C83.9661 31.7405 83.2341 31.8365 82.2981 31.9325C81.3861 32.0285 80.4141 32.1125 79.3821 32.1845C78.3501 32.2565 77.3301 32.3165 76.3221 32.3645C75.3381 32.4125 74.4981 32.4365 73.8021 32.4365C73.5381 32.4365 73.2261 32.4125 72.8661 32.3645C72.5301 32.3165 72.2301 32.2565 71.9661 32.1845C71.0781 31.9205 70.4301 31.5005 70.0221 30.9245C69.9261 30.8045 69.8541 30.6485 69.8061 30.4565C69.7821 30.2405 69.7701 30.0605 69.7701 29.9165C69.7701 29.4365 69.8421 28.9805 69.9861 28.5485C70.1301 28.1165 70.3701 27.8165 70.7061 27.6485C70.9221 27.5285 71.1021 27.4805 71.2461 27.5045C71.4141 27.5285 71.6061 27.5645 71.8221 27.6125C72.0861 27.6605 72.3381 27.6965 72.5781 27.7205C72.8421 27.7445 73.0941 27.7565 73.3341 27.7565C73.7901 27.7565 74.4621 27.7445 75.3501 27.7205C76.2381 27.6725 77.1741 27.6245 78.1581 27.5765C79.1421 27.5285 80.1021 27.4805 81.0381 27.4325C81.9741 27.3605 82.7061 27.3005 83.2341 27.2525C84.5301 27.1325 85.7301 27.0125 86.8341 26.8925C87.9381 26.7485 89.1021 26.5685 90.3261 26.3525C90.3501 25.2005 90.3741 24.0245 90.3981 22.8245C90.4221 21.6005 90.4341 20.4125 90.4341 19.2605C90.4581 18.1085 90.4701 17.0165 90.4701 15.9845C90.4701 14.9525 90.4701 14.0405 90.4701 13.2485C90.4461 12.3125 90.3141 11.6165 90.0741 11.1605C89.8581 10.6805 89.5821 10.2485 89.2461 9.86451C88.8141 9.36051 88.6701 8.95251 88.8141 8.64051C88.9821 8.32851 89.3781 7.92051 90.0021 7.41651C90.3141 7.17651 90.5781 6.98451 90.7941 6.84051C91.0341 6.67251 91.2501 6.57651 91.4421 6.55251C91.6581 6.52851 91.8741 6.56451 92.0901 6.66051C92.3061 6.75651 92.5701 6.91251 92.8821 7.12851C93.4581 7.56051 93.9261 7.95651 94.2861 8.31651C94.6461 8.65251 94.9221 9.02451 95.1141 9.43251C95.3301 9.81651 95.4741 10.2485 95.5461 10.7285C95.6181 11.2085 95.6541 11.7845 95.6541 12.4565C95.6541 13.2965 95.6541 14.2565 95.6541 15.3365C95.6541 16.4165 95.6541 17.5445 95.6541 18.7205C95.6781 19.8965 95.6901 21.0845 95.6901 22.2845C95.7141 23.4605 95.7381 24.5885 95.7621 25.6685C95.7861 26.7245 95.7981 27.6965 95.7981 28.5845C95.8221 29.4725 95.8461 30.1925 95.8701 30.7445ZM80.7141 25.0925C79.6341 25.1405 78.6141 25.0205 77.6541 24.7325C76.7181 24.4205 75.8781 23.9885 75.1341 23.4365C74.4141 22.8845 73.8381 22.2245 73.4061 21.4565C72.9741 20.6885 72.7461 19.8365 72.7221 18.9005C72.6981 18.3005 72.8181 17.6765 73.0821 17.0285C73.3461 16.3565 73.6941 15.7325 74.1261 15.1565C74.5821 14.5565 75.0861 14.0525 75.6381 13.6445C76.2141 13.2125 76.8141 12.9245 77.4381 12.7805C77.6061 12.7325 77.7501 12.6965 77.8701 12.6725C78.0141 12.6245 78.1461 12.5525 78.2661 12.4565C78.3141 12.4565 78.3501 12.4325 78.3741 12.3845C78.3981 12.3125 78.4461 12.2525 78.5181 12.2045C78.8541 11.9645 79.1541 11.8205 79.4181 11.7725C79.7061 11.7245 80.0061 11.7245 80.3181 11.7725C81.1581 11.9165 81.9981 12.2045 82.8381 12.6365C83.7021 13.0445 84.4701 13.5605 85.1421 14.1845C85.8381 14.8085 86.4021 15.5045 86.8341 16.2725C87.2901 17.0405 87.5301 17.8325 87.5541 18.6485C87.5781 19.6085 87.3981 20.4845 87.0141 21.2765C86.6541 22.0445 86.1501 22.7165 85.5021 23.2925C84.8541 23.8445 84.1101 24.2765 83.2701 24.5885C82.4541 24.9005 81.6021 25.0685 80.7141 25.0925ZM79.5981 15.6965C79.2621 15.7685 78.9501 15.9125 78.6621 16.1285C78.3741 16.3445 78.1221 16.6085 77.9061 16.9205C77.6901 17.2325 77.5221 17.5685 77.4021 17.9285C77.3061 18.2645 77.2821 18.6125 77.3301 18.9725C77.5221 19.4045 77.8581 19.8005 78.3381 20.1605C78.8181 20.5205 79.4061 20.7005 80.1021 20.7005C80.8701 20.7005 81.5421 20.4845 82.1181 20.0525C82.6941 19.6205 82.9821 19.0925 82.9821 18.4685C82.9821 18.1565 82.8981 17.8325 82.7301 17.4965C82.5861 17.1365 82.3821 16.8245 82.1181 16.5605C81.8541 16.2965 81.5541 16.1045 81.2181 15.9845C80.8821 15.8405 80.5461 15.8285 80.2101 15.9485C79.9941 16.0205 79.7901 15.9365 79.5981 15.6965Z" stroke="white" stroke-width="4" stroke-linejoin="round" mask="url(#path-1-outside-1_11_49)"/>
<path d="M136.369 22.1765C136.729 22.2245 137.113 22.3445 137.521 22.5365C137.929 22.7285 138.313 22.9685 138.673 23.2565C139.033 23.5205 139.321 23.7965 139.537 24.0845C139.753 24.3725 139.849 24.6365 139.825 24.8765C139.801 24.9965 139.717 25.1405 139.573 25.3085C139.429 25.4525 139.261 25.5965 139.069 25.7405C138.877 25.8845 138.673 26.0165 138.457 26.1365C138.265 26.2565 138.097 26.3405 137.953 26.3885C137.617 26.5085 137.329 26.5685 137.089 26.5685C136.849 26.5685 136.597 26.5685 136.333 26.5685C136.045 26.5685 135.613 26.5565 135.037 26.5325C134.461 26.5085 133.861 26.4845 133.237 26.4605C132.613 26.4125 132.001 26.3765 131.401 26.3525C130.825 26.3045 130.381 26.2805 130.069 26.2805C129.805 26.2805 129.397 26.2925 128.845 26.3165C128.317 26.3165 127.717 26.3285 127.045 26.3525C126.397 26.3525 125.713 26.3645 124.993 26.3885C124.297 26.3885 123.637 26.4005 123.013 26.4245C122.413 26.4245 121.885 26.4365 121.429 26.4605C120.973 26.4605 120.685 26.4605 120.565 26.4605L113.221 26.8205C112.837 26.8445 112.429 26.7845 111.997 26.6405C111.589 26.4965 111.241 26.3285 110.953 26.1365C110.641 25.9445 110.293 25.7165 109.909 25.4525C109.549 25.1645 109.285 24.9245 109.117 24.7325C108.997 24.5645 108.949 24.3845 108.973 24.1925C109.021 23.9765 109.081 23.7845 109.153 23.6165C109.225 23.4485 109.369 23.2085 109.585 22.8965C109.825 22.5605 110.029 22.3085 110.197 22.1405C110.485 21.8525 110.845 21.7685 111.277 21.8885L112.321 22.2125C112.705 22.3325 113.053 22.4165 113.365 22.4645C113.701 22.4885 114.193 22.5005 114.841 22.5005C115.057 22.5005 115.405 22.5005 115.885 22.5005C116.389 22.4765 116.965 22.4645 117.613 22.4645C118.285 22.4405 119.005 22.4165 119.773 22.3925C120.565 22.3685 121.381 22.3445 122.221 22.3205V21.2765C122.221 21.1805 122.221 21.0965 122.221 21.0245C122.221 20.9285 122.209 20.8205 122.185 20.7005C121.489 20.7005 120.841 20.7005 120.241 20.7005C119.665 20.6765 119.161 20.6645 118.729 20.6645C118.321 20.9285 117.829 21.0365 117.253 20.9885C116.677 20.9405 116.233 20.7725 115.921 20.4845C115.633 20.1725 115.441 19.8245 115.345 19.4405C115.273 19.1045 115.237 18.7445 115.237 18.3605C115.261 17.9525 115.273 17.5805 115.273 17.2445C115.273 16.8605 115.261 16.4405 115.237 15.9845C115.237 15.5045 115.225 15.0365 115.201 14.5805C115.177 14.1005 115.153 13.6685 115.129 13.2845C115.129 12.9005 115.129 12.6005 115.129 12.3845C115.129 12.2405 115.093 12.0605 115.021 11.8445C114.973 11.6285 114.865 11.4125 114.697 11.1965C114.505 10.9325 114.457 10.6805 114.553 10.4405C114.673 10.2005 114.937 9.91251 115.345 9.57651C115.753 9.24051 116.161 9.08451 116.569 9.10851C116.977 9.10851 117.397 9.25251 117.829 9.54051C118.285 9.82851 118.681 10.1525 119.017 10.5125C119.353 10.8485 119.533 11.2925 119.557 11.8445V11.9885C119.893 11.9645 120.313 11.9405 120.817 11.9165C121.321 11.8925 121.885 11.8685 122.509 11.8445V11.8085C122.461 11.3765 122.413 11.0765 122.365 10.9085C122.341 10.7405 122.233 10.5485 122.041 10.3325C121.801 10.0685 121.777 9.81651 121.969 9.57651C122.185 9.31251 122.461 9.01251 122.797 8.67651C123.061 8.41251 123.361 8.25651 123.697 8.20851C124.057 8.13651 124.405 8.18451 124.741 8.35251C125.197 8.56851 125.557 8.78451 125.821 9.00051C126.109 9.19251 126.325 9.42051 126.469 9.68451C126.613 9.92451 126.709 10.2005 126.757 10.5125C126.805 10.8245 126.829 11.1965 126.829 11.6285V11.7365H127.909C128.341 11.7605 128.701 11.7845 128.989 11.8085C129.301 11.8325 129.553 11.8805 129.745 11.9525V11.1965C129.745 10.9325 129.733 10.7285 129.709 10.5845C129.685 10.4165 129.649 10.2725 129.601 10.1525C129.553 10.0325 129.469 9.91251 129.349 9.79251C129.253 9.67251 129.133 9.51651 128.989 9.32451C128.725 8.98851 128.665 8.68851 128.809 8.42451C128.953 8.16051 129.217 7.88451 129.601 7.59651C130.393 7.02051 131.173 7.00851 131.941 7.56051C132.349 7.84851 132.685 8.12451 132.949 8.38851C133.237 8.62851 133.465 8.88051 133.633 9.14451C133.801 9.38451 133.921 9.64851 133.993 9.93651C134.089 10.2005 134.149 10.5125 134.173 10.8725C134.197 11.0885 134.209 11.4605 134.209 11.9885C134.209 12.4925 134.209 13.0805 134.209 13.7525C134.209 14.4245 134.197 15.1085 134.173 15.8045C134.173 16.5005 134.161 17.1365 134.137 17.7125C134.329 17.9765 134.425 18.2405 134.425 18.5045C134.425 18.7445 134.413 18.9245 134.389 19.0445C134.317 19.5005 134.089 19.8725 133.705 20.1605C133.345 20.4245 132.925 20.5685 132.445 20.5925C130.741 20.6645 128.989 20.7005 127.189 20.7005V22.1765C128.077 22.1525 128.833 22.1405 129.457 22.1405C130.105 22.1165 130.561 22.0925 130.825 22.0685C131.905 22.0205 132.865 22.0085 133.705 22.0325C134.545 22.0325 135.433 22.0805 136.369 22.1765ZM128.521 15.1565C128.401 15.1565 128.185 15.1685 127.873 15.1925C127.585 15.1925 127.225 15.1925 126.793 15.1925C126.793 15.4805 126.781 15.7805 126.757 16.0925C126.757 16.3805 126.757 16.6805 126.757 16.9925C127.333 16.9685 127.873 16.9565 128.377 16.9565C128.905 16.9565 129.373 16.9565 129.781 16.9565C129.781 16.6445 129.781 16.3205 129.781 15.9845C129.781 15.6485 129.769 15.3125 129.745 14.9765C129.385 15.0965 128.977 15.1565 128.521 15.1565ZM122.617 15.2645C121.993 15.2885 121.429 15.3005 120.925 15.3005C120.421 15.3005 120.001 15.3005 119.665 15.3005V17.1365C120.001 17.1125 120.421 17.1005 120.925 17.1005C121.429 17.1005 121.981 17.0885 122.581 17.0645C122.581 16.7765 122.581 16.4885 122.581 16.2005C122.605 15.8885 122.617 15.5765 122.617 15.2645ZM133.129 28.8005C133.393 29.2805 133.573 29.7485 133.669 30.2045C133.765 30.6605 133.825 31.2005 133.849 31.8245C133.849 32.1605 133.849 32.5805 133.849 33.0845C133.873 33.5645 133.873 34.0685 133.849 34.5965C133.849 35.1485 133.837 35.6765 133.813 36.1805C133.789 36.6845 133.765 37.1165 133.741 37.4765C133.645 38.5805 133.189 39.2045 132.373 39.3485C132.325 39.3485 132.193 39.3485 131.977 39.3485C131.761 39.3725 131.521 39.3845 131.257 39.3845C130.993 39.3845 130.729 39.3725 130.465 39.3485C130.225 39.3485 130.045 39.3245 129.925 39.2765C129.781 39.2285 129.637 39.1565 129.493 39.0605C129.349 38.9645 129.229 38.8565 129.133 38.7365C128.509 38.7125 127.801 38.6885 127.009 38.6645C126.217 38.6645 125.401 38.6645 124.561 38.6645C123.745 38.6645 122.929 38.6765 122.113 38.7005C121.321 38.7245 120.625 38.7605 120.025 38.8085C119.929 38.9045 119.821 38.9645 119.701 38.9885C119.149 39.1565 118.645 39.2525 118.189 39.2765C117.757 39.3245 117.373 39.2645 117.037 39.0965C116.701 38.9285 116.461 38.7005 116.317 38.4125C116.197 38.1245 116.137 37.8245 116.137 37.5125C116.137 37.1045 116.137 36.6365 116.137 36.1085C116.137 35.6045 116.125 35.0765 116.101 34.5245C116.077 33.9965 116.053 33.4805 116.029 32.9765C116.005 32.4725 115.981 32.0285 115.957 31.6445C115.909 31.2365 115.861 30.9245 115.813 30.7085C115.765 30.4685 115.645 30.2165 115.453 29.9525C115.213 29.6165 115.177 29.3165 115.345 29.0525C115.417 28.9085 115.537 28.7645 115.705 28.6205C115.897 28.4525 116.101 28.2965 116.317 28.1525C116.533 28.0085 116.749 27.8885 116.965 27.7925C117.205 27.6965 117.397 27.6245 117.541 27.5765C117.901 27.4805 118.201 27.4925 118.441 27.6125C118.705 27.7085 118.921 27.8525 119.089 28.0445C119.353 28.3325 119.605 28.6565 119.845 29.0165C120.109 29.3765 120.301 29.7605 120.421 30.1685C121.069 30.1205 121.753 30.0965 122.473 30.0965C123.193 30.0725 123.733 30.0485 124.093 30.0245C124.261 30.0245 124.477 30.0125 124.741 29.9885C125.005 29.9645 125.269 29.9525 125.533 29.9525C125.797 29.9525 126.049 29.9645 126.289 29.9885C126.529 29.9885 126.721 30.0125 126.865 30.0605C127.129 30.1565 127.393 30.3485 127.657 30.6365C127.945 30.9245 128.149 31.2125 128.269 31.5005C128.341 31.6925 128.365 31.8725 128.341 32.0405C128.341 32.1845 128.317 32.3285 128.269 32.4725C128.221 32.6645 128.101 32.8445 127.909 33.0125C127.717 33.1805 127.549 33.3005 127.405 33.3725C127.213 33.4685 126.937 33.5165 126.577 33.5165C126.217 33.5165 125.785 33.4925 125.281 33.4445C125.065 33.4205 124.789 33.4085 124.453 33.4085C124.117 33.4085 123.745 33.4205 123.337 33.4445C122.929 33.4445 122.497 33.4565 122.041 33.4805C121.585 33.5045 121.141 33.5285 120.709 33.5525L120.781 35.0645C122.245 35.0645 123.697 35.0525 125.137 35.0285C126.577 35.0285 127.873 35.0045 129.025 34.9565C129.073 33.9245 129.109 33.0245 129.133 32.2565C129.181 31.4645 129.181 30.9485 129.133 30.7085C129.085 30.4445 129.013 30.1805 128.917 29.9165C128.821 29.6525 128.713 29.4365 128.593 29.2685C128.353 28.9325 128.413 28.5845 128.773 28.2245C129.013 27.9845 129.313 27.7565 129.673 27.5405C130.057 27.3005 130.405 27.1565 130.717 27.1085C131.197 27.0365 131.629 27.1325 132.013 27.3965C132.277 27.5885 132.505 27.8285 132.697 28.1165C132.889 28.4045 133.033 28.6325 133.129 28.8005Z" stroke="white" stroke-width="4" stroke-linejoin="round" mask="url(#path-1-outside-1_11_49)"/>
<path d="M163.112 39.2405C162.896 39.0725 162.704 38.7845 162.536 38.3765C162.392 37.9925 162.272 37.5365 162.176 37.0085C162.104 36.4805 162.032 35.8925 161.96 35.2445C161.912 34.6205 161.876 33.9605 161.852 33.2645C161.78 31.7525 161.756 30.0725 161.78 28.2245C161.804 26.3525 161.852 24.4685 161.924 22.5725C161.996 20.6525 162.056 18.7805 162.104 16.9565C162.152 15.1085 162.152 13.4645 162.104 12.0245C162.104 11.6645 162.08 11.3885 162.032 11.1965C161.984 10.9805 161.912 10.8005 161.816 10.6565C161.744 10.4885 161.648 10.3325 161.528 10.1885C161.432 10.0205 161.324 9.82851 161.204 9.61251C161.036 9.32451 160.916 9.12051 160.844 9.00051C160.772 8.85651 160.772 8.67651 160.844 8.46051C160.916 8.22051 161.06 8.00451 161.276 7.81251C161.516 7.62051 161.78 7.45251 162.068 7.30851C162.356 7.16451 162.656 7.05651 162.968 6.98451C163.304 6.88851 163.616 6.82851 163.904 6.80451C164.432 6.75651 164.84 6.87651 165.128 7.16451C165.44 7.47651 165.74 7.80051 166.028 8.13651C166.34 8.44851 166.58 8.76051 166.748 9.07251C166.916 9.38451 167.024 9.68451 167.072 9.97251C167.144 10.2365 167.18 10.5485 167.18 10.9085C167.204 11.9645 167.216 13.1405 167.216 14.4365C167.216 15.7085 167.216 17.0285 167.216 18.3965C167.216 19.7405 167.204 21.0965 167.18 22.4645C167.18 23.8085 167.168 25.0685 167.144 26.2445C167.144 27.3965 167.132 28.4285 167.108 29.3405C167.084 30.2525 167.06 30.9485 167.036 31.4285C167.012 31.7645 166.928 32.2445 166.784 32.8685C166.664 33.4685 166.412 34.0445 166.028 34.5965C165.332 35.5085 164.684 36.3485 164.084 37.1165C163.484 37.9085 163.16 38.6165 163.112 39.2405ZM139.676 31.3205C140.708 31.0565 141.692 30.6845 142.628 30.2045C143.588 29.7245 144.452 29.1365 145.22 28.4405C146.804 27.0005 148.196 25.4285 149.396 23.7245C150.596 22.0205 151.544 20.2325 152.24 18.3605C151.856 18.3845 151.448 18.4085 151.016 18.4325C150.584 18.4565 150.152 18.4805 149.72 18.5045C149.288 18.5045 148.868 18.5045 148.46 18.5045C148.076 18.5045 147.74 18.5045 147.452 18.5045C147.116 18.4805 146.804 18.4445 146.516 18.3965C146.252 18.3485 145.964 18.2525 145.652 18.1085C145.412 17.9885 145.16 17.8325 144.896 17.6405C144.632 17.4245 144.38 17.2085 144.14 16.9925C143.9 16.7525 143.696 16.5245 143.528 16.3085C143.36 16.0685 143.24 15.8645 143.168 15.6965C143.072 15.4805 143.108 15.2645 143.276 15.0485C143.468 14.8085 143.768 14.5445 144.176 14.2565C144.584 13.9445 144.884 13.7645 145.076 13.7165C145.268 13.6685 145.448 13.6805 145.616 13.7525C145.808 13.8005 146.012 13.8725 146.228 13.9685C146.42 14.0405 146.636 14.0885 146.876 14.1125C147.14 14.1365 147.368 14.1485 147.56 14.1485C147.92 14.1485 148.388 14.1365 148.964 14.1125C149.564 14.0645 150.164 14.0285 150.764 14.0045C151.388 13.9565 151.964 13.9205 152.492 13.8965C153.044 13.8485 153.464 13.8125 153.752 13.7885C154.088 13.7405 154.424 13.6685 154.76 13.5725C155.096 13.4525 155.432 13.4165 155.768 13.4645C156.104 13.5125 156.416 13.6325 156.704 13.8245C157.016 13.9925 157.28 14.1725 157.496 14.3645C158.072 14.8685 158.384 15.3845 158.432 15.9125C158.456 16.2725 158.396 16.5605 158.252 16.7765C158.108 16.9925 158 17.2325 157.928 17.4965C157.568 18.7205 157.136 19.9565 156.632 21.2045C156.128 22.4285 155.552 23.6285 154.904 24.8045C154.28 25.9565 153.584 27.0605 152.816 28.1165C152.072 29.1725 151.268 30.1325 150.404 30.9965C149.684 31.7165 148.964 32.2205 148.244 32.5085C147.524 32.7725 146.792 32.9525 146.048 33.0485C145.64 33.0965 145.28 33.1085 144.968 33.0845C144.656 33.0365 144.368 32.9645 144.104 32.8685C143.84 32.7725 143.588 32.6525 143.348 32.5085C143.108 32.3645 142.844 32.1965 142.556 32.0045C142.268 31.8365 141.992 31.7165 141.728 31.6445C141.464 31.5485 141.212 31.4885 140.972 31.4645C140.732 31.4405 140.504 31.4285 140.288 31.4285C140.072 31.4045 139.868 31.3685 139.676 31.3205Z" stroke="white" stroke-width="4" stroke-linejoin="round" mask="url(#path-1-outside-1_11_49)"/>
</svg>
