<svg width="360" height="526" viewBox="0 0 360 526" fill="none" xmlns="http://www.w3.org/2000/svg">
<g clip-path="url(#clip0_11_28)">
<rect width="360" height="526" fill="#FF9DC7"/>
<g opacity="0.6" clip-path="url(#clip1_11_28)">
<g clip-path="url(#clip2_11_28)">
<path d="M93.9111 -83H266.089L201.116 241.865H158.884L93.9111 -83Z" fill="#FFCEE3"/>
<path d="M525.963 177L525.963 349.178L201.098 284.205L201.098 241.973L525.963 177Z" fill="#FFCEE3"/>
<path d="M266.09 608.962L93.9116 608.962L158.885 284.097L201.117 284.097L266.09 608.962Z" fill="#FFCEE3"/>
<path d="M-165.999 349.183L-165.999 177.004L158.866 241.977L158.866 284.21L-165.999 349.183Z" fill="#FFCEE3"/>
</g>
<g clip-path="url(#clip3_11_28)">
<path d="M-125.999 79.2295L-4.25063 -42.5189L179.521 233.138L149.658 263.001L-125.999 79.2295Z" fill="#FFCEE3"/>
<path d="M367.291 -42.5078L489.04 79.2406L213.383 263.012L183.52 233.149L367.291 -42.5078Z" fill="#FFCEE3"/>
<path d="M485.039 446.779L363.291 568.528L179.52 292.871L209.382 263.008L485.039 446.779Z" fill="#FFCEE3"/>
<path d="M-0.250671 568.518L-121.999 446.769L153.658 262.998L183.52 292.861L-0.250671 568.518Z" fill="#FFCEE3"/>
<circle cx="183.501" cy="262.5" r="31.5" fill="#FFCEE3"/>
</g>
</g>
</g>
<defs>
<clipPath id="clip0_11_28">
<rect width="360" height="526" fill="white"/>
</clipPath>
<clipPath id="clip1_11_28">
<rect width="804" height="804" fill="white" transform="translate(-221.999 -139)"/>
</clipPath>
<clipPath id="clip2_11_28">
<rect width="692" height="692" fill="white" transform="translate(-165.999 -83)"/>
</clipPath>
<clipPath id="clip3_11_28">
<rect width="691.952" height="691.966" fill="white" transform="translate(-309.287 262.999) rotate(-45)"/>
</clipPath>
</defs>
</svg>
