<svg width="132" height="124" viewBox="0 0 132 124" fill="none" xmlns="http://www.w3.org/2000/svg">
<path d="M29.7753 61.483C26.7214 64.0407 20.5333 61.8124 16.7168 55.9272" stroke="#1C222B" stroke-width="1.44927"/>
<circle cx="16.7638" cy="56.2028" r="4.34782" fill="#1C222B"/>
<g filter="url(#filter0_i_267_5838)">
<path d="M26.9092 27.942C26.9092 19.1375 34.0467 12 42.8512 12H97.9236C106.728 12 113.866 19.1375 113.866 27.942V83.0144C113.866 91.819 106.728 98.9564 97.9236 98.9564H42.8512C34.0467 98.9564 26.9092 91.819 26.9092 83.0144V27.942Z" fill="white"/>
</g>
<path d="M27.6338 27.942C27.6338 19.5377 34.4469 12.7246 42.8512 12.7246H97.9236C106.328 12.7246 113.141 19.5377 113.141 27.942V83.0144C113.141 91.4188 106.328 98.2318 97.9236 98.2318H42.8512C34.4469 98.2318 27.6338 91.4188 27.6338 83.0144V27.942Z" stroke="#1C222B" stroke-width="1.44927"/>
<path d="M58.0686 43.1595C58.0686 44.7604 56.7709 46.0581 55.17 46.0581C53.5692 46.0581 52.2715 44.7604 52.2715 43.1595C52.2715 41.5587 53.5692 40.261 55.17 40.261C56.7709 40.261 58.0686 41.5587 58.0686 43.1595Z" fill="#1C222B"/>
<path d="M61.9941 57.742L60.9209 56.5041C60.5668 56.0958 60.6165 55.4764 61.0312 55.1297L64.8393 51.9463C65.1907 51.6525 65.7001 51.6458 66.0591 51.9302L69.675 54.7944C70.0936 55.1261 70.1638 55.7344 69.8318 56.1527L68.6853 57.5969C66.9924 59.7297 63.778 59.7994 61.9941 57.742Z" fill="#FF6661"/>
<path d="M79.8088 43.1595C79.8088 44.7604 78.5111 46.0581 76.9103 46.0581C75.3094 46.0581 74.0117 44.7604 74.0117 43.1595C74.0117 41.5587 75.3094 40.261 76.9103 40.261C78.5111 40.261 79.8088 41.5587 79.8088 43.1595Z" fill="#1C222B"/>
<path d="M58.0684 50.4058L60.5855 54.4331C61.0963 55.2505 62.2868 55.2505 62.7976 54.4331L65.3147 50.4058L67.8318 54.4331C68.3427 55.2505 69.5331 55.2505 70.044 54.4331L72.5611 50.4058" stroke="#1C222B" stroke-width="2.17391" stroke-linecap="round" stroke-linejoin="round"/>
<path d="M74.7363 38.063C75.6565 38.1999 78.1042 37.8166 80.5334 35.1885" stroke="#1C222B" stroke-width="2.17391" stroke-linecap="round"/>
<path d="M51.556 37.4765C52.3495 36.9908 54.7522 36.3868 58.0155 37.8562" stroke="#1C222B" stroke-width="2.17391" stroke-linecap="round"/>
<path d="M27.6338 51.855C30.5 54.0198 56.3183 65.9814 65.3149 72.8695L113.141 51.855" stroke="#1C222B" stroke-width="1.44927" stroke-linecap="round"/>
<mask id="path-12-inside-1_267_5838" fill="white">
<rect x="59.5186" y="72.145" width="11.5942" height="15.942" rx="1.08696"/>
</mask>
<rect x="59.5186" y="72.145" width="11.5942" height="15.942" rx="1.08696" fill="#EAC0FF"/>
<rect x="59.5186" y="72.145" width="11.5942" height="15.942" rx="1.08696" stroke="#1C222B" stroke-width="2.89855" mask="url(#path-12-inside-1_267_5838)"/>
<rect x="60.2441" y="77" width="10.1449" height="10.8696" fill="#F9EEFF"/>
<path d="M72.6803 44.2022L69.2604 43.2588C67.2205 42.6961 65.0662 42.6961 63.0263 43.2588L59.6064 44.2022" stroke="#BB4EF2" stroke-width="1.44263" stroke-linejoin="round"/>
<path d="M113.27 56.5384C117.213 57.1057 119.683 63.201 117.848 69.9709" stroke="#1C222B" stroke-width="1.44927"/>
<circle cx="118.118" cy="68.3942" r="4.34782" transform="rotate(2.4362 118.118 68.3942)" fill="#1C222B"/>
<path d="M74.0107 108.706C74.0107 106.523 75.7804 104.754 77.9633 104.754H84.1557C85.7565 104.754 87.0542 106.051 87.0542 107.652V109.101C87.0542 110.702 85.7565 112 84.1557 112H77.3045C75.4854 112 74.0107 110.525 74.0107 108.706Z" fill="#1C222B"/>
<path d="M55.1689 98.9565V110.551" stroke="#1C222B" stroke-width="1.44927"/>
<path d="M84.1553 98.9565V110.551" stroke="#1C222B" stroke-width="1.44927"/>
<path d="M45.75 108.706C45.75 106.523 47.5196 104.753 49.7026 104.753H55.8949C57.4957 104.753 58.7935 106.051 58.7935 107.652V109.101C58.7935 110.702 57.4957 112 55.8949 112H49.0438C47.2247 112 45.75 110.525 45.75 108.706Z" fill="#1C222B"/>
<path d="M72.9508 41.0464C72.9508 40.4489 73.4352 39.9645 74.0328 39.9645H82.1476C82.7451 39.9645 83.2295 40.4489 83.2295 41.0464V46.4596C83.2295 47.0553 82.7466 47.5383 82.1508 47.5383H74.0328C73.4352 47.5383 72.9508 47.0539 72.9508 46.4563V41.0464Z" fill="url(#paint0_linear_267_5838)" stroke="#BB4EF2" stroke-width="1.44263" stroke-linejoin="round"/>
<rect x="49.5074" y="39.9645" width="10.2787" height="7.57379" rx="1.08197" fill="url(#paint1_linear_267_5838)" stroke="#BB4EF2" stroke-width="1.44263" stroke-linejoin="round"/>
<rect x="11.8604" y="27.522" width="15.8705" height="30.1539" rx="2.38057" transform="rotate(21.1094 11.8604 27.522)" fill="#4D5564"/>
<path d="M12.3399 30.6846C12.5766 30.0714 13.2657 29.7661 13.879 30.0029L15.5446 30.6459C15.8512 30.7643 16.0038 31.1088 15.8855 31.4155C15.7671 31.7221 15.9197 32.0666 16.2263 32.185L20.2978 33.7568C20.6045 33.8752 20.949 33.7226 21.0674 33.416C21.1858 33.1094 21.5303 32.9567 21.8369 33.0751L23.5025 33.7181C24.1158 33.9549 24.421 34.644 24.1843 35.2572L15.3249 58.2058C15.0881 58.819 14.399 59.1242 13.7858 58.8875L4.16219 55.1722C3.54892 54.9355 3.2437 54.2464 3.48046 53.6331L12.3399 30.6846Z" fill="#C6E1FF"/>
<rect x="14.5244" y="54.5391" width="3.7869" height="5.36044" rx="1.89345" transform="rotate(-44.8933 14.5244 54.5391)" fill="#1C222B"/>
<defs>
<filter id="filter0_i_267_5838" x="26.9092" y="12" width="86.9564" height="86.9565" filterUnits="userSpaceOnUse" color-interpolation-filters="sRGB">
<feFlood flood-opacity="0" result="BackgroundImageFix"/>
<feBlend mode="normal" in="SourceGraphic" in2="BackgroundImageFix" result="shape"/>
<feColorMatrix in="SourceAlpha" type="matrix" values="0 0 0 0 0 0 0 0 0 0 0 0 0 0 0 0 0 0 127 0" result="hardAlpha"/>
<feOffset dx="-5.7971" dy="-5.7971"/>
<feComposite in2="hardAlpha" operator="arithmetic" k2="-1" k3="1"/>
<feColorMatrix type="matrix" values="0 0 0 0 0.898039 0 0 0 0 0.913725 0 0 0 0 0.94902 0 0 0 1 0"/>
<feBlend mode="normal" in2="shape" result="effect1_innerShadow_267_5838"/>
</filter>
<linearGradient id="paint0_linear_267_5838" x1="82.5984" y1="47.3579" x2="76.2869" y2="43.7514" gradientUnits="userSpaceOnUse">
<stop stop-color="#D4E8FF"/>
<stop offset="0.902043" stop-color="#D4E8FF" stop-opacity="0"/>
</linearGradient>
<linearGradient id="paint1_linear_267_5838" x1="59.155" y1="47.3579" x2="52.8435" y2="43.7514" gradientUnits="userSpaceOnUse">
<stop stop-color="#D4E8FF"/>
<stop offset="0.902043" stop-color="#D4E8FF" stop-opacity="0"/>
</linearGradient>
</defs>
</svg>
