<svg width="25" height="24" viewBox="0 0 25 24" fill="none" xmlns="http://www.w3.org/2000/svg">
<circle cx="12.6427" cy="11.9551" r="11.8412" fill="#D98DFF"/>
<rect x="5.4578" y="4.77042" width="14.3698" height="14.3698" rx="2.8678" fill="white" stroke="#5C6475" stroke-width="0.431711"/>
<path d="M10.9689 10.9595C10.9689 11.2272 10.752 11.4441 10.4843 11.4441C10.2167 11.4441 9.99976 11.2272 9.99976 10.9595C9.99976 10.6919 10.2167 10.475 10.4843 10.475C10.752 10.475 10.9689 10.6919 10.9689 10.9595Z" fill="#1C222B"/>
<path d="M14.6693 10.9595C14.6693 11.2272 14.4524 11.4441 14.1848 11.4441C13.9171 11.4441 13.7002 11.2272 13.7002 10.9595C13.7002 10.6919 13.9171 10.475 14.1848 10.475C14.4524 10.475 14.6693 10.6919 14.6693 10.9595Z" fill="#1C222B"/>
<path fill-rule="evenodd" clip-rule="evenodd" d="M11.1325 12.0461C11.2079 11.999 11.3071 12.0219 11.3542 12.0972L11.7268 12.6934C11.7394 12.7135 11.7688 12.7135 11.7814 12.6934L12.154 12.0972C12.1834 12.0502 12.2349 12.0216 12.2904 12.0216C12.3459 12.0216 12.3974 12.0502 12.4268 12.0972L12.7994 12.6934C12.812 12.7135 12.8414 12.7135 12.854 12.6934L13.2266 12.0972C13.2737 12.0219 13.3729 11.999 13.4483 12.0461C13.5237 12.0932 13.5466 12.1924 13.4995 12.2678L13.1269 12.8639C12.9882 13.0857 12.6652 13.0857 12.5266 12.8639L12.2904 12.4861L12.0543 12.8639C11.9156 13.0857 11.5926 13.0857 11.4539 12.8639L11.0814 12.2678C11.0343 12.1924 11.0572 12.0932 11.1325 12.0461Z" fill="#1C222B"/>
<ellipse cx="9.73532" cy="11.9725" rx="0.792939" ry="0.440522" fill="#FBBAF9"/>
<ellipse cx="14.9336" cy="11.9725" rx="0.792939" ry="0.440522" fill="#FBBAF9"/>
</svg>
