<svg width="128" height="128" viewBox="0 0 128 128" fill="none" xmlns="http://www.w3.org/2000/svg">
<ellipse cx="64.4986" cy="119.644" rx="51.8843" ry="8.35541" fill="#CED5E4"/>
<g filter="url(#filter0_i_961_77897)">
<rect x="10.999" y="0.242188" width="107" height="106.241" rx="19.536" fill="white"/>
</g>
<path fill-rule="evenodd" clip-rule="evenodd" d="M98.3824 2.01287H30.6157C20.7666 2.01287 12.7824 9.94048 12.7824 19.7197V87.0056C12.7824 96.7848 20.7666 104.712 30.6157 104.712H98.3824C108.231 104.712 116.216 96.7848 116.216 87.0056V19.7197C116.216 9.94048 108.231 2.01287 98.3824 2.01287ZM30.6157 0.242188C19.7817 0.242188 10.999 8.96256 10.999 19.7197V87.0056C10.999 97.7627 19.7817 106.483 30.6157 106.483H98.3824C109.216 106.483 117.999 97.7627 117.999 87.0056V19.7197C117.999 8.96256 109.216 0.242188 98.3824 0.242188H30.6157Z" fill="#1C222B"/>
<path d="M60.4772 52.9073L59.1452 51.382C58.7076 50.8808 58.7675 50.1198 59.278 49.696L63.968 45.8032C64.3976 45.4467 65.0195 45.4393 65.4597 45.7856L69.9068 49.2833C70.4242 49.6903 70.512 50.4388 70.1025 50.951L68.6678 52.7455C66.5948 55.3386 62.668 55.4161 60.4772 52.9073Z" fill="#FF6661"/>
<path fill-rule="evenodd" clip-rule="evenodd" d="M54.8739 42.8036C55.5003 42.4149 56.3255 42.604 56.717 43.2259L59.8143 48.1464C59.9191 48.3129 60.1632 48.3129 60.268 48.1464L63.3653 43.2259C63.6097 42.8376 64.0383 42.6017 64.4995 42.6017C64.9606 42.6017 65.3892 42.8376 65.6337 43.2259L68.731 48.1464C68.8357 48.3129 69.0799 48.3129 69.1846 48.1464L72.2819 43.2259C72.6734 42.604 73.4986 42.4149 74.125 42.8036C74.7514 43.1923 74.9418 44.0116 74.5503 44.6336L71.453 49.5541C70.3005 51.385 67.615 51.385 66.4626 49.5541L64.4995 46.4354L62.5364 49.5541C61.3839 51.385 58.6984 51.385 57.5459 49.5541L54.4486 44.6336C54.0571 44.0116 54.2475 43.1923 54.8739 42.8036Z" fill="#1C222B"/>
<path fill-rule="evenodd" clip-rule="evenodd" d="M40.9562 59.2982C38.9102 60.8479 36.8528 61.414 35.1678 61.0348C34.6919 60.9277 34.1675 61.1135 33.9629 61.5567C33.7571 62.0025 33.9521 62.537 34.4234 62.6735C36.8747 63.3836 39.6349 62.5262 42.0378 60.7059C44.557 58.7977 46.8194 55.749 48.2133 51.9126C48.3818 51.4488 48.1206 50.9457 47.6504 50.7973C47.182 50.6493 46.6834 50.9095 46.5142 51.371C45.2219 54.8956 43.1599 57.6289 40.9562 59.2982Z" fill="#1C222B"/>
<ellipse cx="5.34054" cy="5.32156" rx="5.34054" ry="5.32156" transform="matrix(0.86756 0.497333 0.502672 -0.864477 40.0732 53.6094)" fill="#1C222B"/>
<path d="M55.7687 34.4207C54.7983 34.0761 52.8425 33.9314 51.0247 35.1839C49.4524 36.2672 48.1647 38.5192 46.4795 37.6215V37.6215" stroke="#1C222B" stroke-width="2.3976" stroke-linecap="round"/>
<path d="M73.2293 34.4207C74.1997 34.0761 76.1556 33.9314 77.9733 35.1839C79.5457 36.2672 80.8334 38.5192 82.5186 37.6215V37.6215" stroke="#1C222B" stroke-width="2.3976" stroke-linecap="round"/>
<path d="M12.3369 54.875C16.9844 57.1428 52.6522 74.5328 64.7324 80.4238L117.037 54.875" stroke="#1C222B" stroke-width="1.76727" stroke-linecap="round"/>
<g clip-path="url(#clip0_961_77897)">
<mask id="path-11-inside-1_961_77897" fill="white">
<rect x="57.4004" y="79.5391" width="14.1966" height="19.3818" rx="1.32546"/>
</mask>
<rect x="57.4004" y="79.5391" width="14.1966" height="19.3818" rx="1.32546" fill="#FF9DC7"/>
<rect x="58.2842" y="84.8438" width="12.3709" height="13.2546" fill="#FFF0F7"/>
</g>
<rect x="57.4004" y="79.5391" width="14.1966" height="19.3818" rx="1.32546" stroke="#1C222B" stroke-width="3.53455" mask="url(#path-11-inside-1_961_77897)"/>
<path fill-rule="evenodd" clip-rule="evenodd" d="M86.6669 58.5636C88.6338 60.2113 90.6608 60.8768 92.3626 60.5801C92.8432 60.4963 93.3576 60.7075 93.5401 61.1601C93.7236 61.6154 93.5025 62.1398 93.025 62.2532C90.5416 62.843 87.8271 61.8521 85.517 59.917C83.0952 57.8883 80.9862 54.7331 79.7836 50.8334C79.6382 50.3619 79.924 49.8721 80.401 49.7467C80.8761 49.6218 81.3612 49.906 81.5074 50.3752C82.624 53.9585 84.5484 56.789 86.6669 58.5636Z" fill="#1C222B"/>
<ellipse cx="5.3419" cy="5.3202" rx="5.3419" ry="5.3202" transform="matrix(-0.887841 0.46015 -0.465328 -0.885138 88.2979 53.8281)" fill="#1C222B"/>
<path d="M73.416 118.837C73.416 116.17 75.5781 114.008 78.2451 114.008H84.6369C87.3039 114.008 89.466 116.17 89.466 118.837C89.466 121.059 87.6643 122.861 85.4417 122.861H77.4403C75.2177 122.861 73.416 121.059 73.416 118.837Z" fill="#1C222B"/>
<path fill-rule="evenodd" clip-rule="evenodd" d="M44.8818 120.65V106.484H46.6652V120.65H44.8818Z" fill="#1C222B"/>
<path fill-rule="evenodd" clip-rule="evenodd" d="M80.5488 120.65V106.484H82.3322V120.65H80.5488Z" fill="#1C222B"/>
<path d="M37.749 118.837C37.749 116.17 39.9111 114.008 42.5782 114.008H48.9699C51.6369 114.008 53.799 116.17 53.799 118.837C53.799 121.059 51.9973 122.861 49.7747 122.861H41.7733C39.5508 122.861 37.749 121.059 37.749 118.837Z" fill="#1C222B"/>
<defs>
<filter id="filter0_i_961_77897" x="10.999" y="0.242188" width="107" height="106.242" filterUnits="userSpaceOnUse" color-interpolation-filters="sRGB">
<feFlood flood-opacity="0" result="BackgroundImageFix"/>
<feBlend mode="normal" in="SourceGraphic" in2="BackgroundImageFix" result="shape"/>
<feColorMatrix in="SourceAlpha" type="matrix" values="0 0 0 0 0 0 0 0 0 0 0 0 0 0 0 0 0 0 127 0" result="hardAlpha"/>
<feOffset dx="-1.77156" dy="-7.10399"/>
<feComposite in2="hardAlpha" operator="arithmetic" k2="-1" k3="1"/>
<feColorMatrix type="matrix" values="0 0 0 0 0.898039 0 0 0 0 0.913725 0 0 0 0 0.94902 0 0 0 1 0"/>
<feBlend mode="normal" in2="shape" result="effect1_innerShadow_961_77897"/>
</filter>
<clipPath id="clip0_961_77897">
<rect x="57.4004" y="79.5391" width="14.1966" height="19.3818" rx="1.32546" fill="white"/>
</clipPath>
</defs>
</svg>
