<svg width="80" height="80" viewBox="0 0 80 80" fill="none" xmlns="http://www.w3.org/2000/svg">
<g filter="url(#filter0_i_1_5)">
<rect width="80" height="80" rx="14.6667" fill="white"/>
</g>
<path d="M34.4765 9.3617C34.4765 10.0714 33.9012 10.6468 33.1915 10.6468C32.4818 10.6468 31.9064 10.0714 31.9064 9.3617C31.9064 8.65199 32.4818 8.07665 33.1915 8.07665C33.9012 8.07665 34.4765 8.65199 34.4765 9.3617Z" fill="#ACB6CA" stroke="#ACB6CA" stroke-width="0.834153"/>
<path d="M33.1915 8.7232C33.1915 9.07572 32.9057 9.3615 32.5532 9.3615C32.2007 9.3615 31.9149 9.07572 31.9149 8.7232C31.9149 8.37068 32.2007 8.0849 32.5532 8.0849C32.9057 8.0849 33.1915 8.37068 33.1915 8.7232Z" fill="white"/>
<path d="M34.4681 10.0002C34.4681 10.3527 34.1823 10.6385 33.8298 10.6385C33.4773 10.6385 33.1915 10.3527 33.1915 10.0002C33.1915 9.64769 33.4773 9.36191 33.8298 9.36191C34.1823 9.36191 34.4681 9.64769 34.4681 10.0002Z" fill="white"/>
<path d="M48.0936 9.3617C48.0936 10.0714 47.5182 10.6468 46.8085 10.6468C46.0988 10.6468 45.5235 10.0714 45.5235 9.3617C45.5235 8.65199 46.0988 8.07665 46.8085 8.07665C47.5182 8.07665 48.0936 8.65199 48.0936 9.3617Z" fill="#ACB6CA" stroke="#ACB6CA" stroke-width="0.834153"/>
<path d="M46.8085 8.7234C46.8085 9.07593 46.5227 9.3617 46.1702 9.3617C45.8177 9.3617 45.5319 9.07593 45.5319 8.7234C45.5319 8.37088 45.8177 8.08511 46.1702 8.08511C46.5227 8.08511 46.8085 8.37088 46.8085 8.7234Z" fill="white"/>
<path d="M48.0855 9.99979C48.0855 10.3523 47.7997 10.6381 47.4472 10.6381C47.0947 10.6381 46.8089 10.3523 46.8089 9.99979C46.8089 9.64727 47.0947 9.36149 47.4472 9.36149C47.7997 9.36149 48.0855 9.64727 48.0855 9.99979Z" fill="white"/>
<path d="M35.7447 13.6168L37.2228 15.9818C37.5228 16.4618 38.2219 16.4618 38.5219 15.9818L40 13.6168L41.4781 15.9818C41.7781 16.4618 42.4772 16.4618 42.7772 15.9818L44.2553 13.6168" stroke="#ACB6CA" stroke-width="1.2766" stroke-linecap="round" stroke-linejoin="round"/>
<defs>
<filter id="filter0_i_1_5" x="0" y="0" width="80" height="80" filterUnits="userSpaceOnUse" color-interpolation-filters="sRGB">
<feFlood flood-opacity="0" result="BackgroundImageFix"/>
<feBlend mode="normal" in="SourceGraphic" in2="BackgroundImageFix" result="shape"/>
<feColorMatrix in="SourceAlpha" type="matrix" values="0 0 0 0 0 0 0 0 0 0 0 0 0 0 0 0 0 0 127 0" result="hardAlpha"/>
<feOffset dy="-5.33333"/>
<feComposite in2="hardAlpha" operator="arithmetic" k2="-1" k3="1"/>
<feColorMatrix type="matrix" values="0 0 0 0 0.898039 0 0 0 0 0.913725 0 0 0 0 0.94902 0 0 0 1 0"/>
<feBlend mode="normal" in2="shape" result="effect1_innerShadow_1_5"/>
</filter>
</defs>
</svg>
