<svg width="120" height="120" viewBox="0 0 120 120" fill="none" xmlns="http://www.w3.org/2000/svg">
<path fill-rule="evenodd" clip-rule="evenodd" d="M18.6213 57.9537C19.49 55.8727 20.8779 54.6671 22.3612 54.5275L22.2363 53.2C20.0709 53.4038 18.3617 55.1145 17.3908 57.44C16.412 59.7845 16.1183 62.8741 16.8344 66.1429L18.1368 65.8575C17.472 62.8226 17.7604 60.0156 18.6213 57.9537Z" fill="#1C222B"/>
<circle cx="4" cy="4" r="4" transform="matrix(-1 0 0 1 21.3335 61.334)" fill="#1C222B"/>
<g filter="url(#filter0_i_655_16311)">
<rect x="20" y="13.334" width="80" height="80" rx="14.6667" fill="white"/>
</g>
<path fill-rule="evenodd" clip-rule="evenodd" d="M85.3333 14.6673H34.6667C27.3029 14.6673 21.3333 20.6369 21.3333 28.0007V78.6673C21.3333 86.0311 27.3029 92.0007 34.6667 92.0007H85.3333C92.6971 92.0007 98.6667 86.0311 98.6667 78.6673V28.0007C98.6667 20.6369 92.6971 14.6673 85.3333 14.6673ZM34.6667 13.334C26.5665 13.334 20 19.9005 20 28.0007V78.6673C20 86.7675 26.5665 93.334 34.6667 93.334H85.3333C93.4335 93.334 100 86.7675 100 78.6673V28.0007C100 19.9005 93.4335 13.334 85.3333 13.334H34.6667Z" fill="#1C222B"/>
<path d="M43.3333 37.3346C43.3333 38.8074 42.1394 40.0013 40.6667 40.0013C39.1939 40.0013 38 38.8074 38 37.3346C38 35.8619 39.1939 34.668 40.6667 34.668C42.1394 34.668 43.3333 35.8619 43.3333 37.3346Z" fill="#1C222B"/>
<path d="M46.944 50.7499L45.9566 49.6111C45.6309 49.2354 45.6766 48.6656 46.0581 48.3466L49.5616 45.4179C49.8849 45.1476 50.3535 45.1414 50.6838 45.4031L54.0104 48.0382C54.3955 48.3433 54.4602 48.9029 54.1547 49.2878L53.1 50.6165C51.5424 52.5786 48.5852 52.6427 46.944 50.7499Z" fill="#FF6661"/>
<path d="M63.3333 37.3346C63.3333 38.8074 62.1394 40.0013 60.6667 40.0013C59.1939 40.0013 58 38.8074 58 37.3346C58 35.8619 59.1939 34.668 60.6667 34.668C62.1394 34.668 63.3333 35.8619 63.3333 37.3346Z" fill="#1C222B"/>
<path fill-rule="evenodd" clip-rule="evenodd" d="M42.8036 43.1521C43.272 42.8594 43.8889 43.0018 44.1816 43.4701L46.4974 47.1753C46.5757 47.3006 46.7582 47.3006 46.8366 47.1753L49.1523 43.4701C49.335 43.1778 49.6555 43.0001 50.0003 43.0001C50.3451 43.0001 50.6656 43.1778 50.8483 43.4701L53.164 47.1753C53.2424 47.3006 53.4249 47.3006 53.5032 47.1753L55.819 43.4701C56.1117 43.0018 56.7286 42.8594 57.197 43.1521C57.6653 43.4448 57.8077 44.0618 57.515 44.5301L55.1992 48.2353C54.3376 49.614 52.3297 49.614 51.468 48.2353L50.0003 45.8869L48.5326 48.2353C47.6709 49.614 45.663 49.614 44.8014 48.2353L42.4856 44.5301C42.1929 44.0618 42.3353 43.4448 42.8036 43.1521Z" fill="#1C222B"/>
<path fill-rule="evenodd" clip-rule="evenodd" d="M99.9453 47.7362C100.091 48.0742 99.9359 48.4666 99.598 48.6127L49.9055 70.1014L49.5948 69.8635C45.4834 66.7157 38.8341 62.3956 32.8609 58.6007C31.1158 57.492 29.4248 56.426 27.8725 55.4474C24.1438 53.0969 21.2161 51.2512 20.2649 50.5328C19.9711 50.3109 19.9128 49.8928 20.1347 49.599C20.3566 49.3052 20.7747 49.2469 21.0685 49.4688C21.9721 50.1513 24.8027 51.9358 28.4804 54.2542C30.0523 55.2452 31.7789 56.3336 33.5759 57.4753C39.3942 61.1717 45.9108 65.402 50.0934 68.5674L99.0688 47.3889C99.4067 47.2428 99.7991 47.3983 99.9453 47.7362Z" fill="#1C222B"/>
<mask id="path-10-inside-1_655_16311" fill="white">
<rect x="44.6665" y="68.668" width="10.6667" height="14.6667" rx="1"/>
</mask>
<rect x="44.6665" y="68.668" width="10.6667" height="14.6667" rx="1" fill="#FFF381"/>
<rect x="44.6665" y="68.668" width="10.6667" height="14.6667" rx="1" stroke="#1C222B" stroke-width="2.66667" mask="url(#path-10-inside-1_655_16311)"/>
<path d="M45.3335 72.668H54.6668V82.668H45.3335V72.668Z" fill="#FFFDE9"/>
<path fill-rule="evenodd" clip-rule="evenodd" d="M102.924 58.5749C102.158 56.4537 100.831 55.1815 99.3563 54.9693L99.5462 53.6496C101.699 53.9593 103.322 55.7519 104.178 58.1222C105.04 60.5119 105.182 63.6122 104.306 66.8419L103.02 66.493C103.833 63.4943 103.682 60.6766 102.924 58.5749Z" fill="#1C222B"/>
<circle cx="103.912" cy="65.2152" r="4" transform="rotate(2.4362 103.912 65.2152)" fill="#1C222B"/>
<path d="M63.3335 102.302C63.3335 100.294 64.9616 98.666 66.9699 98.666H72.6668C74.1396 98.666 75.3335 99.8599 75.3335 101.333V102.666C75.3335 104.139 74.1396 105.333 72.6668 105.333H66.3638C64.6902 105.333 63.3335 103.976 63.3335 102.302Z" fill="#1C222B"/>
<path fill-rule="evenodd" clip-rule="evenodd" d="M45.3335 104.001V93.334H46.6668V104.001H45.3335Z" fill="#1C222B"/>
<path fill-rule="evenodd" clip-rule="evenodd" d="M72 104.001V93.334H73.3333V104.001H72Z" fill="#1C222B"/>
<path d="M37.3335 102.302C37.3335 100.294 38.9616 98.666 40.9699 98.666H46.6668C48.1396 98.666 49.3335 99.8599 49.3335 101.333V102.666C49.3335 104.139 48.1396 105.333 46.6668 105.333H40.3638C38.6902 105.333 37.3335 103.976 37.3335 102.302Z" fill="#1C222B"/>
<defs>
<filter id="filter0_i_655_16311" x="20" y="13.334" width="80" height="80" filterUnits="userSpaceOnUse" color-interpolation-filters="sRGB">
<feFlood flood-opacity="0" result="BackgroundImageFix"/>
<feBlend mode="normal" in="SourceGraphic" in2="BackgroundImageFix" result="shape"/>
<feColorMatrix in="SourceAlpha" type="matrix" values="0 0 0 0 0 0 0 0 0 0 0 0 0 0 0 0 0 0 127 0" result="hardAlpha"/>
<feOffset dx="-5.33333" dy="-5.33333"/>
<feComposite in2="hardAlpha" operator="arithmetic" k2="-1" k3="1"/>
<feColorMatrix type="matrix" values="0 0 0 0 0.898039 0 0 0 0 0.913725 0 0 0 0 0.94902 0 0 0 1 0"/>
<feBlend mode="normal" in2="shape" result="effect1_innerShadow_655_16311"/>
</filter>
</defs>
</svg>
