<svg width="72" height="72" viewBox="0 0 72 72" fill="none" xmlns="http://www.w3.org/2000/svg">
<g filter="url(#filter0_i_1161_38374)">
<rect width="72" height="72" rx="13.2" fill="white"/>
</g>
<rect x="0.75" y="0.75" width="70.5" height="70.5" rx="12.45" stroke="#1C222B" stroke-width="1.5"/>
<path d="M22 17.9102C21.7439 18.8491 20.7196 20.7269 18.6711 20.7269" stroke="#1C222B" stroke-width="1.5" stroke-linecap="round" stroke-linejoin="round"/>
<path d="M40.8179 17.9102C41.074 18.8491 42.0982 20.7269 44.1467 20.7269" stroke="#1C222B" stroke-width="1.5" stroke-linecap="round" stroke-linejoin="round"/>
<path d="M24.8 22.4C24.8 23.7255 23.7255 24.8 22.4 24.8C21.0745 24.8 20 23.7255 20 22.4C20 21.0745 21.0745 20 22.4 20C23.7255 20 24.8 21.0745 24.8 22.4Z" fill="#1C222B"/>
<path d="M22 21.7266C22 22.2788 22.4477 22.7266 23 22.7266C23.5523 22.7266 24 22.2788 24 21.7266C24 21.1743 23.5523 20.7266 23 20.7266C22.4477 20.7266 22 21.1743 22 21.7266Z" fill="white"/>
<path d="M21 23.4009C21 23.7733 21.3019 24.0752 21.6743 24.0752C22.0467 24.0752 22.3486 23.7733 22.3486 23.4009C22.3486 23.0285 22.0467 22.7266 21.6743 22.7266C21.3019 22.7266 21 23.0285 21 23.4009Z" fill="white"/>
<path d="M42.8 22.4C42.8 23.7255 41.7255 24.8 40.4 24.8C39.0745 24.8 38 23.7255 38 22.4C38 21.0745 39.0745 20 40.4 20C41.7255 20 42.8 21.0745 42.8 22.4Z" fill="#1C222B"/>
<path fill-rule="evenodd" clip-rule="evenodd" d="M24.323 27.6369C24.7445 27.3735 25.2998 27.5016 25.5632 27.9231L27.6474 31.2578C27.7179 31.3706 27.8822 31.3706 27.9527 31.2578L30.0368 27.9231C30.2013 27.66 30.4897 27.5001 30.8 27.5001C31.1103 27.5001 31.3988 27.66 31.5632 27.9231L33.6474 31.2578C33.7179 31.3706 33.8822 31.3706 33.9527 31.2578L36.0368 27.9231C36.3003 27.5016 36.8555 27.3735 37.277 27.6369C37.6985 27.9004 37.8267 28.4556 37.5632 28.8771L35.4791 32.2118C34.7036 33.4526 32.8965 33.4526 32.121 32.2118L30.8 30.0982L29.4791 32.2118C28.7036 33.4526 26.8965 33.4526 26.121 32.2118L24.0368 28.8771C23.7734 28.4556 23.9015 27.9004 24.323 27.6369Z" fill="#1C222B"/>
<path d="M40.1049 21.7266C40.1049 22.2788 40.5526 22.7266 41.1049 22.7266C41.6571 22.7266 42.1049 22.2788 42.1049 21.7266C42.1049 21.1743 41.6571 20.7266 41.1049 20.7266C40.5526 20.7266 40.1049 21.1743 40.1049 21.7266Z" fill="white"/>
<path d="M39.1049 23.4009C39.1049 23.7733 39.4068 24.0752 39.7792 24.0752C40.1516 24.0752 40.4535 23.7733 40.4535 23.4009C40.4535 23.0285 40.1516 22.7266 39.7792 22.7266C39.4068 22.7266 39.1049 23.0285 39.1049 23.4009Z" fill="white"/>
<ellipse cx="43.4595" cy="24.457" rx="2" ry="1.25" fill="#8CC4FF"/>
<ellipse cx="19.1997" cy="24.457" rx="2" ry="1.25" fill="#8CC4FF"/>
<defs>
<filter id="filter0_i_1161_38374" x="0" y="0" width="72" height="72" filterUnits="userSpaceOnUse" color-interpolation-filters="sRGB">
<feFlood flood-opacity="0" result="BackgroundImageFix"/>
<feBlend mode="normal" in="SourceGraphic" in2="BackgroundImageFix" result="shape"/>
<feColorMatrix in="SourceAlpha" type="matrix" values="0 0 0 0 0 0 0 0 0 0 0 0 0 0 0 0 0 0 127 0" result="hardAlpha"/>
<feOffset dx="-5" dy="-5"/>
<feComposite in2="hardAlpha" operator="arithmetic" k2="-1" k3="1"/>
<feColorMatrix type="matrix" values="0 0 0 0 0.898039 0 0 0 0 0.913725 0 0 0 0 0.94902 0 0 0 1 0"/>
<feBlend mode="normal" in2="shape" result="effect1_innerShadow_1161_38374"/>
</filter>
</defs>
</svg>
