<svg width="72" height="72" viewBox="0 0 72 72" fill="none" xmlns="http://www.w3.org/2000/svg">
<g filter="url(#filter0_i_912_68953)">
<rect width="72" height="72" rx="13.2" fill="#FCF7FF"/>
</g>
<rect x="0.75" y="0.75" width="70.5" height="70.5" rx="12.45" stroke="#9A36CD" stroke-width="1.5"/>
<ellipse cx="17.0909" cy="27.7278" rx="4.09092" ry="2.27273" fill="#E1A6FF"/>
<ellipse cx="44.9089" cy="27.7278" rx="4.09092" ry="2.27273" fill="#E1A6FF"/>
<path d="M28.0366 34.3384L27.0461 33.154C26.7501 32.8 26.814 32.2698 27.1856 31.9963L30.4133 29.6207C30.7038 29.4068 31.1015 29.4138 31.3843 29.6378L34.3764 32.0073C34.7214 32.2804 34.781 32.7808 34.51 33.1274L33.6348 34.2466C32.2231 36.0517 29.5067 36.0963 28.0366 34.3384Z" fill="#FF6661"/>
<path fill-rule="evenodd" clip-rule="evenodd" d="M24.323 27.6369C24.7445 27.3735 25.2998 27.5016 25.5632 27.9231L27.6474 31.2578C27.7179 31.3706 27.8822 31.3706 27.9527 31.2578L30.0368 27.9231C30.2013 27.66 30.4897 27.5001 30.8 27.5001C31.1103 27.5001 31.3988 27.66 31.5632 27.9231L33.6474 31.2578C33.7179 31.3706 33.8822 31.3706 33.9527 31.2578L36.0368 27.9231C36.3003 27.5016 36.8555 27.3735 37.277 27.6369C37.6985 27.9004 37.8267 28.4556 37.5632 28.8771L35.4791 32.2118C34.7036 33.4526 32.8965 33.4526 32.121 32.2118L30.8 30.0982L29.4791 32.2118C28.7036 33.4526 26.8965 33.4526 26.121 32.2118L24.0368 28.8771C23.7734 28.4556 23.9015 27.9004 24.323 27.6369Z" fill="#1C222B"/>
<path d="M24.8667 21.9333C24.8667 23.5534 23.5534 24.8667 21.9333 24.8667C20.3133 24.8667 19 23.5534 19 21.9333C19 20.3133 20.3133 19 21.9333 19C23.5534 19 24.8667 20.3133 24.8667 21.9333Z" fill="#1C222B"/>
<path d="M20 23C20 23.5523 20.4477 24 21 24C21.5523 24 22 23.5523 22 23C22 22.4477 21.5523 22 21 22C20.4477 22 20 22.4477 20 23Z" fill="white"/>
<path d="M22 21C22 21.5523 22.4477 22 23 22C23.5523 22 24 21.5523 24 21C24 20.4477 23.5523 20 23 20C22.4477 20 22 20.4477 22 21Z" fill="white"/>
<path d="M42.8667 21.9333C42.8667 23.5534 41.5534 24.8667 39.9333 24.8667C38.3133 24.8667 37 23.5534 37 21.9333C37 20.3133 38.3133 19 39.9333 19C41.5534 19 42.8667 20.3133 42.8667 21.9333Z" fill="#1C222B"/>
<path d="M38 23C38 23.5523 38.4477 24 39 24C39.5523 24 40 23.5523 40 23C40 22.4477 39.5523 22 39 22C38.4477 22 38 22.4477 38 23Z" fill="white"/>
<path d="M40 21C40 21.5523 40.4477 22 41 22C41.5523 22 42 21.5523 42 21C42 20.4477 41.5523 20 41 20C40.4477 20 40 20.4477 40 21Z" fill="white"/>
<defs>
<filter id="filter0_i_912_68953" x="0" y="0" width="72" height="72" filterUnits="userSpaceOnUse" color-interpolation-filters="sRGB">
<feFlood flood-opacity="0" result="BackgroundImageFix"/>
<feBlend mode="normal" in="SourceGraphic" in2="BackgroundImageFix" result="shape"/>
<feColorMatrix in="SourceAlpha" type="matrix" values="0 0 0 0 0 0 0 0 0 0 0 0 0 0 0 0 0 0 127 0" result="hardAlpha"/>
<feOffset dx="-5" dy="-5"/>
<feComposite in2="hardAlpha" operator="arithmetic" k2="-1" k3="1"/>
<feColorMatrix type="matrix" values="0 0 0 0 0.937255 0 0 0 0 0.823529 0 0 0 0 1 0 0 0 1 0"/>
<feBlend mode="normal" in2="shape" result="effect1_innerShadow_912_68953"/>
</filter>
</defs>
</svg>
