<svg width="104" height="104" viewBox="0 0 104 104" fill="none" xmlns="http://www.w3.org/2000/svg">
<g filter="url(#filter0_d_666_17166)">
<circle cx="52" cy="50" r="48" fill="#E5E9F2"/>
<rect x="28.7" y="26.7" width="46.6" height="46.6" rx="9.3" fill="#F0F3FA" stroke="#ACB6CA" stroke-width="1.4"/>
<ellipse cx="39.5714" cy="44.8504" rx="2.57143" ry="1.42857" fill="#DDE2ED"/>
<ellipse cx="56.4284" cy="44.8504" rx="2.57143" ry="1.42857" fill="#DDE2ED"/>
<path fill-rule="evenodd" clip-rule="evenodd" d="M44.1022 45.0872C44.3466 44.9345 44.6685 45.0088 44.8212 45.2531L46.0295 47.1863C46.0703 47.2517 46.1656 47.2517 46.2064 47.1863L47.4147 45.2531C47.51 45.1006 47.6773 45.0079 47.8571 45.0079C48.037 45.0079 48.2043 45.1006 48.2996 45.2531L49.5079 47.1863C49.5487 47.2517 49.644 47.2517 49.6848 47.1863L50.8931 45.2531C51.0458 45.0088 51.3677 44.9345 51.6121 45.0872C51.8564 45.2399 51.9307 45.5618 51.778 45.8062L50.5697 47.7394C50.1201 48.4587 49.0725 48.4587 48.623 47.7394L47.8571 46.5141L47.0913 47.7394C46.6418 48.4587 45.5941 48.4587 45.1446 47.7394L43.9363 45.8062C43.7836 45.5618 43.8579 45.2399 44.1022 45.0872Z" fill="#ACB6CA"/>
<path fill-rule="evenodd" clip-rule="evenodd" d="M40.1115 40.9456C40.374 40.7706 40.7288 40.8415 40.9039 41.1041C41.0455 41.3166 41.3959 41.4925 41.857 41.4925C42.3181 41.4925 42.6684 41.3166 42.8101 41.1041C42.9852 40.8415 43.3399 40.7706 43.6025 40.9456C43.8651 41.1207 43.9361 41.4755 43.761 41.7381C43.3313 42.3827 42.5388 42.6354 41.857 42.6354C41.1752 42.6354 40.3827 42.3827 39.953 41.7381C39.7779 41.4755 39.8489 41.1207 40.1115 40.9456Z" fill="#ACB6CA"/>
<path fill-rule="evenodd" clip-rule="evenodd" d="M52.1115 40.9456C52.374 40.7706 52.7288 40.8415 52.9039 41.1041C53.0455 41.3166 53.3959 41.4925 53.857 41.4925C54.3181 41.4925 54.6684 41.3166 54.8101 41.1041C54.9852 40.8415 55.3399 40.7706 55.6025 40.9456C55.8651 41.1207 55.9361 41.4755 55.761 41.7381C55.3313 42.3827 54.5388 42.6354 53.857 42.6354C53.1752 42.6354 52.3827 42.3827 51.953 41.7381C51.7779 41.4755 51.8489 41.1207 52.1115 40.9456Z" fill="#ACB6CA"/>
</g>
<defs>
<filter id="filter0_d_666_17166" x="0" y="0" width="104" height="104" filterUnits="userSpaceOnUse" color-interpolation-filters="sRGB">
<feFlood flood-opacity="0" result="BackgroundImageFix"/>
<feColorMatrix in="SourceAlpha" type="matrix" values="0 0 0 0 0 0 0 0 0 0 0 0 0 0 0 0 0 0 127 0" result="hardAlpha"/>
<feOffset dy="2"/>
<feGaussianBlur stdDeviation="2"/>
<feComposite in2="hardAlpha" operator="out"/>
<feColorMatrix type="matrix" values="0 0 0 0 0.0592768 0 0 0 0 0.117402 0 0 0 0 0.230234 0 0 0 0.35 0"/>
<feBlend mode="normal" in2="BackgroundImageFix" result="effect1_dropShadow_666_17166"/>
<feBlend mode="normal" in="SourceGraphic" in2="effect1_dropShadow_666_17166" result="shape"/>
</filter>
</defs>
</svg>
