<svg width="120" height="120" viewBox="0 0 120 120" fill="none" xmlns="http://www.w3.org/2000/svg">
<path d="M21.669 54.166C18.2389 55.4565 15.4366 62.6329 20.216 67.1409" stroke="#1C222B" stroke-width="1.33333" stroke-linecap="round"/>
<g filter="url(#filter0_i_1178_76728)">
<path d="M20.0005 28.0026C20.0005 19.9024 26.567 13.3359 34.6672 13.3359H85.3338C93.434 13.3359 100 19.9024 100 28.0026V78.6693C100 86.7694 93.434 93.3359 85.3338 93.3359H34.6672C26.567 93.3359 20.0005 86.7694 20.0005 78.6693V28.0026Z" fill="white"/>
</g>
<path d="M20.6672 28.0026C20.6672 20.2706 26.9352 14.0026 34.6672 14.0026H85.3338C93.0658 14.0026 99.3338 20.2706 99.3338 28.0026V78.6693C99.3338 86.4013 93.0658 92.6693 85.3338 92.6693H34.6672C26.9352 92.6693 20.6672 86.4013 20.6672 78.6693V28.0026Z" stroke="#1C222B" stroke-width="1.33333"/>
<path d="M52.5003 42.0026C52.5003 43.4754 51.3064 44.6693 49.8337 44.6693C48.3609 44.6693 47.167 43.4754 47.167 42.0026C47.167 40.5298 48.3609 39.3359 49.8337 39.3359C51.3064 39.3359 52.5003 40.5298 52.5003 42.0026Z" fill="#1C222B"/>
<path d="M56.861 55.4199L55.8736 54.281C55.5479 53.9053 55.5936 53.3355 55.9751 53.0166L59.4786 50.0878C59.8019 49.8175 60.2705 49.8113 60.6008 50.073L63.9274 52.7081C64.3125 53.0132 64.3772 53.5729 64.0717 53.9577L63.017 55.2864C61.4594 57.2485 58.5022 57.3126 56.861 55.4199Z" fill="#FF6661"/>
<path d="M75.8802 41.9947C75.8802 44.1016 74.1722 45.8096 72.0652 45.8096C69.9583 45.8096 68.2502 44.1016 68.2502 41.9947C68.2502 39.8877 69.9583 38.1797 72.0652 38.1797C74.1722 38.1797 75.8802 39.8877 75.8802 41.9947Z" fill="#1C222B"/>
<path d="M53.2502 48.6719L55.566 52.3771C56.036 53.1291 57.1312 53.1291 57.6012 52.3771L59.9169 48.6719L62.2326 52.3771C62.7026 53.1291 63.7978 53.1291 64.2678 52.3771L66.5836 48.6719" stroke="#1C222B" stroke-width="2" stroke-linecap="round" stroke-linejoin="round"/>
<path d="M69.2041 35.2834C70.4152 35.4636 73.6367 34.9591 76.8341 31.5" stroke="#1C222B" stroke-width="2.86123" stroke-linecap="round"/>
<path d="M46.509 36.7768C47.2389 36.3299 49.4494 35.7742 52.4517 37.1261" stroke="#1C222B" stroke-width="2" stroke-linecap="round"/>
<path d="M20.6663 50C23.3031 51.9916 49.8752 64.4998 60.3752 69.3333L99.3329 50" stroke="#1C222B" stroke-width="1.33333" stroke-linecap="round"/>
<mask id="path-11-inside-1_1178_76728" fill="white">
<rect x="54.7502" y="69.75" width="10.6667" height="14.6667" rx="1"/>
</mask>
<rect x="54.7502" y="69.75" width="10.6667" height="14.6667" rx="1" fill="#FFF698"/>
<rect x="54.7502" y="69.75" width="10.6667" height="14.6667" rx="1" stroke="#1C222B" stroke-width="2.66667" mask="url(#path-11-inside-1_1178_76728)"/>
<rect x="55.4172" y="73.75" width="9.33333" height="10" fill="#FFFDE9"/>
<path d="M67.5 101.672C67.5 100.015 68.8431 98.6719 70.5 98.6719H76.5C78.1569 98.6719 79.5 100.015 79.5 101.672V102.339C79.5 103.995 78.1569 105.339 76.5 105.339H70.5C68.8431 105.339 67.5 103.995 67.5 102.339V101.672Z" fill="#1C222B"/>
<path d="M46.7505 93.3359V104.003" stroke="#1C222B" stroke-width="1.33333"/>
<path d="M73.4172 93.3359V104.003" stroke="#1C222B" stroke-width="1.33333"/>
<path d="M40.5 101.672C40.5 100.015 41.8431 98.6719 43.5 98.6719H49.5C51.1569 98.6719 52.5 100.015 52.5 101.672V102.339C52.5 103.995 51.1569 105.339 49.5 105.339H43.5C41.8431 105.339 40.5 103.995 40.5 102.339V101.672Z" fill="#1C222B"/>
<path d="M76.8538 49.3359L79.601 48.1306L82.6142 54.9987L79.867 56.204L76.8538 49.3359Z" fill="#DDE2ED"/>
<path d="M78.4818 55.6133C78.3611 54.9318 78.7224 54.2563 79.3561 53.9782L81.3171 53.1179C81.9508 52.8398 82.6926 53.0315 83.1123 53.5817L84.2446 55.0659C84.2978 55.1357 84.3448 55.21 84.3851 55.288L89.0647 64.3579C89.4616 65.1271 89.1269 66.0716 88.3344 66.4193L84.3919 68.149C83.5994 68.4967 82.6778 68.1034 82.3805 67.2906L78.8754 57.7052C78.8453 57.6228 78.8225 57.5379 78.8072 57.4515L78.4818 55.6133Z" fill="#5F7288"/>
<circle cx="74.3101" cy="39.8083" r="10.5" transform="rotate(-23.6888 74.3101 39.8083)" fill="url(#paint0_linear_1178_76728)" stroke="#5F7288" stroke-width="3"/>
<path d="M99.2339 55.6804C98.1104 59.1687 92.2007 60.4681 86.3442 57.7578" stroke="#1C222B" stroke-width="1.33333" stroke-linecap="round"/>
<circle cx="86.5163" cy="57.9483" r="4" transform="rotate(-32.2031 86.5163 57.9483)" fill="#1C222B"/>
<defs>
<filter id="filter0_i_1178_76728" x="20.0005" y="13.3359" width="80" height="80" filterUnits="userSpaceOnUse" color-interpolation-filters="sRGB">
<feFlood flood-opacity="0" result="BackgroundImageFix"/>
<feBlend mode="normal" in="SourceGraphic" in2="BackgroundImageFix" result="shape"/>
<feColorMatrix in="SourceAlpha" type="matrix" values="0 0 0 0 0 0 0 0 0 0 0 0 0 0 0 0 0 0 127 0" result="hardAlpha"/>
<feOffset dx="-5.33333" dy="-5.33333"/>
<feComposite in2="hardAlpha" operator="arithmetic" k2="-1" k3="1"/>
<feColorMatrix type="matrix" values="0 0 0 0 0.898039 0 0 0 0 0.913725 0 0 0 0 0.94902 0 0 0 1 0"/>
<feBlend mode="normal" in2="shape" result="effect1_innerShadow_1178_76728"/>
</filter>
<linearGradient id="paint0_linear_1178_76728" x1="74.3101" y1="27.8083" x2="74.3101" y2="51.8083" gradientUnits="userSpaceOnUse">
<stop stop-color="#D4E8FF"/>
<stop offset="1" stop-color="#D4E8FF" stop-opacity="0.4"/>
</linearGradient>
</defs>
</svg>
