<svg width="96" height="96" viewBox="0 0 96 96" fill="none" xmlns="http://www.w3.org/2000/svg">
<circle cx="48" cy="48" r="48" fill="black"/>
<rect x="24.7" y="24.7" width="46.6" height="46.6" rx="9.3" fill="white" stroke="#5C6475" stroke-width="1.4"/>
<path d="M39.5716 39.5714C39.5716 40.4393 38.868 41.1429 38.0001 41.1429C37.1323 41.1429 36.4287 40.4393 36.4287 39.5714C36.4287 38.7036 37.1323 38 38.0001 38C38.868 38 39.5716 38.7036 39.5716 39.5714Z" fill="#1C222B"/>
<path d="M51.5716 39.5714C51.5716 40.4393 50.868 41.1429 50.0001 41.1429C49.1323 41.1429 48.4287 40.4393 48.4287 39.5714C48.4287 38.7036 49.1323 38 50.0001 38C50.868 38 51.5716 38.7036 51.5716 39.5714Z" fill="#1C222B"/>
<path d="M42.263 47.059L41.7478 46.4648C41.5779 46.2688 41.6017 45.9714 41.8008 45.805L43.6288 44.2769C43.7975 44.1359 44.042 44.1327 44.2143 44.2692L45.95 45.6441C46.1509 45.8033 46.1846 46.0953 46.0252 46.2961L45.4749 46.9893C44.6623 48.0131 43.1193 48.0465 42.263 47.059Z" fill="#FF6661"/>
<path fill-rule="evenodd" clip-rule="evenodd" d="M40.1022 43.095C40.3466 42.9423 40.6685 43.0166 40.8212 43.2609L42.0295 45.1941C42.0703 45.2595 42.1656 45.2595 42.2064 45.1941L43.4147 43.2609C43.51 43.1084 43.6773 43.0157 43.8571 43.0157C44.037 43.0157 44.2043 43.1084 44.2996 43.2609L45.5079 45.1941C45.5487 45.2595 45.644 45.2595 45.6848 45.1941L46.8931 43.2609C47.0458 43.0166 47.3677 42.9423 47.6121 43.095C47.8564 43.2477 47.9307 43.5696 47.778 43.814L46.5697 45.7472C46.1201 46.4665 45.0725 46.4665 44.623 45.7472L43.8571 44.5219L43.0913 45.7472C42.6418 46.4665 41.5941 46.4665 41.1446 45.7472L39.9363 43.814C39.7836 43.5696 39.8579 43.2477 40.1022 43.095Z" fill="#1C222B"/>
<ellipse cx="35.5714" cy="42.8573" rx="2.57143" ry="1.42857" fill="#FBBAF9"/>
<ellipse cx="52.4284" cy="42.8573" rx="2.57143" ry="1.42857" fill="#FBBAF9"/>
</svg>
