<svg width="64" height="64" viewBox="0 0 64 64" fill="none" xmlns="http://www.w3.org/2000/svg">
<g filter="url(#filter0_i_447_9472)">
<rect width="53.944" height="53.944" rx="9.88974" transform="matrix(-1 0 0 1 58.9717 5.02783)" fill="white"/>
</g>
<rect x="-0.449533" y="0.449533" width="53.0449" height="53.0449" rx="9.4402" transform="matrix(-1 0 0 1 58.0726 5.02783)" stroke="#1C222B" stroke-width="0.899067"/>
<ellipse cx="24.314" cy="27.7021" rx="1.8833" ry="1.10156" fill="#8CC4FF"/>
<path d="M24.7019 21.6572C24.4458 22.5961 23.4216 24.4739 21.373 24.4739" stroke="#1C222B" stroke-width="1.3486" stroke-linecap="round" stroke-linejoin="round"/>
<ellipse cx="40.314" cy="27.7021" rx="1.8833" ry="1.10156" fill="#8CC4FF"/>
<path d="M39.2981 21.6572C39.5542 22.5961 40.5784 24.4739 42.627 24.4739" stroke="#1C222B" stroke-width="1.3486" stroke-linecap="round" stroke-linejoin="round"/>
<path d="M37.2084 25.9085C37.2084 26.9016 38.0135 27.7066 39.0066 27.7066C39.9996 27.7066 40.8047 26.9016 40.8047 25.9085C40.8047 24.9154 39.9996 24.1104 39.0066 24.1104C38.0135 24.1104 37.2084 24.9154 37.2084 25.9085Z" fill="#1C222B"/>
<path d="M39.0078 25.2339C39.0078 25.6063 39.3097 25.9082 39.6821 25.9082C40.0546 25.9082 40.3564 25.6063 40.3564 25.2339C40.3564 24.8615 40.0546 24.5596 39.6821 24.5596C39.3097 24.5596 39.0078 24.8615 39.0078 25.2339Z" fill="white"/>
<path d="M37.6582 26.5825C37.6582 26.9549 37.9601 27.2568 38.3325 27.2568C38.7049 27.2568 39.0068 26.9549 39.0068 26.5825C39.0068 26.2101 38.7049 25.9082 38.3325 25.9082C37.9601 25.9082 37.6582 26.2101 37.6582 26.5825Z" fill="white"/>
<path d="M23.724 25.9085C23.724 26.9016 24.5291 27.7066 25.5222 27.7066C26.5153 27.7066 27.3203 26.9016 27.3203 25.9085C27.3203 24.9154 26.5153 24.1104 25.5222 24.1104C24.5291 24.1104 23.724 24.9154 23.724 25.9085Z" fill="#1C222B"/>
<path d="M25.5225 25.2339C25.5225 25.6063 25.8244 25.9082 26.1968 25.9082C26.5692 25.9082 26.8711 25.6063 26.8711 25.2339C26.8711 24.8615 26.5692 24.5596 26.1968 24.5596C25.8244 24.5596 25.5225 24.8615 25.5225 25.2339Z" fill="white"/>
<path d="M24.1729 26.5825C24.1729 26.9549 24.4748 27.2568 24.8472 27.2568C25.2196 27.2568 25.5215 26.9549 25.5215 26.5825C25.5215 26.2101 25.2196 25.9082 24.8472 25.9082C24.4748 25.9082 24.1729 26.2101 24.1729 26.5825Z" fill="white"/>
<path d="M37.209 30.4033L35.6475 32.9017C35.3306 33.4088 34.5921 33.4088 34.2752 32.9017L32.7137 30.4033L31.1522 32.9017C30.8352 33.4088 30.0967 33.4088 29.7798 32.9017L28.2183 30.4033" stroke="#1C222B" stroke-width="1.3486" stroke-linecap="round" stroke-linejoin="round"/>
<defs>
<filter id="filter0_i_447_9472" x="5.02783" y="5.02783" width="53.9438" height="53.9438" filterUnits="userSpaceOnUse" color-interpolation-filters="sRGB">
<feFlood flood-opacity="0" result="BackgroundImageFix"/>
<feBlend mode="normal" in="SourceGraphic" in2="BackgroundImageFix" result="shape"/>
<feColorMatrix in="SourceAlpha" type="matrix" values="0 0 0 0 0 0 0 0 0 0 0 0 0 0 0 0 0 0 127 0" result="hardAlpha"/>
<feOffset dx="-3.59627" dy="-3.59627"/>
<feComposite in2="hardAlpha" operator="arithmetic" k2="-1" k3="1"/>
<feColorMatrix type="matrix" values="0 0 0 0 0.898039 0 0 0 0 0.913725 0 0 0 0 0.94902 0 0 0 1 0"/>
<feBlend mode="normal" in2="shape" result="effect1_innerShadow_447_9472"/>
</filter>
</defs>
</svg>
