<svg width="120" height="102" viewBox="0 0 120 102" fill="none" xmlns="http://www.w3.org/2000/svg">
<ellipse cx="59" cy="93" rx="45" ry="8" fill="#BCC5D5"/>
<path fill-rule="evenodd" clip-rule="evenodd" d="M18.6208 46.9537C19.4896 44.8727 20.8774 43.6671 22.3607 43.5275L22.2358 42.2C20.0705 42.4038 18.3612 44.1145 17.3904 46.44C16.4116 48.7845 16.1178 51.8741 16.8339 55.1429L18.1364 54.8575C17.4715 51.8226 17.7599 49.0156 18.6208 46.9537Z" fill="#1C222B"/>
<circle cx="4" cy="4" r="4" transform="matrix(-1 0 0 1 21.334 50.332)" fill="#1C222B"/>
<g filter="url(#filter0_i_614_16008)">
<rect x="20" y="2.33398" width="80" height="80" rx="14.6667" fill="white"/>
</g>
<path fill-rule="evenodd" clip-rule="evenodd" d="M85.3333 3.66732H34.6667C27.3029 3.66732 21.3333 9.63686 21.3333 17.0007V67.6673C21.3333 75.0311 27.3029 81.0007 34.6667 81.0007H85.3333C92.6971 81.0007 98.6667 75.0311 98.6667 67.6673V17.0007C98.6667 9.63686 92.6971 3.66732 85.3333 3.66732ZM34.6667 2.33398C26.5665 2.33398 20 8.90048 20 17.0007V67.6673C20 75.7675 26.5665 82.334 34.6667 82.334H85.3333C93.4335 82.334 100 75.7675 100 67.6673V17.0007C100 8.90048 93.4335 2.33398 85.3333 2.33398H34.6667Z" fill="#1C222B"/>
<path d="M43.3333 26.3346C43.3333 27.8074 42.1394 29.0013 40.6667 29.0013C39.1939 29.0013 38 27.8074 38 26.3346C38 24.8619 39.1939 23.668 40.6667 23.668C42.1394 23.668 43.3333 24.8619 43.3333 26.3346Z" fill="#1C222B"/>
<path d="M46.9436 39.7499L45.9561 38.6111C45.6304 38.2354 45.6761 37.6656 46.0576 37.3466L49.5611 34.4179C49.8844 34.1476 50.353 34.1414 50.6833 34.4031L54.0099 37.0382C54.3951 37.3433 54.4597 37.9029 54.1542 38.2878L53.0995 39.6165C51.5419 41.5786 48.5847 41.6427 46.9436 39.7499Z" fill="#FF6661"/>
<path d="M63.3333 26.3346C63.3333 27.8074 62.1394 29.0013 60.6667 29.0013C59.1939 29.0013 58 27.8074 58 26.3346C58 24.8619 59.1939 23.668 60.6667 23.668C62.1394 23.668 63.3333 24.8619 63.3333 26.3346Z" fill="#1C222B"/>
<path fill-rule="evenodd" clip-rule="evenodd" d="M42.8041 32.1521C43.2725 31.8594 43.8894 32.0018 44.1821 32.4701L46.4979 36.1753C46.5762 36.3006 46.7587 36.3006 46.8371 36.1753L49.1528 32.4701C49.3355 32.1778 49.656 32.0001 50.0008 32.0001C50.3456 32.0001 50.666 32.1778 50.8488 32.4701L53.1645 36.1753C53.2429 36.3006 53.4254 36.3006 53.5037 36.1753L55.8195 32.4701C56.1122 32.0018 56.7291 31.8594 57.1975 32.1521C57.6658 32.4448 57.8082 33.0618 57.5154 33.5301L55.1997 37.2353C54.338 38.614 52.3302 38.614 51.4685 37.2353L50.0008 34.8869L48.533 37.2353C47.6714 38.614 45.6635 38.614 44.8019 37.2353L42.4861 33.5301C42.1934 33.0618 42.3358 32.4448 42.8041 32.1521Z" fill="#1C222B"/>
<path fill-rule="evenodd" clip-rule="evenodd" d="M99.9453 36.7362C100.091 37.0742 99.9359 37.4666 99.598 37.6127L49.9055 59.1014L49.5948 58.8635C45.4834 55.7157 38.8341 51.3956 32.8609 47.6007C31.1158 46.492 29.4248 45.426 27.8725 44.4474C24.1438 42.0969 21.2161 40.2512 20.2649 39.5328C19.9711 39.3109 19.9128 38.8928 20.1347 38.599C20.3566 38.3052 20.7747 38.2469 21.0685 38.4688C21.9721 39.1513 24.8027 40.9358 28.4804 43.2542C30.0523 44.2452 31.7789 45.3336 33.5759 46.4753C39.3942 50.1717 45.9108 54.402 50.0934 57.5674L99.0688 36.3889C99.4067 36.2428 99.7991 36.3983 99.9453 36.7362Z" fill="#1C222B"/>
<mask id="path-11-inside-1_614_16008" fill="white">
<rect x="44.666" y="57.668" width="10.6667" height="14.6667" rx="1"/>
</mask>
<rect x="44.666" y="57.668" width="10.6667" height="14.6667" rx="1" fill="#FFF381"/>
<rect x="44.666" y="57.668" width="10.6667" height="14.6667" rx="1" stroke="#1C222B" stroke-width="2.66667" mask="url(#path-11-inside-1_614_16008)"/>
<path d="M45.332 61.668H54.6654V71.668H45.332V61.668Z" fill="#FFFDE9"/>
<path fill-rule="evenodd" clip-rule="evenodd" d="M102.924 47.5749C102.158 45.4537 100.832 44.1815 99.3568 43.9693L99.5467 42.6496C101.699 42.9593 103.323 44.7519 104.178 47.1222C105.041 49.5119 105.183 52.6122 104.307 55.8419L103.02 55.493C103.833 52.4943 103.683 49.6766 102.924 47.5749Z" fill="#1C222B"/>
<circle cx="103.912" cy="54.2172" r="4" transform="rotate(2.4362 103.912 54.2172)" fill="#1C222B"/>
<path d="M63.334 91.3043C63.334 89.296 64.962 87.668 66.9703 87.668H72.6673C74.1401 87.668 75.334 88.8619 75.334 90.3346V91.668C75.334 93.1407 74.1401 94.3346 72.6673 94.3346H66.3643C64.6907 94.3346 63.334 92.9779 63.334 91.3043Z" fill="#1C222B"/>
<path fill-rule="evenodd" clip-rule="evenodd" d="M45.334 92.9987V82.332H46.6673V92.9987H45.334Z" fill="#1C222B"/>
<path fill-rule="evenodd" clip-rule="evenodd" d="M72 92.9987V82.332H73.3333V92.9987H72Z" fill="#1C222B"/>
<path d="M37.334 91.3043C37.334 89.296 38.962 87.668 40.9703 87.668H46.6673C48.1401 87.668 49.334 88.8619 49.334 90.3346V91.668C49.334 93.1407 48.1401 94.3346 46.6673 94.3346H40.3643C38.6907 94.3346 37.334 92.9779 37.334 91.3043Z" fill="#1C222B"/>
<defs>
<filter id="filter0_i_614_16008" x="20" y="2.33398" width="80" height="80" filterUnits="userSpaceOnUse" color-interpolation-filters="sRGB">
<feFlood flood-opacity="0" result="BackgroundImageFix"/>
<feBlend mode="normal" in="SourceGraphic" in2="BackgroundImageFix" result="shape"/>
<feColorMatrix in="SourceAlpha" type="matrix" values="0 0 0 0 0 0 0 0 0 0 0 0 0 0 0 0 0 0 127 0" result="hardAlpha"/>
<feOffset dx="-5.33333" dy="-5.33333"/>
<feComposite in2="hardAlpha" operator="arithmetic" k2="-1" k3="1"/>
<feColorMatrix type="matrix" values="0 0 0 0 0.898039 0 0 0 0 0.913725 0 0 0 0 0.94902 0 0 0 1 0"/>
<feBlend mode="normal" in2="shape" result="effect1_innerShadow_614_16008"/>
</filter>
</defs>
</svg>
