<svg width="24" height="24" viewBox="0 0 24 24" fill="none" xmlns="http://www.w3.org/2000/svg">
<path fill-rule="evenodd" clip-rule="evenodd" d="M7 13.9008C7 14.5444 6.69034 15.1486 6.16794 15.5244C5.66799 15.884 5.29386 16.4002 5.11566 17H18.8843C18.7061 16.4002 18.332 15.884 17.8321 15.5244C17.3097 15.1486 17 14.5444 17 13.9008V9C17 6.23858 14.7614 4 12 4C9.23858 4 7 6.23858 7 9V13.9008ZM5 9C5 5.13401 8.13401 2 12 2C15.866 2 19 5.13401 19 9V13.9008C20.2113 14.7722 21 16.194 21 17.8C21 18.4627 20.4627 19 19.8 19H4.2C3.53726 19 3 18.4627 3 17.8C3 16.194 3.78875 14.7722 5 13.9008V9Z" fill="#1C222B"/>
<mask id="path-2-inside-1_389_5298" fill="white">
<path d="M15 20C15 20.3283 14.9224 20.6534 14.7716 20.9567C14.6209 21.26 14.3999 21.5356 14.1213 21.7678C13.8427 21.9999 13.512 22.1841 13.1481 22.3097C12.7841 22.4353 12.394 22.5 12 22.5C11.606 22.5 11.2159 22.4353 10.8519 22.3097C10.488 22.1841 10.1573 21.9999 9.87868 21.7678C9.6001 21.5356 9.37913 21.26 9.22836 20.9567C9.0776 20.6534 9 20.3283 9 20L12 20H15Z"/>
</mask>
<path d="M15 20C15 20.3283 14.9224 20.6534 14.7716 20.9567C14.6209 21.26 14.3999 21.5356 14.1213 21.7678C13.8427 21.9999 13.512 22.1841 13.1481 22.3097C12.7841 22.4353 12.394 22.5 12 22.5C11.606 22.5 11.2159 22.4353 10.8519 22.3097C10.488 22.1841 10.1573 21.9999 9.87868 21.7678C9.6001 21.5356 9.37913 21.26 9.22836 20.9567C9.0776 20.6534 9 20.3283 9 20L12 20H15Z" fill="#1C222B" stroke="#1C222B" stroke-width="2" mask="url(#path-2-inside-1_389_5298)"/>
</svg>
