<svg width="74" height="74" viewBox="0 0 74 74" fill="none" xmlns="http://www.w3.org/2000/svg">
<g filter="url(#filter0_i_1064_84854)">
<rect width="74" height="74" rx="13.1959" fill="#FCF7FF"/>
</g>
<rect x="0.824742" y="0.824742" width="72.3505" height="72.3505" rx="12.3711" stroke="#E1A6FF" stroke-width="1.64948" stroke-dasharray="3.3 2.47"/>
<path fill-rule="evenodd" clip-rule="evenodd" d="M23.0656 27.6793C23.4252 27.4546 23.8989 27.5639 24.1236 27.9235L25.9017 30.7684C25.9618 30.8646 26.102 30.8646 26.1621 30.7684L27.9402 27.9235C28.0805 27.699 28.3265 27.5626 28.5913 27.5626C28.856 27.5626 29.1021 27.699 29.2424 27.9235L31.0204 30.7684C31.0806 30.8646 31.2207 30.8646 31.2809 30.7684L33.0589 27.9235C33.2837 27.5639 33.7574 27.4546 34.117 27.6793C34.4766 27.9041 34.5859 28.3778 34.3611 28.7374L32.5831 31.5822C31.9215 32.6408 30.3798 32.6408 29.7182 31.5822L28.5913 29.7791L27.4643 31.5822C26.8027 32.6408 25.2611 32.6408 24.5995 31.5822L22.8214 28.7374C22.5967 28.3778 22.706 27.9041 23.0656 27.6793Z" fill="#E1A6FF"/>
<ellipse cx="16.3979" cy="27.3293" rx="3.78409" ry="2.10227" fill="#EFD2FF"/>
<ellipse cx="41.2045" cy="27.3293" rx="3.78409" ry="2.10227" fill="#EFD2FF"/>
<path fill-rule="evenodd" clip-rule="evenodd" d="M17.1929 22.4255C17.5793 22.1679 18.1014 22.2723 18.359 22.6587C18.5675 22.9714 19.0831 23.2303 19.7616 23.2303C20.4401 23.2303 20.9557 22.9714 21.1642 22.6587C21.4218 22.2723 21.9439 22.1679 22.3304 22.4255C22.7168 22.6831 22.8212 23.2052 22.5636 23.5916C21.9312 24.5403 20.7649 24.9121 19.7616 24.9121C18.7583 24.9121 17.5921 24.5403 16.9597 23.5916C16.7021 23.2052 16.8065 22.6831 17.1929 22.4255Z" fill="#E1A6FF"/>
<path fill-rule="evenodd" clip-rule="evenodd" d="M35.6929 22.4255C36.0793 22.1679 36.6014 22.2723 36.859 22.6587C37.0675 22.9714 37.5831 23.2303 38.2616 23.2303C38.9401 23.2303 39.4557 22.9714 39.6642 22.6587C39.9218 22.2723 40.4439 22.1679 40.8304 22.4255C41.2168 22.6831 41.3212 23.2052 41.0636 23.5916C40.4312 24.5403 39.2649 24.9121 38.2616 24.9121C37.2583 24.9121 36.0921 24.5403 35.4597 23.5916C35.2021 23.2052 35.3065 22.6831 35.6929 22.4255Z" fill="#E1A6FF"/>
<defs>
<filter id="filter0_i_1064_84854" x="0" y="0" width="74" height="74" filterUnits="userSpaceOnUse" color-interpolation-filters="sRGB">
<feFlood flood-opacity="0" result="BackgroundImageFix"/>
<feBlend mode="normal" in="SourceGraphic" in2="BackgroundImageFix" result="shape"/>
<feColorMatrix in="SourceAlpha" type="matrix" values="0 0 0 0 0 0 0 0 0 0 0 0 0 0 0 0 0 0 127 0" result="hardAlpha"/>
<feOffset dx="-4.83849" dy="-4.83849"/>
<feComposite in2="hardAlpha" operator="arithmetic" k2="-1" k3="1"/>
<feColorMatrix type="matrix" values="0 0 0 0 0.960784 0 0 0 0 0.894118 0 0 0 0 1 0 0 0 1 0"/>
<feBlend mode="normal" in2="shape" result="effect1_innerShadow_1064_84854"/>
</filter>
</defs>
</svg>
