<svg width="74" height="74" viewBox="0 0 74 74" fill="none" xmlns="http://www.w3.org/2000/svg">
<g filter="url(#filter0_i_1064_85128)">
<rect width="74" height="74" rx="13.1959" fill="#F9EEFF"/>
</g>
<rect x="0.824742" y="0.824742" width="72.3505" height="72.3505" rx="12.3711" stroke="#BB4EF2" stroke-width="1.64948"/>
<ellipse cx="16.3979" cy="27.3293" rx="3.78409" ry="2.10227" fill="#EAC0FF"/>
<ellipse cx="41.2045" cy="27.3293" rx="3.78409" ry="2.10227" fill="#EAC0FF"/>
<path d="M22.5925 22.6483C22.5925 24.0106 21.4881 25.115 20.1258 25.115C18.7635 25.115 17.6592 24.0106 17.6592 22.6483C17.6592 21.286 18.7635 20.1816 20.1258 20.1816C21.4881 20.1816 22.5925 21.286 22.5925 22.6483Z" fill="#1C222B"/>
<path d="M26.0084 34.876L25.0652 33.6987C24.7841 33.3479 24.8441 32.835 25.1985 32.5585L28.3673 30.0866C28.6606 29.8577 29.0725 29.8593 29.3641 30.0903L32.4812 32.5595C32.8307 32.8362 32.8893 33.344 32.6121 33.6931L31.6834 34.8631C30.2345 36.6883 27.4655 36.6946 26.0084 34.876Z" fill="#FF6661"/>
<path d="M41.0925 22.6483C41.0925 24.0106 39.9881 25.115 38.6258 25.115C37.2635 25.115 36.1592 24.0106 36.1592 22.6483C36.1592 21.286 37.2635 20.1816 38.6258 20.1816C39.9881 20.1816 41.0925 21.286 41.0925 22.6483Z" fill="#1C222B"/>
<path fill-rule="evenodd" clip-rule="evenodd" d="M22.1019 28.0309C22.5351 27.7601 23.1058 27.8918 23.3765 28.325L25.5186 31.7523C25.591 31.8682 25.7599 31.8682 25.8323 31.7523L27.9744 28.325C28.1434 28.0546 28.4399 27.8903 28.7588 27.8903C29.0777 27.8903 29.3741 28.0546 29.5432 28.325L31.6852 31.7523C31.7577 31.8682 31.9265 31.8682 31.999 31.7523L34.141 28.325C34.4118 27.8918 34.9825 27.7601 35.4157 28.0309C35.8489 28.3016 35.9806 28.8723 35.7098 29.3055L33.5678 32.7328C32.7707 34.0081 30.9135 34.0081 30.1164 32.7328L28.7588 30.5605L27.4011 32.7328C26.6041 34.0081 24.7468 34.0081 23.9498 32.7328L21.8077 29.3055C21.537 28.8723 21.6687 28.3016 22.1019 28.0309Z" fill="#1C222B"/>
<path d="M18.4998 23.545C18.4998 24.0094 18.8763 24.3859 19.3407 24.3859C19.8052 24.3859 20.1816 24.0094 20.1816 23.545C20.1816 23.0806 19.8052 22.7041 19.3407 22.7041C18.8763 22.7041 18.4998 23.0806 18.4998 23.545Z" fill="white"/>
<path d="M20.182 21.8634C20.182 22.3278 20.5584 22.7043 21.0229 22.7043C21.4873 22.7043 21.8638 22.3278 21.8638 21.8634C21.8638 21.3989 21.4873 21.0225 21.0229 21.0225C20.5584 21.0225 20.182 21.3989 20.182 21.8634Z" fill="white"/>
<path d="M37.0003 23.545C37.0003 24.0094 37.3768 24.3859 37.8412 24.3859C38.3056 24.3859 38.6821 24.0094 38.6821 23.545C38.6821 23.0806 38.3056 22.7041 37.8412 22.7041C37.3768 22.7041 37.0003 23.0806 37.0003 23.545Z" fill="white"/>
<path d="M38.682 21.8634C38.682 22.3278 39.0584 22.7043 39.5229 22.7043C39.9873 22.7043 40.3638 22.3278 40.3638 21.8634C40.3638 21.3989 39.9873 21.0225 39.5229 21.0225C39.0584 21.0225 38.682 21.3989 38.682 21.8634Z" fill="white"/>
<defs>
<filter id="filter0_i_1064_85128" x="0" y="0" width="74" height="74" filterUnits="userSpaceOnUse" color-interpolation-filters="sRGB">
<feFlood flood-opacity="0" result="BackgroundImageFix"/>
<feBlend mode="normal" in="SourceGraphic" in2="BackgroundImageFix" result="shape"/>
<feColorMatrix in="SourceAlpha" type="matrix" values="0 0 0 0 0 0 0 0 0 0 0 0 0 0 0 0 0 0 127 0" result="hardAlpha"/>
<feOffset dx="-4.83849" dy="-4.83849"/>
<feComposite in2="hardAlpha" operator="arithmetic" k2="-1" k3="1"/>
<feColorMatrix type="matrix" values="0 0 0 0 0.937255 0 0 0 0 0.823529 0 0 0 0 1 0 0 0 1 0"/>
<feBlend mode="normal" in2="shape" result="effect1_innerShadow_1064_85128"/>
</filter>
</defs>
</svg>
