<svg width="74" height="74" viewBox="0 0 74 74" fill="none" xmlns="http://www.w3.org/2000/svg">
<g filter="url(#filter0_i_1064_85125)">
<rect width="74" height="74" rx="13.1959" fill="#F0F3FA"/>
</g>
<rect x="0.824742" y="0.824742" width="72.3505" height="72.3505" rx="12.3711" stroke="#5C6475" stroke-width="1.64948"/>
<ellipse cx="16.3979" cy="27.3293" rx="3.78409" ry="2.10227" fill="#CED5E4"/>
<ellipse cx="41.2045" cy="27.3293" rx="3.78409" ry="2.10227" fill="#CED5E4"/>
<path d="M22.592 22.6483C22.592 24.0106 21.4877 25.115 20.1254 25.115C18.7631 25.115 17.6587 24.0106 17.6587 22.6483C17.6587 21.286 18.7631 20.1816 20.1254 20.1816C21.4877 20.1816 22.592 21.286 22.592 22.6483Z" fill="#1C222B"/>
<path d="M26.0079 34.876L25.0647 33.6987C24.7836 33.3479 24.8436 32.835 25.198 32.5585L28.3668 30.0866C28.6602 29.8577 29.072 29.8593 29.3637 30.0903L32.4808 32.5595C32.8302 32.8362 32.8888 33.344 32.6116 33.6931L31.6829 34.8631C30.2341 36.6883 27.465 36.6946 26.0079 34.876Z" fill="#FF6661"/>
<path d="M41.092 22.6483C41.092 24.0106 39.9877 25.115 38.6254 25.115C37.2631 25.115 36.1587 24.0106 36.1587 22.6483C36.1587 21.286 37.2631 20.1816 38.6254 20.1816C39.9877 20.1816 41.092 21.286 41.092 22.6483Z" fill="#1C222B"/>
<path fill-rule="evenodd" clip-rule="evenodd" d="M22.1019 28.0314C22.5351 27.7606 23.1058 27.8923 23.3765 28.3255L25.5186 31.7528C25.591 31.8687 25.7599 31.8687 25.8323 31.7528L27.9744 28.3255C28.1434 28.055 28.4399 27.8907 28.7588 27.8907C29.0777 27.8907 29.3741 28.055 29.5432 28.3255L31.6852 31.7528C31.7577 31.8687 31.9265 31.8687 31.999 31.7528L34.141 28.3255C34.4118 27.8923 34.9825 27.7606 35.4157 28.0314C35.8489 28.3021 35.9806 28.8728 35.7098 29.306L33.5678 32.7333C32.7707 34.0086 30.9135 34.0086 30.1164 32.7333L28.7588 30.561L27.4011 32.7333C26.6041 34.0086 24.7468 34.0086 23.9498 32.7333L21.8077 29.306C21.537 28.8728 21.6687 28.3021 22.1019 28.0314Z" fill="#1C222B"/>
<defs>
<filter id="filter0_i_1064_85125" x="0" y="0" width="74" height="74" filterUnits="userSpaceOnUse" color-interpolation-filters="sRGB">
<feFlood flood-opacity="0" result="BackgroundImageFix"/>
<feBlend mode="normal" in="SourceGraphic" in2="BackgroundImageFix" result="shape"/>
<feColorMatrix in="SourceAlpha" type="matrix" values="0 0 0 0 0 0 0 0 0 0 0 0 0 0 0 0 0 0 127 0" result="hardAlpha"/>
<feOffset dx="-4.83849" dy="-4.83849"/>
<feComposite in2="hardAlpha" operator="arithmetic" k2="-1" k3="1"/>
<feColorMatrix type="matrix" values="0 0 0 0 0.866667 0 0 0 0 0.886275 0 0 0 0 0.929412 0 0 0 1 0"/>
<feBlend mode="normal" in2="shape" result="effect1_innerShadow_1064_85125"/>
</filter>
</defs>
</svg>
