<svg width="74" height="74" viewBox="0 0 74 74" fill="none" xmlns="http://www.w3.org/2000/svg">
<g filter="url(#filter0_i_1064_84852)">
<rect width="74" height="74" rx="13.8182" fill="#FFF8FB"/>
</g>
<rect x="0.863636" y="0.863636" width="72.2727" height="72.2727" rx="12.9545" stroke="#FF9DC7" stroke-width="1.72727" stroke-dasharray="3.45 2.59"/>
<ellipse cx="16.3979" cy="27.3293" rx="3.78409" ry="2.10227" fill="#FFCEE3"/>
<ellipse cx="41.2045" cy="27.3293" rx="3.78409" ry="2.10227" fill="#FFCEE3"/>
<path fill-rule="evenodd" clip-rule="evenodd" d="M23.0656 27.6793C23.4252 27.4546 23.8989 27.5639 24.1236 27.9235L25.9017 30.7684C25.9618 30.8646 26.102 30.8646 26.1621 30.7684L27.9402 27.9235C28.0805 27.699 28.3265 27.5626 28.5913 27.5626C28.856 27.5626 29.1021 27.699 29.2424 27.9235L31.0204 30.7684C31.0806 30.8646 31.2207 30.8646 31.2809 30.7684L33.0589 27.9235C33.2837 27.5639 33.7574 27.4546 34.117 27.6793C34.4766 27.9041 34.5859 28.3778 34.3611 28.7374L32.5831 31.5822C31.9215 32.6408 30.3798 32.6408 29.7182 31.5822L28.5913 29.7791L27.4643 31.5822C26.8027 32.6408 25.2611 32.6408 24.5995 31.5822L22.8214 28.7374C22.5967 28.3778 22.706 27.9041 23.0656 27.6793Z" fill="#FF9DC7"/>
<path fill-rule="evenodd" clip-rule="evenodd" d="M17.1929 22.4255C17.5793 22.1679 18.1014 22.2723 18.359 22.6587C18.5675 22.9714 19.0831 23.2303 19.7616 23.2303C20.4401 23.2303 20.9557 22.9714 21.1642 22.6587C21.4218 22.2723 21.9439 22.1679 22.3304 22.4255C22.7168 22.6831 22.8212 23.2052 22.5636 23.5916C21.9312 24.5403 20.7649 24.9121 19.7616 24.9121C18.7583 24.9121 17.5921 24.5403 16.9597 23.5916C16.7021 23.2052 16.8065 22.6831 17.1929 22.4255Z" fill="#FF9DC7"/>
<path fill-rule="evenodd" clip-rule="evenodd" d="M35.6924 22.4255C36.0788 22.1679 36.6009 22.2723 36.8585 22.6587C37.067 22.9714 37.5826 23.2303 38.2611 23.2303C38.9396 23.2303 39.4553 22.9714 39.6637 22.6587C39.9214 22.2723 40.4434 22.1679 40.8299 22.4255C41.2163 22.6831 41.3207 23.2052 41.0631 23.5916C40.4307 24.5403 39.2645 24.9121 38.2611 24.9121C37.2578 24.9121 36.0916 24.5403 35.4592 23.5916C35.2016 23.2052 35.306 22.6831 35.6924 22.4255Z" fill="#FF9DC7"/>
<defs>
<filter id="filter0_i_1064_84852" x="0" y="0" width="74" height="74" filterUnits="userSpaceOnUse" color-interpolation-filters="sRGB">
<feFlood flood-opacity="0" result="BackgroundImageFix"/>
<feBlend mode="normal" in="SourceGraphic" in2="BackgroundImageFix" result="shape"/>
<feColorMatrix in="SourceAlpha" type="matrix" values="0 0 0 0 0 0 0 0 0 0 0 0 0 0 0 0 0 0 127 0" result="hardAlpha"/>
<feOffset dx="-5.06667" dy="-5.06667"/>
<feComposite in2="hardAlpha" operator="arithmetic" k2="-1" k3="1"/>
<feColorMatrix type="matrix" values="0 0 0 0 1 0 0 0 0 0.901961 0 0 0 0 0.945098 0 0 0 1 0"/>
<feBlend mode="normal" in2="shape" result="effect1_innerShadow_1064_84852"/>
</filter>
</defs>
</svg>
