<svg width="45" height="45" viewBox="0 0 45 45" fill="none" xmlns="http://www.w3.org/2000/svg">
<circle cx="22.5" cy="22.5" r="22.125" fill="#FFF381" stroke="white" stroke-width="0.75"/>
<g filter="url(#filter0_i_447_8554)">
<rect x="9" y="9" width="27" height="27" rx="4.95" fill="white"/>
</g>
<rect x="9.28125" y="9.28125" width="26.4375" height="26.4375" rx="4.66875" stroke="#1C222B" stroke-width="0.5625"/>
<ellipse cx="15.4091" cy="19.3972" rx="1.5341" ry="0.852276" fill="#FBBAF9"/>
<ellipse cx="25.8409" cy="19.3972" rx="1.5341" ry="0.852276" fill="#FBBAF9"/>
<path d="M18.3 17.4C18.3 17.8971 17.8971 18.3 17.4 18.3C16.9029 18.3 16.5 17.8971 16.5 17.4C16.5 16.9029 16.9029 16.5 17.4 16.5C17.8971 16.5 18.3 16.9029 18.3 17.4Z" fill="#1C222B"/>
<path d="M19.5137 21.8767L19.1423 21.4325C19.0313 21.2998 19.0552 21.1009 19.1946 20.9984L20.405 20.1075C20.5139 20.0273 20.663 20.0299 20.7691 20.1139L21.8912 21.0025C22.0205 21.1049 22.0429 21.2926 21.9412 21.4225L21.613 21.8422C21.0837 22.5192 20.065 22.5359 19.5137 21.8767Z" fill="#FF6661"/>
<path d="M25.05 17.4C25.05 17.8971 24.6471 18.3 24.15 18.3C23.6529 18.3 23.25 17.8971 23.25 17.4C23.25 16.9029 23.6529 16.5 24.15 16.5C24.6471 16.5 25.05 16.9029 25.05 17.4Z" fill="#1C222B"/>
<path fill-rule="evenodd" clip-rule="evenodd" d="M18.1211 19.3638C18.2791 19.2651 18.4874 19.3131 18.5861 19.4712L19.3677 20.7217C19.3941 20.764 19.4557 20.764 19.4822 20.7217L20.2637 19.4712C20.3254 19.3725 20.4336 19.3125 20.5499 19.3125C20.6663 19.3125 20.7745 19.3725 20.8361 19.4712L21.6177 20.7217C21.6441 20.764 21.7057 20.764 21.7322 20.7217L22.5137 19.4712C22.6125 19.3131 22.8208 19.2651 22.9788 19.3638C23.1369 19.4626 23.1849 19.6709 23.0861 19.8289L22.3046 21.0794C22.0138 21.5447 21.3361 21.5447 21.0453 21.0794L20.5499 20.2868L20.0546 21.0794C19.7638 21.5447 19.0861 21.5447 18.7953 21.0794L18.0137 19.8289C17.915 19.6709 17.963 19.4626 18.1211 19.3638Z" fill="#1C222B"/>
<defs>
<filter id="filter0_i_447_8554" x="9" y="9" width="27" height="27" filterUnits="userSpaceOnUse" color-interpolation-filters="sRGB">
<feFlood flood-opacity="0" result="BackgroundImageFix"/>
<feBlend mode="normal" in="SourceGraphic" in2="BackgroundImageFix" result="shape"/>
<feColorMatrix in="SourceAlpha" type="matrix" values="0 0 0 0 0 0 0 0 0 0 0 0 0 0 0 0 0 0 127 0" result="hardAlpha"/>
<feOffset dx="-1.875" dy="-1.875"/>
<feComposite in2="hardAlpha" operator="arithmetic" k2="-1" k3="1"/>
<feColorMatrix type="matrix" values="0 0 0 0 0.898039 0 0 0 0 0.913725 0 0 0 0 0.94902 0 0 0 1 0"/>
<feBlend mode="normal" in2="shape" result="effect1_innerShadow_447_8554"/>
</filter>
</defs>
</svg>
