<svg width="360" height="151" viewBox="0 0 360 151" fill="none" xmlns="http://www.w3.org/2000/svg">
<rect x="200.751" y="79.75" width="82.5" height="52.5" rx="1.25" fill="#ACB6CA" stroke="#1C222B" stroke-width="1.5"/>
<rect x="242.751" y="132.25" width="52.5" height="40.5" rx="1.25" transform="rotate(-90 242.751 132.25)" fill="#ACB6CA" stroke="#1C222B" stroke-width="1.5"/>
<mask id="path-3-inside-1_961_75021" fill="white">
<rect x="182.001" y="4" width="120" height="70" rx="2"/>
</mask>
<rect x="182.001" y="4" width="120" height="70" rx="2" fill="#2E343F"/>
<rect x="182.001" y="4" width="120" height="70" rx="2" stroke="#1C222B" stroke-width="8" mask="url(#path-3-inside-1_961_75021)"/>
<rect x="226.501" y="15.5" width="31" height="51" fill="#1C222B" stroke="#4D5564"/>
<rect x="239.001" y="10" width="2" height="2" fill="#D98DFF" stroke="#BB4EF2" stroke-width="0.2"/>
<rect x="257.001" y="60" width="2" height="2" transform="rotate(90 257.001 60)" fill="#D98DFF" stroke="#BB4EF2" stroke-width="0.2"/>
<rect x="229.001" y="64" width="2" height="2" transform="rotate(90 229.001 64)" fill="#F980F3" stroke="#E44EDD" stroke-width="0.2"/>
<rect x="231.001" y="64" width="2" height="2" transform="rotate(90 231.001 64)" fill="#F980F3" stroke="#E44EDD" stroke-width="0.2"/>
<rect x="233.001" y="64" width="2" height="2" transform="rotate(90 233.001 64)" fill="#F980F3" stroke="#E44EDD" stroke-width="0.2"/>
<rect x="235.001" y="64" width="2" height="2" transform="rotate(90 235.001 64)" fill="#F980F3" stroke="#E44EDD" stroke-width="0.2"/>
<rect x="237.001" y="64" width="2" height="2" transform="rotate(90 237.001 64)" fill="#FF7CB5" stroke="#FF4193" stroke-width="0.2"/>
<rect x="237.001" y="62" width="2" height="2" transform="rotate(90 237.001 62)" fill="#FF7CB5" stroke="#FF4193" stroke-width="0.2"/>
<rect x="235.001" y="62" width="2" height="2" transform="rotate(90 235.001 62)" fill="#FF7CB5" stroke="#FF4193" stroke-width="0.2"/>
<rect x="237.001" y="60" width="2" height="2" transform="rotate(90 237.001 60)" fill="#FF7CB5" stroke="#FF4193" stroke-width="0.2"/>
<rect x="240.001" y="25" width="2" height="2" transform="rotate(90 240.001 25)" fill="#FF837F" stroke="#FF403A" stroke-width="0.2"/>
<rect x="242.001" y="25" width="2" height="2" transform="rotate(90 242.001 25)" fill="#FF837F" stroke="#FF403A" stroke-width="0.2"/>
<rect x="242.001" y="27" width="2" height="2" transform="rotate(90 242.001 27)" fill="#FF837F" stroke="#FF403A" stroke-width="0.2"/>
<rect x="240.001" y="27" width="2" height="2" transform="rotate(90 240.001 27)" fill="#FF837F" stroke="#FF403A" stroke-width="0.2"/>
<rect x="241.001" y="10" width="2" height="2" fill="#D98DFF" stroke="#BB4EF2" stroke-width="0.2"/>
<rect x="257.001" y="62" width="2" height="2" transform="rotate(90 257.001 62)" fill="#D98DFF" stroke="#BB4EF2" stroke-width="0.2"/>
<rect x="243.001" y="10" width="2" height="2" fill="#D98DFF" stroke="#BB4EF2" stroke-width="0.2"/>
<rect x="257.001" y="64" width="2" height="2" transform="rotate(90 257.001 64)" fill="#D98DFF" stroke="#BB4EF2" stroke-width="0.2"/>
<rect x="243.001" y="12" width="2" height="2" fill="#D98DFF" stroke="#BB4EF2" stroke-width="0.2"/>
<rect x="255.001" y="64" width="2" height="2" transform="rotate(90 255.001 64)" fill="#D98DFF" stroke="#BB4EF2" stroke-width="0.2"/>
<rect x="232.001" y="74" width="20" height="5" fill="#1C222B"/>
<rect x="228.001" y="77" width="28" height="2" rx="1" fill="#1C222B"/>
<g clip-path="url(#clip0_961_75021)">
<ellipse cx="110.001" cy="141.5" rx="60" ry="7.5" fill="#BCC5D5"/>
<rect x="105.751" y="116.75" width="4.5" height="21.5" rx="1.25" fill="#D4DBE9" stroke="#1C222B" stroke-width="1.5"/>
<rect x="91.751" y="112.75" width="32.5" height="5.5" rx="1.25" fill="#929DB0" stroke="#1C222B" stroke-width="1.5"/>
<path d="M85.751 139.87C85.751 138.635 86.695 137.606 87.925 137.499L107.546 135.792C107.849 135.766 108.153 135.766 108.456 135.792L128.077 137.499C129.307 137.606 130.251 138.635 130.251 139.87C130.251 141.184 129.185 142.25 127.871 142.25H88.1312C86.8166 142.25 85.751 141.184 85.751 139.87Z" fill="#929DB0" stroke="#1C222B" stroke-width="1.5"/>
<path d="M143.001 95H149.501C150.606 95 151.501 95.8954 151.501 97V103" stroke="#1C222B" stroke-width="2" stroke-linecap="round" stroke-linejoin="round"/>
<mask id="path-32-inside-2_961_75021" fill="white">
<path fill-rule="evenodd" clip-rule="evenodd" d="M153.265 64.3637L151.64 64.2417C149.358 67.2252 145.662 69.0328 141.637 68.7305C135.303 68.2547 130.555 62.7347 131.03 56.4013C131.493 50.2425 136.725 45.5824 142.838 45.7676L142.838 45.7576L143.162 45.7819C143.228 45.7858 143.294 45.7901 143.36 45.7951C143.426 45.8001 143.491 45.8056 143.557 45.8116L164.731 47.4023L164.73 47.4141C170.801 48.1442 175.279 53.5337 174.816 59.6925C174.34 66.0259 168.82 70.7744 162.487 70.2987C158.461 69.9962 155.076 67.6557 153.265 64.3637Z"/>
</mask>
<g filter="url(#filter0_i_961_75021)">
<path fill-rule="evenodd" clip-rule="evenodd" d="M153.265 64.3637L151.64 64.2417C149.358 67.2252 145.662 69.0328 141.637 68.7305C135.303 68.2547 130.555 62.7347 131.03 56.4013C131.493 50.2425 136.725 45.5824 142.838 45.7676L142.838 45.7576L143.162 45.7819C143.228 45.7858 143.294 45.7901 143.36 45.7951C143.426 45.8001 143.491 45.8056 143.557 45.8116L164.731 47.4023L164.73 47.4141C170.801 48.1442 175.279 53.5337 174.816 59.6925C174.34 66.0259 168.82 70.7744 162.487 70.2987C158.461 69.9962 155.076 67.6557 153.265 64.3637Z" fill="#F0F3FA"/>
</g>
<path d="M153.265 64.3637L154.487 63.692L154.123 63.0303L153.37 62.9737L153.265 64.3637ZM151.64 64.2417L151.744 62.8516L150.992 62.7951L150.533 63.3948L151.64 64.2417ZM142.838 45.7676L142.795 47.1609L144.128 47.2012L144.228 45.872L142.838 45.7676ZM142.838 45.7576L142.943 44.3676L141.553 44.2632L141.448 45.6532L142.838 45.7576ZM143.162 45.7819L143.057 47.1719L143.069 47.1728L143.081 47.1735L143.162 45.7819ZM143.557 45.8116L143.429 47.1997L143.441 47.2007L143.453 47.2016L143.557 45.8116ZM164.731 47.4023L166.121 47.5067L166.226 46.1167L164.836 46.0123L164.731 47.4023ZM164.73 47.4141L163.34 47.3096L163.24 48.6389L164.564 48.798L164.73 47.4141ZM153.37 62.9737L151.744 62.8516L151.536 65.6317L153.161 65.7538L153.37 62.9737ZM150.533 63.3948C148.525 66.0201 145.277 67.6061 141.741 67.3404L141.532 70.1205C146.046 70.4596 150.191 68.4303 152.747 65.0885L150.533 63.3948ZM141.741 67.3404C136.175 66.9223 132.002 62.0714 132.42 56.5057L129.64 56.2969C129.107 63.398 134.431 69.587 141.532 70.1205L141.741 67.3404ZM132.42 56.5057C132.827 51.0938 137.425 46.9982 142.795 47.1609L142.88 44.3743C136.026 44.1666 130.159 49.3912 129.64 56.2969L132.42 56.5057ZM144.228 45.872L144.228 45.862L141.448 45.6532L141.447 45.6632L144.228 45.872ZM142.734 47.1476L143.057 47.1719L143.266 44.3919L142.943 44.3676L142.734 47.1476ZM143.081 47.1735C143.139 47.1769 143.197 47.1808 143.255 47.1851L143.464 44.4051C143.39 44.3995 143.316 44.3946 143.243 44.3903L143.081 47.1735ZM143.255 47.1851C143.313 47.1895 143.371 47.1943 143.429 47.1997L143.685 44.4235C143.611 44.4168 143.538 44.4106 143.464 44.4051L143.255 47.1851ZM143.453 47.2016L164.627 48.7923L164.836 46.0123L143.661 44.4216L143.453 47.2016ZM163.341 47.2979L163.34 47.3096L166.12 47.5185L166.121 47.5067L163.341 47.2979ZM164.564 48.798C169.898 49.4395 173.833 54.1762 173.426 59.588L176.206 59.7969C176.725 52.8913 171.705 46.8489 164.897 46.0301L164.564 48.798ZM173.426 59.588C173.008 65.1538 168.157 69.3268 162.591 68.9086L162.382 71.6887C169.484 72.2221 175.673 66.898 176.206 59.7969L173.426 59.588ZM162.591 68.9086C159.055 68.643 156.08 66.5887 154.487 63.692L152.044 65.0355C154.072 68.7227 157.867 71.3495 162.382 71.6887L162.591 68.9086Z" fill="#1C222B" mask="url(#path-32-inside-2_961_75021)"/>
<circle cx="164.17" cy="54.8663" r="1.79354" transform="rotate(4.29625 164.17 54.8663)" fill="#FFBDDA" stroke="#FF4193" stroke-width="0.929293"/>
<circle cx="163.569" cy="62.8702" r="1.79354" transform="rotate(4.29625 163.569 62.8702)" fill="#EAC0FF" stroke="#BB4EF2" stroke-width="0.929293"/>
<circle cx="159.866" cy="58.5694" r="1.79354" transform="rotate(4.29625 159.866 58.5694)" fill="#FFBDDA" stroke="#FF4193" stroke-width="0.929293"/>
<circle cx="167.872" cy="59.1671" r="1.79354" transform="rotate(4.29625 167.872 59.1671)" fill="#EAC0FF" stroke="#BB4EF2" stroke-width="0.929293"/>
<mask id="path-38-inside-3_961_75021" fill="white">
<path fill-rule="evenodd" clip-rule="evenodd" d="M141.051 50.865C140.54 50.8265 140.094 51.2103 140.055 51.7221L139.868 54.208L137.383 54.0213C136.871 53.9829 136.425 54.3666 136.387 54.8784L136.099 58.7115C136.06 59.2233 136.444 59.6693 136.956 59.7078L139.441 59.8945L139.254 62.3789C139.216 62.8907 139.6 63.3367 140.112 63.3752L143.945 63.6632C144.456 63.7016 144.903 63.3179 144.941 62.8061L145.128 60.3217L147.613 60.5084C148.125 60.5468 148.571 60.1631 148.609 59.6513L148.897 55.8182C148.936 55.3064 148.552 54.8604 148.04 54.8219L145.555 54.6352L145.742 52.1492C145.78 51.6375 145.396 51.1914 144.884 51.1529L141.051 50.865Z"/>
</mask>
<path fill-rule="evenodd" clip-rule="evenodd" d="M141.051 50.865C140.54 50.8265 140.094 51.2103 140.055 51.7221L139.868 54.208L137.383 54.0213C136.871 53.9829 136.425 54.3666 136.387 54.8784L136.099 58.7115C136.06 59.2233 136.444 59.6693 136.956 59.7078L139.441 59.8945L139.254 62.3789C139.216 62.8907 139.6 63.3367 140.112 63.3752L143.945 63.6632C144.456 63.7016 144.903 63.3179 144.941 62.8061L145.128 60.3217L147.613 60.5084C148.125 60.5468 148.571 60.1631 148.609 59.6513L148.897 55.8182C148.936 55.3064 148.552 54.8604 148.04 54.8219L145.555 54.6352L145.742 52.1492C145.78 51.6375 145.396 51.1914 144.884 51.1529L141.051 50.865Z" fill="#BCC5D5"/>
<path d="M140.055 51.7221L139.128 51.6524L140.055 51.7221ZM141.051 50.865L141.121 49.9383L141.051 50.865ZM139.868 54.208L139.799 55.1347L140.725 55.2043L140.795 54.2776L139.868 54.208ZM136.387 54.8784L135.46 54.8088L136.387 54.8784ZM136.099 58.7115L137.026 58.7811L136.099 58.7115ZM136.956 59.7078L136.886 60.6345L136.956 59.7078ZM139.441 59.8945L140.368 59.9641L140.437 59.0374L139.511 58.9678L139.441 59.8945ZM139.254 62.3789L138.328 62.3093L139.254 62.3789ZM140.112 63.3752L140.042 64.3019L140.112 63.3752ZM143.945 63.6632L144.014 62.7365L143.945 63.6632ZM145.128 60.3217L145.197 59.395L144.271 59.3254L144.201 60.2521L145.128 60.3217ZM147.613 60.5084L147.543 61.4351L147.613 60.5084ZM148.609 59.6513L147.682 59.5817L148.609 59.6513ZM148.897 55.8182L149.824 55.8878L149.824 55.8878L148.897 55.8182ZM148.04 54.8219L148.11 53.8952L148.04 54.8219ZM145.555 54.6352L144.628 54.5656L144.558 55.4923L145.485 55.5619L145.555 54.6352ZM144.884 51.1529L144.815 52.0796L144.884 51.1529ZM140.982 51.7917L140.982 51.7917L141.121 49.9383C140.097 49.8614 139.205 50.6289 139.128 51.6524L140.982 51.7917ZM140.795 54.2776L140.982 51.7917L139.128 51.6524L138.942 54.1384L140.795 54.2776ZM137.314 54.948L139.799 55.1347L139.938 53.2813L137.453 53.0947L137.314 54.948ZM137.314 54.948L137.314 54.948L137.453 53.0947C136.429 53.0178 135.537 53.7852 135.46 54.8088L137.314 54.948ZM137.026 58.7811L137.314 54.948L135.46 54.8088L135.172 58.6419L137.026 58.7811ZM137.026 58.7811L137.026 58.7811L135.172 58.6419C135.095 59.6655 135.863 60.5576 136.886 60.6345L137.026 58.7811ZM139.511 58.9678L137.026 58.7811L136.886 60.6345L139.372 60.8212L139.511 58.9678ZM140.181 62.4485L140.368 59.9641L138.514 59.8249L138.328 62.3093L140.181 62.4485ZM140.181 62.4485L140.181 62.4485L138.328 62.3093C138.251 63.3329 139.018 64.225 140.042 64.3019L140.181 62.4485ZM144.014 62.7365L140.181 62.4485L140.042 64.3019L143.875 64.5898L144.014 62.7365ZM144.014 62.7365L144.014 62.7365L143.875 64.5898C144.899 64.6667 145.791 63.8993 145.868 62.8757L144.014 62.7365ZM144.201 60.2521L144.014 62.7365L145.868 62.8757L146.054 60.3913L144.201 60.2521ZM147.682 59.5817L145.197 59.395L145.058 61.2484L147.543 61.4351L147.682 59.5817ZM147.682 59.5817L147.682 59.5817L147.543 61.4351C148.567 61.512 149.459 60.7445 149.536 59.7209L147.682 59.5817ZM147.97 55.7486L147.682 59.5817L149.536 59.7209L149.824 55.8878L147.97 55.7486ZM147.97 55.7486L147.97 55.7486L149.824 55.8878C149.901 54.8643 149.133 53.9721 148.11 53.8952L147.97 55.7486ZM145.485 55.5619L147.97 55.7486L148.11 53.8952L145.624 53.7085L145.485 55.5619ZM144.815 52.0796L144.628 54.5656L146.481 54.7048L146.668 52.2189L144.815 52.0796ZM144.815 52.0796L144.815 52.0796L146.668 52.2189C146.745 51.1953 145.978 50.3032 144.954 50.2263L144.815 52.0796ZM140.982 51.7917L144.815 52.0796L144.954 50.2263L141.121 49.9383L140.982 51.7917Z" fill="#3D4451" mask="url(#path-38-inside-3_961_75021)"/>
<path d="M151.359 57.9297L154.487 58.1646" stroke="#3D4451" stroke-width="1.39394" stroke-linecap="round"/>
<g filter="url(#filter1_i_961_75021)">
<rect width="87.3333" height="87.3333" rx="16.0111" transform="matrix(-0.99965 0.0264714 0.0264714 0.99965 149.996 11.4141)" fill="white"/>
</g>
<path fill-rule="evenodd" clip-rule="evenodd" d="M78.7374 14.7571L134.029 13.2929C142.065 13.0801 148.752 19.4221 148.965 27.4581L150.429 82.7498C150.642 90.7858 144.3 97.4728 136.264 97.6856L80.9722 99.1497C72.9362 99.3625 66.2492 93.0206 66.0364 84.9846L64.5722 29.6929C64.3594 21.6569 70.7014 14.9699 78.7374 14.7571ZM133.991 11.8379C142.83 11.6038 150.186 18.58 150.42 27.4196L151.884 82.7113C152.118 91.5509 145.142 98.9066 136.302 99.1406L81.0107 100.605C72.1711 100.839 64.8154 93.8627 64.5814 85.0231L63.1172 29.7314C62.8831 20.8918 69.8593 13.5361 78.6989 13.3021L133.991 11.8379Z" fill="#1C222B"/>
<path d="M141.648 42.4464C141.697 44.2983 142.856 45.7699 144.236 45.7334C145.616 45.6968 146.695 44.1659 146.646 42.3141C146.597 40.4622 145.439 38.9906 144.058 39.0271C142.678 39.0637 141.599 40.5945 141.648 42.4464Z" fill="#1C222B"/>
<path fill-rule="evenodd" clip-rule="evenodd" d="M150.723 64.6922C148.729 64.0442 147.393 62.9302 146.865 61.6246C146.715 61.2519 146.343 60.9834 145.947 61.0534C145.551 61.1234 145.282 61.5038 145.409 61.8852C146.067 63.8623 147.928 65.3142 150.273 66.0765C152.735 66.8762 155.849 66.9696 159.092 66.1102C159.481 66.0072 159.697 65.5988 159.579 65.2145C159.461 64.8301 159.055 64.6156 158.666 64.7173C155.682 65.498 152.875 65.3915 150.723 64.6922Z" fill="#1C222B"/>
<circle cx="4.36667" cy="4.36667" r="4.36667" transform="matrix(0.0746516 0.99721 0.99721 -0.0746516 153.325 61.5078)" fill="#1C222B"/>
<path d="M160.101 104.47C160.101 102.277 158.323 100.5 156.131 100.5L149.912 100.5C148.304 100.5 147.001 101.803 147.001 103.411L147.001 104.867C147.001 106.474 148.304 107.778 149.912 107.778L156.793 107.778C158.62 107.778 160.101 106.297 160.101 104.47Z" fill="#1C222B"/>
<rect x="69.751" y="98.75" width="74.5" height="14.5" rx="3.25" fill="#4D5564" stroke="#1C222B" stroke-width="1.5"/>
</g>
<rect x="246.001" y="101" width="4" height="8" rx="2" fill="#838EA1"/>
<defs>
<filter id="filter0_i_961_75021" x="130.998" y="45.7578" width="43.8513" height="24.5742" filterUnits="userSpaceOnUse" color-interpolation-filters="sRGB">
<feFlood flood-opacity="0" result="BackgroundImageFix"/>
<feBlend mode="normal" in="SourceGraphic" in2="BackgroundImageFix" result="shape"/>
<feColorMatrix in="SourceAlpha" type="matrix" values="0 0 0 0 0 0 0 0 0 0 0 0 0 0 0 0 0 0 127 0" result="hardAlpha"/>
<feOffset dx="-0.1" dy="-3"/>
<feComposite in2="hardAlpha" operator="arithmetic" k2="-1" k3="1"/>
<feColorMatrix type="matrix" values="0 0 0 0 0 0 0 0 0 0 0 0 0 0 0 0 0 0 0.25 0"/>
<feBlend mode="normal" in2="shape" result="effect1_innerShadow_961_75021"/>
</filter>
<filter id="filter1_i_961_75021" x="63.1116" y="11.832" width="88.7783" height="88.7773" filterUnits="userSpaceOnUse" color-interpolation-filters="sRGB">
<feFlood flood-opacity="0" result="BackgroundImageFix"/>
<feBlend mode="normal" in="SourceGraphic" in2="BackgroundImageFix" result="shape"/>
<feColorMatrix in="SourceAlpha" type="matrix" values="0 0 0 0 0 0 0 0 0 0 0 0 0 0 0 0 0 0 127 0" result="hardAlpha"/>
<feOffset dx="10.55" dy="-9.55"/>
<feComposite in2="hardAlpha" operator="arithmetic" k2="-1" k3="1"/>
<feColorMatrix type="matrix" values="0 0 0 0 0.898039 0 0 0 0 0.913725 0 0 0 0 0.94902 0 0 0 1 0"/>
<feBlend mode="normal" in2="shape" result="effect1_innerShadow_961_75021"/>
</filter>
<clipPath id="clip0_961_75021">
<rect width="128" height="138" fill="white" transform="matrix(-1 0 0 1 178.001 11)"/>
</clipPath>
</defs>
</svg>
