<svg width="320" height="155" viewBox="0 0 320 155" fill="none" xmlns="http://www.w3.org/2000/svg">
<g clip-path="url(#clip0_961_75103)">
<rect width="320" height="155" rx="12" fill="#E5E9F2"/>
<circle cx="215.865" cy="109.634" r="96.3447" fill="#F0F3FA"/>
<circle cx="215.865" cy="109.632" r="75.1084" fill="#F6F8FC"/>
<circle cx="215.865" cy="109.632" r="55.2764" fill="white"/>
<rect x="159.381" y="141.031" width="112.972" height="16.5723" rx="2.25" fill="#CED5E4" stroke="#7A8497" stroke-width="1.5"/>
<path d="M23.5547 26.8047C23.5547 27.7305 23.6631 28.6123 23.8799 29.4502C24.1025 30.2881 24.4453 31.041 24.9082 31.709C25.3711 32.3711 25.957 32.8926 26.666 33.2734L25.5059 34.8203C24.8086 34.4336 24.2168 33.9092 23.7305 33.2471C23.25 32.585 22.8721 31.8174 22.5967 30.9443C22.2979 31.9053 21.8877 32.7578 21.3662 33.502C20.8506 34.2402 20.2324 34.8262 19.5117 35.2598L18.2637 33.8359C19.0137 33.3965 19.6436 32.8105 20.1533 32.0781C20.6631 31.3457 21.041 30.5371 21.2871 29.6523C21.5332 28.7676 21.6562 27.8594 21.6562 26.9277V24.0801H23.5547V26.8047ZM32.2383 38.5645H30.3574V30.5137H28.7227V37.791H26.877V22.9551H28.7227V28.9316H30.3574V22.6738H32.2383V38.5645ZM48.6035 36.7188H34.084V35.1016H40.3418V32.5176H35.8066V27.3145H44.9473V25.3457H35.7715V23.7637H46.8809V28.8613H37.7578V30.918H47.25V32.5176H42.2754V35.1016H48.6035V36.7188ZM64.1426 32.0957H58.0078V35.0137H56.0215V32.0957H49.623V30.5312H64.1426V32.0957ZM62.543 38.248H51.3984V33.5371H53.3672V36.6484H62.543V38.248ZM56.8652 23.0254C58.002 23.0254 58.998 23.1572 59.8535 23.4209C60.7148 23.6846 61.3799 24.0625 61.8486 24.5547C62.3232 25.041 62.5605 25.6152 62.5605 26.2773C62.5605 26.9395 62.3232 27.5137 61.8486 28C61.3799 28.4863 60.7148 28.8613 59.8535 29.125C58.998 29.3828 58.002 29.5117 56.8652 29.5117C55.7285 29.5117 54.7295 29.3828 53.8682 29.125C53.0127 28.8613 52.3477 28.4863 51.873 28C51.4043 27.5137 51.1699 26.9395 51.1699 26.2773C51.1699 25.6152 51.4043 25.041 51.873 24.5547C52.3477 24.0625 53.0127 23.6846 53.8682 23.4209C54.7295 23.1572 55.7285 23.0254 56.8652 23.0254ZM56.8652 24.5723C56.1387 24.5723 55.5029 24.6396 54.958 24.7744C54.4189 24.9092 54.0029 25.1055 53.71 25.3633C53.417 25.6152 53.2734 25.9199 53.2793 26.2773C53.2734 26.623 53.417 26.9219 53.71 27.1738C54.0029 27.4258 54.4189 27.6191 54.958 27.7539C55.5029 27.8828 56.1387 27.9473 56.8652 27.9473C57.5977 27.9473 58.2334 27.8828 58.7725 27.7539C59.3174 27.6191 59.7363 27.4258 60.0293 27.1738C60.3223 26.9219 60.4688 26.623 60.4688 26.2773C60.4688 25.9199 60.3223 25.6152 60.0293 25.3633C59.7363 25.1055 59.3174 24.9092 58.7725 24.7744C58.2334 24.6396 57.5977 24.5723 56.8652 24.5723ZM75.5859 30.1621H71.8242V33.1504C72.7676 33.1387 73.6289 33.1035 74.4082 33.0449C75.1875 32.9863 75.9902 32.8809 76.8164 32.7285L76.9746 34.3281C75.9961 34.5039 75.0527 34.6211 74.1445 34.6797C73.2422 34.7383 72.2109 34.7676 71.0508 34.7676H69.9434V28.6152H73.7051V25.8906H69.9258V24.3262H75.5859V30.1621ZM83.1445 38.5645H81.2812V22.6738H83.1445V38.5645ZM79.875 37.7559H78.0293V29.793H76.2891V28.1934H78.0293V23.0078H79.875V37.7559ZM97.9102 26.0488C97.9102 27.0625 97.8984 27.9209 97.875 28.624C97.8516 29.3271 97.7871 30.1211 97.6816 31.0059C97.582 31.8906 97.4238 32.8574 97.207 33.9062L95.2559 33.7305C95.5547 32.4473 95.7568 31.2021 95.8623 29.9951L86.502 30.4785L86.2383 28.8965L95.959 28.5273C95.9824 27.959 95.9941 27.1328 95.9941 26.0488V25.7324H86.7129V24.1504H97.9102V26.0488ZM99.5098 36.543H85.0254V34.9434H99.5098V36.543ZM106.699 30.1621H102.938V33.1504C103.881 33.1387 104.742 33.1035 105.521 33.0449C106.301 32.9863 107.104 32.8809 107.93 32.7285L108.088 34.3281C107.109 34.5039 106.166 34.6211 105.258 34.6797C104.355 34.7383 103.324 34.7676 102.164 34.7676H101.057V28.6152H104.818V25.8906H101.039V24.3262H106.699V30.1621ZM114.258 38.5645H112.395V22.6738H114.258V38.5645ZM110.988 37.7559H109.143V29.793H107.402V28.1934H109.143V23.0078H110.988V37.7559ZM129.357 38.582H127.389V22.6738H129.357V38.582ZM120.797 23.834C121.594 23.834 122.303 24.0654 122.924 24.5283C123.551 24.9854 124.043 25.6387 124.4 26.4883C124.758 27.332 124.939 28.3164 124.945 29.4414C124.939 30.5723 124.758 31.5625 124.4 32.4121C124.049 33.2617 123.56 33.918 122.933 34.3809C122.306 34.8379 121.594 35.0664 120.797 35.0664C119.994 35.0664 119.279 34.8379 118.652 34.3809C118.025 33.918 117.533 33.2617 117.176 32.4121C116.824 31.5625 116.648 30.5723 116.648 29.4414C116.648 28.3164 116.824 27.332 117.176 26.4883C117.533 25.6387 118.025 24.9854 118.652 24.5283C119.279 24.0654 119.994 23.834 120.797 23.834ZM120.797 25.5918C120.346 25.5918 119.947 25.7441 119.602 26.0488C119.262 26.3535 118.998 26.7959 118.811 27.376C118.623 27.9561 118.529 28.6445 118.529 29.4414C118.529 30.2441 118.623 30.9355 118.811 31.5156C118.998 32.0957 119.262 32.541 119.602 32.8516C119.947 33.1562 120.346 33.3086 120.797 33.3086C121.242 33.3086 121.635 33.1562 121.975 32.8516C122.314 32.541 122.578 32.0957 122.766 31.5156C122.953 30.9355 123.047 30.2441 123.047 29.4414C123.047 28.6445 122.953 27.959 122.766 27.3848C122.578 26.8047 122.314 26.3623 121.975 26.0576C121.635 25.7471 121.242 25.5918 120.797 25.5918ZM137.479 25.4863C137.479 26.2422 137.619 26.9717 137.9 27.6748C138.182 28.3779 138.598 29.0078 139.148 29.5645C139.705 30.1152 140.379 30.5371 141.17 30.8301L140.08 32.3418C139.248 32.0137 138.527 31.5361 137.918 30.9092C137.314 30.2822 136.843 29.5469 136.503 28.7031C136.157 29.5996 135.662 30.3818 135.018 31.0498C134.379 31.7119 133.611 32.2188 132.715 32.5703L131.66 31.0234C132.48 30.7246 133.178 30.2939 133.752 29.7314C134.332 29.1689 134.769 28.5215 135.062 27.7891C135.354 27.0566 135.504 26.2891 135.51 25.4863V23.5879H137.479V25.4863ZM145.002 34.4863H143.051V29.5645H140.15V28H143.051V26.4355H140.15V24.8535H143.051V22.6914H145.002V34.4863ZM145.354 38.248H134.525V33.3262H136.512V36.666H145.354V38.248ZM32.2031 64.5645H30.3398V48.6738H32.2031V64.5645ZM28.9688 63.791H27.123V55.793H24.8379V54.2109H27.123V48.9727H28.9688V63.791ZM23.4316 53.0156C23.4316 53.9473 23.5459 54.8408 23.7744 55.6963C24.0088 56.5518 24.3662 57.3281 24.8467 58.0254C25.333 58.7227 25.9395 59.2793 26.666 59.6953L25.5059 61.1367C24.791 60.709 24.1846 60.1377 23.6865 59.4229C23.1885 58.7021 22.7959 57.873 22.5088 56.9355C22.2217 57.9492 21.8203 58.8516 21.3047 59.6426C20.7891 60.4277 20.168 61.0488 19.4414 61.5059L18.2461 60.0469C18.9844 59.6016 19.5996 59.0068 20.0918 58.2627C20.5898 57.5186 20.9561 56.6982 21.1904 55.8018C21.4307 54.8994 21.5508 53.9707 21.5508 53.0156V51.9609H18.791V50.3789H25.998V51.9609H23.4316V53.0156ZM39.7793 51.4336C39.7793 52.0957 39.9199 52.7373 40.2012 53.3584C40.4883 53.9736 40.9131 54.5244 41.4756 55.0107C42.0439 55.4971 42.7324 55.875 43.541 56.1445L42.5566 57.6562C41.6895 57.3691 40.9395 56.9443 40.3066 56.3818C39.6738 55.8135 39.1787 55.1484 38.8213 54.3867C38.4639 55.2188 37.9541 55.9424 37.292 56.5576C36.6357 57.167 35.8535 57.627 34.9453 57.9375L33.9082 56.4258C34.7402 56.1504 35.4492 55.7578 36.0352 55.248C36.6211 54.7324 37.0635 54.1465 37.3623 53.4902C37.6611 52.8281 37.8105 52.1426 37.8105 51.4336V51.2402H34.4531V49.6758H43.084V51.2402H39.7793V51.4336ZM46.6172 52.6465H48.832V54.2812H46.6172V58.2539H44.666V48.6738H46.6172V52.6465ZM46.6172 64.5645H44.666V60.5566H36.0352V58.9922H46.6172V64.5645ZM68.3965 57.5508H62.1035V58.8779C63.5391 58.9717 64.6523 59.2617 65.4434 59.748C66.2344 60.2285 66.6328 60.8789 66.6387 61.6992C66.6328 62.3027 66.4102 62.8184 65.9707 63.2461C65.5312 63.6738 64.9014 63.9961 64.0811 64.2129C63.2607 64.4355 62.2793 64.5469 61.1367 64.5469C59.9824 64.5469 58.9893 64.4355 58.1572 64.2129C57.3311 63.9961 56.6982 63.6738 56.2588 63.2461C55.8193 62.8184 55.5996 62.3027 55.5996 61.6992C55.5996 60.8789 55.998 60.2256 56.7949 59.7393C57.5918 59.2529 58.7168 58.9658 60.1699 58.8779V57.5508H53.9121V55.9688H68.3965V57.5508ZM61.1367 60.3457C59.9707 60.3574 59.0859 60.4775 58.4824 60.7061C57.8789 60.9287 57.5801 61.2598 57.5859 61.6992C57.5801 62.1387 57.8789 62.4756 58.4824 62.71C59.0918 62.9385 59.9766 63.0527 61.1367 63.0527C62.2734 63.0527 63.1465 62.9385 63.7559 62.71C64.3711 62.4756 64.6816 62.1387 64.6875 61.6992C64.6816 61.2656 64.374 60.9346 63.7646 60.7061C63.1553 60.4775 62.2793 60.3574 61.1367 60.3457ZM67.0957 50.9414H62.5166C62.6221 51.3809 62.8975 51.7939 63.3428 52.1807C63.7939 52.5674 64.3916 52.8955 65.1357 53.165C65.8857 53.4346 66.7441 53.6133 67.7109 53.7012L67.0254 55.248C65.5957 55.1016 64.3652 54.7588 63.334 54.2197C62.3027 53.6807 61.5703 53.0068 61.1367 52.1982C60.7031 53.0068 59.9736 53.6836 58.9482 54.2285C57.9287 54.7676 56.707 55.1074 55.2832 55.248L54.6152 53.7012C55.5586 53.6133 56.3994 53.4346 57.1377 53.165C57.876 52.8955 58.4707 52.5674 58.9219 52.1807C59.373 51.7881 59.6543 51.375 59.7656 50.9414H55.2305V49.377H67.0957V50.9414ZM71.4023 63.1406C71.1562 63.1406 70.9277 63.0791 70.7168 62.9561C70.5059 62.833 70.3389 62.666 70.2158 62.4551C70.0928 62.2441 70.0312 62.0156 70.0312 61.7695C70.0312 61.5293 70.0928 61.3066 70.2158 61.1016C70.3389 60.8906 70.5059 60.7236 70.7168 60.6006C70.9277 60.4775 71.1562 60.416 71.4023 60.416C71.6367 60.416 71.8564 60.4775 72.0615 60.6006C72.2725 60.7236 72.4395 60.8906 72.5625 61.1016C72.6914 61.3066 72.7559 61.5293 72.7559 61.7695C72.7559 62.0156 72.6914 62.2441 72.5625 62.4551C72.4395 62.666 72.2725 62.833 72.0615 62.9561C71.8564 63.0791 71.6367 63.1406 71.4023 63.1406ZM76.3066 63.1406C76.0605 63.1406 75.832 63.0791 75.6211 62.9561C75.4102 62.833 75.2432 62.666 75.1201 62.4551C74.9971 62.2441 74.9355 62.0156 74.9355 61.7695C74.9355 61.5293 74.9971 61.3066 75.1201 61.1016C75.2432 60.8906 75.4102 60.7236 75.6211 60.6006C75.832 60.4775 76.0605 60.416 76.3066 60.416C76.541 60.416 76.7607 60.4775 76.9658 60.6006C77.1768 60.7236 77.3438 60.8906 77.4668 61.1016C77.5957 61.3066 77.6602 61.5293 77.6602 61.7695C77.6602 62.0156 77.5957 62.2441 77.4668 62.4551C77.3438 62.666 77.1768 62.833 76.9658 62.9561C76.7607 63.0791 76.541 63.1406 76.3066 63.1406ZM81.2109 63.1406C80.9648 63.1406 80.7363 63.0791 80.5254 62.9561C80.3145 62.833 80.1475 62.666 80.0244 62.4551C79.9014 62.2441 79.8398 62.0156 79.8398 61.7695C79.8398 61.5293 79.9014 61.3066 80.0244 61.1016C80.1475 60.8906 80.3145 60.7236 80.5254 60.6006C80.7363 60.4775 80.9648 60.416 81.2109 60.416C81.4453 60.416 81.665 60.4775 81.8701 60.6006C82.0811 60.7236 82.248 60.8906 82.3711 61.1016C82.5 61.3066 82.5645 61.5293 82.5645 61.7695C82.5645 62.0156 82.5 62.2441 82.3711 62.4551C82.248 62.666 82.0811 62.833 81.8701 62.9561C81.665 63.0791 81.4453 63.1406 81.2109 63.1406Z" fill="#7A8497"/>
<g filter="url(#filter0_i_961_75103)">
<path d="M172.262 68.8678C172.262 60.0632 179.42 52.9258 188.25 52.9258H243.483C252.313 52.9258 259.471 60.0632 259.471 68.8678V123.94C259.471 132.745 252.313 139.882 243.483 139.882H188.25C179.42 139.882 172.262 132.745 172.262 123.94V68.8678Z" fill="white"/>
</g>
<path d="M172.986 68.8678C172.986 60.4654 179.818 53.6504 188.25 53.6504H243.483C251.915 53.6504 258.746 60.4654 258.746 68.8678V123.94C258.746 132.342 251.915 139.157 243.483 139.157H188.25C179.818 139.157 172.986 132.342 172.986 123.94V68.8678Z" stroke="#7A8497" stroke-width="1.44927"/>
<path d="M207.871 84.086C207.871 85.6869 206.569 86.9846 204.964 86.9846C203.358 86.9846 202.057 85.6869 202.057 84.086C202.057 82.4852 203.358 81.1875 204.964 81.1875C206.569 81.1875 207.871 82.4852 207.871 84.086Z" fill="#7A8497"/>
<path d="M212.956 98.6782L211.871 97.4303C211.515 97.0217 211.565 96.4016 211.98 96.0553L215.802 92.8694C216.153 92.5768 216.662 92.5703 217.021 92.854L220.648 95.719C221.068 96.0508 221.139 96.6601 220.806 97.0783L219.644 98.5385C217.951 100.664 214.741 100.731 212.956 98.6782Z" fill="#FF6661"/>
<path d="M229.674 84.086C229.674 85.6869 228.372 86.9846 226.767 86.9846C225.161 86.9846 223.86 85.6869 223.86 84.086C223.86 82.4852 225.161 81.1875 226.767 81.1875C228.372 81.1875 229.674 82.4852 229.674 84.086Z" fill="#7A8497"/>
<path d="M208.871 91.332L211.4 95.366C211.911 96.1814 213.099 96.1814 213.61 95.366L216.139 91.332L218.667 95.366C219.178 96.1814 220.366 96.1814 220.877 95.366L223.406 91.332" stroke="#7A8497" stroke-width="2.17391" stroke-linecap="round" stroke-linejoin="round"/>
<path d="M224.588 78.9878C225.511 79.1247 227.966 78.7414 230.402 76.1133" stroke="#7A8497" stroke-width="2.17391" stroke-linecap="round"/>
<path d="M201.34 78.401C202.136 77.9154 204.546 77.3114 207.818 78.7808" stroke="#7A8497" stroke-width="2.17391" stroke-linecap="round"/>
<path d="M172.988 92.7812C175.863 94.946 210.675 113.796 214.346 113.796C218.018 113.796 258.744 92.7812 258.744 92.7812" stroke="#7A8497" stroke-width="1.44927" stroke-linecap="round"/>
<g clip-path="url(#clip1_961_75103)">
<mask id="path-17-inside-1_961_75103" fill="white">
<rect x="210.188" y="113.07" width="11.6279" height="15.942" rx="1.08696"/>
</mask>
<rect x="210.188" y="113.07" width="11.6279" height="15.942" rx="1.08696" fill="#EAC0FF"/>
<rect x="210.914" y="117.926" width="10.1449" height="10.8696" fill="#F9EEFF"/>
</g>
<rect x="210.188" y="113.07" width="11.6279" height="15.942" rx="1.08696" stroke="#7A8497" stroke-width="2.89855" mask="url(#path-17-inside-1_961_75103)"/>
<path d="M221.375 85.272L219.591 84.6829C217.204 83.8944 214.626 83.8944 212.239 84.6829L210.455 85.272" stroke="#929DB0" stroke-width="1.44263" stroke-linejoin="round"/>
<path d="M246.419 110.649C246.934 116.063 244.653 121.236 237.834 122.887" stroke="#7A8497" stroke-width="1.44927" stroke-linecap="round"/>
<path d="M185.927 110.649C185.412 116.063 187.693 121.236 194.512 122.887" stroke="#7A8497" stroke-width="1.44927" stroke-linecap="round"/>
<rect x="221.464" y="78.1783" width="14.5574" height="14.5574" rx="7.27869" fill="url(#paint0_linear_961_75103)" stroke="#929DB0" stroke-width="1.44263" stroke-linejoin="round"/>
<rect x="196.442" y="78.1783" width="14.5574" height="14.5574" rx="7.27869" fill="url(#paint1_linear_961_75103)" stroke="#929DB0" stroke-width="1.44263" stroke-linejoin="round"/>
<path d="M189.715 90.9844C189.715 89.1894 191.17 87.7344 192.965 87.7344H238.768C240.563 87.7344 242.018 89.1894 242.018 90.9844V122.762C242.018 124.004 241.01 125.012 239.768 125.012H191.965C190.722 125.012 189.715 124.004 189.715 122.762V90.9844Z" fill="#CED5E4" stroke="#7A8497" stroke-width="1.5"/>
<path d="M215.866 105.103C217.501 105.103 218.826 104.629 218.826 104.046C218.826 103.462 217.501 102.988 215.866 102.988C214.231 102.988 212.906 103.462 212.906 104.046C212.906 104.629 214.231 105.103 215.866 105.103Z" fill="#BCC5D5"/>
<path fill-rule="evenodd" clip-rule="evenodd" d="M215.866 105.104C217.501 105.104 218.826 104.631 218.826 104.047V108.699C218.826 109.283 217.501 109.756 215.866 109.756C214.231 109.756 212.906 109.283 212.906 108.699V104.047C212.906 104.631 214.231 105.104 215.866 105.104Z" fill="#F0F3FA"/>
<rect x="0.75" y="-0.75" width="52.3027" height="6.44727" rx="2.25" transform="matrix(1 0 0 -1 188.965 130.516)" fill="#CED5E4" stroke="#7A8497" stroke-width="1.5"/>
<rect x="146.785" y="130.824" width="138.163" height="11.2178" rx="2.25" fill="#CED5E4" stroke="#7A8497" stroke-width="1.5"/>
<circle cx="281.186" cy="44.3018" r="21.8408" fill="white" stroke="#7A8497" stroke-width="3"/>
<path d="M281.186 46.4609L269.685 46.4609" stroke="#7A8497" stroke-width="2" stroke-linecap="square"/>
<path d="M281.186 46.4605L281.186 29.8477" stroke="#7A8497" stroke-width="2" stroke-linecap="square"/>
<path opacity="0.4" d="M160.083 58.9866L164.405 63.3544C164.644 63.5958 164.449 64.0035 164.111 63.9686L157.999 63.3359C156.951 63.2275 156.076 62.4885 155.794 61.4734C155.452 60.2392 156.073 58.9415 157.25 58.4354C158.218 58.0191 159.342 58.2378 160.083 58.9866Z" fill="#929DB0"/>
<path opacity="0.4" d="M163.031 81.7976L165.126 76.0208C165.242 75.7016 164.894 75.4132 164.602 75.5865L159.317 78.7216C158.411 79.259 157.926 80.2964 158.096 81.3361C158.302 82.6005 159.41 83.5182 160.69 83.4849C161.743 83.4574 162.672 82.788 163.031 81.7976Z" fill="#929DB0"/>
<path opacity="0.4" d="M151.98 69.6642L158.122 69.8506C158.462 69.8609 158.601 70.291 158.332 70.4984L153.467 74.2522C152.633 74.8957 151.49 74.9629 150.586 74.4216C149.487 73.7633 149.044 72.3945 149.548 71.2168C149.962 70.2483 150.927 69.6322 151.98 69.6642Z" fill="#929DB0"/>
</g>
<rect x="0.5" y="0.5" width="319" height="154" rx="11.5" stroke="#BCC5D5"/>
<defs>
<filter id="filter0_i_961_75103" x="172.262" y="52.9258" width="87.2092" height="86.957" filterUnits="userSpaceOnUse" color-interpolation-filters="sRGB">
<feFlood flood-opacity="0" result="BackgroundImageFix"/>
<feBlend mode="normal" in="SourceGraphic" in2="BackgroundImageFix" result="shape"/>
<feColorMatrix in="SourceAlpha" type="matrix" values="0 0 0 0 0 0 0 0 0 0 0 0 0 0 0 0 0 0 127 0" result="hardAlpha"/>
<feOffset dy="6.2"/>
<feComposite in2="hardAlpha" operator="arithmetic" k2="-1" k3="1"/>
<feColorMatrix type="matrix" values="0 0 0 0 0.898039 0 0 0 0 0.913725 0 0 0 0 0.94902 0 0 0 1 0"/>
<feBlend mode="normal" in2="shape" result="effect1_innerShadow_961_75103"/>
</filter>
<linearGradient id="paint0_linear_961_75103" x1="234.897" y1="91.857" x2="225.319" y2="87.6469" gradientUnits="userSpaceOnUse">
<stop stop-color="#D4E8FF"/>
<stop offset="0.902043" stop-color="#D4E8FF" stop-opacity="0"/>
</linearGradient>
<linearGradient id="paint1_linear_961_75103" x1="209.875" y1="91.857" x2="200.297" y2="87.6469" gradientUnits="userSpaceOnUse">
<stop stop-color="#D4E8FF"/>
<stop offset="0.902043" stop-color="#D4E8FF" stop-opacity="0"/>
</linearGradient>
<clipPath id="clip0_961_75103">
<rect width="320" height="155" rx="12" fill="white"/>
</clipPath>
<clipPath id="clip1_961_75103">
<rect x="210.188" y="113.07" width="11.6279" height="15.942" rx="1.08696" fill="white"/>
</clipPath>
</defs>
</svg>
