<svg width="24" height="24" viewBox="0 0 24 24" fill="none" xmlns="http://www.w3.org/2000/svg">
<path fill-rule="evenodd" clip-rule="evenodd" d="M12 10C10.8954 10 10 10.8954 10 12C10 13.1046 10.8954 14 12 14C13.1046 14 14 13.1046 14 12C14 10.8954 13.1046 10 12 10ZM8 12C8 9.79086 9.79086 8 12 8C14.2091 8 16 9.79086 16 12C16 14.2091 14.2091 16 12 16C9.79086 16 8 14.2091 8 12Z" fill="#1C222B"/>
<path fill-rule="evenodd" clip-rule="evenodd" d="M8.4921 2.05267C8.75992 1.96213 9.05355 1.98919 9.30032 2.12715L11.9998 3.63635L14.6994 2.12715C14.9457 1.98944 15.2387 1.96222 15.5062 2.05219C16.7951 2.48576 17.9907 3.15872 19.03 4.03573C19.2543 4.22498 19.3842 4.5032 19.3851 4.79667L19.3952 7.80593L22.0647 9.32637C22.3171 9.4701 22.4945 9.71645 22.5509 10.0014C22.8115 11.3198 22.8115 12.6765 22.5509 13.9949C22.4945 14.2801 22.3168 14.5266 22.064 14.6703L19.3957 16.1871L19.3823 19.1969C19.381 19.4892 19.2519 19.7663 19.029 19.9553C17.9912 20.835 16.7967 21.5108 15.5081 21.9472C15.2399 22.038 14.9458 22.0109 14.6988 21.8725L12.0041 20.3637L9.29974 21.8732C9.05354 22.0106 8.76077 22.0377 8.49352 21.9478C7.20456 21.5142 6.009 20.8413 4.96964 19.9643C4.74535 19.775 4.61551 19.4968 4.61453 19.2033L4.6045 16.1941L1.93309 14.6727C1.68071 14.529 1.50329 14.2826 1.44696 13.9977C1.1863 12.6793 1.1863 11.3226 1.44696 10.0042C1.50334 9.71899 1.68104 9.47245 1.93377 9.32878L4.6021 7.81192L4.61548 4.80212C4.61678 4.50969 4.74601 4.23249 4.96916 4.04349C6.00761 3.16394 7.20288 2.48848 8.4921 2.05267ZM15.276 4.09613L12.6753 5.55004C12.5262 5.63342 12.3582 5.67719 12.1873 5.67719H11.8123C11.6415 5.67719 11.4735 5.63342 11.3244 5.55004L8.72455 4.09659C7.96928 4.39418 7.25881 4.7948 6.61334 5.28701L6.60046 8.18601C6.59965 8.36752 6.54946 8.54539 6.45525 8.70054C6.39647 8.79736 6.33895 8.89525 6.28353 8.99331C6.19451 9.1508 6.06444 9.2812 5.90716 9.3706L3.33405 10.8333C3.22392 11.608 3.22394 12.3944 3.33411 13.169L5.91066 14.6363C6.0746 14.7297 6.20878 14.8675 6.29771 15.0339C6.34197 15.1167 6.39177 15.2011 6.44787 15.2896C6.54877 15.4488 6.60265 15.6332 6.60327 15.8217L6.61293 18.7188C7.2587 19.2091 7.96914 19.608 8.7241 19.904L11.3296 18.4496C11.4786 18.3665 11.6464 18.3228 11.817 18.3228H12.192C12.3631 18.3228 12.5313 18.3667 12.6806 18.4503L15.2752 19.9031C16.0298 19.6052 16.7396 19.2045 17.3845 18.7123L17.3974 15.8131C17.3982 15.6315 17.4484 15.4537 17.5426 15.2985C17.6013 15.2017 17.6589 15.1038 17.7143 15.0058C17.8033 14.8483 17.9334 14.7179 18.0906 14.6285L20.6638 13.1657C20.7739 12.3911 20.7739 11.6047 20.6637 10.83L18.089 9.36364C17.9251 9.27027 17.7909 9.13244 17.702 8.96607C17.6577 8.88326 17.6079 8.79892 17.5518 8.71041C17.4509 8.55124 17.397 8.36679 17.3964 8.17833L17.3868 5.28122C16.7411 4.79094 16.0308 4.39213 15.276 4.09613Z" fill="#1C222B"/>
</svg>
