<svg width="20" height="20" viewBox="0 0 20 20" fill="none" xmlns="http://www.w3.org/2000/svg">
<path d="M10 7C13.866 7 17 5.88071 17 4.5C17 3.11929 13.866 2 10 2C6.13401 2 3 3.11929 3 4.5C3 5.88071 6.13401 7 10 7Z" fill="#DDE2ED"/>
<path fill-rule="evenodd" clip-rule="evenodd" d="M10 7C13.866 7 17 5.88071 17 4.5V15.5C17 16.8807 13.866 18 10 18C6.13401 18 3 16.8807 3 15.5V4.5C3 5.88071 6.13401 7 10 7Z" fill="white"/>
<path fill-rule="evenodd" clip-rule="evenodd" d="M17.0951 2.76283C17.5695 3.16346 18 3.74631 18 4.5V15.5C18 16.2537 17.5695 16.8365 17.0951 17.2372C16.616 17.6417 15.982 17.961 15.2861 18.2095C13.8856 18.7097 12.0166 19 10 19C7.98341 19 6.1144 18.7097 4.71392 18.2095C4.01803 17.961 3.38405 17.6417 2.90494 17.2372C2.43047 16.8365 2 16.2537 2 15.5V4.5C2 3.74631 2.43047 3.16346 2.90494 2.76283C3.38405 2.35829 4.01803 2.03902 4.71392 1.79049C6.1144 1.29032 7.98341 1 10 1C12.0166 1 13.8856 1.29032 15.2861 1.79049C15.982 2.03902 16.616 2.35829 17.0951 2.76283ZM10 2C13.866 2 17 3.11929 17 4.5V15.5C17 16.8807 13.866 18 10 18C6.13401 18 3 16.8807 3 15.5V4.5C3 3.11929 6.13401 2 10 2Z" fill="#4D5564"/>
</svg>
