<svg width="24" height="24" viewBox="0 0 24 24" fill="none" xmlns="http://www.w3.org/2000/svg">
<path d="M11.9995 8C16.4178 8 19.9995 6.88071 19.9995 5.5C19.9995 4.11929 16.4178 3 11.9995 3C7.58123 3 3.99951 4.11929 3.99951 5.5C3.99951 6.88071 7.58123 8 11.9995 8Z" fill="#CA6AFB"/>
<path fill-rule="evenodd" clip-rule="evenodd" d="M11.9995 8C16.4178 8 19.9995 6.88071 19.9995 5.5V18C19.9995 19.6569 16.4178 21 11.9995 21C7.58123 21 3.99951 19.6569 3.99951 18V5.5C3.99951 6.88071 7.58123 8 11.9995 8Z" fill="#E1A6FF"/>
<path fill-rule="evenodd" clip-rule="evenodd" d="M5.98453 2.58764C7.57701 2.08998 9.70333 1.80078 11.9993 1.80078C14.2953 1.80078 16.4216 2.08998 18.0141 2.58764C18.8032 2.83423 19.5291 3.15273 20.0837 3.56252C20.6149 3.95496 21.1993 4.59611 21.1993 5.50078V18.0008C21.1993 18.8814 20.7191 19.5767 20.1667 20.0665C19.613 20.5574 18.8801 20.9448 18.0775 21.2457C16.4635 21.851 14.3142 22.2008 11.9993 22.2008C9.68438 22.2008 7.53514 21.851 5.92112 21.2457C5.11853 20.9448 4.38568 20.5574 3.8319 20.0665C3.27952 19.5767 2.79932 18.8814 2.79932 18.0008V5.50078C2.79932 4.59611 3.38375 3.95495 3.91491 3.56252C4.46955 3.15273 5.19543 2.83423 5.98453 2.58764ZM11.9993 3.00078C7.58103 3.00078 3.99931 4.12007 3.99931 5.50078V18.0008C3.99931 19.6577 7.58103 21.0008 11.9993 21.0008C16.4176 21.0008 19.9993 19.6577 19.9993 18.0008V5.50078C19.9993 4.12007 16.4176 3.00078 11.9993 3.00078Z" fill="#9A36CD"/>
</svg>
