<svg width="20" height="22" viewBox="0 0 20 22" fill="none" xmlns="http://www.w3.org/2000/svg">
<path fill-rule="evenodd" clip-rule="evenodd" d="M3.98526 1.58667C5.57774 1.08901 7.70406 0.799805 10 0.799805C12.296 0.799805 14.4223 1.08901 16.0148 1.58667C16.8039 1.83326 17.5298 2.15176 18.0844 2.56155C18.6156 2.95399 19.2 3.59514 19.2 4.49981V16.9998C19.2 17.8804 18.7198 18.5757 18.1674 19.0655C17.6137 19.5564 16.8808 19.9438 16.0782 20.2447C14.4642 20.85 12.3149 21.1998 10 21.1998C7.68511 21.1998 5.53587 20.85 3.92185 20.2447C3.11926 19.9438 2.38641 19.5564 1.83263 19.0655C1.28025 18.5757 0.800049 17.8804 0.800049 16.9998V4.49981C0.800049 3.59514 1.38448 2.95398 1.91564 2.56155C2.47028 2.15176 3.19616 1.83326 3.98526 1.58667ZM10 1.99981C5.58176 1.99981 2.00004 3.1191 2.00004 4.49981V16.9998C2.00004 18.6567 5.58176 19.9998 10 19.9998C14.4183 19.9998 18 18.6567 18 16.9998V4.49981C18 3.1191 14.4183 1.99981 10 1.99981Z" fill="#4D5564"/>
</svg>
